G04 #@! TF.FileFunction,Soldermask,Bot*
%FSLAX46Y46*%
G04 Gerber Fmt 4.6, Leading zero omitted, Abs format (unit mm)*
G04 Created by KiCad (PCBNEW (2015-01-16 BZR 5376)-product) date 07/14/15 18:55:14*
%MOMM*%
G01*
G04 APERTURE LIST*
%ADD10C,0.100000*%
%ADD11C,0.150000*%
%ADD12C,2.200000*%
%ADD13C,1.700000*%
%ADD14C,1.950000*%
%ADD15C,1.501140*%
%ADD16R,1.699260X3.500120*%
%ADD17O,1.699260X3.500120*%
%ADD18C,3.799840*%
%ADD19R,2.032000X2.032000*%
%ADD20O,2.032000X2.032000*%
%ADD21R,1.727200X1.727200*%
%ADD22O,1.727200X1.727200*%
%ADD23R,2.200000X1.500000*%
%ADD24R,2.032000X1.727200*%
%ADD25O,2.032000X1.727200*%
G04 APERTURE END LIST*
D10*
D11*
X22833200Y-370709000D02*
G75*
G03X22833200Y-370709000I-1143000J0D01*
G01*
X20079200Y-376709000D02*
G75*
G03X20079200Y-376709000I-889000J0D01*
G01*
X20079200Y-371709000D02*
G75*
G03X20079200Y-371709000I-889000J0D01*
G01*
X22833200Y-377709000D02*
G75*
G03X22833200Y-377709000I-1143000J0D01*
G01*
X22833200Y-389899000D02*
G75*
G03X22833200Y-389899000I-1143000J0D01*
G01*
X20079200Y-395899000D02*
G75*
G03X20079200Y-395899000I-889000J0D01*
G01*
X20079200Y-390899000D02*
G75*
G03X20079200Y-390899000I-889000J0D01*
G01*
X22833200Y-396899000D02*
G75*
G03X22833200Y-396899000I-1143000J0D01*
G01*
X22833200Y-409089000D02*
G75*
G03X22833200Y-409089000I-1143000J0D01*
G01*
X20079200Y-415089000D02*
G75*
G03X20079200Y-415089000I-889000J0D01*
G01*
X20079200Y-410089000D02*
G75*
G03X20079200Y-410089000I-889000J0D01*
G01*
X22833200Y-416089000D02*
G75*
G03X22833200Y-416089000I-1143000J0D01*
G01*
X29377000Y-180792000D02*
G75*
G03X29377000Y-180792000I-1143000J0D01*
G01*
X31623000Y-174792000D02*
G75*
G03X31623000Y-174792000I-889000J0D01*
G01*
X31623000Y-179792000D02*
G75*
G03X31623000Y-179792000I-889000J0D01*
G01*
X29377000Y-173792000D02*
G75*
G03X29377000Y-173792000I-1143000J0D01*
G01*
D12*
X21690200Y-370709000D03*
X21690200Y-377709000D03*
D13*
X19190200Y-371709000D03*
X19190200Y-376709000D03*
D12*
X21690200Y-389899000D03*
X21690200Y-396899000D03*
D13*
X19190200Y-390899000D03*
X19190200Y-395899000D03*
D12*
X21690200Y-409089000D03*
X21690200Y-416089000D03*
D13*
X19190200Y-410089000D03*
X19190200Y-415089000D03*
D14*
X105940000Y-219202000D03*
X85940000Y-219202000D03*
D15*
X76902000Y-292583000D03*
X74362000Y-292583000D03*
D16*
X71583460Y-280924000D03*
D17*
X69043460Y-280924000D03*
X74123460Y-280924000D03*
D18*
X71583460Y-264160000D03*
D19*
X69521300Y-319289000D03*
D20*
X72061300Y-319289000D03*
D21*
X27008300Y-188933000D03*
D22*
X29548300Y-188933000D03*
X27008300Y-191473000D03*
X29548300Y-191473000D03*
X27008300Y-194013000D03*
X29548300Y-194013000D03*
D12*
X28234000Y-180792000D03*
X28234000Y-173792000D03*
D13*
X30734000Y-179792000D03*
X30734000Y-174792000D03*
D15*
X68507000Y-292583000D03*
X65967000Y-292583000D03*
D23*
X395798000Y-41579800D03*
X395798000Y-37579800D03*
X395798000Y-65567600D03*
X395798000Y-61567600D03*
X395798000Y-89555300D03*
X395798000Y-85555300D03*
X395798000Y-113543000D03*
X395798000Y-109543000D03*
X395798000Y-137531000D03*
X395798000Y-133531000D03*
X395798000Y-161518000D03*
X395798000Y-157518000D03*
X395798000Y-185506000D03*
X395798000Y-181506000D03*
X395798000Y-209494000D03*
X395798000Y-205494000D03*
X395798000Y-233482000D03*
X395798000Y-229482000D03*
X395798000Y-257470000D03*
X395798000Y-253470000D03*
X395798000Y-281457000D03*
X395798000Y-277457000D03*
X395798000Y-305445000D03*
X395798000Y-301445000D03*
X395798000Y-329433000D03*
X395798000Y-325433000D03*
X395798000Y-353421000D03*
X395798000Y-349421000D03*
X395798000Y-377408000D03*
X395798000Y-373408000D03*
X395798000Y-401396000D03*
X395798000Y-397396000D03*
X371810000Y-41579800D03*
X371810000Y-37579800D03*
X371810000Y-65567600D03*
X371810000Y-61567600D03*
X371810000Y-89555300D03*
X371810000Y-85555300D03*
X371810000Y-113543000D03*
X371810000Y-109543000D03*
X371810000Y-137531000D03*
X371810000Y-133531000D03*
X371810000Y-161518000D03*
X371810000Y-157518000D03*
X371810000Y-185506000D03*
X371810000Y-181506000D03*
X371810000Y-209494000D03*
X371810000Y-205494000D03*
X371810000Y-233482000D03*
X371810000Y-229482000D03*
X371810000Y-257470000D03*
X371810000Y-253470000D03*
X371810000Y-281457000D03*
X371810000Y-277457000D03*
X371810000Y-305445000D03*
X371810000Y-301445000D03*
X371810000Y-329433000D03*
X371810000Y-325433000D03*
X371810000Y-353421000D03*
X371810000Y-349421000D03*
X371810000Y-377408000D03*
X371810000Y-373408000D03*
X371810000Y-401396000D03*
X371810000Y-397396000D03*
X347823000Y-41579800D03*
X347823000Y-37579800D03*
X347823000Y-65567600D03*
X347823000Y-61567600D03*
X347823000Y-89555300D03*
X347823000Y-85555300D03*
X347823000Y-113543000D03*
X347823000Y-109543000D03*
X347823000Y-137531000D03*
X347823000Y-133531000D03*
X347823000Y-161518000D03*
X347823000Y-157518000D03*
X347823000Y-185506000D03*
X347823000Y-181506000D03*
X347823000Y-209494000D03*
X347823000Y-205494000D03*
X347823000Y-233482000D03*
X347823000Y-229482000D03*
X347823000Y-257470000D03*
X347823000Y-253470000D03*
X347823000Y-281457000D03*
X347823000Y-277457000D03*
X347823000Y-305445000D03*
X347823000Y-301445000D03*
X347823000Y-329433000D03*
X347823000Y-325433000D03*
X347823000Y-353421000D03*
X347823000Y-349421000D03*
X347823000Y-377408000D03*
X347823000Y-373408000D03*
X347823000Y-401396000D03*
X347823000Y-397396000D03*
X323835000Y-41579800D03*
X323835000Y-37579800D03*
X323835000Y-65567600D03*
X323835000Y-61567600D03*
X323835000Y-89555300D03*
X323835000Y-85555300D03*
X323835000Y-113543000D03*
X323835000Y-109543000D03*
X323835000Y-137531000D03*
X323835000Y-133531000D03*
X323835000Y-161518000D03*
X323835000Y-157518000D03*
X323835000Y-185506000D03*
X323835000Y-181506000D03*
X323835000Y-209494000D03*
X323835000Y-205494000D03*
X323835000Y-233482000D03*
X323835000Y-229482000D03*
X323835000Y-257470000D03*
X323835000Y-253470000D03*
X323835000Y-281457000D03*
X323835000Y-277457000D03*
X323835000Y-305445000D03*
X323835000Y-301445000D03*
X323835000Y-329433000D03*
X323835000Y-325433000D03*
X323835000Y-353421000D03*
X323835000Y-349421000D03*
X323835000Y-377408000D03*
X323835000Y-373408000D03*
X323835000Y-401396000D03*
X323835000Y-397396000D03*
X299847000Y-41579800D03*
X299847000Y-37579800D03*
X299847000Y-65567600D03*
X299847000Y-61567600D03*
X299847000Y-89555300D03*
X299847000Y-85555300D03*
X299847000Y-113543000D03*
X299847000Y-109543000D03*
X299847000Y-137531000D03*
X299847000Y-133531000D03*
X299847000Y-161518000D03*
X299847000Y-157518000D03*
X299847000Y-185506000D03*
X299847000Y-181506000D03*
X299847000Y-209494000D03*
X299847000Y-205494000D03*
X299847000Y-233482000D03*
X299847000Y-229482000D03*
X299847000Y-257470000D03*
X299847000Y-253470000D03*
X299847000Y-281457000D03*
X299847000Y-277457000D03*
X299847000Y-305445000D03*
X299847000Y-301445000D03*
X299847000Y-329433000D03*
X299847000Y-325433000D03*
X299847000Y-353421000D03*
X299847000Y-349421000D03*
X299847000Y-377408000D03*
X299847000Y-373408000D03*
X299847000Y-401396000D03*
X299847000Y-397396000D03*
X275859000Y-41579800D03*
X275859000Y-37579800D03*
X275859000Y-65567600D03*
X275859000Y-61567600D03*
X275859000Y-89555300D03*
X275859000Y-85555300D03*
X275859000Y-113543000D03*
X275859000Y-109543000D03*
X275859000Y-137531000D03*
X275859000Y-133531000D03*
X275859000Y-161518000D03*
X275859000Y-157518000D03*
X275859000Y-185506000D03*
X275859000Y-181506000D03*
X275859000Y-209494000D03*
X275859000Y-205494000D03*
X275859000Y-233482000D03*
X275859000Y-229482000D03*
X275859000Y-257470000D03*
X275859000Y-253470000D03*
X275859000Y-281457000D03*
X275859000Y-277457000D03*
X275859000Y-305445000D03*
X275859000Y-301445000D03*
X275859000Y-329433000D03*
X275859000Y-325433000D03*
X275859000Y-353421000D03*
X275859000Y-349421000D03*
X275859000Y-377408000D03*
X275859000Y-373408000D03*
X275859000Y-401396000D03*
X275859000Y-397396000D03*
X251871000Y-41579800D03*
X251871000Y-37579800D03*
X251871000Y-65567600D03*
X251871000Y-61567600D03*
X251871000Y-89555300D03*
X251871000Y-85555300D03*
X251871000Y-113543000D03*
X251871000Y-109543000D03*
X251871000Y-137531000D03*
X251871000Y-133531000D03*
X251871000Y-161518000D03*
X251871000Y-157518000D03*
X251871000Y-185506000D03*
X251871000Y-181506000D03*
X251871000Y-209494000D03*
X251871000Y-205494000D03*
X251871000Y-233482000D03*
X251871000Y-229482000D03*
X251871000Y-257470000D03*
X251871000Y-253470000D03*
X251871000Y-281457000D03*
X251871000Y-277457000D03*
X251871000Y-305445000D03*
X251871000Y-301445000D03*
X251871000Y-329433000D03*
X251871000Y-325433000D03*
X251871000Y-353421000D03*
X251871000Y-349421000D03*
X251871000Y-377408000D03*
X251871000Y-373408000D03*
X251871000Y-401396000D03*
X251871000Y-397396000D03*
X227884000Y-41579800D03*
X227884000Y-37579800D03*
X227884000Y-65567600D03*
X227884000Y-61567600D03*
X227884000Y-89555300D03*
X227884000Y-85555300D03*
X227884000Y-113543000D03*
X227884000Y-109543000D03*
X227884000Y-137531000D03*
X227884000Y-133531000D03*
X227884000Y-161518000D03*
X227884000Y-157518000D03*
X227884000Y-185506000D03*
X227884000Y-181506000D03*
X227884000Y-209494000D03*
X227884000Y-205494000D03*
X227884000Y-233482000D03*
X227884000Y-229482000D03*
X227884000Y-257470000D03*
X227884000Y-253470000D03*
X227884000Y-281457000D03*
X227884000Y-277457000D03*
X227884000Y-305445000D03*
X227884000Y-301445000D03*
X227884000Y-329433000D03*
X227884000Y-325433000D03*
X227884000Y-353421000D03*
X227884000Y-349421000D03*
X227884000Y-377408000D03*
X227884000Y-373408000D03*
X227884000Y-401396000D03*
X227884000Y-397396000D03*
X203896000Y-41579800D03*
X203896000Y-37579800D03*
X203896000Y-65567600D03*
X203896000Y-61567600D03*
X203896000Y-89555300D03*
X203896000Y-85555300D03*
X203896000Y-113543000D03*
X203896000Y-109543000D03*
X203896000Y-137531000D03*
X203896000Y-133531000D03*
X203896000Y-161519000D03*
X203896000Y-157519000D03*
X203896000Y-185506000D03*
X203896000Y-181506000D03*
X203896000Y-209494000D03*
X203896000Y-205494000D03*
X203896000Y-233482000D03*
X203896000Y-229482000D03*
X203896000Y-257470000D03*
X203896000Y-253470000D03*
X203896000Y-281457000D03*
X203896000Y-277457000D03*
X203896000Y-305445000D03*
X203896000Y-301445000D03*
X203896000Y-329433000D03*
X203896000Y-325433000D03*
X203896000Y-353421000D03*
X203896000Y-349421000D03*
X203896000Y-377408000D03*
X203896000Y-373408000D03*
X203896000Y-401396000D03*
X203896000Y-397396000D03*
X179908000Y-41579800D03*
X179908000Y-37579800D03*
X179908000Y-65567600D03*
X179908000Y-61567600D03*
X179908000Y-89555300D03*
X179908000Y-85555300D03*
X179908000Y-113543000D03*
X179908000Y-109543000D03*
X179908000Y-137531000D03*
X179908000Y-133531000D03*
X179908000Y-161519000D03*
X179908000Y-157519000D03*
X179908000Y-185506000D03*
X179908000Y-181506000D03*
X179908000Y-209494000D03*
X179908000Y-205494000D03*
X179908000Y-233482000D03*
X179908000Y-229482000D03*
X179908000Y-257470000D03*
X179908000Y-253470000D03*
X179908000Y-281457000D03*
X179908000Y-277457000D03*
X179908000Y-305445000D03*
X179908000Y-301445000D03*
X179908000Y-329433000D03*
X179908000Y-325433000D03*
X179908000Y-353421000D03*
X179908000Y-349421000D03*
X179908000Y-377408000D03*
X179908000Y-373408000D03*
X179908000Y-401396000D03*
X179908000Y-397396000D03*
X155920000Y-41579800D03*
X155920000Y-37579800D03*
X155920000Y-65567600D03*
X155920000Y-61567600D03*
X155920000Y-89555300D03*
X155920000Y-85555300D03*
X155920000Y-113543000D03*
X155920000Y-109543000D03*
X155920000Y-137531000D03*
X155920000Y-133531000D03*
X155920000Y-161519000D03*
X155920000Y-157519000D03*
X155920000Y-185506000D03*
X155920000Y-181506000D03*
X155920000Y-209494000D03*
X155920000Y-205494000D03*
X155920000Y-233482000D03*
X155920000Y-229482000D03*
X155920000Y-257470000D03*
X155920000Y-253470000D03*
X155920000Y-281457000D03*
X155920000Y-277457000D03*
X155920000Y-305445000D03*
X155920000Y-301445000D03*
X155920000Y-329433000D03*
X155920000Y-325433000D03*
X155920000Y-353421000D03*
X155920000Y-349421000D03*
X155920000Y-377408000D03*
X155920000Y-373408000D03*
X155920000Y-401396000D03*
X155920000Y-397396000D03*
X131933000Y-41579800D03*
X131933000Y-37579800D03*
X131933000Y-65567600D03*
X131933000Y-61567600D03*
X131933000Y-89555300D03*
X131933000Y-85555300D03*
X131933000Y-113543000D03*
X131933000Y-109543000D03*
X131933000Y-137531000D03*
X131933000Y-133531000D03*
X131933000Y-161519000D03*
X131933000Y-157519000D03*
X131933000Y-185506000D03*
X131933000Y-181506000D03*
X131933000Y-209494000D03*
X131933000Y-205494000D03*
X131933000Y-233482000D03*
X131933000Y-229482000D03*
X131933000Y-257470000D03*
X131933000Y-253470000D03*
X131933000Y-281457000D03*
X131933000Y-277457000D03*
X131933000Y-305445000D03*
X131933000Y-301445000D03*
X131933000Y-329433000D03*
X131933000Y-325433000D03*
X131933000Y-353421000D03*
X131933000Y-349421000D03*
X131933000Y-377408000D03*
X131933000Y-373408000D03*
X131933000Y-401396000D03*
X131933000Y-397396000D03*
X107945000Y-41579800D03*
X107945000Y-37579800D03*
X107945000Y-65567600D03*
X107945000Y-61567600D03*
X107945000Y-89555300D03*
X107945000Y-85555300D03*
X107945000Y-113543000D03*
X107945000Y-109543000D03*
X107945000Y-137531000D03*
X107945000Y-133531000D03*
X107945000Y-161519000D03*
X107945000Y-157519000D03*
X107945000Y-185506000D03*
X107945000Y-181506000D03*
X107945000Y-209494000D03*
X107945000Y-205494000D03*
X107945000Y-233482000D03*
X107945000Y-229482000D03*
X107945000Y-257470000D03*
X107945000Y-253470000D03*
X107945000Y-281457000D03*
X107945000Y-277457000D03*
X107945000Y-305445000D03*
X107945000Y-301445000D03*
X107945000Y-329433000D03*
X107945000Y-325433000D03*
X107945000Y-353421000D03*
X107945000Y-349421000D03*
X107945000Y-377408000D03*
X107945000Y-373408000D03*
X107945000Y-401396000D03*
X107945000Y-397396000D03*
X83957200Y-41579800D03*
X83957200Y-37579800D03*
X83957200Y-65567600D03*
X83957200Y-61567600D03*
X83957200Y-89555300D03*
X83957200Y-85555300D03*
X83957200Y-113543000D03*
X83957200Y-109543000D03*
X83957200Y-137531000D03*
X83957200Y-133531000D03*
X83957200Y-161519000D03*
X83957200Y-157519000D03*
X83957200Y-185506000D03*
X83957200Y-181506000D03*
X83957200Y-209494000D03*
X83957200Y-205494000D03*
X83957200Y-233482000D03*
X83957200Y-229482000D03*
X83957200Y-257470000D03*
X83957200Y-253470000D03*
X83957200Y-281457000D03*
X83957200Y-277457000D03*
X83957200Y-305445000D03*
X83957200Y-301445000D03*
X83957200Y-329433000D03*
X83957200Y-325433000D03*
X83957200Y-353421000D03*
X83957200Y-349421000D03*
X83957200Y-377408000D03*
X83957200Y-373408000D03*
X83957200Y-401396000D03*
X83957200Y-397396000D03*
X59969400Y-41579800D03*
X59969400Y-37579800D03*
X59969400Y-65567600D03*
X59969400Y-61567600D03*
X59969400Y-89555300D03*
X59969400Y-85555300D03*
X59969400Y-113543000D03*
X59969400Y-109543000D03*
X59969400Y-137531000D03*
X59969400Y-133531000D03*
X59969400Y-161519000D03*
X59969400Y-157519000D03*
X59969400Y-185506000D03*
X59969400Y-181506000D03*
X59969400Y-209494000D03*
X59969400Y-205494000D03*
X59969400Y-233482000D03*
X59969400Y-229482000D03*
X59969400Y-257470000D03*
X59969400Y-253470000D03*
X59969400Y-281457000D03*
X59969400Y-277457000D03*
X59969400Y-305445000D03*
X59969400Y-301445000D03*
X59969400Y-329433000D03*
X59969400Y-325433000D03*
X59969400Y-353421000D03*
X59969400Y-349421000D03*
X59969400Y-377408000D03*
X59969400Y-373408000D03*
X59969400Y-401396000D03*
X59969400Y-397396000D03*
X35981600Y-41579800D03*
X35981600Y-37579800D03*
X35981600Y-65567600D03*
X35981600Y-61567600D03*
X35981600Y-89555300D03*
X35981600Y-85555300D03*
X35981600Y-113543000D03*
X35981600Y-109543000D03*
X35981600Y-137531000D03*
X35981600Y-133531000D03*
X35981600Y-161519000D03*
X35981600Y-157519000D03*
X35981600Y-185506000D03*
X35981600Y-181506000D03*
X35981600Y-209494000D03*
X35981600Y-205494000D03*
X35981600Y-233482000D03*
X35981600Y-229482000D03*
X35981600Y-257470000D03*
X35981600Y-253470000D03*
X35981600Y-281457000D03*
X35981600Y-277457000D03*
X35981600Y-305445000D03*
X35981600Y-301445000D03*
X35981600Y-329433000D03*
X35981600Y-325433000D03*
X35981600Y-353421000D03*
X35981600Y-349421000D03*
X35981600Y-377408000D03*
X35981600Y-373408000D03*
X35981600Y-401396000D03*
X35981600Y-397396000D03*
D24*
X27093200Y-201718000D03*
D25*
X27093200Y-204258000D03*
X27093200Y-206798000D03*
X27093200Y-209338000D03*
X27093200Y-211878000D03*
X27093200Y-214418000D03*
X27093200Y-216958000D03*
X27093200Y-219498000D03*
X27093200Y-222038000D03*
X27093200Y-224578000D03*
X27093200Y-227118000D03*
X27093200Y-229658000D03*
X27093200Y-232198000D03*
X27093200Y-234738000D03*
X27093200Y-237278000D03*
X27093200Y-239818000D03*
M02*
