M48
INCH,TZ
T1C0.025
T2C0.031
T3C0.032
T4C0.039
T5C0.040
T6C0.047
T7C0.051
T8C0.098
T9C0.150
%
G90
G05
T1
X11200Y-73000
X11433Y-92876
X11750Y-83000
X12250Y-83850
X12313Y-88994
X12800Y-81300
X12872Y-87636
X13300Y-80300
X13362Y-88527
X13700Y-75100
X13700Y-77500
X13875Y-100524
X13984Y-88628
X14414Y-75083
X14450Y-83250
X15011Y-88138
X15800Y-84000
X15803Y-88730
X15988Y-86133
X16443Y-85890
X16510Y-87157
X16652Y-88843
X16800Y-85200
X17559Y-87138
X17890Y-86672
X18500Y-88600
X19053Y-87479
X20522Y-85811
X21954Y-99156
X22589Y-62772
X22640Y-95953
X22904Y-110022
X23470Y-96547
X23588Y-73770
X23588Y-120908
X23594Y-129094
X24060Y-75473
X24080Y-26633
X24080Y-36097
X24080Y-139938
X24622Y-52271
X24733Y-81863
X24893Y-61807
X25066Y-98280
X25128Y-76361
X25394Y-96646
X25600Y-86600
X25819Y-76427
X25844Y-97320
X26100Y-95200
X26103Y-99166
X26155Y-53929
X27350Y-43481
X27408Y-98882
X27600Y-91200
X27700Y-86600
X28030Y-82025
X28749Y-98183
X30619Y-76258
X32261Y-73113
X32896Y-129029
X32961Y-35858
X33100Y-120908
X33159Y-45662
X33159Y-54741
X33168Y-139938
X33585Y-66369
X33585Y-76461
X33972Y-99482
X41746Y-63392
X42056Y-100712
X42554Y-26633
X42558Y-139938
X42558Y-45662
X42558Y-54741
X42558Y-111829
X42630Y-129101
X42892Y-73724
X44047Y-101434
X51013Y-75083
X51635Y-120908
X51637Y-26633
X52130Y-100712
X53001Y-35042
X53120Y-97307
X59742Y-80138
X61196Y-62993
X61268Y-45662
X61587Y-111829
X61588Y-54741
X61588Y-100712
X61588Y-120908
X61588Y-139938
X61653Y-129103
X61654Y-34663
X61935Y-79790
X63212Y-96560
X68721Y-96143
X70667Y-26633
X70667Y-45662
X70667Y-64692
X70667Y-111829
X70667Y-139938
X70898Y-129053
X78807Y-79394
X80238Y-54741
X80238Y-120908
X80289Y-100764
X80494Y-34642
X81215Y-95726
X87611Y-79146
X89689Y-129095
X89696Y-45662
X89696Y-54741
X89696Y-64691
X89696Y-111829
X89696Y-139938
X89768Y-34661
X91097Y-97739
X91183Y-78969
X97956Y-71757
X97963Y-26285
X97963Y-61039
X98775Y-130859
X99267Y-120908
X99294Y-100739
X99811Y-111829
X100257Y-95268
X101554Y-78746
X106782Y-71736
X107801Y-62220
X108337Y-34662
X108720Y-139938
X108725Y-26633
X108725Y-45662
X108725Y-120908
X116650Y-70827
X116992Y-62303
X116992Y-71757
X117239Y-94824
X117804Y-94526
X117804Y-45662
X117804Y-100712
X117804Y-130859
X117805Y-34545
X118356Y-111829
X127435Y-26633
X127440Y-120908
X127570Y-64691
X127755Y-111829
X127755Y-139938
X127826Y-129101
X128247Y-43235
X128247Y-52722
X132924Y-94522
X136022Y-43235
X136022Y-52728
X136834Y-26633
X136834Y-64691
X136834Y-100712
X136834Y-120908
X145101Y-43191
X145101Y-52728
X146405Y-120908
X146453Y-100760
X146461Y-129067
X146866Y-26633
X146866Y-64691
X146866Y-94254
X146866Y-111829
X146866Y-139938
X155580Y-92800
T2
X7555Y-146342
X7555Y-148311
X7555Y-153897
X7555Y-155866
X7555Y-161452
X7555Y-163421
X12100Y-68816
X12100Y-70784
T3
X25971Y-115190
X26971Y-115190
X29276Y-115190
X30276Y-115190
T4
X27182Y-110600
X28182Y-110600
X29182Y-110600
T5
X10633Y-74383
X10633Y-75383
X10633Y-76383
X10667Y-79417
X10667Y-80417
X10667Y-81417
X10667Y-82417
X10667Y-83417
X10667Y-84417
X10667Y-85417
X10667Y-86417
X10667Y-87417
X10667Y-88417
X10667Y-89417
X10667Y-90417
X10667Y-91417
X10667Y-92417
X10667Y-93417
X10667Y-94417
X11633Y-74383
X11633Y-75383
X11633Y-76383
X27371Y-125704
X28371Y-125704
T6
X8539Y-145948
X8539Y-148704
X8539Y-153504
X8539Y-156259
X8539Y-161059
X8539Y-163815
X11116Y-68422
X11116Y-71178
T7
X33835Y-86300
X41709Y-86300
T8
X7900Y-9300
X7900Y-86300
X7900Y-144100
X10400Y-163500
X85300Y-9300
X85700Y-163500
X162100Y-9300
X162100Y-86200
X162100Y-163500
T9
X28182Y-104000
T0
M30
