G04 #@! TF.FileFunction,Soldermask,Top*
%FSLAX46Y46*%
G04 Gerber Fmt 4.6, Leading zero omitted, Abs format (unit mm)*
G04 Created by KiCad (PCBNEW (2015-10-10 BZR 6258)-product) date Thursday, October 15, 2015 'PMt' 09:29:02 PM*
%MOMM*%
G01*
G04 APERTURE LIST*
%ADD10C,0.100000*%
%ADD11C,0.150000*%
%ADD12C,2.032000*%
%ADD13C,2.000000*%
%ADD14R,3.500120X1.800860*%
%ADD15R,0.450000X0.750000*%
%ADD16R,1.500000X0.600000*%
%ADD17R,2.000000X2.000000*%
%ADD18R,1.250000X1.250000*%
%ADD19C,2.200000*%
%ADD20C,1.700000*%
%ADD21C,1.950000*%
%ADD22C,1.501140*%
%ADD23R,1.699260X3.500120*%
%ADD24O,1.699260X3.500120*%
%ADD25C,3.799840*%
%ADD26R,1.727200X1.727200*%
%ADD27O,1.727200X1.727200*%
%ADD28R,0.762000X1.270000*%
%ADD29R,1.200000X0.750000*%
%ADD30R,0.750000X1.200000*%
%ADD31R,1.200000X0.900000*%
%ADD32O,4.000000X8.000000*%
%ADD33R,2.032000X1.727200*%
%ADD34O,2.032000X1.727200*%
G04 APERTURE END LIST*
D10*
D11*
X19634700Y-376709000D02*
G75*
G03X19634700Y-376709000I-444500J0D01*
G01*
X19634700Y-371709000D02*
G75*
G03X19634700Y-371709000I-444500J0D01*
G01*
X22325200Y-370709000D02*
G75*
G03X22325200Y-370709000I-635000J0D01*
G01*
X22325200Y-377709000D02*
G75*
G03X22325200Y-377709000I-635000J0D01*
G01*
X19634700Y-395899000D02*
G75*
G03X19634700Y-395899000I-444500J0D01*
G01*
X19634700Y-390899000D02*
G75*
G03X19634700Y-390899000I-444500J0D01*
G01*
X22325200Y-389899000D02*
G75*
G03X22325200Y-389899000I-635000J0D01*
G01*
X22325200Y-396899000D02*
G75*
G03X22325200Y-396899000I-635000J0D01*
G01*
X19634700Y-415089000D02*
G75*
G03X19634700Y-415089000I-444500J0D01*
G01*
X19634700Y-410089000D02*
G75*
G03X19634700Y-410089000I-444500J0D01*
G01*
X22325200Y-409089000D02*
G75*
G03X22325200Y-409089000I-635000J0D01*
G01*
X22325200Y-416089000D02*
G75*
G03X22325200Y-416089000I-635000J0D01*
G01*
D12*
X260136600Y-238842800D03*
X260136600Y-236302800D03*
X262676600Y-238842800D03*
X262676600Y-236302800D03*
X270296600Y-238842800D03*
X272836600Y-236302800D03*
X272836600Y-238842800D03*
X270296600Y-236302800D03*
X265216600Y-241382800D03*
X265216600Y-238842800D03*
X267756600Y-236302800D03*
X265216600Y-236302800D03*
X267756600Y-238842800D03*
X270296600Y-241382800D03*
X267756600Y-243922800D03*
X270296600Y-243922800D03*
X267756600Y-241382800D03*
X272836600Y-241382800D03*
X267756600Y-249002800D03*
X270296600Y-251542800D03*
X272836600Y-251542800D03*
X267756600Y-251542800D03*
X270296600Y-249002800D03*
X272836600Y-249002800D03*
X265216600Y-249002800D03*
X262676600Y-251542800D03*
X265216600Y-251542800D03*
X260136600Y-249002800D03*
X262676600Y-249002800D03*
X265216600Y-246462800D03*
X260136600Y-251542800D03*
X262676600Y-241382800D03*
X260136600Y-241382800D03*
X260136600Y-243922800D03*
X262676600Y-243922800D03*
X265216600Y-243922800D03*
X260136600Y-246462800D03*
X262676600Y-246462800D03*
X272836600Y-243922800D03*
X270296600Y-246462800D03*
X272836600Y-246462800D03*
X267756600Y-246462800D03*
X236006600Y-241382800D03*
X230926600Y-241382800D03*
X236006600Y-238842800D03*
X233466600Y-238842800D03*
X233466600Y-241382800D03*
X243626600Y-246462800D03*
X241086600Y-249002800D03*
X241086600Y-246462800D03*
X238546600Y-243922800D03*
X238546600Y-246462800D03*
X233466600Y-246462800D03*
X233466600Y-249002800D03*
X236006600Y-246462800D03*
X236006600Y-249002800D03*
X230926600Y-249002800D03*
X241086600Y-243922800D03*
X238546600Y-241382800D03*
X241086600Y-238842800D03*
X241086600Y-241382800D03*
X230926600Y-236302800D03*
X230926600Y-238842800D03*
X236006600Y-236302800D03*
X233466600Y-236302800D03*
X224576600Y-236302800D03*
X230926600Y-243922800D03*
X233466600Y-243922800D03*
X230926600Y-246462800D03*
X236006600Y-243922800D03*
X236006600Y-251542800D03*
X233466600Y-251542800D03*
X230926600Y-251542800D03*
X222036600Y-238842800D03*
X219496600Y-243922800D03*
X219496600Y-238842800D03*
X219496600Y-241382800D03*
X222036600Y-243922800D03*
X222036600Y-241382800D03*
X219496600Y-236302800D03*
X216956600Y-241382800D03*
X216956600Y-238842800D03*
X216956600Y-236302800D03*
X216956600Y-243922800D03*
X224576600Y-249002800D03*
X224576600Y-238842800D03*
X224576600Y-241382800D03*
X224576600Y-243922800D03*
X222036600Y-236302800D03*
X224576600Y-251542800D03*
X222036600Y-249002800D03*
X222036600Y-246462800D03*
X222036600Y-251542800D03*
X224576600Y-246462800D03*
X219496600Y-246462800D03*
X216956600Y-251542800D03*
X219496600Y-249002800D03*
X216956600Y-249002800D03*
X216956600Y-246462800D03*
X219496600Y-251542800D03*
X255056600Y-238842800D03*
X257596600Y-236302800D03*
X255056600Y-241382800D03*
X257596600Y-238842800D03*
X255056600Y-236302800D03*
X257596600Y-241382800D03*
X255056600Y-243922800D03*
X257596600Y-243922800D03*
X257596600Y-246462800D03*
X255056600Y-246462800D03*
X257596600Y-249002800D03*
X257596600Y-251542800D03*
X255056600Y-249002800D03*
X255056600Y-251542800D03*
X238546600Y-251542800D03*
X238546600Y-249002800D03*
X243626600Y-249002800D03*
X241086600Y-251542800D03*
X238546600Y-238842800D03*
X238546600Y-236302800D03*
X241086600Y-236302800D03*
X246166600Y-238842800D03*
X243626600Y-238842800D03*
X243626600Y-236302800D03*
X246166600Y-236302800D03*
X243626600Y-243922800D03*
X248706600Y-246462800D03*
X246166600Y-243922800D03*
X246166600Y-246462800D03*
X248706600Y-241382800D03*
X246166600Y-241382800D03*
X248706600Y-238842800D03*
X243626600Y-241382800D03*
X248706600Y-236302800D03*
X248706600Y-243922800D03*
X243626600Y-251542800D03*
X246166600Y-251542800D03*
X246166600Y-249002800D03*
X248706600Y-249002800D03*
X248706600Y-251542800D03*
X192826600Y-243922800D03*
X192826600Y-238842800D03*
X192826600Y-241382800D03*
X192826600Y-236302800D03*
X200446600Y-238842800D03*
X200446600Y-241382800D03*
X195366600Y-236302800D03*
X200446600Y-236302800D03*
X197906600Y-236302800D03*
X197906600Y-241382800D03*
X197906600Y-238842800D03*
X195366600Y-238842800D03*
X195366600Y-241382800D03*
X200446600Y-251542800D03*
X197906600Y-251542800D03*
X197906600Y-249002800D03*
X195366600Y-249002800D03*
X197906600Y-246462800D03*
X195366600Y-251542800D03*
X195366600Y-246462800D03*
X200446600Y-249002800D03*
X200446600Y-243922800D03*
X200446600Y-246462800D03*
X197906600Y-243922800D03*
X195366600Y-243922800D03*
X171236600Y-251542800D03*
X171236600Y-249002800D03*
X168696600Y-251542800D03*
X168696600Y-249002800D03*
X166156600Y-251542800D03*
X163616600Y-251542800D03*
X163616600Y-249002800D03*
X166156600Y-249002800D03*
X168696600Y-243922800D03*
X171236600Y-246462800D03*
X171236600Y-243922800D03*
X168696600Y-246462800D03*
X161076600Y-249002800D03*
X158536600Y-251542800D03*
X158536600Y-249002800D03*
X161076600Y-251542800D03*
X209336600Y-236302800D03*
X206796600Y-236302800D03*
X214416600Y-241382800D03*
X211876600Y-236302800D03*
X214416600Y-238842800D03*
X211876600Y-238842800D03*
X214416600Y-236302800D03*
X211876600Y-241382800D03*
X214416600Y-249002800D03*
X214416600Y-251542800D03*
X211876600Y-249002800D03*
X214416600Y-246462800D03*
X211876600Y-246462800D03*
X214416600Y-243922800D03*
X211876600Y-243922800D03*
X211876600Y-251542800D03*
X206796600Y-243922800D03*
X209336600Y-241382800D03*
X209336600Y-238842800D03*
X206796600Y-241382800D03*
X206796600Y-238842800D03*
X209336600Y-243922800D03*
X206796600Y-246462800D03*
X209336600Y-246462800D03*
X206796600Y-251542800D03*
X209336600Y-249002800D03*
X209336600Y-251542800D03*
X206796600Y-249002800D03*
X173776600Y-251542800D03*
X173776600Y-249002800D03*
X176316600Y-249002800D03*
X176316600Y-251542800D03*
X173776600Y-246462800D03*
X176316600Y-241382800D03*
X176316600Y-246462800D03*
X176316600Y-243922800D03*
X173776600Y-243922800D03*
X173776600Y-241382800D03*
X171236600Y-241382800D03*
X168696600Y-238842800D03*
X171236600Y-238842800D03*
X168696600Y-241382800D03*
X176316600Y-238842800D03*
X176316600Y-236302800D03*
X173776600Y-238842800D03*
X173776600Y-236302800D03*
X171236600Y-236302800D03*
X168696600Y-236302800D03*
X192826600Y-246462800D03*
X192826600Y-249002800D03*
X190286600Y-251542800D03*
X192826600Y-251542800D03*
X190286600Y-249002800D03*
X190286600Y-246462800D03*
X187746600Y-249002800D03*
X187746600Y-251542800D03*
X187746600Y-246462800D03*
X182666600Y-249002800D03*
X182666600Y-251542800D03*
X182666600Y-246462800D03*
X185206600Y-249002800D03*
X185206600Y-251542800D03*
X185206600Y-246462800D03*
X187746600Y-241382800D03*
X190286600Y-241382800D03*
X190286600Y-243922800D03*
X187746600Y-243922800D03*
X185206600Y-238842800D03*
X185206600Y-236302800D03*
X182666600Y-236302800D03*
X182666600Y-238842800D03*
X182666600Y-243922800D03*
X185206600Y-241382800D03*
X182666600Y-241382800D03*
X185206600Y-243922800D03*
X190286600Y-238842800D03*
X187746600Y-236302800D03*
X190286600Y-236302800D03*
X187746600Y-238842800D03*
X163616600Y-246462800D03*
X166156600Y-246462800D03*
X166156600Y-243922800D03*
X163616600Y-243922800D03*
X158536600Y-236302800D03*
X158536600Y-238842800D03*
X161076600Y-238842800D03*
X161076600Y-236302800D03*
X166156600Y-241382800D03*
X163616600Y-236302800D03*
X163616600Y-238842800D03*
X166156600Y-236302800D03*
X163616600Y-241382800D03*
X166156600Y-238842800D03*
X158536600Y-246462800D03*
X158536600Y-241382800D03*
X161076600Y-241382800D03*
X158536600Y-243922800D03*
X161076600Y-243922800D03*
X161076600Y-246462800D03*
X255056600Y-195662800D03*
X255056600Y-190582800D03*
X255056600Y-188042800D03*
X255056600Y-193122800D03*
X257596600Y-195662800D03*
X257596600Y-193122800D03*
X257596600Y-188042800D03*
X260136600Y-190582800D03*
X265216600Y-193122800D03*
X265216600Y-190582800D03*
X260136600Y-188042800D03*
X257596600Y-190582800D03*
X257596600Y-198202800D03*
X255056600Y-198202800D03*
X255056600Y-203282800D03*
X257596600Y-200742800D03*
X257596600Y-203282800D03*
X255056600Y-200742800D03*
X260136600Y-203282800D03*
X262676600Y-203282800D03*
X260136600Y-195662800D03*
X262676600Y-195662800D03*
X262676600Y-193122800D03*
X265216600Y-195662800D03*
X260136600Y-193122800D03*
X267756600Y-200742800D03*
X270296600Y-203282800D03*
X270296600Y-200742800D03*
X265216600Y-203282800D03*
X267756600Y-203282800D03*
X262676600Y-190582800D03*
X267756600Y-190582800D03*
X267756600Y-188042800D03*
X262676600Y-188042800D03*
X265216600Y-188042800D03*
X270296600Y-190582800D03*
X270296600Y-188042800D03*
X270296600Y-193122800D03*
X272836600Y-193122800D03*
X272836600Y-188042800D03*
X272836600Y-190582800D03*
X267756600Y-193122800D03*
X267756600Y-198202800D03*
X267756600Y-195662800D03*
X272836600Y-198202800D03*
X270296600Y-195662800D03*
X270296600Y-198202800D03*
X272836600Y-203282800D03*
X272836600Y-195662800D03*
X272836600Y-200742800D03*
X260136600Y-198202800D03*
X262676600Y-200742800D03*
X260136600Y-200742800D03*
X262676600Y-198202800D03*
X265216600Y-198202800D03*
X265216600Y-200742800D03*
X233466600Y-198202800D03*
X230926600Y-200742800D03*
X230926600Y-203282800D03*
X230926600Y-198202800D03*
X233466600Y-203282800D03*
X233466600Y-200742800D03*
X236006600Y-198202800D03*
X236006600Y-200742800D03*
X236006600Y-203282800D03*
X238546600Y-200742800D03*
X238546600Y-203282800D03*
X238546600Y-198202800D03*
X233466600Y-195662800D03*
X230926600Y-195662800D03*
X230926600Y-190582800D03*
X233466600Y-193122800D03*
X230926600Y-193122800D03*
X236006600Y-195662800D03*
X236006600Y-193122800D03*
X238546600Y-195662800D03*
X238546600Y-193122800D03*
X241086600Y-195662800D03*
X230926600Y-188042800D03*
X233466600Y-188042800D03*
X236006600Y-190582800D03*
X238546600Y-190582800D03*
X236006600Y-188042800D03*
X238546600Y-188042800D03*
X233466600Y-190582800D03*
X246166600Y-190582800D03*
X248706600Y-190582800D03*
X246166600Y-193122800D03*
X248706600Y-193122800D03*
X241086600Y-198202800D03*
X243626600Y-200742800D03*
X241086600Y-200742800D03*
X243626600Y-203282800D03*
X241086600Y-203282800D03*
X243626600Y-193122800D03*
X246166600Y-188042800D03*
X243626600Y-188042800D03*
X241086600Y-188042800D03*
X243626600Y-190582800D03*
X241086600Y-193122800D03*
X248706600Y-188042800D03*
X241086600Y-190582800D03*
X243626600Y-198202800D03*
X243626600Y-195662800D03*
X246166600Y-195662800D03*
X246166600Y-198202800D03*
X248706600Y-198202800D03*
X248706600Y-195662800D03*
X248706600Y-203282800D03*
X246166600Y-203282800D03*
X248706600Y-200742800D03*
X246166600Y-200742800D03*
X214416600Y-200742800D03*
X211876600Y-203282800D03*
X214416600Y-203282800D03*
X211876600Y-200742800D03*
X206796600Y-195662800D03*
X209336600Y-195662800D03*
X206796600Y-198202800D03*
X209336600Y-198202800D03*
X214416600Y-198202800D03*
X211876600Y-198202800D03*
X214416600Y-195662800D03*
X211876600Y-195662800D03*
X209336600Y-188042800D03*
X206796600Y-188042800D03*
X209336600Y-193122800D03*
X206796600Y-190582800D03*
X209336600Y-190582800D03*
X206796600Y-193122800D03*
X209336600Y-203282800D03*
X206796600Y-203282800D03*
X209336600Y-200742800D03*
X206796600Y-200742800D03*
X214416600Y-193122800D03*
X211876600Y-193122800D03*
X211876600Y-188042800D03*
X214416600Y-190582800D03*
X211876600Y-190582800D03*
X214416600Y-188042800D03*
X224576600Y-198202800D03*
X222036600Y-200742800D03*
X224576600Y-200742800D03*
X222036600Y-198202800D03*
X222036600Y-195662800D03*
X224576600Y-193122800D03*
X224576600Y-195662800D03*
X222036600Y-193122800D03*
X216956600Y-188042800D03*
X216956600Y-193122800D03*
X219496600Y-190582800D03*
X216956600Y-190582800D03*
X219496600Y-193122800D03*
X219496600Y-188042800D03*
X224576600Y-188042800D03*
X222036600Y-190582800D03*
X222036600Y-188042800D03*
X224576600Y-190582800D03*
X219496600Y-198202800D03*
X219496600Y-195662800D03*
X216956600Y-200742800D03*
X216956600Y-195662800D03*
X216956600Y-198202800D03*
X216956600Y-203282800D03*
X219496600Y-200742800D03*
X222036600Y-203282800D03*
X219496600Y-203282800D03*
X224576600Y-203282800D03*
X187746600Y-195662800D03*
X187746600Y-198202800D03*
X185206600Y-198202800D03*
X185206600Y-195662800D03*
X182666600Y-195662800D03*
X190286600Y-198202800D03*
X182666600Y-198202800D03*
X190286600Y-195662800D03*
X182666600Y-193122800D03*
X182666600Y-188042800D03*
X182666600Y-190582800D03*
X185206600Y-188042800D03*
X185206600Y-193122800D03*
X185206600Y-190582800D03*
X187746600Y-200742800D03*
X187746600Y-203282800D03*
X190286600Y-200742800D03*
X190286600Y-203282800D03*
X182666600Y-200742800D03*
X182666600Y-203282800D03*
X185206600Y-203282800D03*
X185206600Y-200742800D03*
X187746600Y-193122800D03*
X190286600Y-190582800D03*
X187746600Y-190582800D03*
X187746600Y-188042800D03*
X190286600Y-193122800D03*
X190286600Y-188042800D03*
X192826600Y-198202800D03*
X192826600Y-200742800D03*
X192826600Y-195662800D03*
X192826600Y-203282800D03*
X195366600Y-198202800D03*
X195366600Y-195662800D03*
X195366600Y-200742800D03*
X195366600Y-193122800D03*
X192826600Y-190582800D03*
X195366600Y-190582800D03*
X192826600Y-193122800D03*
X197906600Y-190582800D03*
X197906600Y-188042800D03*
X192826600Y-188042800D03*
X195366600Y-188042800D03*
X197906600Y-193122800D03*
X200446600Y-193122800D03*
X200446600Y-188042800D03*
X200446600Y-190582800D03*
X200446600Y-195662800D03*
X197906600Y-195662800D03*
X200446600Y-203282800D03*
X197906600Y-198202800D03*
X200446600Y-198202800D03*
X197906600Y-203282800D03*
X195366600Y-203282800D03*
X200446600Y-200742800D03*
X197906600Y-200742800D03*
X171236600Y-193122800D03*
X173776600Y-193122800D03*
X176316600Y-193122800D03*
X171236600Y-190582800D03*
X173776600Y-190582800D03*
X176316600Y-188042800D03*
X171236600Y-188042800D03*
X173776600Y-188042800D03*
X176316600Y-190582800D03*
X163616600Y-195662800D03*
X166156600Y-195662800D03*
X168696600Y-198202800D03*
X166156600Y-198202800D03*
X163616600Y-198202800D03*
X168696600Y-193122800D03*
X168696600Y-195662800D03*
X163616600Y-193122800D03*
X166156600Y-193122800D03*
X166156600Y-188042800D03*
X168696600Y-188042800D03*
X168696600Y-190582800D03*
X163616600Y-188042800D03*
X166156600Y-190582800D03*
X163616600Y-190582800D03*
X168696600Y-203282800D03*
X168696600Y-200742800D03*
X163616600Y-200742800D03*
X166156600Y-203282800D03*
X163616600Y-203282800D03*
X166156600Y-200742800D03*
X158536600Y-193122800D03*
X158536600Y-190582800D03*
X158536600Y-188042800D03*
X161076600Y-190582800D03*
X161076600Y-188042800D03*
X161076600Y-193122800D03*
X161076600Y-198202800D03*
X158536600Y-198202800D03*
X161076600Y-195662800D03*
X158536600Y-195662800D03*
X161076600Y-200742800D03*
X161076600Y-203282800D03*
X158536600Y-203282800D03*
X158536600Y-200742800D03*
X173776600Y-203282800D03*
X176316600Y-203282800D03*
X176316600Y-200742800D03*
X171236600Y-198202800D03*
X171236600Y-203282800D03*
X173776600Y-200742800D03*
X171236600Y-195662800D03*
X173776600Y-195662800D03*
X171236600Y-200742800D03*
X173776600Y-198202800D03*
X176316600Y-198202800D03*
X176316600Y-195662800D03*
X275376600Y-224872800D03*
X275376600Y-222332800D03*
X275376600Y-219792800D03*
X275376600Y-227412800D03*
X275376600Y-217252800D03*
X275376600Y-214712800D03*
X275376600Y-212172800D03*
X272836600Y-217252800D03*
X272836600Y-214712800D03*
X272836600Y-212172800D03*
X272836600Y-224872800D03*
X272836600Y-219792800D03*
X272836600Y-222332800D03*
X272836600Y-227412800D03*
X267756600Y-217252800D03*
X270296600Y-212172800D03*
X270296600Y-214712800D03*
X267756600Y-214712800D03*
X267756600Y-212172800D03*
X265216600Y-214712800D03*
X270296600Y-217252800D03*
X260136600Y-212172800D03*
X260136600Y-214712800D03*
X262676600Y-214712800D03*
X265216600Y-212172800D03*
X262676600Y-217252800D03*
X260136600Y-217252800D03*
X262676600Y-212172800D03*
X265216600Y-217252800D03*
X257596600Y-212172800D03*
X257596600Y-214712800D03*
X255056600Y-212172800D03*
X255056600Y-214712800D03*
X255056600Y-217252800D03*
X257596600Y-217252800D03*
X252516600Y-222332800D03*
X252516600Y-219792800D03*
X249976600Y-219792800D03*
X247436600Y-222332800D03*
X249976600Y-222332800D03*
X247436600Y-219792800D03*
X252516600Y-224872800D03*
X249976600Y-227412800D03*
X244896600Y-224872800D03*
X247436600Y-227412800D03*
X249976600Y-224872800D03*
X247436600Y-224872800D03*
X252516600Y-227412800D03*
X244896600Y-227412800D03*
X265216600Y-224872800D03*
X262676600Y-222332800D03*
X262676600Y-224872800D03*
X260136600Y-224872800D03*
X265216600Y-222332800D03*
X257596600Y-227412800D03*
X257596600Y-222332800D03*
X257596600Y-219792800D03*
X255056600Y-219792800D03*
X257596600Y-224872800D03*
X255056600Y-224872800D03*
X260136600Y-227412800D03*
X255056600Y-222332800D03*
X265216600Y-219792800D03*
X260136600Y-222332800D03*
X262676600Y-219792800D03*
X260136600Y-219792800D03*
X270296600Y-224872800D03*
X270296600Y-222332800D03*
X267756600Y-224872800D03*
X267756600Y-222332800D03*
X270296600Y-219792800D03*
X267756600Y-219792800D03*
X265216600Y-227412800D03*
X270296600Y-227412800D03*
X267756600Y-227412800D03*
X262676600Y-227412800D03*
X255056600Y-227412800D03*
X249976600Y-214712800D03*
X244896600Y-219792800D03*
X242356600Y-219792800D03*
X244896600Y-217252800D03*
X247436600Y-217252800D03*
X242356600Y-214712800D03*
X242356600Y-212172800D03*
X239816600Y-212172800D03*
X242356600Y-222332800D03*
X242356600Y-224872800D03*
X244896600Y-222332800D03*
X239816600Y-222332800D03*
X242356600Y-227412800D03*
X239816600Y-224872800D03*
X237276600Y-217252800D03*
X234736600Y-212172800D03*
X234736600Y-214712800D03*
X234736600Y-217252800D03*
X237276600Y-214712800D03*
X234736600Y-219792800D03*
X234736600Y-222332800D03*
X237276600Y-222332800D03*
X237276600Y-219792800D03*
X239816600Y-219792800D03*
X234736600Y-227412800D03*
X234736600Y-224872800D03*
X239816600Y-227412800D03*
X237276600Y-227412800D03*
X237276600Y-224872800D03*
X252516600Y-212172800D03*
X249976600Y-212172800D03*
X252516600Y-214712800D03*
X249976600Y-217252800D03*
X252516600Y-217252800D03*
X247436600Y-212172800D03*
X244896600Y-214712800D03*
X242356600Y-217252800D03*
X247436600Y-214712800D03*
X244896600Y-212172800D03*
X239816600Y-214712800D03*
X239816600Y-217252800D03*
X237276600Y-212172800D03*
X224576600Y-222332800D03*
X224576600Y-219792800D03*
X222036600Y-219792800D03*
X222036600Y-222332800D03*
X219496600Y-219792800D03*
X222036600Y-224872800D03*
X224576600Y-227412800D03*
X219496600Y-224872800D03*
X224576600Y-224872800D03*
X222036600Y-227412800D03*
X219496600Y-227412800D03*
X216956600Y-224872800D03*
X216956600Y-227412800D03*
X219496600Y-212172800D03*
X222036600Y-212172800D03*
X224576600Y-217252800D03*
X224576600Y-214712800D03*
X222036600Y-217252800D03*
X219496600Y-214712800D03*
X222036600Y-214712800D03*
X224576600Y-212172800D03*
X214416600Y-212172800D03*
X214416600Y-217252800D03*
X211876600Y-217252800D03*
X216956600Y-212172800D03*
X216956600Y-214712800D03*
X214416600Y-214712800D03*
X211876600Y-212172800D03*
X211876600Y-214712800D03*
X214416600Y-222332800D03*
X214416600Y-219792800D03*
X211876600Y-219792800D03*
X214416600Y-224872800D03*
X214416600Y-227412800D03*
X211876600Y-224872800D03*
X211876600Y-227412800D03*
X211876600Y-222332800D03*
X216956600Y-222332800D03*
X219496600Y-217252800D03*
X216956600Y-219792800D03*
X219496600Y-222332800D03*
X216956600Y-217252800D03*
X204256600Y-222332800D03*
X206796600Y-219792800D03*
X206796600Y-222332800D03*
X209336600Y-219792800D03*
X209336600Y-222332800D03*
X204256600Y-219792800D03*
X206796600Y-217252800D03*
X204256600Y-217252800D03*
X209336600Y-217252800D03*
X204256600Y-214712800D03*
X209336600Y-224872800D03*
X206796600Y-224872800D03*
X204256600Y-227412800D03*
X204256600Y-224872800D03*
X209336600Y-227412800D03*
X206796600Y-227412800D03*
X206796600Y-212172800D03*
X209336600Y-212172800D03*
X204256600Y-212172800D03*
X209336600Y-214712800D03*
X206796600Y-214712800D03*
X194096600Y-222332800D03*
X194096600Y-227412800D03*
X196636600Y-227412800D03*
X196636600Y-224872800D03*
X194096600Y-224872800D03*
X201716600Y-222332800D03*
X199176600Y-219792800D03*
X196636600Y-219792800D03*
X196636600Y-222332800D03*
X199176600Y-222332800D03*
X196636600Y-212172800D03*
X194096600Y-212172800D03*
X194096600Y-219792800D03*
X194096600Y-214712800D03*
X194096600Y-217252800D03*
X201716600Y-224872800D03*
X201716600Y-227412800D03*
X199176600Y-227412800D03*
X199176600Y-224872800D03*
X199176600Y-217252800D03*
X196636600Y-217252800D03*
X199176600Y-214712800D03*
X196636600Y-214712800D03*
X201716600Y-212172800D03*
X201716600Y-219792800D03*
X201716600Y-214712800D03*
X201716600Y-217252800D03*
X199176600Y-212172800D03*
X227116600Y-227412800D03*
X232196600Y-227412800D03*
X229656600Y-227412800D03*
X232196600Y-224872800D03*
X229656600Y-217252800D03*
X227116600Y-219792800D03*
X229656600Y-219792800D03*
X232196600Y-217252800D03*
X232196600Y-219792800D03*
X227116600Y-217252800D03*
X232196600Y-222332800D03*
X229656600Y-224872800D03*
X229656600Y-222332800D03*
X227116600Y-224872800D03*
X227116600Y-222332800D03*
X229656600Y-214712800D03*
X227116600Y-212172800D03*
X232196600Y-214712800D03*
X232196600Y-212172800D03*
X229656600Y-212172800D03*
X227116600Y-214712800D03*
X176316600Y-212172800D03*
X178856600Y-212172800D03*
X178856600Y-214712800D03*
X173776600Y-212172800D03*
X173776600Y-214712800D03*
X176316600Y-214712800D03*
X181396600Y-224872800D03*
X181396600Y-222332800D03*
X181396600Y-227412800D03*
X178856600Y-224872800D03*
X178856600Y-227412800D03*
X173776600Y-222332800D03*
X173776600Y-219792800D03*
X178856600Y-219792800D03*
X176316600Y-219792800D03*
X176316600Y-222332800D03*
X178856600Y-222332800D03*
X173776600Y-224872800D03*
X173776600Y-227412800D03*
X176316600Y-224872800D03*
X176316600Y-227412800D03*
X181396600Y-217252800D03*
X176316600Y-217252800D03*
X178856600Y-217252800D03*
X173776600Y-217252800D03*
X181396600Y-214712800D03*
X186476600Y-224872800D03*
X183936600Y-227412800D03*
X183936600Y-224872800D03*
X186476600Y-227412800D03*
X189016600Y-227412800D03*
X189016600Y-214712800D03*
X189016600Y-217252800D03*
X189016600Y-219792800D03*
X191556600Y-217252800D03*
X191556600Y-219792800D03*
X191556600Y-214712800D03*
X191556600Y-212172800D03*
X189016600Y-212172800D03*
X183936600Y-212172800D03*
X183936600Y-214712800D03*
X186476600Y-217252800D03*
X186476600Y-214712800D03*
X183936600Y-217252800D03*
X186476600Y-212172800D03*
X181396600Y-212172800D03*
X183936600Y-222332800D03*
X183936600Y-219792800D03*
X186476600Y-219792800D03*
X186476600Y-222332800D03*
X181396600Y-219792800D03*
X191556600Y-222332800D03*
X189016600Y-224872800D03*
X191556600Y-227412800D03*
X189016600Y-222332800D03*
X191556600Y-224872800D03*
X168696600Y-214712800D03*
X168696600Y-212172800D03*
X168696600Y-217252800D03*
X168696600Y-219792800D03*
X171236600Y-217252800D03*
X171236600Y-219792800D03*
X171236600Y-214712800D03*
X163616600Y-212172800D03*
X171236600Y-222332800D03*
X166156600Y-212172800D03*
X171236600Y-212172800D03*
X171236600Y-224872800D03*
X171236600Y-227412800D03*
X168696600Y-227412800D03*
X168696600Y-224872800D03*
X163616600Y-224872800D03*
X166156600Y-224872800D03*
X163616600Y-227412800D03*
X166156600Y-227412800D03*
X163616600Y-217252800D03*
X163616600Y-214712800D03*
X166156600Y-214712800D03*
X166156600Y-217252800D03*
X168696600Y-222332800D03*
X163616600Y-219792800D03*
X166156600Y-219792800D03*
X166156600Y-222332800D03*
X163616600Y-222332800D03*
X161076600Y-217252800D03*
X158536600Y-214712800D03*
X158536600Y-212172800D03*
X161076600Y-214712800D03*
X161076600Y-212172800D03*
X158536600Y-217252800D03*
X161076600Y-227412800D03*
X158536600Y-224872800D03*
X158536600Y-222332800D03*
X158536600Y-219792800D03*
X161076600Y-219792800D03*
X161076600Y-224872800D03*
X161076600Y-222332800D03*
X158536600Y-227412800D03*
X155996600Y-227412800D03*
X155996600Y-224872800D03*
X155996600Y-222332800D03*
X155996600Y-219792800D03*
X155996600Y-217252800D03*
X155996600Y-214712800D03*
X155996600Y-212172800D03*
X153456600Y-227412800D03*
X153456600Y-224872800D03*
X153456600Y-222332800D03*
X153456600Y-219792800D03*
X153456600Y-217252800D03*
X153456600Y-214712800D03*
D13*
X110276600Y-245319800D03*
X112816600Y-245319800D03*
X115356600Y-245319800D03*
X117896600Y-245319800D03*
X120436600Y-245319800D03*
X122976600Y-245319800D03*
X125516600Y-245319800D03*
X128056600Y-245319800D03*
X133136600Y-245319800D03*
X135676600Y-245319800D03*
X138216600Y-245319800D03*
X140756600Y-245319800D03*
X143296600Y-245319800D03*
X145836600Y-245319800D03*
X101793000Y-197059800D03*
X104333000Y-197059800D03*
X106873000Y-197059800D03*
X109413000Y-197059800D03*
X111953000Y-197059800D03*
X114493000Y-197059800D03*
X117033000Y-197059800D03*
X119573000Y-197059800D03*
X122113000Y-197059800D03*
X124653000Y-197059800D03*
X128056600Y-197059800D03*
X130596600Y-197059800D03*
X133136600Y-197059800D03*
X135676600Y-197059800D03*
X138216600Y-197059800D03*
X140756600Y-197059800D03*
X143296600Y-197059800D03*
X145836600Y-197059800D03*
X145836600Y-222459800D03*
X145836600Y-219919800D03*
X145836600Y-217379800D03*
X148376600Y-217379800D03*
X148376600Y-219919800D03*
X148376600Y-222459800D03*
D14*
X94218535Y-354415000D03*
X99217255Y-354415000D03*
D15*
X30901600Y-279902800D03*
X30901600Y-277792800D03*
X30901600Y-87878800D03*
X30901600Y-85768800D03*
X31155600Y-135376800D03*
X31155600Y-133266800D03*
X31155600Y-327400800D03*
X31155600Y-325290800D03*
D16*
X35014600Y-192741800D03*
X35014600Y-194011800D03*
X35014600Y-195281800D03*
X35014600Y-196551800D03*
X35014600Y-197821800D03*
X35014600Y-199091800D03*
X35014600Y-200361800D03*
X35014600Y-201631800D03*
X44314600Y-201631800D03*
X44314600Y-200361800D03*
X44314600Y-199091800D03*
X44314600Y-197821800D03*
X44314600Y-196551800D03*
X44314600Y-195281800D03*
X44314600Y-194011800D03*
X44314600Y-192741800D03*
D13*
X65191600Y-227031800D03*
D17*
X85511600Y-211791800D03*
D13*
X82971600Y-211791800D03*
X80431600Y-211791800D03*
X77891600Y-211791800D03*
X75351600Y-211791800D03*
X72811600Y-211791800D03*
X70271600Y-211791800D03*
X67731600Y-211791800D03*
X65191600Y-211791800D03*
X62651600Y-211791800D03*
X60111600Y-211791800D03*
X57571600Y-211791800D03*
X55031600Y-211791800D03*
X52491600Y-211791800D03*
X49951600Y-211791800D03*
X85511600Y-227031800D03*
X82971600Y-227031800D03*
X80431600Y-227031800D03*
X77891600Y-227031800D03*
X75351600Y-227031800D03*
X72811600Y-227031800D03*
X70271600Y-227031800D03*
X67731600Y-227031800D03*
X62651600Y-227031800D03*
X60111600Y-227031800D03*
X57571600Y-227031800D03*
X55031600Y-227031800D03*
X52491600Y-227031800D03*
X49951600Y-227031800D03*
D18*
X37759600Y-134321800D03*
X39283600Y-134321800D03*
X37759600Y-136099800D03*
X39283600Y-136099800D03*
X37759600Y-137877800D03*
X39283600Y-137877800D03*
X37759600Y-326345800D03*
X39283600Y-326345800D03*
X37759600Y-328123800D03*
X39283600Y-328123800D03*
X37759600Y-329901800D03*
X39283600Y-329901800D03*
X36997600Y-86569800D03*
X38521600Y-86569800D03*
X36997600Y-88347800D03*
X38521600Y-88347800D03*
X36997600Y-90125800D03*
X38521600Y-90125800D03*
X36743600Y-278593800D03*
X38267600Y-278593800D03*
X36743600Y-280371800D03*
X38267600Y-280371800D03*
X36743600Y-282149800D03*
X38267600Y-282149800D03*
D19*
X21690200Y-370709000D03*
X21690200Y-377709000D03*
D20*
X19190200Y-371709000D03*
X19190200Y-376709000D03*
D19*
X21690200Y-389899000D03*
X21690200Y-396899000D03*
D20*
X19190200Y-390899000D03*
X19190200Y-395899000D03*
D19*
X21690200Y-409089000D03*
X21690200Y-416089000D03*
D20*
X19190200Y-410089000D03*
X19190200Y-415089000D03*
D21*
X76643600Y-195281800D03*
X56643600Y-195281800D03*
D22*
X102922895Y-334747000D03*
X100382895Y-334747000D03*
D23*
X97828060Y-324821800D03*
D24*
X95288060Y-324821800D03*
X100368060Y-324821800D03*
D25*
X97828060Y-308057800D03*
D26*
X25313600Y-200742800D03*
D27*
X27853600Y-200742800D03*
X25313600Y-203282800D03*
X27853600Y-203282800D03*
X25313600Y-205822800D03*
X27853600Y-205822800D03*
D28*
X58587600Y-130811800D03*
X57317600Y-130811800D03*
X56047600Y-130811800D03*
X54777600Y-130811800D03*
X53507600Y-130811800D03*
X52237600Y-130811800D03*
X50967600Y-130811800D03*
X49697600Y-130811800D03*
X48427600Y-130811800D03*
X47157600Y-130811800D03*
X48427600Y-140371800D03*
X47157600Y-140371800D03*
X45887600Y-140371800D03*
X44617600Y-140371800D03*
X43347600Y-140371800D03*
X42077600Y-140371800D03*
X42077600Y-130811800D03*
X43347600Y-130811800D03*
X44617600Y-130811800D03*
X45887600Y-130811800D03*
X49697600Y-140371800D03*
X50967600Y-140371800D03*
X52237600Y-140371800D03*
X53507600Y-140371800D03*
X54777600Y-140371800D03*
X56047600Y-140371800D03*
X57317600Y-140371800D03*
X58587600Y-140371800D03*
X58587600Y-322835800D03*
X57317600Y-322835800D03*
X56047600Y-322835800D03*
X54777600Y-322835800D03*
X53507600Y-322835800D03*
X52237600Y-322835800D03*
X50967600Y-322835800D03*
X49697600Y-322835800D03*
X48427600Y-322835800D03*
X47157600Y-322835800D03*
X48427600Y-332395800D03*
X47157600Y-332395800D03*
X45887600Y-332395800D03*
X44617600Y-332395800D03*
X43347600Y-332395800D03*
X42077600Y-332395800D03*
X42077600Y-322835800D03*
X43347600Y-322835800D03*
X44617600Y-322835800D03*
X45887600Y-322835800D03*
X49697600Y-332395800D03*
X50967600Y-332395800D03*
X52237600Y-332395800D03*
X53507600Y-332395800D03*
X54777600Y-332395800D03*
X56047600Y-332395800D03*
X57317600Y-332395800D03*
X58587600Y-332395800D03*
D22*
X94527895Y-334747000D03*
X91987895Y-334747000D03*
D10*
G36*
X35125646Y-222410434D02*
X34766436Y-222769644D01*
X33868410Y-221871618D01*
X34227620Y-221512408D01*
X35125646Y-222410434D01*
X35125646Y-222410434D01*
G37*
G36*
X35691331Y-221844748D02*
X35332121Y-222203958D01*
X34434095Y-221305932D01*
X34793305Y-220946722D01*
X35691331Y-221844748D01*
X35691331Y-221844748D01*
G37*
G36*
X36257016Y-221279063D02*
X35897806Y-221638273D01*
X34999780Y-220740247D01*
X35358990Y-220381037D01*
X36257016Y-221279063D01*
X36257016Y-221279063D01*
G37*
G36*
X36822702Y-220713377D02*
X36463492Y-221072587D01*
X35565466Y-220174561D01*
X35924676Y-219815351D01*
X36822702Y-220713377D01*
X36822702Y-220713377D01*
G37*
G36*
X37388387Y-220147692D02*
X37029177Y-220506902D01*
X36131151Y-219608876D01*
X36490361Y-219249666D01*
X37388387Y-220147692D01*
X37388387Y-220147692D01*
G37*
G36*
X37954073Y-219582006D02*
X37594863Y-219941216D01*
X36696837Y-219043190D01*
X37056047Y-218683980D01*
X37954073Y-219582006D01*
X37954073Y-219582006D01*
G37*
G36*
X38519758Y-219016321D02*
X38160548Y-219375531D01*
X37262522Y-218477505D01*
X37621732Y-218118295D01*
X38519758Y-219016321D01*
X38519758Y-219016321D01*
G37*
G36*
X39085444Y-218450636D02*
X38726234Y-218809846D01*
X37828208Y-217911820D01*
X38187418Y-217552610D01*
X39085444Y-218450636D01*
X39085444Y-218450636D01*
G37*
G36*
X39085444Y-215800964D02*
X38187418Y-216698990D01*
X37828208Y-216339780D01*
X38726234Y-215441754D01*
X39085444Y-215800964D01*
X39085444Y-215800964D01*
G37*
G36*
X38519758Y-215235279D02*
X37621732Y-216133305D01*
X37262522Y-215774095D01*
X38160548Y-214876069D01*
X38519758Y-215235279D01*
X38519758Y-215235279D01*
G37*
G36*
X37954073Y-214669594D02*
X37056047Y-215567620D01*
X36696837Y-215208410D01*
X37594863Y-214310384D01*
X37954073Y-214669594D01*
X37954073Y-214669594D01*
G37*
G36*
X37388387Y-214103908D02*
X36490361Y-215001934D01*
X36131151Y-214642724D01*
X37029177Y-213744698D01*
X37388387Y-214103908D01*
X37388387Y-214103908D01*
G37*
G36*
X36822702Y-213538223D02*
X35924676Y-214436249D01*
X35565466Y-214077039D01*
X36463492Y-213179013D01*
X36822702Y-213538223D01*
X36822702Y-213538223D01*
G37*
G36*
X36257016Y-212972537D02*
X35358990Y-213870563D01*
X34999780Y-213511353D01*
X35897806Y-212613327D01*
X36257016Y-212972537D01*
X36257016Y-212972537D01*
G37*
G36*
X35691331Y-212406852D02*
X34793305Y-213304878D01*
X34434095Y-212945668D01*
X35332121Y-212047642D01*
X35691331Y-212406852D01*
X35691331Y-212406852D01*
G37*
G36*
X35125646Y-211841166D02*
X34227620Y-212739192D01*
X33868410Y-212379982D01*
X34766436Y-211481956D01*
X35125646Y-211841166D01*
X35125646Y-211841166D01*
G37*
G36*
X33014790Y-212379982D02*
X32655580Y-212739192D01*
X31757554Y-211841166D01*
X32116764Y-211481956D01*
X33014790Y-212379982D01*
X33014790Y-212379982D01*
G37*
G36*
X32449105Y-212945668D02*
X32089895Y-213304878D01*
X31191869Y-212406852D01*
X31551079Y-212047642D01*
X32449105Y-212945668D01*
X32449105Y-212945668D01*
G37*
G36*
X31883420Y-213511353D02*
X31524210Y-213870563D01*
X30626184Y-212972537D01*
X30985394Y-212613327D01*
X31883420Y-213511353D01*
X31883420Y-213511353D01*
G37*
G36*
X31317734Y-214077039D02*
X30958524Y-214436249D01*
X30060498Y-213538223D01*
X30419708Y-213179013D01*
X31317734Y-214077039D01*
X31317734Y-214077039D01*
G37*
G36*
X30752049Y-214642724D02*
X30392839Y-215001934D01*
X29494813Y-214103908D01*
X29854023Y-213744698D01*
X30752049Y-214642724D01*
X30752049Y-214642724D01*
G37*
G36*
X30186363Y-215208410D02*
X29827153Y-215567620D01*
X28929127Y-214669594D01*
X29288337Y-214310384D01*
X30186363Y-215208410D01*
X30186363Y-215208410D01*
G37*
G36*
X29620678Y-215774095D02*
X29261468Y-216133305D01*
X28363442Y-215235279D01*
X28722652Y-214876069D01*
X29620678Y-215774095D01*
X29620678Y-215774095D01*
G37*
G36*
X29054992Y-216339780D02*
X28695782Y-216698990D01*
X27797756Y-215800964D01*
X28156966Y-215441754D01*
X29054992Y-216339780D01*
X29054992Y-216339780D01*
G37*
G36*
X29054992Y-217911820D02*
X28156966Y-218809846D01*
X27797756Y-218450636D01*
X28695782Y-217552610D01*
X29054992Y-217911820D01*
X29054992Y-217911820D01*
G37*
G36*
X29620678Y-218477505D02*
X28722652Y-219375531D01*
X28363442Y-219016321D01*
X29261468Y-218118295D01*
X29620678Y-218477505D01*
X29620678Y-218477505D01*
G37*
G36*
X30186363Y-219043190D02*
X29288337Y-219941216D01*
X28929127Y-219582006D01*
X29827153Y-218683980D01*
X30186363Y-219043190D01*
X30186363Y-219043190D01*
G37*
G36*
X30752049Y-219608876D02*
X29854023Y-220506902D01*
X29494813Y-220147692D01*
X30392839Y-219249666D01*
X30752049Y-219608876D01*
X30752049Y-219608876D01*
G37*
G36*
X31317734Y-220174561D02*
X30419708Y-221072587D01*
X30060498Y-220713377D01*
X30958524Y-219815351D01*
X31317734Y-220174561D01*
X31317734Y-220174561D01*
G37*
G36*
X31883420Y-220740247D02*
X30985394Y-221638273D01*
X30626184Y-221279063D01*
X31524210Y-220381037D01*
X31883420Y-220740247D01*
X31883420Y-220740247D01*
G37*
G36*
X32449105Y-221305932D02*
X31551079Y-222203958D01*
X31191869Y-221844748D01*
X32089895Y-220946722D01*
X32449105Y-221305932D01*
X32449105Y-221305932D01*
G37*
G36*
X33014790Y-221871618D02*
X32116764Y-222769644D01*
X31757554Y-222410434D01*
X32655580Y-221512408D01*
X33014790Y-221871618D01*
X33014790Y-221871618D01*
G37*
D17*
X66207600Y-127209800D03*
D13*
X63667600Y-127209800D03*
X61127600Y-127209800D03*
X58587600Y-127209800D03*
X56047600Y-127209800D03*
X53507600Y-127209800D03*
X50967600Y-127209800D03*
X48427600Y-127209800D03*
X45887600Y-127209800D03*
X43347600Y-127209800D03*
X40807600Y-127209800D03*
X38267600Y-127209800D03*
X35727600Y-127209800D03*
X33187600Y-127209800D03*
X33187600Y-144989800D03*
X35727600Y-144989800D03*
X38267600Y-144989800D03*
X40807600Y-144989800D03*
X43347600Y-144989800D03*
X45887600Y-144989800D03*
X48427600Y-144989800D03*
X50967600Y-144989800D03*
X53507600Y-144989800D03*
X56047600Y-144989800D03*
X58587600Y-144989800D03*
X61127600Y-144989800D03*
X63667600Y-144989800D03*
X66207600Y-144989800D03*
D17*
X65953600Y-78441800D03*
D13*
X63413600Y-78441800D03*
X60873600Y-78441800D03*
X58333600Y-78441800D03*
X55793600Y-78441800D03*
X53253600Y-78441800D03*
X50713600Y-78441800D03*
X48173600Y-78441800D03*
X45633600Y-78441800D03*
X43093600Y-78441800D03*
X40553600Y-78441800D03*
X38013600Y-78441800D03*
X35473600Y-78441800D03*
X32933600Y-78441800D03*
X32933600Y-96221800D03*
X35473600Y-96221800D03*
X38013600Y-96221800D03*
X40553600Y-96221800D03*
X43093600Y-96221800D03*
X45633600Y-96221800D03*
X48173600Y-96221800D03*
X50713600Y-96221800D03*
X53253600Y-96221800D03*
X55793600Y-96221800D03*
X58333600Y-96221800D03*
X60873600Y-96221800D03*
X63413600Y-96221800D03*
X65953600Y-96221800D03*
D28*
X58587600Y-82551800D03*
X57317600Y-82551800D03*
X56047600Y-82551800D03*
X54777600Y-82551800D03*
X53507600Y-82551800D03*
X52237600Y-82551800D03*
X50967600Y-82551800D03*
X49697600Y-82551800D03*
X48427600Y-82551800D03*
X47157600Y-82551800D03*
X48427600Y-92111800D03*
X47157600Y-92111800D03*
X45887600Y-92111800D03*
X44617600Y-92111800D03*
X43347600Y-92111800D03*
X42077600Y-92111800D03*
X42077600Y-82551800D03*
X43347600Y-82551800D03*
X44617600Y-82551800D03*
X45887600Y-82551800D03*
X49697600Y-92111800D03*
X50967600Y-92111800D03*
X52237600Y-92111800D03*
X53507600Y-92111800D03*
X54777600Y-92111800D03*
X56047600Y-92111800D03*
X57317600Y-92111800D03*
X58587600Y-92111800D03*
D17*
X65953600Y-270465800D03*
D13*
X63413600Y-270465800D03*
X60873600Y-270465800D03*
X58333600Y-270465800D03*
X55793600Y-270465800D03*
X53253600Y-270465800D03*
X50713600Y-270465800D03*
X48173600Y-270465800D03*
X45633600Y-270465800D03*
X43093600Y-270465800D03*
X40553600Y-270465800D03*
X38013600Y-270465800D03*
X35473600Y-270465800D03*
X32933600Y-270465800D03*
X32933600Y-288245800D03*
X35473600Y-288245800D03*
X38013600Y-288245800D03*
X40553600Y-288245800D03*
X43093600Y-288245800D03*
X45633600Y-288245800D03*
X48173600Y-288245800D03*
X50713600Y-288245800D03*
X53253600Y-288245800D03*
X55793600Y-288245800D03*
X58333600Y-288245800D03*
X60873600Y-288245800D03*
X63413600Y-288245800D03*
X65953600Y-288245800D03*
D28*
X58587600Y-274575800D03*
X57317600Y-274575800D03*
X56047600Y-274575800D03*
X54777600Y-274575800D03*
X53507600Y-274575800D03*
X52237600Y-274575800D03*
X50967600Y-274575800D03*
X49697600Y-274575800D03*
X48427600Y-274575800D03*
X47157600Y-274575800D03*
X48427600Y-284135800D03*
X47157600Y-284135800D03*
X45887600Y-284135800D03*
X44617600Y-284135800D03*
X43347600Y-284135800D03*
X42077600Y-284135800D03*
X42077600Y-274575800D03*
X43347600Y-274575800D03*
X44617600Y-274575800D03*
X45887600Y-274575800D03*
X49697600Y-284135800D03*
X50967600Y-284135800D03*
X52237600Y-284135800D03*
X53507600Y-284135800D03*
X54777600Y-284135800D03*
X56047600Y-284135800D03*
X57317600Y-284135800D03*
X58587600Y-284135800D03*
D17*
X66207600Y-319233800D03*
D13*
X63667600Y-319233800D03*
X61127600Y-319233800D03*
X58587600Y-319233800D03*
X56047600Y-319233800D03*
X53507600Y-319233800D03*
X50967600Y-319233800D03*
X48427600Y-319233800D03*
X45887600Y-319233800D03*
X43347600Y-319233800D03*
X40807600Y-319233800D03*
X38267600Y-319233800D03*
X35727600Y-319233800D03*
X33187600Y-319233800D03*
X33187600Y-337013800D03*
X35727600Y-337013800D03*
X38267600Y-337013800D03*
X40807600Y-337013800D03*
X43347600Y-337013800D03*
X45887600Y-337013800D03*
X48427600Y-337013800D03*
X50967600Y-337013800D03*
X53507600Y-337013800D03*
X56047600Y-337013800D03*
X58587600Y-337013800D03*
X61127600Y-337013800D03*
X63667600Y-337013800D03*
X66207600Y-337013800D03*
D29*
X60685600Y-283927800D03*
X62585600Y-283927800D03*
X60431600Y-332441800D03*
X62331600Y-332441800D03*
D10*
G36*
X29700450Y-210684620D02*
X30230780Y-211214950D01*
X29382252Y-212063478D01*
X28851922Y-211533148D01*
X29700450Y-210684620D01*
X29700450Y-210684620D01*
G37*
G36*
X28356948Y-212028122D02*
X28887278Y-212558452D01*
X28038750Y-213406980D01*
X27508420Y-212876650D01*
X28356948Y-212028122D01*
X28356948Y-212028122D01*
G37*
D29*
X60812600Y-92030800D03*
X62712600Y-92030800D03*
X60304600Y-140417800D03*
X62204600Y-140417800D03*
D30*
X31663600Y-193950800D03*
X31663600Y-195850800D03*
D31*
X20530600Y-379939800D03*
X22730600Y-379939800D03*
X20403600Y-399116800D03*
X22603600Y-399116800D03*
X25991600Y-222967800D03*
X28191600Y-222967800D03*
X24086600Y-410927800D03*
X26286600Y-410927800D03*
X28191600Y-221316800D03*
X25991600Y-221316800D03*
X34795600Y-282149800D03*
X32595600Y-282149800D03*
X34795600Y-280371800D03*
X32595600Y-280371800D03*
X34795600Y-278593800D03*
X32595600Y-278593800D03*
X35049600Y-90125800D03*
X32849600Y-90125800D03*
X35049600Y-88347800D03*
X32849600Y-88347800D03*
X35049600Y-86569800D03*
X32849600Y-86569800D03*
X35811600Y-329901800D03*
X33611600Y-329901800D03*
X35811600Y-328123800D03*
X33611600Y-328123800D03*
X35811600Y-136099800D03*
X33611600Y-136099800D03*
X35811600Y-134321800D03*
X33611600Y-134321800D03*
X35811600Y-326345800D03*
X33611600Y-326345800D03*
X35811600Y-137877800D03*
X33611600Y-137877800D03*
D32*
X93893600Y-363302800D03*
X99227600Y-363302800D03*
D33*
X28107600Y-186518800D03*
D34*
X28107600Y-183978800D03*
X28107600Y-181438800D03*
X28107600Y-178898800D03*
X28107600Y-176358800D03*
D33*
X28107600Y-171405800D03*
D34*
X28107600Y-168865800D03*
X28107600Y-166325800D03*
X28107600Y-163785800D03*
X28107600Y-161245800D03*
X28107600Y-158705800D03*
D12*
X153456600Y-212172800D03*
M02*
