G04 #@! TF.FileFunction,Legend,Top*
%FSLAX46Y46*%
G04 Gerber Fmt 4.6, Leading zero omitted, Abs format (unit mm)*
G04 Created by KiCad (PCBNEW (2015-10-10 BZR 6258)-product) date Thursday, October 15, 2015 'PMt' 09:29:02 PM*
%MOMM*%
G01*
G04 APERTURE LIST*
%ADD10C,0.100000*%
%ADD11C,0.150000*%
%ADD12C,0.203200*%
%ADD13C,0.152400*%
%ADD14C,0.032512*%
G04 APERTURE END LIST*
D10*
D11*
X92496600Y-246589800D02*
X92496600Y-195789800D01*
X92496600Y-195789800D02*
X93766600Y-195789800D01*
X147106600Y-246589800D02*
X92496600Y-246589800D01*
X147106600Y-246589800D02*
X147106600Y-245319800D01*
X147106600Y-245319800D02*
X149646600Y-242779800D01*
X149646600Y-242779800D02*
X149646600Y-212299800D01*
X149646600Y-212299800D02*
X147106600Y-209759800D01*
X147106600Y-209759800D02*
X147106600Y-197059800D01*
X147106600Y-197059800D02*
X147106600Y-195789800D01*
X147106600Y-195789800D02*
X93766600Y-195789800D01*
X96467895Y-354415000D02*
X97017895Y-353965000D01*
X97017895Y-353965000D02*
X97017895Y-354865000D01*
X97017895Y-354865000D02*
X96467895Y-354415000D01*
X96467895Y-353865000D02*
X96467895Y-354965000D01*
X94918755Y-356165060D02*
X94918755Y-355814540D01*
X94918755Y-352664940D02*
X94918755Y-353015460D01*
X98968335Y-356165060D02*
X98968335Y-355814540D01*
X94467455Y-356165060D02*
X94467455Y-355814540D01*
X94467455Y-352664940D02*
X94467455Y-353015460D01*
X98968335Y-352664940D02*
X98968335Y-353015460D01*
X94467455Y-356165060D02*
X98968335Y-356165060D01*
X94467455Y-352664940D02*
X98968335Y-352664940D01*
X29377600Y-278597800D02*
X29377600Y-278347800D01*
X29377600Y-279097800D02*
X29377600Y-279347800D01*
X29377600Y-279097800D02*
X29027600Y-278597800D01*
X29027600Y-278597800D02*
X29727600Y-278597800D01*
X29727600Y-278597800D02*
X29377600Y-279097800D01*
X29027600Y-279097800D02*
X29727600Y-279097800D01*
X31701600Y-280147800D02*
X31701600Y-277747800D01*
X30101600Y-280147800D02*
X30101600Y-277747800D01*
X29377600Y-86573800D02*
X29377600Y-86323800D01*
X29377600Y-87073800D02*
X29377600Y-87323800D01*
X29377600Y-87073800D02*
X29027600Y-86573800D01*
X29027600Y-86573800D02*
X29727600Y-86573800D01*
X29727600Y-86573800D02*
X29377600Y-87073800D01*
X29027600Y-87073800D02*
X29727600Y-87073800D01*
X31701600Y-88123800D02*
X31701600Y-85723800D01*
X30101600Y-88123800D02*
X30101600Y-85723800D01*
X29631600Y-134071800D02*
X29631600Y-133821800D01*
X29631600Y-134571800D02*
X29631600Y-134821800D01*
X29631600Y-134571800D02*
X29281600Y-134071800D01*
X29281600Y-134071800D02*
X29981600Y-134071800D01*
X29981600Y-134071800D02*
X29631600Y-134571800D01*
X29281600Y-134571800D02*
X29981600Y-134571800D01*
X31955600Y-135621800D02*
X31955600Y-133221800D01*
X30355600Y-135621800D02*
X30355600Y-133221800D01*
X29631600Y-326095800D02*
X29631600Y-325845800D01*
X29631600Y-326595800D02*
X29631600Y-326845800D01*
X29631600Y-326595800D02*
X29281600Y-326095800D01*
X29281600Y-326095800D02*
X29981600Y-326095800D01*
X29981600Y-326095800D02*
X29631600Y-326595800D01*
X29281600Y-326595800D02*
X29981600Y-326595800D01*
X31955600Y-327645800D02*
X31955600Y-325245800D01*
X30355600Y-327645800D02*
X30355600Y-325245800D01*
X37184561Y-192868800D02*
G75*
G03X37184561Y-192868800I-567961J0D01*
G01*
X35789600Y-191861800D02*
X35789600Y-192216800D01*
X43539600Y-191861800D02*
X43539600Y-192216800D01*
X43539600Y-202511800D02*
X43539600Y-202156800D01*
X35789600Y-202511800D02*
X35789600Y-202156800D01*
X35789600Y-191861800D02*
X43539600Y-191861800D01*
X35789600Y-202511800D02*
X43539600Y-202511800D01*
X35789600Y-192216800D02*
X34264600Y-192216800D01*
X90591600Y-209251800D02*
X44871600Y-209251800D01*
X44871600Y-209251800D02*
X44871600Y-229571800D01*
X44871600Y-229571800D02*
X90591600Y-229571800D01*
X90591600Y-229571800D02*
X90591600Y-209251800D01*
X38648600Y-133559800D02*
X39918600Y-133559800D01*
X39918600Y-133559800D02*
X40045600Y-133686800D01*
X40045600Y-133686800D02*
X40045600Y-134956800D01*
X40045600Y-134956800D02*
X39918600Y-135083800D01*
X39918600Y-135083800D02*
X38648600Y-135083800D01*
X37124600Y-135083800D02*
X36997600Y-134956800D01*
X36997600Y-134956800D02*
X36997600Y-133686800D01*
X36997600Y-133686800D02*
X37124600Y-133559800D01*
X38394600Y-133559800D02*
X37124600Y-133559800D01*
X37124600Y-135083800D02*
X38394600Y-135083800D01*
X38648600Y-135337800D02*
X39918600Y-135337800D01*
X39918600Y-135337800D02*
X40045600Y-135464800D01*
X40045600Y-135464800D02*
X40045600Y-136734800D01*
X40045600Y-136734800D02*
X39918600Y-136861800D01*
X39918600Y-136861800D02*
X38648600Y-136861800D01*
X37124600Y-136861800D02*
X36997600Y-136734800D01*
X36997600Y-136734800D02*
X36997600Y-135464800D01*
X36997600Y-135464800D02*
X37124600Y-135337800D01*
X38394600Y-135337800D02*
X37124600Y-135337800D01*
X37124600Y-136861800D02*
X38394600Y-136861800D01*
X38648600Y-137115800D02*
X39918600Y-137115800D01*
X39918600Y-137115800D02*
X40045600Y-137242800D01*
X40045600Y-137242800D02*
X40045600Y-138512800D01*
X40045600Y-138512800D02*
X39918600Y-138639800D01*
X39918600Y-138639800D02*
X38648600Y-138639800D01*
X37124600Y-138639800D02*
X36997600Y-138512800D01*
X36997600Y-138512800D02*
X36997600Y-137242800D01*
X36997600Y-137242800D02*
X37124600Y-137115800D01*
X38394600Y-137115800D02*
X37124600Y-137115800D01*
X37124600Y-138639800D02*
X38394600Y-138639800D01*
X38648600Y-325583800D02*
X39918600Y-325583800D01*
X39918600Y-325583800D02*
X40045600Y-325710800D01*
X40045600Y-325710800D02*
X40045600Y-326980800D01*
X40045600Y-326980800D02*
X39918600Y-327107800D01*
X39918600Y-327107800D02*
X38648600Y-327107800D01*
X37124600Y-327107800D02*
X36997600Y-326980800D01*
X36997600Y-326980800D02*
X36997600Y-325710800D01*
X36997600Y-325710800D02*
X37124600Y-325583800D01*
X38394600Y-325583800D02*
X37124600Y-325583800D01*
X37124600Y-327107800D02*
X38394600Y-327107800D01*
X38648600Y-327361800D02*
X39918600Y-327361800D01*
X39918600Y-327361800D02*
X40045600Y-327488800D01*
X40045600Y-327488800D02*
X40045600Y-328758800D01*
X40045600Y-328758800D02*
X39918600Y-328885800D01*
X39918600Y-328885800D02*
X38648600Y-328885800D01*
X37124600Y-328885800D02*
X36997600Y-328758800D01*
X36997600Y-328758800D02*
X36997600Y-327488800D01*
X36997600Y-327488800D02*
X37124600Y-327361800D01*
X38394600Y-327361800D02*
X37124600Y-327361800D01*
X37124600Y-328885800D02*
X38394600Y-328885800D01*
X38648600Y-329139800D02*
X39918600Y-329139800D01*
X39918600Y-329139800D02*
X40045600Y-329266800D01*
X40045600Y-329266800D02*
X40045600Y-330536800D01*
X40045600Y-330536800D02*
X39918600Y-330663800D01*
X39918600Y-330663800D02*
X38648600Y-330663800D01*
X37124600Y-330663800D02*
X36997600Y-330536800D01*
X36997600Y-330536800D02*
X36997600Y-329266800D01*
X36997600Y-329266800D02*
X37124600Y-329139800D01*
X38394600Y-329139800D02*
X37124600Y-329139800D01*
X37124600Y-330663800D02*
X38394600Y-330663800D01*
X37886600Y-85807800D02*
X39156600Y-85807800D01*
X39156600Y-85807800D02*
X39283600Y-85934800D01*
X39283600Y-85934800D02*
X39283600Y-87204800D01*
X39283600Y-87204800D02*
X39156600Y-87331800D01*
X39156600Y-87331800D02*
X37886600Y-87331800D01*
X36362600Y-87331800D02*
X36235600Y-87204800D01*
X36235600Y-87204800D02*
X36235600Y-85934800D01*
X36235600Y-85934800D02*
X36362600Y-85807800D01*
X37632600Y-85807800D02*
X36362600Y-85807800D01*
X36362600Y-87331800D02*
X37632600Y-87331800D01*
X37886600Y-87585800D02*
X39156600Y-87585800D01*
X39156600Y-87585800D02*
X39283600Y-87712800D01*
X39283600Y-87712800D02*
X39283600Y-88982800D01*
X39283600Y-88982800D02*
X39156600Y-89109800D01*
X39156600Y-89109800D02*
X37886600Y-89109800D01*
X36362600Y-89109800D02*
X36235600Y-88982800D01*
X36235600Y-88982800D02*
X36235600Y-87712800D01*
X36235600Y-87712800D02*
X36362600Y-87585800D01*
X37632600Y-87585800D02*
X36362600Y-87585800D01*
X36362600Y-89109800D02*
X37632600Y-89109800D01*
X37886600Y-89363800D02*
X39156600Y-89363800D01*
X39156600Y-89363800D02*
X39283600Y-89490800D01*
X39283600Y-89490800D02*
X39283600Y-90760800D01*
X39283600Y-90760800D02*
X39156600Y-90887800D01*
X39156600Y-90887800D02*
X37886600Y-90887800D01*
X36362600Y-90887800D02*
X36235600Y-90760800D01*
X36235600Y-90760800D02*
X36235600Y-89490800D01*
X36235600Y-89490800D02*
X36362600Y-89363800D01*
X37632600Y-89363800D02*
X36362600Y-89363800D01*
X36362600Y-90887800D02*
X37632600Y-90887800D01*
X37632600Y-277831800D02*
X38902600Y-277831800D01*
X38902600Y-277831800D02*
X39029600Y-277958800D01*
X39029600Y-277958800D02*
X39029600Y-279228800D01*
X39029600Y-279228800D02*
X38902600Y-279355800D01*
X38902600Y-279355800D02*
X37632600Y-279355800D01*
X36108600Y-279355800D02*
X35981600Y-279228800D01*
X35981600Y-279228800D02*
X35981600Y-277958800D01*
X35981600Y-277958800D02*
X36108600Y-277831800D01*
X37378600Y-277831800D02*
X36108600Y-277831800D01*
X36108600Y-279355800D02*
X37378600Y-279355800D01*
X37632600Y-279609800D02*
X38902600Y-279609800D01*
X38902600Y-279609800D02*
X39029600Y-279736800D01*
X39029600Y-279736800D02*
X39029600Y-281006800D01*
X39029600Y-281006800D02*
X38902600Y-281133800D01*
X38902600Y-281133800D02*
X37632600Y-281133800D01*
X36108600Y-281133800D02*
X35981600Y-281006800D01*
X35981600Y-281006800D02*
X35981600Y-279736800D01*
X35981600Y-279736800D02*
X36108600Y-279609800D01*
X37378600Y-279609800D02*
X36108600Y-279609800D01*
X36108600Y-281133800D02*
X37378600Y-281133800D01*
X37632600Y-281387800D02*
X38902600Y-281387800D01*
X38902600Y-281387800D02*
X39029600Y-281514800D01*
X39029600Y-281514800D02*
X39029600Y-282784800D01*
X39029600Y-282784800D02*
X38902600Y-282911800D01*
X38902600Y-282911800D02*
X37632600Y-282911800D01*
X36108600Y-282911800D02*
X35981600Y-282784800D01*
X35981600Y-282784800D02*
X35981600Y-281514800D01*
X35981600Y-281514800D02*
X36108600Y-281387800D01*
X37378600Y-281387800D02*
X36108600Y-281387800D01*
X36108600Y-282911800D02*
X37378600Y-282911800D01*
D12*
X20190200Y-370559000D02*
X17190200Y-370559000D01*
X17190200Y-370559000D02*
X17190200Y-377859000D01*
X17190200Y-377859000D02*
X20190200Y-377859000D01*
X21190200Y-376209000D02*
X21190200Y-372209000D01*
X20190200Y-389749000D02*
X17190200Y-389749000D01*
X17190200Y-389749000D02*
X17190200Y-397049000D01*
X17190200Y-397049000D02*
X20190200Y-397049000D01*
X21190200Y-395399000D02*
X21190200Y-391399000D01*
X20190200Y-408939000D02*
X17190200Y-408939000D01*
X17190200Y-408939000D02*
X17190200Y-416239000D01*
X17190200Y-416239000D02*
X20190200Y-416239000D01*
X21190200Y-414589000D02*
X21190200Y-410589000D01*
X58153600Y-199081800D02*
X55173600Y-199081800D01*
X55173600Y-199081800D02*
X55173600Y-191481800D01*
X55173600Y-191481800D02*
X58153600Y-191481800D01*
X79033600Y-199081800D02*
X79033600Y-191481800D01*
X79033600Y-199081800D02*
G75*
G02X58153600Y-199081800I-10440000J3814631D01*
G01*
X79033600Y-191481800D02*
G75*
G03X58153600Y-191481800I-10440000J-3814631D01*
G01*
D11*
X99874895Y-332207000D02*
X99874895Y-333477000D01*
X99239895Y-332842000D02*
X100382895Y-332842000D01*
X105462895Y-334747000D02*
G75*
G03X105462895Y-334747000I-3810000J0D01*
G01*
X97828060Y-318421000D02*
X97828060Y-320620640D01*
X95628420Y-318421000D02*
X94828320Y-318421000D01*
X94828320Y-318421000D02*
X94828320Y-320620640D01*
X100129300Y-318421000D02*
X100827800Y-318421000D01*
X100827800Y-318421000D02*
X100827800Y-320620640D01*
X96527580Y-318421000D02*
X99227600Y-318421000D01*
X96527580Y-318321940D02*
X95628420Y-317620900D01*
X95628420Y-317620900D02*
X95628420Y-319122040D01*
X95628420Y-319122040D02*
X96527580Y-318421000D01*
X99128540Y-318321940D02*
X100027700Y-317620900D01*
X100027700Y-317620900D02*
X100027700Y-319122040D01*
X100027700Y-319122040D02*
X99128540Y-318321940D01*
X96527580Y-317620900D02*
X96527580Y-319122040D01*
X99128540Y-317620900D02*
X99128540Y-319122040D01*
X95288060Y-321138800D02*
X95288060Y-322535800D01*
X97828060Y-321138800D02*
X97828060Y-322535800D01*
X100368060Y-321138800D02*
X100368060Y-322535800D01*
X100342532Y-308057800D02*
G75*
G03X100342532Y-308057800I-2514472J0D01*
G01*
X103162060Y-312629800D02*
X103162060Y-304628800D01*
X103162060Y-304628800D02*
X92494060Y-304628800D01*
X92494060Y-304628800D02*
X92494060Y-312629800D01*
X103162060Y-321138800D02*
X103162060Y-312629800D01*
X103162060Y-312629800D02*
X92494060Y-312629800D01*
X92494060Y-312629800D02*
X92494060Y-321138800D01*
X97828060Y-321138800D02*
X92494060Y-321138800D01*
X97828060Y-321138800D02*
X103162060Y-321138800D01*
X24043600Y-202012800D02*
X24043600Y-207092800D01*
X23763600Y-199192800D02*
X25313600Y-199192800D01*
X26583600Y-199472800D02*
X26583600Y-202012800D01*
X26583600Y-202012800D02*
X24043600Y-202012800D01*
X24043600Y-207092800D02*
X29123600Y-207092800D01*
X29123600Y-207092800D02*
X29123600Y-202012800D01*
X23763600Y-199192800D02*
X23763600Y-200742800D01*
X29123600Y-199472800D02*
X26583600Y-199472800D01*
X29123600Y-202012800D02*
X29123600Y-199472800D01*
D13*
X59146400Y-131878600D02*
X41493400Y-131878600D01*
X41493400Y-131878600D02*
X41493400Y-139305000D01*
X41493400Y-139305000D02*
X59146400Y-139305000D01*
X59146400Y-139305000D02*
X59146400Y-131878600D01*
X58740000Y-132442200D02*
G75*
G03X58740000Y-132442200I-533400J0D01*
G01*
X59146400Y-323902600D02*
X41493400Y-323902600D01*
X41493400Y-323902600D02*
X41493400Y-331329000D01*
X41493400Y-331329000D02*
X59146400Y-331329000D01*
X59146400Y-331329000D02*
X59146400Y-323902600D01*
X58740000Y-324466200D02*
G75*
G03X58740000Y-324466200I-533400J0D01*
G01*
D11*
X91479895Y-332207000D02*
X91479895Y-333477000D01*
X90844895Y-332842000D02*
X91987895Y-332842000D01*
X97067895Y-334747000D02*
G75*
G03X97067895Y-334747000I-3810000J0D01*
G01*
D13*
X28484781Y-217125800D02*
X33441600Y-212168981D01*
X33441600Y-212168981D02*
X38398419Y-217125800D01*
X38398419Y-217125800D02*
X33692623Y-221831596D01*
X33190577Y-221831596D02*
X28484781Y-217125800D01*
X33190577Y-221831596D02*
X33692623Y-221831596D01*
X33800800Y-221005271D02*
G75*
G03X33800800Y-221005271I-359200J0D01*
G01*
D11*
X67477600Y-125939800D02*
X67477600Y-146259800D01*
X67477600Y-146259800D02*
X31917600Y-146259800D01*
X31917600Y-146259800D02*
X31917600Y-125939800D01*
X31917600Y-125939800D02*
X67477600Y-125939800D01*
X67223600Y-77171800D02*
X67223600Y-97491800D01*
X67223600Y-97491800D02*
X31663600Y-97491800D01*
X31663600Y-97491800D02*
X31663600Y-77171800D01*
X31663600Y-77171800D02*
X67223600Y-77171800D01*
D13*
X59146400Y-83618600D02*
X41493400Y-83618600D01*
X41493400Y-83618600D02*
X41493400Y-91045000D01*
X41493400Y-91045000D02*
X59146400Y-91045000D01*
X59146400Y-91045000D02*
X59146400Y-83618600D01*
X58740000Y-84182200D02*
G75*
G03X58740000Y-84182200I-533400J0D01*
G01*
D11*
X67223600Y-269195800D02*
X67223600Y-289515800D01*
X67223600Y-289515800D02*
X31663600Y-289515800D01*
X31663600Y-289515800D02*
X31663600Y-269195800D01*
X31663600Y-269195800D02*
X67223600Y-269195800D01*
D13*
X59146400Y-275642600D02*
X41493400Y-275642600D01*
X41493400Y-275642600D02*
X41493400Y-283069000D01*
X41493400Y-283069000D02*
X59146400Y-283069000D01*
X59146400Y-283069000D02*
X59146400Y-275642600D01*
X58740000Y-276206200D02*
G75*
G03X58740000Y-276206200I-533400J0D01*
G01*
D11*
X67477600Y-317963800D02*
X67477600Y-338283800D01*
X67477600Y-338283800D02*
X31917600Y-338283800D01*
X31917600Y-338283800D02*
X31917600Y-317963800D01*
X31917600Y-317963800D02*
X67477600Y-317963800D01*
X61285600Y-283327800D02*
X61985600Y-283327800D01*
X61985600Y-284527800D02*
X61285600Y-284527800D01*
X61031600Y-331841800D02*
X61731600Y-331841800D01*
X61731600Y-333041800D02*
X61031600Y-333041800D01*
X29541351Y-212222577D02*
X29046377Y-212717551D01*
X28197849Y-211869023D02*
X28692823Y-211374049D01*
X61412600Y-91430800D02*
X62112600Y-91430800D01*
X62112600Y-92630800D02*
X61412600Y-92630800D01*
X60904600Y-139817800D02*
X61604600Y-139817800D01*
X61604600Y-141017800D02*
X60904600Y-141017800D01*
X32263600Y-194550800D02*
X32263600Y-195250800D01*
X31063600Y-195250800D02*
X31063600Y-194550800D01*
X22130600Y-380614800D02*
X21130600Y-380614800D01*
X21130600Y-379264800D02*
X22130600Y-379264800D01*
X22003600Y-399791800D02*
X21003600Y-399791800D01*
X21003600Y-398441800D02*
X22003600Y-398441800D01*
X27591600Y-223642800D02*
X26591600Y-223642800D01*
X26591600Y-222292800D02*
X27591600Y-222292800D01*
X25686600Y-411602800D02*
X24686600Y-411602800D01*
X24686600Y-410252800D02*
X25686600Y-410252800D01*
X26591600Y-220641800D02*
X27591600Y-220641800D01*
X27591600Y-221991800D02*
X26591600Y-221991800D01*
X33195600Y-281474800D02*
X34195600Y-281474800D01*
X34195600Y-282824800D02*
X33195600Y-282824800D01*
X33195600Y-279696800D02*
X34195600Y-279696800D01*
X34195600Y-281046800D02*
X33195600Y-281046800D01*
X33195600Y-277918800D02*
X34195600Y-277918800D01*
X34195600Y-279268800D02*
X33195600Y-279268800D01*
X33449600Y-89450800D02*
X34449600Y-89450800D01*
X34449600Y-90800800D02*
X33449600Y-90800800D01*
X33449600Y-87672800D02*
X34449600Y-87672800D01*
X34449600Y-89022800D02*
X33449600Y-89022800D01*
X33449600Y-85894800D02*
X34449600Y-85894800D01*
X34449600Y-87244800D02*
X33449600Y-87244800D01*
X34211600Y-329226800D02*
X35211600Y-329226800D01*
X35211600Y-330576800D02*
X34211600Y-330576800D01*
X34211600Y-327448800D02*
X35211600Y-327448800D01*
X35211600Y-328798800D02*
X34211600Y-328798800D01*
X34211600Y-135424800D02*
X35211600Y-135424800D01*
X35211600Y-136774800D02*
X34211600Y-136774800D01*
X34211600Y-133646800D02*
X35211600Y-133646800D01*
X35211600Y-134996800D02*
X34211600Y-134996800D01*
X34211600Y-325670800D02*
X35211600Y-325670800D01*
X35211600Y-327020800D02*
X34211600Y-327020800D01*
X34211600Y-137202800D02*
X35211600Y-137202800D01*
X35211600Y-138552800D02*
X34211600Y-138552800D01*
X29657600Y-186518800D02*
X29657600Y-188068800D01*
X29657600Y-188068800D02*
X26557600Y-188068800D01*
X26557600Y-188068800D02*
X26557600Y-186518800D01*
X26837600Y-185248800D02*
X26837600Y-175088800D01*
X26837600Y-175088800D02*
X29377600Y-175088800D01*
X29377600Y-175088800D02*
X29377600Y-185248800D01*
X26837600Y-185248800D02*
X29377600Y-185248800D01*
X26837600Y-170135800D02*
X26837600Y-157435800D01*
X26837600Y-157435800D02*
X29377600Y-157435800D01*
X29377600Y-157435800D02*
X29377600Y-170135800D01*
X26557600Y-172955800D02*
X26557600Y-171405800D01*
X26837600Y-170135800D02*
X29377600Y-170135800D01*
X29657600Y-171405800D02*
X29657600Y-172955800D01*
X29657600Y-172955800D02*
X26557600Y-172955800D01*
X95979800Y-352017381D02*
X95979800Y-351017381D01*
X96217895Y-351017381D01*
X96360753Y-351065000D01*
X96455991Y-351160238D01*
X96503610Y-351255476D01*
X96551229Y-351445952D01*
X96551229Y-351588810D01*
X96503610Y-351779286D01*
X96455991Y-351874524D01*
X96360753Y-351969762D01*
X96217895Y-352017381D01*
X95979800Y-352017381D01*
X97503610Y-352017381D02*
X96932181Y-352017381D01*
X97217895Y-352017381D02*
X97217895Y-351017381D01*
X97122657Y-351160238D01*
X97027419Y-351255476D01*
X96932181Y-351303095D01*
X93205990Y-357767381D02*
X93205990Y-356767381D01*
X93777419Y-357767381D02*
X93348847Y-357195952D01*
X93777419Y-356767381D02*
X93205990Y-357338810D01*
X99529800Y-357431667D02*
X100005991Y-357431667D01*
X99434562Y-357717381D02*
X99767895Y-356717381D01*
X100101229Y-357717381D01*
D14*
X84699217Y-195696183D02*
X84754371Y-195714568D01*
X84772756Y-195732952D01*
X84791141Y-195769722D01*
X84791141Y-195824876D01*
X84772756Y-195861646D01*
X84754371Y-195880030D01*
X84717602Y-195898415D01*
X84570524Y-195898415D01*
X84570524Y-195512335D01*
X84699217Y-195512335D01*
X84735987Y-195530720D01*
X84754371Y-195549105D01*
X84772756Y-195585874D01*
X84772756Y-195622644D01*
X84754371Y-195659413D01*
X84735987Y-195677798D01*
X84699217Y-195696183D01*
X84570524Y-195696183D01*
X84901450Y-195512335D02*
X85122067Y-195512335D01*
X85011758Y-195898415D02*
X85011758Y-195512335D01*
X85452992Y-195898415D02*
X85232375Y-195898415D01*
X85342684Y-195898415D02*
X85342684Y-195512335D01*
X85305914Y-195567490D01*
X85269145Y-195604259D01*
X85232375Y-195622644D01*
X84699217Y-194426183D02*
X84754371Y-194444568D01*
X84772756Y-194462952D01*
X84791141Y-194499722D01*
X84791141Y-194554876D01*
X84772756Y-194591646D01*
X84754371Y-194610030D01*
X84717602Y-194628415D01*
X84570524Y-194628415D01*
X84570524Y-194242335D01*
X84699217Y-194242335D01*
X84735987Y-194260720D01*
X84754371Y-194279105D01*
X84772756Y-194315874D01*
X84772756Y-194352644D01*
X84754371Y-194389413D01*
X84735987Y-194407798D01*
X84699217Y-194426183D01*
X84570524Y-194426183D01*
X84938219Y-194518107D02*
X85122067Y-194518107D01*
X84901450Y-194628415D02*
X85030143Y-194242335D01*
X85158836Y-194628415D01*
X85232376Y-194242335D02*
X85452993Y-194242335D01*
X85342684Y-194628415D02*
X85342684Y-194242335D01*
X85526532Y-194242335D02*
X85747149Y-194242335D01*
X85636840Y-194628415D02*
X85636840Y-194242335D01*
X85875842Y-194426183D02*
X86004535Y-194426183D01*
X86059689Y-194628415D02*
X85875842Y-194628415D01*
X85875842Y-194242335D01*
X86059689Y-194242335D01*
X86445769Y-194628415D02*
X86317076Y-194444568D01*
X86225152Y-194628415D02*
X86225152Y-194242335D01*
X86372230Y-194242335D01*
X86408999Y-194260720D01*
X86427384Y-194279105D01*
X86445769Y-194315874D01*
X86445769Y-194371029D01*
X86427384Y-194407798D01*
X86408999Y-194426183D01*
X86372230Y-194444568D01*
X86225152Y-194444568D01*
X86684771Y-194444568D02*
X86684771Y-194628415D01*
X86556078Y-194242335D02*
X86684771Y-194444568D01*
X86813464Y-194242335D01*
D11*
X60149458Y-333555086D02*
X60220886Y-333555086D01*
X60292315Y-333590800D01*
X60328029Y-333626514D01*
X60363743Y-333697943D01*
X60399458Y-333840800D01*
X60399458Y-334019371D01*
X60363743Y-334162229D01*
X60328029Y-334233657D01*
X60292315Y-334269371D01*
X60220886Y-334305086D01*
X60149458Y-334305086D01*
X60078029Y-334269371D01*
X60042315Y-334233657D01*
X60006600Y-334162229D01*
X59970886Y-334019371D01*
X59970886Y-333840800D01*
X60006600Y-333697943D01*
X60042315Y-333626514D01*
X60078029Y-333590800D01*
X60149458Y-333555086D01*
X60720886Y-334233657D02*
X60756601Y-334269371D01*
X60720886Y-334305086D01*
X60685172Y-334269371D01*
X60720886Y-334233657D01*
X60720886Y-334305086D01*
X61470887Y-334305086D02*
X61042315Y-334305086D01*
X61256601Y-334305086D02*
X61256601Y-333555086D01*
X61185172Y-333662229D01*
X61113744Y-333733657D01*
X61042315Y-333769371D01*
X62113744Y-333805086D02*
X62113744Y-334305086D01*
X61792315Y-333805086D02*
X61792315Y-334197943D01*
X61828030Y-334269371D01*
X61899458Y-334305086D01*
X62006601Y-334305086D01*
X62078030Y-334269371D01*
X62113744Y-334233657D01*
X62720886Y-333912229D02*
X62470886Y-333912229D01*
X62470886Y-334305086D02*
X62470886Y-333555086D01*
X62828029Y-333555086D01*
M02*
