M48
INCH,TZ
T1C0.025
T2C0.031
T3C0.032
T4C0.039
T5C0.040
T6C0.047
T7C0.050
T8C0.051
T9C0.098
T10C0.150
%
G90
G05
T1
X8616Y-57933
X8766Y-75133
X9066Y-58483
X9266Y-74596
X9516Y-77883
X9616Y-58933
X9816Y-88883
X9816Y-89383
X9866Y-88383
X10116Y-109383
X10116Y-110433
X10166Y-83683
X10216Y-85533
X10216Y-86683
X10516Y-110883
X10566Y-109133
X10666Y-90583
X10966Y-27283
X10966Y-102883
X11016Y-40133
X11016Y-82183
X11116Y-90983
X11316Y-40583
X11466Y-90233
X12066Y-49183
X12066Y-124783
X12216Y-79983
X12416Y-84833
X12416Y-89133
X12466Y-42183
X12466Y-117783
X12516Y-85783
X12866Y-18783
X12866Y-42583
X12866Y-84483
X12866Y-94383
X12866Y-118183
X12966Y-79233
X12966Y-85883
X13166Y-16783
X13166Y-26283
X13166Y-92383
X13166Y-101883
X13266Y-45283
X13266Y-120883
X13616Y-86533
X13666Y-84533
X13866Y-85433
X14516Y-83133
X16116Y-85633
X16416Y-87783
X16466Y-43383
X16466Y-118983
X16566Y-85283
X16566Y-87083
X17066Y-52283
X17066Y-84883
X17066Y-127883
X17266Y-88033
X17566Y-33183
X17566Y-35583
X17566Y-108783
X17566Y-111183
X18066Y-52283
X18066Y-127883
X18566Y-33183
X18566Y-54583
X18566Y-108783
X18566Y-130183
X18766Y-89483
X19816Y-90783
X19866Y-92833
X19966Y-101083
X20266Y-91133
X20666Y-90733
X20966Y-25783
X21316Y-92683
X21516Y-93233
X21566Y-93983
X21616Y-91583
X21866Y-16983
X21966Y-92583
X23366Y-14783
X23366Y-24283
X23366Y-80883
X23366Y-99883
X23366Y-156483
X23416Y-90733
X23466Y-43183
X23466Y-61983
X23466Y-71483
X23466Y-118783
X23466Y-137583
X23466Y-147083
X23566Y-52783
X23566Y-128383
X23666Y-110433
X23716Y-32933
X23716Y-34833
X23766Y-15183
X23766Y-24583
X23766Y-27283
X23766Y-91033
X23766Y-100183
X23766Y-102883
X23866Y-43483
X23866Y-62383
X23866Y-71883
X23866Y-81283
X23866Y-108183
X23866Y-119083
X23866Y-137983
X23866Y-147483
X23866Y-156883
X24166Y-93983
X24716Y-33283
X24816Y-108883
X25266Y-33883
X25266Y-52783
X25266Y-109483
X25266Y-128383
X25766Y-88533
X26066Y-114433
X26116Y-36883
X26116Y-112483
X26216Y-38783
X27266Y-33383
X27266Y-44883
X27266Y-108983
X27266Y-120483
X27766Y-33383
X27766Y-54383
X27766Y-108983
X27766Y-129983
X28166Y-88783
X28266Y-33383
X28266Y-63783
X28266Y-108983
X28266Y-139383
X28766Y-33383
X28766Y-73283
X28766Y-108983
X28766Y-148883
X28966Y-88533
X29266Y-33383
X29266Y-82683
X29266Y-108983
X29266Y-158283
X30166Y-52983
X30166Y-62783
X30166Y-128583
X30166Y-138383
X30666Y-52983
X30666Y-128583
X30716Y-92533
X30766Y-72283
X30766Y-147883
X31166Y-52983
X31166Y-81683
X31166Y-128583
X31166Y-157283
X31666Y-84633
X32216Y-84433
X32416Y-92583
X32866Y-14783
X32866Y-24183
X32866Y-33683
X32866Y-43083
X32866Y-52583
X32866Y-61983
X32866Y-71383
X32866Y-80883
X32866Y-90683
X32866Y-99783
X32866Y-109283
X32866Y-118683
X32866Y-128183
X32866Y-137583
X32866Y-146983
X32866Y-156483
X33166Y-91033
X33266Y-15183
X33266Y-24683
X33266Y-34083
X33266Y-43483
X33266Y-52983
X33266Y-62383
X33266Y-71783
X33266Y-81183
X33266Y-100283
X33266Y-109683
X33266Y-119083
X33266Y-128583
X33266Y-137983
X33266Y-147383
X33266Y-156783
X36916Y-73683
X37166Y-98833
X37416Y-73783
X37866Y-80233
X39066Y-79133
X39916Y-98233
X41616Y-91133
X42266Y-14783
X42266Y-24283
X42266Y-33683
X42266Y-43083
X42266Y-52483
X42266Y-61983
X42266Y-71583
X42266Y-99883
X42266Y-109283
X42266Y-118683
X42266Y-128083
X42266Y-137583
X42266Y-147183
X42266Y-156483
X42666Y-15183
X42666Y-24583
X42666Y-34083
X42666Y-43483
X42666Y-52983
X42666Y-62383
X42666Y-71883
X42666Y-90783
X42666Y-100183
X42666Y-109683
X42666Y-119083
X42666Y-128583
X42666Y-137983
X42666Y-147483
X42666Y-156883
X44016Y-85683
X44866Y-85583
X45766Y-85133
X46266Y-84833
X47116Y-84983
X47466Y-89633
X47816Y-89233
X48116Y-84883
X48866Y-90683
X49416Y-90683
X49516Y-84233
X50316Y-83933
X51516Y-83583
X51666Y-14783
X51666Y-24183
X51666Y-33683
X51666Y-43083
X51666Y-52483
X51666Y-61983
X51666Y-71383
X51666Y-99783
X51666Y-109283
X51666Y-118683
X51666Y-128083
X51666Y-137583
X51666Y-146983
X51666Y-156583
X52066Y-15183
X52066Y-24683
X52066Y-33983
X52066Y-43483
X52066Y-52983
X52066Y-62383
X52066Y-71883
X52066Y-100283
X52066Y-109583
X52066Y-119083
X52066Y-128583
X52066Y-137983
X52066Y-147483
X52066Y-156883
X52516Y-83333
X53216Y-83083
X58116Y-73733
X58566Y-73683
X61166Y-14783
X61166Y-24283
X61166Y-33683
X61166Y-43083
X61166Y-52583
X61166Y-61983
X61166Y-71383
X61166Y-80883
X61166Y-90383
X61166Y-99883
X61166Y-109283
X61166Y-118683
X61166Y-128183
X61166Y-137583
X61166Y-146983
X61166Y-156483
X61566Y-15183
X61566Y-24583
X61566Y-34083
X61566Y-43483
X61566Y-52983
X61566Y-62383
X61566Y-71883
X61566Y-81183
X61566Y-90783
X61566Y-100183
X61566Y-109683
X61566Y-119083
X61566Y-128583
X61566Y-137983
X61566Y-147483
X61566Y-156783
X70305Y-80906
X70394Y-99780
X70566Y-14883
X70566Y-24183
X70566Y-33683
X70566Y-43083
X70566Y-52483
X70566Y-61983
X70566Y-71483
X70566Y-90483
X70566Y-109283
X70566Y-118683
X70566Y-128083
X70566Y-137583
X70566Y-147083
X70566Y-156483
X70966Y-15183
X70966Y-24683
X70966Y-34083
X70966Y-43483
X70966Y-52983
X70966Y-62383
X70966Y-71783
X70966Y-81183
X70966Y-90711
X70966Y-100283
X70966Y-109683
X70966Y-119083
X70966Y-128583
X70966Y-137983
X70966Y-147383
X70966Y-156783
X80066Y-14783
X80066Y-24283
X80066Y-33583
X80066Y-43033
X80066Y-52583
X80066Y-61983
X80066Y-71483
X80066Y-80883
X80066Y-90383
X80066Y-99883
X80066Y-109033
X80066Y-118483
X80066Y-128183
X80066Y-137583
X80066Y-147083
X80066Y-156483
X80466Y-15183
X80466Y-24683
X80466Y-34133
X80466Y-43433
X80466Y-52983
X80466Y-62383
X80466Y-81183
X80466Y-90783
X80466Y-100283
X80466Y-109633
X80466Y-119033
X80466Y-128583
X80466Y-137983
X80466Y-147483
X80466Y-156783
X80598Y-71883
X89250Y-99930
X89383Y-81127
X89466Y-14883
X89466Y-24283
X89466Y-33683
X89466Y-43083
X89466Y-52583
X89466Y-61983
X89466Y-71483
X89466Y-90483
X89466Y-109283
X89466Y-118683
X89466Y-128183
X89466Y-137583
X89466Y-147083
X89466Y-156483
X89966Y-15183
X89966Y-24583
X89966Y-34083
X89966Y-43483
X89966Y-52983
X89966Y-62383
X89966Y-71783
X89966Y-81240
X89966Y-90783
X89966Y-100183
X89966Y-109683
X89966Y-119083
X89966Y-128583
X89966Y-137983
X89966Y-147383
X89966Y-156883
X98966Y-14883
X98966Y-24083
X98966Y-33533
X98966Y-43083
X98966Y-52583
X98966Y-62083
X98966Y-71483
X98966Y-80883
X98966Y-99883
X98966Y-109283
X98966Y-118683
X98966Y-128183
X98966Y-137683
X98966Y-147083
X98966Y-156483
X99016Y-90433
X99366Y-15183
X99366Y-24583
X99366Y-33983
X99366Y-43483
X99366Y-52983
X99366Y-62383
X99366Y-81183
X99366Y-100183
X99366Y-109583
X99366Y-119083
X99366Y-128583
X99366Y-137983
X99366Y-147483
X99366Y-156783
X99391Y-71883
X99440Y-90749
X108366Y-14883
X108366Y-24183
X108366Y-33683
X108366Y-43183
X108366Y-52583
X108366Y-61983
X108366Y-71483
X108366Y-80983
X108366Y-90483
X108366Y-99783
X108366Y-109283
X108366Y-118783
X108366Y-128183
X108366Y-137583
X108366Y-147083
X108366Y-156583
X108766Y-15183
X108766Y-24683
X108766Y-34083
X108766Y-43483
X108766Y-52883
X108766Y-62383
X108766Y-71783
X108766Y-81283
X108766Y-90783
X108766Y-100283
X108766Y-109683
X108766Y-119083
X108766Y-128483
X108766Y-137983
X108766Y-147383
X108766Y-156883
X117766Y-24283
X117766Y-33783
X117766Y-43183
X117766Y-52583
X117766Y-62083
X117766Y-71483
X117766Y-80983
X117766Y-99883
X117766Y-109383
X117766Y-118783
X117766Y-128183
X117766Y-137683
X117766Y-147083
X117766Y-156583
X117866Y-14883
X117866Y-90483
X118266Y-15183
X118266Y-24583
X118266Y-34083
X118266Y-43483
X118266Y-52983
X118266Y-62383
X118266Y-71883
X118266Y-81283
X118266Y-90783
X118266Y-100183
X118266Y-109683
X118266Y-119083
X118266Y-128583
X118266Y-137983
X118266Y-147483
X118266Y-156883
X127266Y-14783
X127266Y-24283
X127266Y-33683
X127266Y-43083
X127266Y-52583
X127266Y-61983
X127266Y-71483
X127266Y-80983
X127266Y-90383
X127266Y-99883
X127266Y-109283
X127266Y-118683
X127266Y-128183
X127266Y-137583
X127266Y-147083
X127266Y-156583
X127666Y-15183
X127666Y-24583
X127666Y-34083
X127666Y-43483
X127666Y-52983
X127666Y-62383
X127666Y-71883
X127666Y-81283
X127666Y-90783
X127666Y-100183
X127666Y-109683
X127666Y-119083
X127666Y-128583
X127666Y-137983
X127666Y-147483
X127666Y-156883
X136666Y-14783
X136666Y-24283
X136666Y-33683
X136666Y-43183
X136666Y-52583
X136666Y-61983
X136666Y-71483
X136666Y-80983
X136666Y-90383
X136666Y-99883
X136666Y-109283
X136666Y-118783
X136666Y-128183
X136666Y-137583
X136666Y-147083
X136666Y-156583
X137066Y-24583
X137066Y-33983
X137066Y-43483
X137066Y-52983
X137066Y-62383
X137066Y-71783
X137066Y-81283
X137066Y-100183
X137066Y-109583
X137066Y-119083
X137066Y-128583
X137066Y-137983
X137066Y-147383
X137066Y-156883
X137166Y-15183
X137166Y-90783
X146066Y-14883
X146066Y-24283
X146066Y-33783
X146066Y-43183
X146066Y-52683
X146066Y-62183
X146066Y-71583
X146066Y-90483
X146066Y-99883
X146066Y-109383
X146066Y-118783
X146066Y-128283
X146066Y-137783
X146066Y-147183
X146166Y-80983
X146166Y-156583
X146666Y-15083
X146666Y-24583
X146666Y-33983
X146666Y-43483
X146666Y-52883
X146666Y-62283
X146666Y-71783
X146666Y-81183
X146666Y-90683
X146666Y-100183
X146666Y-109583
X146666Y-119083
X146666Y-128483
X146666Y-137883
X146666Y-147383
X146666Y-156783
X156966Y-39983
X156966Y-115583
X158266Y-41583
X158266Y-117183
T2
X7555Y-146342
X7555Y-148311
X7555Y-153897
X7555Y-155866
X7555Y-161452
X7555Y-163421
T3
X36216Y-131790
X37216Y-131790
X39521Y-131790
X40521Y-131790
T4
X7916Y-150933
X7916Y-158533
X7916Y-160033
X11916Y-150933
X11916Y-158533
X11916Y-160033
X36116Y-138833
X37515Y-127883
X38515Y-127883
X39515Y-127883
T5
X9966Y-79033
X9966Y-80033
X9966Y-81033
X10966Y-79033
X10966Y-80033
X10966Y-81033
X11066Y-62483
X11066Y-63483
X11066Y-64483
X11066Y-65483
X11066Y-66483
X11066Y-67483
X11066Y-69433
X11066Y-70433
X11066Y-71433
X11066Y-72433
X11066Y-73433
X12966Y-30883
X12966Y-37883
X12966Y-106483
X12966Y-113483
X13066Y-50083
X13066Y-57083
X13066Y-125683
X13066Y-132683
X13966Y-30883
X13966Y-37883
X13966Y-106483
X13966Y-113483
X14066Y-50083
X14066Y-57083
X14066Y-125683
X14066Y-132683
X14966Y-30883
X14966Y-37883
X14966Y-106483
X14966Y-113483
X15066Y-50083
X15066Y-57083
X15066Y-125683
X15066Y-132683
X15966Y-30883
X15966Y-37883
X15966Y-106483
X15966Y-113483
X16066Y-50083
X16066Y-57083
X16066Y-125683
X16066Y-132683
X16966Y-30883
X16966Y-37883
X16966Y-106483
X16966Y-113483
X17066Y-50083
X17066Y-57083
X17066Y-125683
X17066Y-132683
X17966Y-30883
X17966Y-37883
X17966Y-106483
X17966Y-113483
X18066Y-50083
X18066Y-57083
X18066Y-125683
X18066Y-132683
X18966Y-30883
X18966Y-37883
X18966Y-106483
X18966Y-113483
X19066Y-50083
X19066Y-57083
X19066Y-125683
X19066Y-132683
X19666Y-83383
X19666Y-89383
X19966Y-30883
X19966Y-37883
X19966Y-106483
X19966Y-113483
X20066Y-50083
X20066Y-57083
X20066Y-125683
X20066Y-132683
X20666Y-83383
X20666Y-89383
X20966Y-30883
X20966Y-37883
X20966Y-106483
X20966Y-113483
X21066Y-50083
X21066Y-57083
X21066Y-125683
X21066Y-132683
X21666Y-83383
X21666Y-89383
X21966Y-30883
X21966Y-37883
X21966Y-106483
X21966Y-113483
X22066Y-50083
X22066Y-57083
X22066Y-125683
X22066Y-132683
X22666Y-83383
X22666Y-89383
X22966Y-30883
X22966Y-37883
X22966Y-106483
X22966Y-113483
X23066Y-50083
X23066Y-57083
X23066Y-125683
X23066Y-132683
X23666Y-83383
X23666Y-89383
X23966Y-30883
X23966Y-37883
X23966Y-106483
X23966Y-113483
X24066Y-50083
X24066Y-57083
X24066Y-125683
X24066Y-132683
X24666Y-83383
X24666Y-89383
X24966Y-30883
X24966Y-37883
X24966Y-106483
X24966Y-113483
X25066Y-50083
X25066Y-57083
X25066Y-125683
X25066Y-132683
X25666Y-83383
X25666Y-89383
X25966Y-30883
X25966Y-37883
X25966Y-106483
X25966Y-113483
X26066Y-50083
X26066Y-57083
X26066Y-125683
X26066Y-132683
X26666Y-83383
X26666Y-89383
X27666Y-83383
X27666Y-89383
X28666Y-83383
X28666Y-89383
X29666Y-83383
X29666Y-89383
X30666Y-83383
X30666Y-89383
X31666Y-83383
X31666Y-89383
X32666Y-83383
X32666Y-89383
X33666Y-83383
X33666Y-89383
X37966Y-143033
X38966Y-143033
X40076Y-77583
X41076Y-77583
X42076Y-77583
X43076Y-77583
X43416Y-96583
X44076Y-77583
X44416Y-96583
X45076Y-77583
X45416Y-96583
X46076Y-77583
X46416Y-96583
X47076Y-77583
X47416Y-96583
X48076Y-77583
X48416Y-96583
X49076Y-77583
X49416Y-96583
X50416Y-77583
X50416Y-96583
X51416Y-77583
X52416Y-77583
X52416Y-96583
X53416Y-77583
X53416Y-96583
X54416Y-77583
X54416Y-96583
X55416Y-77583
X55416Y-96583
X56416Y-77583
X56416Y-96583
X57416Y-77583
X57416Y-85583
X57416Y-86583
X57416Y-87583
X57416Y-96583
X58416Y-85583
X58416Y-86583
X58416Y-87583
X62416Y-74533
X62416Y-75533
X62416Y-76533
X62416Y-77533
X62416Y-78533
X62416Y-79533
X62416Y-83533
X62416Y-84533
X62416Y-85533
X62416Y-86533
X62416Y-87533
X62416Y-88533
X62416Y-89533
X62416Y-93533
X62416Y-94533
X62416Y-95533
X62416Y-96533
X62416Y-97533
X62416Y-98533
X63416Y-73533
X63416Y-74533
X63416Y-75533
X63416Y-76533
X63416Y-77533
X63416Y-78533
X63416Y-79533
X63416Y-80533
X63416Y-82533
X63416Y-83533
X63416Y-84533
X63416Y-85533
X63416Y-86533
X63416Y-87533
X63416Y-88533
X63416Y-89533
X63416Y-90533
X63416Y-92533
X63416Y-93533
X63416Y-94533
X63416Y-95533
X63416Y-96533
X63416Y-97533
X63416Y-98533
X63416Y-99533
X64416Y-73533
X64416Y-74533
X64416Y-75533
X64416Y-76533
X64416Y-77533
X64416Y-78533
X64416Y-79533
X64416Y-80533
X64416Y-82533
X64416Y-83533
X64416Y-84533
X64416Y-85533
X64416Y-86533
X64416Y-87533
X64416Y-88533
X64416Y-89533
X64416Y-90533
X64416Y-92533
X64416Y-93533
X64416Y-94533
X64416Y-95533
X64416Y-96533
X64416Y-97533
X64416Y-98533
X64416Y-99533
X65416Y-73533
X65416Y-74533
X65416Y-75533
X65416Y-76533
X65416Y-77533
X65416Y-78533
X65416Y-79533
X65416Y-80533
X65416Y-82533
X65416Y-83533
X65416Y-84533
X65416Y-85533
X65416Y-86533
X65416Y-87533
X65416Y-88533
X65416Y-89533
X65416Y-90533
X65416Y-92533
X65416Y-93533
X65416Y-94533
X65416Y-95533
X65416Y-96533
X65416Y-97533
X65416Y-98533
X65416Y-99533
X66416Y-73533
X66416Y-74533
X66416Y-75533
X66416Y-76533
X66416Y-77533
X66416Y-78533
X66416Y-79533
X66416Y-80533
X66416Y-82533
X66416Y-83533
X66416Y-84533
X66416Y-85533
X66416Y-86533
X66416Y-87533
X66416Y-88533
X66416Y-89533
X66416Y-90533
X66416Y-92533
X66416Y-93533
X66416Y-94533
X66416Y-95533
X66416Y-96533
X66416Y-97533
X66416Y-98533
X66416Y-99533
X67416Y-73533
X67416Y-74533
X67416Y-75533
X67416Y-76533
X67416Y-77533
X67416Y-78533
X67416Y-79533
X67416Y-80533
X67416Y-82533
X67416Y-83533
X67416Y-84533
X67416Y-85533
X67416Y-86533
X67416Y-87533
X67416Y-88533
X67416Y-89533
X67416Y-90533
X67416Y-92533
X67416Y-93533
X67416Y-94533
X67416Y-95533
X67416Y-96533
X67416Y-97533
X67416Y-98533
X67416Y-99533
X68416Y-73533
X68416Y-74533
X68416Y-75533
X68416Y-76533
X68416Y-77533
X68416Y-78533
X68416Y-79533
X68416Y-80533
X68416Y-82533
X68416Y-83533
X68416Y-84533
X68416Y-85533
X68416Y-86533
X68416Y-87533
X68416Y-88533
X68416Y-89533
X68416Y-90533
X68416Y-92533
X68416Y-93533
X68416Y-94533
X68416Y-95533
X68416Y-96533
X68416Y-97533
X68416Y-98533
X68416Y-99533
X69416Y-74533
X69416Y-75533
X69416Y-76533
X69416Y-77533
X69416Y-78533
X69416Y-79533
X69416Y-83533
X69416Y-84533
X69416Y-85533
X69416Y-86533
X69416Y-87533
X69416Y-88533
X69416Y-89533
X69416Y-93533
X69416Y-94533
X69416Y-95533
X69416Y-96533
X69416Y-97533
X69416Y-98533
X70416Y-83533
X70416Y-84533
X70416Y-85533
X70416Y-86533
X70416Y-87533
X70416Y-88533
X70416Y-89533
X71416Y-74533
X71416Y-75533
X71416Y-76533
X71416Y-77533
X71416Y-78533
X71416Y-79533
X71416Y-83533
X71416Y-84533
X71416Y-85533
X71416Y-86533
X71416Y-87533
X71416Y-88533
X71416Y-89533
X71416Y-93533
X71416Y-94533
X71416Y-95533
X71416Y-96533
X71416Y-97533
X71416Y-98533
X72416Y-74533
X72416Y-75533
X72416Y-76533
X72416Y-77533
X72416Y-78533
X72416Y-79533
X72416Y-83533
X72416Y-84533
X72416Y-85533
X72416Y-86533
X72416Y-87533
X72416Y-88533
X72416Y-89533
X72416Y-93533
X72416Y-94533
X72416Y-95533
X72416Y-96533
X72416Y-97533
X72416Y-98533
X73416Y-73533
X73416Y-74533
X73416Y-75533
X73416Y-76533
X73416Y-77533
X73416Y-78533
X73416Y-79533
X73416Y-80533
X73416Y-82533
X73416Y-83533
X73416Y-84533
X73416Y-85533
X73416Y-86533
X73416Y-87533
X73416Y-88533
X73416Y-89533
X73416Y-90533
X73416Y-92533
X73416Y-93533
X73416Y-94533
X73416Y-95533
X73416Y-96533
X73416Y-97533
X73416Y-98533
X73416Y-99533
X74416Y-73533
X74416Y-74533
X74416Y-75533
X74416Y-76533
X74416Y-77533
X74416Y-78533
X74416Y-79533
X74416Y-80533
X74416Y-82533
X74416Y-83533
X74416Y-84533
X74416Y-85533
X74416Y-86533
X74416Y-87533
X74416Y-88533
X74416Y-89533
X74416Y-90533
X74416Y-92533
X74416Y-93533
X74416Y-94533
X74416Y-95533
X74416Y-96533
X74416Y-97533
X74416Y-98533
X74416Y-99533
X75416Y-73533
X75416Y-74533
X75416Y-75533
X75416Y-76533
X75416Y-77533
X75416Y-78533
X75416Y-79533
X75416Y-80533
X75416Y-82533
X75416Y-83533
X75416Y-84533
X75416Y-85533
X75416Y-86533
X75416Y-87533
X75416Y-88533
X75416Y-89533
X75416Y-90533
X75416Y-92533
X75416Y-93533
X75416Y-94533
X75416Y-95533
X75416Y-96533
X75416Y-97533
X75416Y-98533
X75416Y-99533
X76416Y-73533
X76416Y-74533
X76416Y-75533
X76416Y-76533
X76416Y-77533
X76416Y-78533
X76416Y-79533
X76416Y-80533
X76416Y-82533
X76416Y-83533
X76416Y-84533
X76416Y-85533
X76416Y-86533
X76416Y-87533
X76416Y-88533
X76416Y-89533
X76416Y-90533
X76416Y-92533
X76416Y-93533
X76416Y-94533
X76416Y-95533
X76416Y-96533
X76416Y-97533
X76416Y-98533
X76416Y-99533
X77416Y-73533
X77416Y-74533
X77416Y-75533
X77416Y-76533
X77416Y-77533
X77416Y-78533
X77416Y-79533
X77416Y-80533
X77416Y-82533
X77416Y-83533
X77416Y-84533
X77416Y-85533
X77416Y-86533
X77416Y-87533
X77416Y-88533
X77416Y-89533
X77416Y-90533
X77416Y-92533
X77416Y-93533
X77416Y-94533
X77416Y-95533
X77416Y-96533
X77416Y-97533
X77416Y-98533
X77416Y-99533
X78416Y-74533
X78416Y-75533
X78416Y-76533
X78416Y-77533
X78416Y-78533
X78416Y-79533
X78416Y-83533
X78416Y-84533
X78416Y-85533
X78416Y-86533
X78416Y-87533
X78416Y-88533
X78416Y-89533
X78416Y-93533
X78416Y-94533
X78416Y-95533
X78416Y-96533
X78416Y-97533
X78416Y-98533
X79416Y-74533
X79416Y-75533
X79416Y-76533
X79416Y-77533
X79416Y-78533
X79416Y-79533
X79416Y-83533
X79416Y-84533
X79416Y-85533
X79416Y-86533
X79416Y-87533
X79416Y-88533
X79416Y-89533
X79416Y-93533
X79416Y-94533
X79416Y-95533
X79416Y-96533
X79416Y-97533
X79416Y-98533
X80416Y-83533
X80416Y-84533
X80416Y-85533
X80416Y-86533
X80416Y-87533
X80416Y-88533
X80416Y-89533
X81416Y-74533
X81416Y-75533
X81416Y-76533
X81416Y-77533
X81416Y-78533
X81416Y-79533
X81416Y-83533
X81416Y-84533
X81416Y-85533
X81416Y-86533
X81416Y-87533
X81416Y-88533
X81416Y-89533
X81416Y-93533
X81416Y-94533
X81416Y-95533
X81416Y-96533
X81416Y-97533
X81416Y-98533
X82416Y-73533
X82416Y-74533
X82416Y-75533
X82416Y-76533
X82416Y-77533
X82416Y-78533
X82416Y-79533
X82416Y-80533
X82416Y-82533
X82416Y-83533
X82416Y-84533
X82416Y-85533
X82416Y-86533
X82416Y-87533
X82416Y-88533
X82416Y-89533
X82416Y-90533
X82416Y-92533
X82416Y-93533
X82416Y-94533
X82416Y-95533
X82416Y-96533
X82416Y-97533
X82416Y-98533
X82416Y-99533
X83416Y-73533
X83416Y-74533
X83416Y-75533
X83416Y-76533
X83416Y-77533
X83416Y-78533
X83416Y-79533
X83416Y-80533
X83416Y-82533
X83416Y-83533
X83416Y-84533
X83416Y-85533
X83416Y-86533
X83416Y-87533
X83416Y-88533
X83416Y-89533
X83416Y-90533
X83416Y-92533
X83416Y-93533
X83416Y-94533
X83416Y-95533
X83416Y-96533
X83416Y-97533
X83416Y-98533
X83416Y-99533
X84416Y-73533
X84416Y-74533
X84416Y-75533
X84416Y-76533
X84416Y-77533
X84416Y-78533
X84416Y-79533
X84416Y-80533
X84416Y-82533
X84416Y-83533
X84416Y-84533
X84416Y-85533
X84416Y-86533
X84416Y-87533
X84416Y-88533
X84416Y-89533
X84416Y-90533
X84416Y-92533
X84416Y-93533
X84416Y-94533
X84416Y-95533
X84416Y-96533
X84416Y-97533
X84416Y-98533
X84416Y-99533
X85416Y-73533
X85416Y-74533
X85416Y-75533
X85416Y-76533
X85416Y-77533
X85416Y-78533
X85416Y-79533
X85416Y-80533
X85416Y-82533
X85416Y-83533
X85416Y-84533
X85416Y-85533
X85416Y-86533
X85416Y-87533
X85416Y-88533
X85416Y-89533
X85416Y-90533
X85416Y-92533
X85416Y-93533
X85416Y-94533
X85416Y-95533
X85416Y-96533
X85416Y-97533
X85416Y-98533
X85416Y-99533
X86416Y-73533
X86416Y-74533
X86416Y-75533
X86416Y-76533
X86416Y-77533
X86416Y-78533
X86416Y-79533
X86416Y-80533
X86416Y-82533
X86416Y-83533
X86416Y-84533
X86416Y-85533
X86416Y-86533
X86416Y-87533
X86416Y-88533
X86416Y-89533
X86416Y-90533
X86416Y-92533
X86416Y-93533
X86416Y-94533
X86416Y-95533
X86416Y-96533
X86416Y-97533
X86416Y-98533
X86416Y-99533
X87416Y-73533
X87416Y-74533
X87416Y-75533
X87416Y-76533
X87416Y-77533
X87416Y-78533
X87416Y-79533
X87416Y-80533
X87416Y-82533
X87416Y-83533
X87416Y-84533
X87416Y-85533
X87416Y-86533
X87416Y-87533
X87416Y-88533
X87416Y-89533
X87416Y-90533
X87416Y-92533
X87416Y-93533
X87416Y-94533
X87416Y-95533
X87416Y-96533
X87416Y-97533
X87416Y-98533
X87416Y-99533
X88416Y-74533
X88416Y-75533
X88416Y-76533
X88416Y-77533
X88416Y-78533
X88416Y-79533
X88416Y-83533
X88416Y-84533
X88416Y-85533
X88416Y-86533
X88416Y-87533
X88416Y-88533
X88416Y-89533
X88416Y-93533
X88416Y-94533
X88416Y-95533
X88416Y-96533
X88416Y-97533
X88416Y-98533
X89416Y-83533
X89416Y-84533
X89416Y-85533
X89416Y-86533
X89416Y-87533
X89416Y-88533
X89416Y-89533
X90416Y-74533
X90416Y-75533
X90416Y-76533
X90416Y-77533
X90416Y-78533
X90416Y-79533
X90416Y-83533
X90416Y-84533
X90416Y-85533
X90416Y-86533
X90416Y-87533
X90416Y-88533
X90416Y-89533
X90416Y-93533
X90416Y-94533
X90416Y-95533
X90416Y-96533
X90416Y-97533
X90416Y-98533
X91416Y-74533
X91416Y-75533
X91416Y-76533
X91416Y-77533
X91416Y-78533
X91416Y-79533
X91416Y-83533
X91416Y-84533
X91416Y-85533
X91416Y-86533
X91416Y-87533
X91416Y-88533
X91416Y-89533
X91416Y-93533
X91416Y-94533
X91416Y-95533
X91416Y-96533
X91416Y-97533
X91416Y-98533
X92416Y-73533
X92416Y-74533
X92416Y-75533
X92416Y-76533
X92416Y-77533
X92416Y-78533
X92416Y-79533
X92416Y-80533
X92416Y-82533
X92416Y-83533
X92416Y-84533
X92416Y-85533
X92416Y-86533
X92416Y-87533
X92416Y-88533
X92416Y-89533
X92416Y-90533
X92416Y-92533
X92416Y-93533
X92416Y-94533
X92416Y-95533
X92416Y-96533
X92416Y-97533
X92416Y-98533
X92416Y-99533
X93416Y-73533
X93416Y-74533
X93416Y-75533
X93416Y-76533
X93416Y-77533
X93416Y-78533
X93416Y-79533
X93416Y-80533
X93416Y-82533
X93416Y-83533
X93416Y-84533
X93416Y-85533
X93416Y-86533
X93416Y-87533
X93416Y-88533
X93416Y-89533
X93416Y-90533
X93416Y-92533
X93416Y-93533
X93416Y-94533
X93416Y-95533
X93416Y-96533
X93416Y-97533
X93416Y-98533
X93416Y-99533
X94416Y-73533
X94416Y-74533
X94416Y-75533
X94416Y-76533
X94416Y-77533
X94416Y-78533
X94416Y-79533
X94416Y-80533
X94416Y-82533
X94416Y-83533
X94416Y-84533
X94416Y-85533
X94416Y-86533
X94416Y-87533
X94416Y-88533
X94416Y-89533
X94416Y-90533
X94416Y-92533
X94416Y-93533
X94416Y-94533
X94416Y-95533
X94416Y-96533
X94416Y-97533
X94416Y-98533
X94416Y-99533
X95416Y-73533
X95416Y-74533
X95416Y-75533
X95416Y-76533
X95416Y-77533
X95416Y-78533
X95416Y-79533
X95416Y-80533
X95416Y-82533
X95416Y-83533
X95416Y-84533
X95416Y-85533
X95416Y-86533
X95416Y-87533
X95416Y-88533
X95416Y-89533
X95416Y-90533
X95416Y-92533
X95416Y-93533
X95416Y-94533
X95416Y-95533
X95416Y-96533
X95416Y-97533
X95416Y-98533
X95416Y-99533
X96416Y-73533
X96416Y-74533
X96416Y-75533
X96416Y-76533
X96416Y-77533
X96416Y-78533
X96416Y-79533
X96416Y-80533
X96416Y-82533
X96416Y-83533
X96416Y-84533
X96416Y-85533
X96416Y-86533
X96416Y-87533
X96416Y-88533
X96416Y-89533
X96416Y-90533
X96416Y-92533
X96416Y-93533
X96416Y-94533
X96416Y-95533
X96416Y-96533
X96416Y-97533
X96416Y-98533
X96416Y-99533
X97416Y-74533
X97416Y-75533
X97416Y-76533
X97416Y-77533
X97416Y-78533
X97416Y-79533
X97416Y-83533
X97416Y-84533
X97416Y-85533
X97416Y-86533
X97416Y-87533
X97416Y-88533
X97416Y-89533
X97416Y-93533
X97416Y-94533
X97416Y-95533
X97416Y-96533
X97416Y-97533
X97416Y-98533
X98416Y-74533
X98416Y-75533
X98416Y-76533
X98416Y-77533
X98416Y-78533
X98416Y-79533
X98416Y-83533
X98416Y-84533
X98416Y-85533
X98416Y-86533
X98416Y-87533
X98416Y-88533
X98416Y-89533
X98416Y-93533
X98416Y-94533
X98416Y-95533
X98416Y-96533
X98416Y-97533
X98416Y-98533
X99416Y-83533
X99416Y-84533
X99416Y-85533
X99416Y-86533
X99416Y-87533
X99416Y-88533
X99416Y-89533
X100416Y-74533
X100416Y-75533
X100416Y-76533
X100416Y-77533
X100416Y-78533
X100416Y-79533
X100416Y-83533
X100416Y-84533
X100416Y-85533
X100416Y-86533
X100416Y-87533
X100416Y-88533
X100416Y-89533
X100416Y-93533
X100416Y-94533
X100416Y-95533
X100416Y-96533
X100416Y-97533
X100416Y-98533
X101416Y-73533
X101416Y-74533
X101416Y-75533
X101416Y-76533
X101416Y-77533
X101416Y-78533
X101416Y-79533
X101416Y-80533
X101416Y-82533
X101416Y-83533
X101416Y-84533
X101416Y-85533
X101416Y-86533
X101416Y-87533
X101416Y-88533
X101416Y-89533
X101416Y-90533
X101416Y-92533
X101416Y-93533
X101416Y-94533
X101416Y-95533
X101416Y-96533
X101416Y-97533
X101416Y-98533
X101416Y-99533
X102416Y-73533
X102416Y-74533
X102416Y-75533
X102416Y-76533
X102416Y-77533
X102416Y-78533
X102416Y-79533
X102416Y-80533
X102416Y-82533
X102416Y-83533
X102416Y-84533
X102416Y-85533
X102416Y-86533
X102416Y-87533
X102416Y-88533
X102416Y-89533
X102416Y-90533
X102416Y-92533
X102416Y-93533
X102416Y-94533
X102416Y-95533
X102416Y-96533
X102416Y-97533
X102416Y-98533
X102416Y-99533
X103416Y-73533
X103416Y-74533
X103416Y-75533
X103416Y-76533
X103416Y-77533
X103416Y-78533
X103416Y-79533
X103416Y-80533
X103416Y-82533
X103416Y-83533
X103416Y-84533
X103416Y-85533
X103416Y-86533
X103416Y-87533
X103416Y-88533
X103416Y-89533
X103416Y-90533
X103416Y-92533
X103416Y-93533
X103416Y-94533
X103416Y-95533
X103416Y-96533
X103416Y-97533
X103416Y-98533
X103416Y-99533
X104416Y-73533
X104416Y-74533
X104416Y-75533
X104416Y-76533
X104416Y-77533
X104416Y-78533
X104416Y-79533
X104416Y-80533
X104416Y-82533
X104416Y-83533
X104416Y-84533
X104416Y-85533
X104416Y-86533
X104416Y-87533
X104416Y-88533
X104416Y-89533
X104416Y-90533
X104416Y-92533
X104416Y-93533
X104416Y-94533
X104416Y-95533
X104416Y-96533
X104416Y-97533
X104416Y-98533
X104416Y-99533
X105416Y-73533
X105416Y-74533
X105416Y-75533
X105416Y-76533
X105416Y-77533
X105416Y-78533
X105416Y-79533
X105416Y-80533
X105416Y-82533
X105416Y-83533
X105416Y-84533
X105416Y-85533
X105416Y-86533
X105416Y-87533
X105416Y-88533
X105416Y-89533
X105416Y-90533
X105416Y-92533
X105416Y-93533
X105416Y-94533
X105416Y-95533
X105416Y-96533
X105416Y-97533
X105416Y-98533
X105416Y-99533
X106416Y-73533
X106416Y-74533
X106416Y-75533
X106416Y-76533
X106416Y-77533
X106416Y-78533
X106416Y-79533
X106416Y-80533
X106416Y-82533
X106416Y-83533
X106416Y-84533
X106416Y-85533
X106416Y-86533
X106416Y-87533
X106416Y-88533
X106416Y-89533
X106416Y-90533
X106416Y-92533
X106416Y-93533
X106416Y-94533
X106416Y-95533
X106416Y-96533
X106416Y-97533
X106416Y-98533
X106416Y-99533
X107416Y-74533
X107416Y-75533
X107416Y-76533
X107416Y-77533
X107416Y-78533
X107416Y-79533
X107416Y-83533
X107416Y-84533
X107416Y-85533
X107416Y-86533
X107416Y-87533
X107416Y-88533
X107416Y-89533
X107416Y-93533
X107416Y-94533
X107416Y-95533
X107416Y-96533
X107416Y-97533
X107416Y-98533
T6
X8539Y-145948
X8539Y-148704
X8539Y-153504
X8539Y-156259
X8539Y-161059
X8539Y-163815
T7
X40116Y-138833
T8
X22301Y-76883
X30175Y-76883
T9
X7900Y-9300
X7900Y-86300
X7900Y-144100
X10400Y-163500
X84356Y-9300
X85700Y-163500
X162100Y-9300
X162100Y-86200
X162100Y-163500
T10
X38515Y-121283
T0
M30
