G04 #@! TF.FileFunction,Soldermask,Bot*
%FSLAX46Y46*%
G04 Gerber Fmt 4.6, Leading zero omitted, Abs format (unit mm)*
G04 Created by KiCad (PCBNEW 4.0.0-rc1-stable) date 11/9/2015 3:34:15 PM*
%MOMM*%
G01*
G04 APERTURE LIST*
%ADD10C,0.100000*%
%ADD11C,0.150000*%
%ADD12C,2.032000*%
%ADD13C,2.000000*%
%ADD14R,2.000000X2.000000*%
%ADD15R,2.200000X1.250000*%
%ADD16C,2.200000*%
%ADD17C,1.700000*%
%ADD18C,1.950000*%
%ADD19C,1.998980*%
%ADD20R,1.998980X1.998980*%
%ADD21R,2.032000X2.032000*%
%ADD22O,2.032000X2.032000*%
%ADD23R,2.032000X1.727200*%
%ADD24O,2.032000X1.727200*%
%ADD25R,1.727200X1.727200*%
%ADD26O,1.727200X1.727200*%
%ADD27C,1.501140*%
%ADD28R,1.699260X3.500120*%
%ADD29O,1.699260X3.500120*%
%ADD30C,3.799840*%
G04 APERTURE END LIST*
D10*
D11*
X22833200Y-370709000D02*
G75*
G03X22833200Y-370709000I-1143000J0D01*
G01*
X20079200Y-376709000D02*
G75*
G03X20079200Y-376709000I-889000J0D01*
G01*
X20079200Y-371709000D02*
G75*
G03X20079200Y-371709000I-889000J0D01*
G01*
X22833200Y-377709000D02*
G75*
G03X22833200Y-377709000I-1143000J0D01*
G01*
X22833200Y-389899000D02*
G75*
G03X22833200Y-389899000I-1143000J0D01*
G01*
X20079200Y-395899000D02*
G75*
G03X20079200Y-395899000I-889000J0D01*
G01*
X20079200Y-390899000D02*
G75*
G03X20079200Y-390899000I-889000J0D01*
G01*
X22833200Y-396899000D02*
G75*
G03X22833200Y-396899000I-1143000J0D01*
G01*
X22833200Y-409089000D02*
G75*
G03X22833200Y-409089000I-1143000J0D01*
G01*
X20079200Y-415089000D02*
G75*
G03X20079200Y-415089000I-889000J0D01*
G01*
X20079200Y-410089000D02*
G75*
G03X20079200Y-410089000I-889000J0D01*
G01*
X22833200Y-416089000D02*
G75*
G03X22833200Y-416089000I-1143000J0D01*
G01*
D12*
X257596600Y-229952800D03*
X267756600Y-229952800D03*
X265216600Y-229952800D03*
X262676600Y-229952800D03*
X270296600Y-229952800D03*
X260136600Y-229952800D03*
X234736600Y-229952800D03*
X244896600Y-229952800D03*
X242356600Y-229952800D03*
X237276600Y-229952800D03*
X239816600Y-229952800D03*
X219496600Y-245192800D03*
X222036600Y-250272800D03*
X219496600Y-250272800D03*
X222036600Y-245192800D03*
X222036600Y-247732800D03*
X219496600Y-247732800D03*
X214416600Y-252812800D03*
X216956600Y-250272800D03*
X214416600Y-250272800D03*
X216956600Y-247732800D03*
X214416600Y-247732800D03*
X214416600Y-245192800D03*
X216956600Y-245192800D03*
X201716600Y-250272800D03*
X199176600Y-250272800D03*
X211876600Y-250272800D03*
X211876600Y-252812800D03*
X209336600Y-252812800D03*
X209336600Y-250272800D03*
X201716600Y-245192800D03*
X196636600Y-250272800D03*
X199176600Y-247732800D03*
X201716600Y-247732800D03*
X196636600Y-247732800D03*
X206796600Y-250272800D03*
X206796600Y-247732800D03*
X206796600Y-245192800D03*
X209336600Y-247732800D03*
X211876600Y-245192800D03*
X209336600Y-245192800D03*
X211876600Y-247732800D03*
X222036600Y-252812800D03*
X216956600Y-252812800D03*
X219496600Y-252812800D03*
X186476600Y-250272800D03*
X186476600Y-252812800D03*
X181396600Y-250272800D03*
X183936600Y-250272800D03*
X189016600Y-252812800D03*
X183936600Y-247732800D03*
X181396600Y-247732800D03*
X181396600Y-245192800D03*
X183936600Y-245192800D03*
X181396600Y-237572800D03*
X183936600Y-237572800D03*
X181396600Y-240112800D03*
X181396600Y-242652800D03*
X183936600Y-240112800D03*
X183936600Y-242652800D03*
X189016600Y-237572800D03*
X186476600Y-237572800D03*
X186476600Y-242652800D03*
X189016600Y-242652800D03*
X186476600Y-240112800D03*
X189016600Y-240112800D03*
X216956600Y-242652800D03*
X214416600Y-242652800D03*
X214416600Y-240112800D03*
X216956600Y-240112800D03*
X211876600Y-240112800D03*
X209336600Y-242652800D03*
X209336600Y-240112800D03*
X211876600Y-242652800D03*
X201716600Y-237572800D03*
X201716600Y-242652800D03*
X201716600Y-240112800D03*
X214416600Y-235032800D03*
X216956600Y-237572800D03*
X211876600Y-237572800D03*
X216956600Y-235032800D03*
X211876600Y-235032800D03*
X214416600Y-237572800D03*
X209336600Y-235032800D03*
X206796600Y-237572800D03*
X206796600Y-240112800D03*
X206796600Y-242652800D03*
X209336600Y-237572800D03*
X176316600Y-237572800D03*
X173776600Y-235032800D03*
X171236600Y-237572800D03*
X173776600Y-240112800D03*
X171236600Y-235032800D03*
X173776600Y-237572800D03*
X173776600Y-242652800D03*
X171236600Y-240112800D03*
X171236600Y-242652800D03*
X176316600Y-240112800D03*
X176316600Y-242652800D03*
X166156600Y-250272800D03*
X166156600Y-247732800D03*
X168696600Y-252812800D03*
X168696600Y-250272800D03*
X166156600Y-252812800D03*
X176316600Y-245192800D03*
X171236600Y-245192800D03*
X173776600Y-247732800D03*
X173776600Y-245192800D03*
X176316600Y-247732800D03*
X171236600Y-247732800D03*
X171236600Y-252812800D03*
X171236600Y-250272800D03*
X173776600Y-252812800D03*
X173776600Y-250272800D03*
X176316600Y-250272800D03*
X161076600Y-235032800D03*
X158536600Y-237572800D03*
X158536600Y-240112800D03*
X161076600Y-240112800D03*
X161076600Y-237572800D03*
X163616600Y-240112800D03*
X166156600Y-242652800D03*
X168696600Y-245192800D03*
X168696600Y-242652800D03*
X166156600Y-245192800D03*
X168696600Y-247732800D03*
X161076600Y-247732800D03*
X158536600Y-247732800D03*
X158536600Y-245192800D03*
X158536600Y-242652800D03*
X163616600Y-250272800D03*
X163616600Y-252812800D03*
X161076600Y-252812800D03*
X158536600Y-250272800D03*
X161076600Y-250272800D03*
X161076600Y-245192800D03*
X163616600Y-245192800D03*
X163616600Y-242652800D03*
X161076600Y-242652800D03*
X163616600Y-247732800D03*
X163616600Y-235032800D03*
X168696600Y-237572800D03*
X166156600Y-237572800D03*
X168696600Y-235032800D03*
X166156600Y-235032800D03*
X168696600Y-240112800D03*
X166156600Y-240112800D03*
X163616600Y-237572800D03*
X189016600Y-235032800D03*
X191556600Y-235032800D03*
X194096600Y-235032800D03*
X191556600Y-237572800D03*
X186476600Y-235032800D03*
X194096600Y-237572800D03*
X194096600Y-240112800D03*
X199176600Y-242652800D03*
X196636600Y-242652800D03*
X196636600Y-245192800D03*
X199176600Y-245192800D03*
X194096600Y-242652800D03*
X189016600Y-247732800D03*
X189016600Y-250272800D03*
X186476600Y-247732800D03*
X186476600Y-245192800D03*
X189016600Y-245192800D03*
X191556600Y-247732800D03*
X194096600Y-247732800D03*
X191556600Y-252812800D03*
X196636600Y-252812800D03*
X194096600Y-250272800D03*
X194096600Y-252812800D03*
X191556600Y-250272800D03*
X191556600Y-240112800D03*
X191556600Y-242652800D03*
X194096600Y-245192800D03*
X191556600Y-245192800D03*
X196636600Y-237572800D03*
X196636600Y-235032800D03*
X199176600Y-237572800D03*
X199176600Y-240112800D03*
X196636600Y-240112800D03*
X272836600Y-245192800D03*
X272836600Y-250272800D03*
X272836600Y-247732800D03*
X270296600Y-252812800D03*
X270296600Y-235032800D03*
X272836600Y-237572800D03*
X267756600Y-235032800D03*
X270296600Y-250272800D03*
X267756600Y-247732800D03*
X270296600Y-247732800D03*
X267756600Y-250272800D03*
X267756600Y-252812800D03*
X262676600Y-235032800D03*
X265216600Y-237572800D03*
X265216600Y-235032800D03*
X262676600Y-240112800D03*
X262676600Y-242652800D03*
X262676600Y-237572800D03*
X265216600Y-242652800D03*
X265216600Y-240112800D03*
X270296600Y-237572800D03*
X267756600Y-237572800D03*
X272836600Y-240112800D03*
X267756600Y-240112800D03*
X270296600Y-240112800D03*
X272836600Y-242652800D03*
X270296600Y-245192800D03*
X270296600Y-242652800D03*
X267756600Y-242652800D03*
X265216600Y-245192800D03*
X267756600Y-245192800D03*
X229656600Y-250272800D03*
X229656600Y-247732800D03*
X232196600Y-247732800D03*
X232196600Y-250272800D03*
X234736600Y-250272800D03*
X234736600Y-252812800D03*
X239816600Y-250272800D03*
X237276600Y-252812800D03*
X239816600Y-252812800D03*
X237276600Y-247732800D03*
X237276600Y-250272800D03*
X239816600Y-247732800D03*
X237276600Y-235032800D03*
X239816600Y-235032800D03*
X239816600Y-237572800D03*
X234736600Y-240112800D03*
X239816600Y-240112800D03*
X237276600Y-240112800D03*
X234736600Y-237572800D03*
X237276600Y-237572800D03*
X229656600Y-245192800D03*
X232196600Y-245192800D03*
X229656600Y-242652800D03*
X234736600Y-245192800D03*
X232196600Y-242652800D03*
X234736600Y-247732800D03*
X234736600Y-242652800D03*
X239816600Y-245192800D03*
X237276600Y-242652800D03*
X237276600Y-245192800D03*
X239816600Y-242652800D03*
X234736600Y-235032800D03*
X232196600Y-240112800D03*
X232196600Y-237572800D03*
X229656600Y-240112800D03*
X229656600Y-237572800D03*
X265216600Y-252812800D03*
X265216600Y-250272800D03*
X257596600Y-252812800D03*
X262676600Y-250272800D03*
X265216600Y-247732800D03*
X262676600Y-252812800D03*
X260136600Y-252812800D03*
X260136600Y-247732800D03*
X257596600Y-250272800D03*
X262676600Y-247732800D03*
X262676600Y-245192800D03*
X260136600Y-245192800D03*
X257596600Y-245192800D03*
X257596600Y-247732800D03*
X260136600Y-250272800D03*
X255056600Y-250272800D03*
X249976600Y-250272800D03*
X247436600Y-250272800D03*
X242356600Y-252812800D03*
X242356600Y-250272800D03*
X244896600Y-252812800D03*
X244896600Y-250272800D03*
X249976600Y-247732800D03*
X255056600Y-247732800D03*
X255056600Y-245192800D03*
X255056600Y-242652800D03*
X249976600Y-245192800D03*
X244896600Y-247732800D03*
X247436600Y-247732800D03*
X242356600Y-247732800D03*
X242356600Y-245192800D03*
X244896600Y-242652800D03*
X247436600Y-242652800D03*
X244896600Y-245192800D03*
X247436600Y-245192800D03*
X242356600Y-242652800D03*
X242356600Y-235032800D03*
X244896600Y-235032800D03*
X242356600Y-237572800D03*
X249976600Y-242652800D03*
X249976600Y-237572800D03*
X249976600Y-240112800D03*
X257596600Y-235032800D03*
X260136600Y-237572800D03*
X257596600Y-242652800D03*
X257596600Y-240112800D03*
X260136600Y-240112800D03*
X260136600Y-235032800D03*
X257596600Y-237572800D03*
X260136600Y-242652800D03*
X247436600Y-237572800D03*
X247436600Y-240112800D03*
X244896600Y-237572800D03*
X242356600Y-240112800D03*
X244896600Y-240112800D03*
X255056600Y-237572800D03*
X255056600Y-240112800D03*
X224576600Y-240112800D03*
X224576600Y-237572800D03*
X219496600Y-235032800D03*
X222036600Y-237572800D03*
X219496600Y-240112800D03*
X222036600Y-235032800D03*
X219496600Y-237572800D03*
X222036600Y-240112800D03*
X224576600Y-245192800D03*
X224576600Y-247732800D03*
X219496600Y-242652800D03*
X222036600Y-242652800D03*
X224576600Y-242652800D03*
X224576600Y-250272800D03*
X186476600Y-186772800D03*
X189016600Y-186772800D03*
X214416600Y-186772800D03*
X216956600Y-186772800D03*
X211876600Y-186772800D03*
X209336600Y-186772800D03*
X173776600Y-186772800D03*
X171236600Y-186772800D03*
X161076600Y-186772800D03*
X163616600Y-186772800D03*
X168696600Y-186772800D03*
X166156600Y-186772800D03*
X191556600Y-186772800D03*
X194096600Y-186772800D03*
X196636600Y-186772800D03*
X262676600Y-186772800D03*
X265216600Y-186772800D03*
X270296600Y-186772800D03*
X267756600Y-186772800D03*
X237276600Y-186772800D03*
X239816600Y-186772800D03*
X234736600Y-186772800D03*
X257596600Y-186772800D03*
X260136600Y-186772800D03*
X242356600Y-186772800D03*
X244896600Y-186772800D03*
X219496600Y-186772800D03*
X222036600Y-186772800D03*
X272836600Y-194392800D03*
X272836600Y-196932800D03*
X272836600Y-191852800D03*
X272836600Y-189312800D03*
X272836600Y-199472800D03*
X272836600Y-202012800D03*
X262676600Y-189312800D03*
X265216600Y-191852800D03*
X262676600Y-194392800D03*
X262676600Y-191852800D03*
X265216600Y-189312800D03*
X267756600Y-189312800D03*
X270296600Y-189312800D03*
X265216600Y-194392800D03*
X270296600Y-194392800D03*
X270296600Y-191852800D03*
X267756600Y-191852800D03*
X267756600Y-194392800D03*
X270296600Y-199472800D03*
X267756600Y-199472800D03*
X270296600Y-196932800D03*
X265216600Y-196932800D03*
X267756600Y-196932800D03*
X255056600Y-202012800D03*
X260136600Y-199472800D03*
X257596600Y-194392800D03*
X260136600Y-194392800D03*
X260136600Y-196932800D03*
X255056600Y-199472800D03*
X257596600Y-196932800D03*
X255056600Y-196932800D03*
X257596600Y-199472800D03*
X255056600Y-194392800D03*
X260136600Y-202012800D03*
X260136600Y-204552800D03*
X257596600Y-202012800D03*
X257596600Y-204552800D03*
X262676600Y-202012800D03*
X262676600Y-199472800D03*
X262676600Y-196932800D03*
X265216600Y-199472800D03*
X270296600Y-204552800D03*
X270296600Y-202012800D03*
X262676600Y-204552800D03*
X265216600Y-204552800D03*
X267756600Y-202012800D03*
X267756600Y-204552800D03*
X265216600Y-202012800D03*
X249976600Y-194392800D03*
X249976600Y-196932800D03*
X249976600Y-189312800D03*
X249976600Y-191852800D03*
X249976600Y-202012800D03*
X249976600Y-199472800D03*
X255056600Y-191852800D03*
X255056600Y-189312800D03*
X260136600Y-191852800D03*
X257596600Y-189312800D03*
X257596600Y-191852800D03*
X260136600Y-189312800D03*
X239816600Y-189312800D03*
X242356600Y-191852800D03*
X239816600Y-194392800D03*
X239816600Y-191852800D03*
X242356600Y-189312800D03*
X244896600Y-189312800D03*
X247436600Y-189312800D03*
X242356600Y-194392800D03*
X247436600Y-194392800D03*
X247436600Y-191852800D03*
X244896600Y-191852800D03*
X244896600Y-194392800D03*
X247436600Y-199472800D03*
X244896600Y-199472800D03*
X247436600Y-196932800D03*
X242356600Y-196932800D03*
X244896600Y-196932800D03*
X232196600Y-202012800D03*
X229656600Y-202012800D03*
X237276600Y-199472800D03*
X234736600Y-194392800D03*
X237276600Y-194392800D03*
X237276600Y-196932800D03*
X229656600Y-199472800D03*
X229656600Y-196932800D03*
X229656600Y-194392800D03*
X232196600Y-199472800D03*
X234736600Y-196932800D03*
X232196600Y-196932800D03*
X234736600Y-199472800D03*
X232196600Y-194392800D03*
X237276600Y-202012800D03*
X237276600Y-204552800D03*
X234736600Y-202012800D03*
X234736600Y-204552800D03*
X239816600Y-202012800D03*
X239816600Y-199472800D03*
X239816600Y-196932800D03*
X242356600Y-199472800D03*
X247436600Y-202012800D03*
X239816600Y-204552800D03*
X242356600Y-204552800D03*
X244896600Y-202012800D03*
X244896600Y-204552800D03*
X242356600Y-202012800D03*
X229656600Y-191852800D03*
X229656600Y-189312800D03*
X232196600Y-191852800D03*
X232196600Y-189312800D03*
X237276600Y-191852800D03*
X234736600Y-189312800D03*
X234736600Y-191852800D03*
X237276600Y-189312800D03*
X216956600Y-189312800D03*
X219496600Y-191852800D03*
X216956600Y-194392800D03*
X216956600Y-191852800D03*
X219496600Y-189312800D03*
X222036600Y-189312800D03*
X224576600Y-189312800D03*
X219496600Y-194392800D03*
X224576600Y-194392800D03*
X224576600Y-191852800D03*
X222036600Y-191852800D03*
X222036600Y-194392800D03*
X224576600Y-199472800D03*
X222036600Y-199472800D03*
X224576600Y-196932800D03*
X219496600Y-196932800D03*
X222036600Y-196932800D03*
X209336600Y-204552800D03*
X209336600Y-202012800D03*
X206796600Y-202012800D03*
X214416600Y-199472800D03*
X211876600Y-194392800D03*
X214416600Y-194392800D03*
X214416600Y-196932800D03*
X206796600Y-199472800D03*
X206796600Y-196932800D03*
X206796600Y-194392800D03*
X209336600Y-199472800D03*
X211876600Y-196932800D03*
X209336600Y-196932800D03*
X211876600Y-199472800D03*
X209336600Y-194392800D03*
X214416600Y-202012800D03*
X214416600Y-204552800D03*
X211876600Y-202012800D03*
X211876600Y-204552800D03*
X216956600Y-202012800D03*
X216956600Y-199472800D03*
X216956600Y-196932800D03*
X219496600Y-199472800D03*
X224576600Y-202012800D03*
X216956600Y-204552800D03*
X219496600Y-204552800D03*
X222036600Y-202012800D03*
X222036600Y-204552800D03*
X219496600Y-202012800D03*
X206796600Y-191852800D03*
X206796600Y-189312800D03*
X209336600Y-191852800D03*
X209336600Y-189312800D03*
X214416600Y-191852800D03*
X211876600Y-189312800D03*
X211876600Y-191852800D03*
X214416600Y-189312800D03*
X194096600Y-189312800D03*
X196636600Y-191852800D03*
X194096600Y-194392800D03*
X194096600Y-191852800D03*
X196636600Y-189312800D03*
X199176600Y-189312800D03*
X201716600Y-189312800D03*
X196636600Y-194392800D03*
X201716600Y-194392800D03*
X201716600Y-191852800D03*
X199176600Y-191852800D03*
X199176600Y-194392800D03*
X201716600Y-199472800D03*
X199176600Y-199472800D03*
X201716600Y-196932800D03*
X196636600Y-196932800D03*
X199176600Y-196932800D03*
X186476600Y-204552800D03*
X186476600Y-202012800D03*
X183936600Y-202012800D03*
X191556600Y-199472800D03*
X189016600Y-194392800D03*
X191556600Y-194392800D03*
X191556600Y-196932800D03*
X183936600Y-199472800D03*
X183936600Y-196932800D03*
X183936600Y-194392800D03*
X186476600Y-199472800D03*
X189016600Y-196932800D03*
X186476600Y-196932800D03*
X189016600Y-199472800D03*
X186476600Y-194392800D03*
X191556600Y-202012800D03*
X191556600Y-204552800D03*
X189016600Y-202012800D03*
X189016600Y-204552800D03*
X194096600Y-202012800D03*
X194096600Y-199472800D03*
X194096600Y-196932800D03*
X196636600Y-199472800D03*
X201716600Y-202012800D03*
X194096600Y-204552800D03*
X196636600Y-204552800D03*
X199176600Y-202012800D03*
X196636600Y-202012800D03*
X181396600Y-194392800D03*
X181396600Y-196932800D03*
X183936600Y-191852800D03*
X181396600Y-189312800D03*
X181396600Y-191852800D03*
X183936600Y-189312800D03*
X181396600Y-202012800D03*
X181396600Y-199472800D03*
X186476600Y-191852800D03*
X186476600Y-189312800D03*
X191556600Y-191852800D03*
X189016600Y-189312800D03*
X189016600Y-191852800D03*
X191556600Y-189312800D03*
X171236600Y-189312800D03*
X173776600Y-191852800D03*
X171236600Y-194392800D03*
X171236600Y-191852800D03*
X173776600Y-189312800D03*
X176316600Y-189312800D03*
X173776600Y-194392800D03*
X176316600Y-191852800D03*
X176316600Y-194392800D03*
X176316600Y-199472800D03*
X173776600Y-196932800D03*
X176316600Y-196932800D03*
X161076600Y-204552800D03*
X163616600Y-204552800D03*
X163616600Y-202012800D03*
X161076600Y-202012800D03*
X168696600Y-199472800D03*
X166156600Y-194392800D03*
X168696600Y-194392800D03*
X168696600Y-196932800D03*
X161076600Y-199472800D03*
X161076600Y-196932800D03*
X161076600Y-194392800D03*
X163616600Y-199472800D03*
X166156600Y-196932800D03*
X163616600Y-196932800D03*
X166156600Y-199472800D03*
X163616600Y-194392800D03*
X168696600Y-202012800D03*
X168696600Y-204552800D03*
X166156600Y-202012800D03*
X166156600Y-204552800D03*
X171236600Y-202012800D03*
X171236600Y-199472800D03*
X171236600Y-196932800D03*
X173776600Y-199472800D03*
X171236600Y-204552800D03*
X173776600Y-204552800D03*
X176316600Y-202012800D03*
X173776600Y-202012800D03*
X158536600Y-194392800D03*
X158536600Y-196932800D03*
X161076600Y-191852800D03*
X158536600Y-189312800D03*
X158536600Y-191852800D03*
X161076600Y-189312800D03*
X158536600Y-202012800D03*
X158536600Y-199472800D03*
X163616600Y-191852800D03*
X163616600Y-189312800D03*
X168696600Y-191852800D03*
X166156600Y-189312800D03*
X166156600Y-191852800D03*
X168696600Y-189312800D03*
X209336600Y-229952800D03*
X214416600Y-229952800D03*
X216956600Y-229952800D03*
X211876600Y-229952800D03*
X219496600Y-229952800D03*
X222036600Y-229952800D03*
X189016600Y-229952800D03*
X186476600Y-229952800D03*
X196636600Y-229952800D03*
X194096600Y-229952800D03*
X191556600Y-229952800D03*
X234736600Y-209632800D03*
X237276600Y-209632800D03*
X244896600Y-209632800D03*
X242356600Y-209632800D03*
X239816600Y-209632800D03*
X257596600Y-209632800D03*
X260136600Y-209632800D03*
X270296600Y-209632800D03*
X267756600Y-209632800D03*
X265216600Y-209632800D03*
X262676600Y-209632800D03*
X209336600Y-209632800D03*
X214416600Y-209632800D03*
X211876600Y-209632800D03*
X219496600Y-209632800D03*
X216956600Y-209632800D03*
X222036600Y-209632800D03*
X191556600Y-209632800D03*
X194096600Y-209632800D03*
X196636600Y-209632800D03*
X186476600Y-209632800D03*
X189016600Y-209632800D03*
X161076600Y-209632800D03*
X166156600Y-209632800D03*
X168696600Y-209632800D03*
X163616600Y-209632800D03*
X173776600Y-209632800D03*
X171236600Y-209632800D03*
X272836600Y-214712800D03*
X272836600Y-217252800D03*
X272836600Y-219792800D03*
X272836600Y-224872800D03*
X272836600Y-222332800D03*
X272836600Y-227412800D03*
X272836600Y-212172800D03*
X161076600Y-229952800D03*
X171236600Y-229952800D03*
X173776600Y-229952800D03*
X163616600Y-229952800D03*
X166156600Y-229952800D03*
X168696600Y-229952800D03*
X267756600Y-217252800D03*
X270296600Y-212172800D03*
X270296600Y-214712800D03*
X267756600Y-214712800D03*
X267756600Y-212172800D03*
X265216600Y-214712800D03*
X270296600Y-217252800D03*
X260136600Y-212172800D03*
X260136600Y-214712800D03*
X262676600Y-214712800D03*
X265216600Y-212172800D03*
X262676600Y-217252800D03*
X260136600Y-217252800D03*
X262676600Y-212172800D03*
X265216600Y-217252800D03*
X257596600Y-212172800D03*
X257596600Y-214712800D03*
X255056600Y-212172800D03*
X255056600Y-214712800D03*
X255056600Y-217252800D03*
X257596600Y-217252800D03*
X252516600Y-222332800D03*
X252516600Y-219792800D03*
X249976600Y-219792800D03*
X247436600Y-222332800D03*
X249976600Y-222332800D03*
X247436600Y-219792800D03*
X252516600Y-224872800D03*
X249976600Y-227412800D03*
X244896600Y-224872800D03*
X247436600Y-227412800D03*
X249976600Y-224872800D03*
X247436600Y-224872800D03*
X252516600Y-227412800D03*
X244896600Y-227412800D03*
X265216600Y-224872800D03*
X262676600Y-222332800D03*
X262676600Y-224872800D03*
X260136600Y-224872800D03*
X265216600Y-222332800D03*
X257596600Y-227412800D03*
X257596600Y-222332800D03*
X257596600Y-219792800D03*
X255056600Y-219792800D03*
X257596600Y-224872800D03*
X255056600Y-224872800D03*
X260136600Y-227412800D03*
X255056600Y-222332800D03*
X265216600Y-219792800D03*
X260136600Y-222332800D03*
X262676600Y-219792800D03*
X260136600Y-219792800D03*
X270296600Y-224872800D03*
X270296600Y-222332800D03*
X267756600Y-224872800D03*
X267756600Y-222332800D03*
X270296600Y-219792800D03*
X267756600Y-219792800D03*
X265216600Y-227412800D03*
X270296600Y-227412800D03*
X267756600Y-227412800D03*
X262676600Y-227412800D03*
X255056600Y-227412800D03*
X249976600Y-214712800D03*
X244896600Y-219792800D03*
X242356600Y-219792800D03*
X244896600Y-217252800D03*
X247436600Y-217252800D03*
X242356600Y-214712800D03*
X242356600Y-212172800D03*
X239816600Y-212172800D03*
X242356600Y-222332800D03*
X242356600Y-224872800D03*
X244896600Y-222332800D03*
X239816600Y-222332800D03*
X242356600Y-227412800D03*
X239816600Y-224872800D03*
X237276600Y-217252800D03*
X234736600Y-212172800D03*
X234736600Y-214712800D03*
X234736600Y-217252800D03*
X237276600Y-214712800D03*
X234736600Y-219792800D03*
X234736600Y-222332800D03*
X237276600Y-222332800D03*
X237276600Y-219792800D03*
X239816600Y-219792800D03*
X234736600Y-227412800D03*
X234736600Y-224872800D03*
X239816600Y-227412800D03*
X237276600Y-227412800D03*
X237276600Y-224872800D03*
X252516600Y-212172800D03*
X249976600Y-212172800D03*
X252516600Y-214712800D03*
X249976600Y-217252800D03*
X252516600Y-217252800D03*
X247436600Y-212172800D03*
X244896600Y-214712800D03*
X242356600Y-217252800D03*
X247436600Y-214712800D03*
X244896600Y-212172800D03*
X239816600Y-214712800D03*
X239816600Y-217252800D03*
X237276600Y-212172800D03*
X224576600Y-222332800D03*
X224576600Y-219792800D03*
X222036600Y-219792800D03*
X222036600Y-222332800D03*
X219496600Y-219792800D03*
X222036600Y-224872800D03*
X224576600Y-227412800D03*
X219496600Y-224872800D03*
X224576600Y-224872800D03*
X222036600Y-227412800D03*
X219496600Y-227412800D03*
X216956600Y-224872800D03*
X216956600Y-227412800D03*
X219496600Y-212172800D03*
X222036600Y-212172800D03*
X224576600Y-217252800D03*
X224576600Y-214712800D03*
X222036600Y-217252800D03*
X219496600Y-214712800D03*
X222036600Y-214712800D03*
X224576600Y-212172800D03*
X214416600Y-212172800D03*
X214416600Y-217252800D03*
X211876600Y-217252800D03*
X216956600Y-212172800D03*
X216956600Y-214712800D03*
X214416600Y-214712800D03*
X211876600Y-212172800D03*
X211876600Y-214712800D03*
X214416600Y-222332800D03*
X214416600Y-219792800D03*
X211876600Y-219792800D03*
X214416600Y-224872800D03*
X214416600Y-227412800D03*
X211876600Y-224872800D03*
X211876600Y-227412800D03*
X211876600Y-222332800D03*
X216956600Y-222332800D03*
X219496600Y-217252800D03*
X216956600Y-219792800D03*
X219496600Y-222332800D03*
X216956600Y-217252800D03*
X204256600Y-222332800D03*
X206796600Y-219792800D03*
X206796600Y-222332800D03*
X209336600Y-219792800D03*
X209336600Y-222332800D03*
X204256600Y-219792800D03*
X206796600Y-217252800D03*
X204256600Y-217252800D03*
X209336600Y-217252800D03*
X204256600Y-214712800D03*
X209336600Y-224872800D03*
X206796600Y-224872800D03*
X204256600Y-227412800D03*
X204256600Y-224872800D03*
X209336600Y-227412800D03*
X206796600Y-227412800D03*
X206796600Y-212172800D03*
X209336600Y-212172800D03*
X204256600Y-212172800D03*
X209336600Y-214712800D03*
X206796600Y-214712800D03*
X194096600Y-222332800D03*
X194096600Y-227412800D03*
X196636600Y-227412800D03*
X196636600Y-224872800D03*
X194096600Y-224872800D03*
X201716600Y-222332800D03*
X199176600Y-219792800D03*
X196636600Y-219792800D03*
X196636600Y-222332800D03*
X199176600Y-222332800D03*
X196636600Y-212172800D03*
X194096600Y-212172800D03*
X194096600Y-219792800D03*
X194096600Y-214712800D03*
X194096600Y-217252800D03*
X201716600Y-224872800D03*
X201716600Y-227412800D03*
X199176600Y-227412800D03*
X199176600Y-224872800D03*
X199176600Y-217252800D03*
X196636600Y-217252800D03*
X199176600Y-214712800D03*
X196636600Y-214712800D03*
X201716600Y-212172800D03*
X201716600Y-219792800D03*
X201716600Y-214712800D03*
X201716600Y-217252800D03*
X199176600Y-212172800D03*
X227116600Y-227412800D03*
X232196600Y-227412800D03*
X229656600Y-227412800D03*
X232196600Y-224872800D03*
X229656600Y-217252800D03*
X227116600Y-219792800D03*
X229656600Y-219792800D03*
X232196600Y-217252800D03*
X232196600Y-219792800D03*
X227116600Y-217252800D03*
X232196600Y-222332800D03*
X229656600Y-224872800D03*
X229656600Y-222332800D03*
X227116600Y-224872800D03*
X227116600Y-222332800D03*
X229656600Y-214712800D03*
X227116600Y-212172800D03*
X232196600Y-214712800D03*
X232196600Y-212172800D03*
X229656600Y-212172800D03*
X227116600Y-214712800D03*
X176316600Y-212172800D03*
X178856600Y-212172800D03*
X178856600Y-214712800D03*
X173776600Y-212172800D03*
X173776600Y-214712800D03*
X176316600Y-214712800D03*
X181396600Y-224872800D03*
X181396600Y-222332800D03*
X181396600Y-227412800D03*
X178856600Y-224872800D03*
X178856600Y-227412800D03*
X173776600Y-222332800D03*
X173776600Y-219792800D03*
X178856600Y-219792800D03*
X176316600Y-219792800D03*
X176316600Y-222332800D03*
X178856600Y-222332800D03*
X173776600Y-224872800D03*
X173776600Y-227412800D03*
X176316600Y-224872800D03*
X176316600Y-227412800D03*
X181396600Y-217252800D03*
X176316600Y-217252800D03*
X178856600Y-217252800D03*
X173776600Y-217252800D03*
X181396600Y-214712800D03*
X186476600Y-224872800D03*
X183936600Y-227412800D03*
X183936600Y-224872800D03*
X186476600Y-227412800D03*
X189016600Y-227412800D03*
X189016600Y-214712800D03*
X189016600Y-217252800D03*
X189016600Y-219792800D03*
X191556600Y-217252800D03*
X191556600Y-219792800D03*
X191556600Y-214712800D03*
X191556600Y-212172800D03*
X189016600Y-212172800D03*
X183936600Y-212172800D03*
X183936600Y-214712800D03*
X186476600Y-217252800D03*
X186476600Y-214712800D03*
X183936600Y-217252800D03*
X186476600Y-212172800D03*
X181396600Y-212172800D03*
X183936600Y-222332800D03*
X183936600Y-219792800D03*
X186476600Y-219792800D03*
X186476600Y-222332800D03*
X181396600Y-219792800D03*
X191556600Y-222332800D03*
X189016600Y-224872800D03*
X191556600Y-227412800D03*
X189016600Y-222332800D03*
X191556600Y-224872800D03*
X168696600Y-214712800D03*
X168696600Y-212172800D03*
X168696600Y-217252800D03*
X168696600Y-219792800D03*
X171236600Y-217252800D03*
X171236600Y-219792800D03*
X171236600Y-214712800D03*
X163616600Y-212172800D03*
X171236600Y-222332800D03*
X166156600Y-212172800D03*
X171236600Y-212172800D03*
X171236600Y-224872800D03*
X171236600Y-227412800D03*
X168696600Y-227412800D03*
X168696600Y-224872800D03*
X163616600Y-224872800D03*
X166156600Y-224872800D03*
X163616600Y-227412800D03*
X166156600Y-227412800D03*
X163616600Y-217252800D03*
X163616600Y-214712800D03*
X166156600Y-214712800D03*
X166156600Y-217252800D03*
X168696600Y-222332800D03*
X163616600Y-219792800D03*
X166156600Y-219792800D03*
X166156600Y-222332800D03*
X163616600Y-222332800D03*
X161076600Y-217252800D03*
X158536600Y-214712800D03*
X158536600Y-212172800D03*
X161076600Y-214712800D03*
X161076600Y-212172800D03*
X158536600Y-217252800D03*
X161076600Y-227412800D03*
X158536600Y-224872800D03*
X158536600Y-222332800D03*
X158536600Y-219792800D03*
X161076600Y-219792800D03*
X161076600Y-224872800D03*
X161076600Y-222332800D03*
X158536600Y-227412800D03*
D13*
X65191600Y-227031800D03*
D14*
X85511600Y-211791800D03*
D13*
X82971600Y-211791800D03*
X80431600Y-211791800D03*
X77891600Y-211791800D03*
X75351600Y-211791800D03*
X72811600Y-211791800D03*
X70271600Y-211791800D03*
X67731600Y-211791800D03*
X65191600Y-211791800D03*
X62651600Y-211791800D03*
X60111600Y-211791800D03*
X57571600Y-211791800D03*
X55031600Y-211791800D03*
X52491600Y-211791800D03*
X49951600Y-211791800D03*
X85511600Y-227031800D03*
X82971600Y-227031800D03*
X80431600Y-227031800D03*
X77891600Y-227031800D03*
X75351600Y-227031800D03*
X72811600Y-227031800D03*
X70271600Y-227031800D03*
X67731600Y-227031800D03*
X62651600Y-227031800D03*
X60111600Y-227031800D03*
X57571600Y-227031800D03*
X55031600Y-227031800D03*
X52491600Y-227031800D03*
X49951600Y-227031800D03*
D15*
X38380489Y-400763116D03*
X38380489Y-398063116D03*
X38380489Y-376774229D03*
X38380489Y-374074229D03*
X38380489Y-352785341D03*
X38380489Y-350085341D03*
X38380489Y-328796453D03*
X38380489Y-326096453D03*
X38380489Y-304807565D03*
X38380489Y-302107565D03*
X38380489Y-280818678D03*
X38380489Y-278118678D03*
X38380489Y-256829790D03*
X38380489Y-254129790D03*
X38380489Y-232840902D03*
X38380489Y-230140902D03*
X38380489Y-208852014D03*
X38380489Y-206152014D03*
X38380489Y-184863127D03*
X38380489Y-182163127D03*
X38380489Y-160874239D03*
X38380489Y-158174239D03*
X38380489Y-136885351D03*
X38380489Y-134185351D03*
X38380489Y-112896463D03*
X38380489Y-110196463D03*
X38380489Y-88907576D03*
X38380489Y-86207576D03*
X38380489Y-64918688D03*
X38380489Y-62218688D03*
X38380489Y-40929800D03*
X38380489Y-38229800D03*
X62369377Y-400763116D03*
X62369377Y-398063116D03*
X62369377Y-376774229D03*
X62369377Y-374074229D03*
X62369377Y-352785341D03*
X62369377Y-350085341D03*
X62369377Y-328796453D03*
X62369377Y-326096453D03*
X62369377Y-304807565D03*
X62369377Y-302107565D03*
X62369377Y-280818678D03*
X62369377Y-278118678D03*
X62369377Y-256829790D03*
X62369377Y-254129790D03*
X62369377Y-232840902D03*
X62369377Y-230140902D03*
X62369377Y-208852014D03*
X62369377Y-206152014D03*
X62369377Y-184863127D03*
X62369377Y-182163127D03*
X62369377Y-160874239D03*
X62369377Y-158174239D03*
X62369377Y-136885351D03*
X62369377Y-134185351D03*
X62369377Y-112896463D03*
X62369377Y-110196463D03*
X62369377Y-88907576D03*
X62369377Y-86207576D03*
X62369377Y-64918688D03*
X62369377Y-62218688D03*
X62369377Y-40929800D03*
X62369377Y-38229800D03*
X86358264Y-400763116D03*
X86358264Y-398063116D03*
X86358264Y-376774229D03*
X86358264Y-374074229D03*
X86358264Y-352785341D03*
X86358264Y-350085341D03*
X86358264Y-328796453D03*
X86358264Y-326096453D03*
X86358264Y-304807565D03*
X86358264Y-302107565D03*
X86358264Y-280818678D03*
X86358264Y-278118678D03*
X86358264Y-256829790D03*
X86358264Y-254129790D03*
X86358264Y-232840902D03*
X86358264Y-230140902D03*
X86358264Y-208852014D03*
X86358264Y-206152014D03*
X86358264Y-184863127D03*
X86358264Y-182163127D03*
X86358264Y-160874239D03*
X86358264Y-158174239D03*
X86358264Y-136885351D03*
X86358264Y-134185351D03*
X86358264Y-112896463D03*
X86358264Y-110196463D03*
X86358264Y-88907576D03*
X86358264Y-86207576D03*
X86358264Y-64918688D03*
X86358264Y-62218688D03*
X86358264Y-40929800D03*
X86358264Y-38229800D03*
X110347152Y-400763116D03*
X110347152Y-398063116D03*
X110347152Y-376774229D03*
X110347152Y-374074229D03*
X110347152Y-352785341D03*
X110347152Y-350085341D03*
X110347152Y-328796453D03*
X110347152Y-326096453D03*
X110347152Y-304807565D03*
X110347152Y-302107565D03*
X110347152Y-280818678D03*
X110347152Y-278118678D03*
X110347152Y-256829790D03*
X110347152Y-254129790D03*
X110347152Y-232840902D03*
X110347152Y-230140902D03*
X110347152Y-208852014D03*
X110347152Y-206152014D03*
X110347152Y-184863127D03*
X110347152Y-182163127D03*
X110347152Y-160874239D03*
X110347152Y-158174239D03*
X110347152Y-136885351D03*
X110347152Y-134185351D03*
X110347152Y-112896463D03*
X110347152Y-110196463D03*
X110347152Y-88907576D03*
X110347152Y-86207576D03*
X110347152Y-64918688D03*
X110347152Y-62218688D03*
X110347152Y-40929800D03*
X110347152Y-38229800D03*
X134336040Y-400763116D03*
X134336040Y-398063116D03*
X134336040Y-376774229D03*
X134336040Y-374074229D03*
X134336040Y-352785341D03*
X134336040Y-350085341D03*
X134336040Y-328796453D03*
X134336040Y-326096453D03*
X134336040Y-304807565D03*
X134336040Y-302107565D03*
X134336040Y-280818678D03*
X134336040Y-278118678D03*
X134336040Y-256829790D03*
X134336040Y-254129790D03*
X134336040Y-232840902D03*
X134336040Y-230140902D03*
X134336040Y-208852014D03*
X134336040Y-206152014D03*
X134336040Y-184863127D03*
X134336040Y-182163127D03*
X134336040Y-160874239D03*
X134336040Y-158174239D03*
X134336040Y-136885351D03*
X134336040Y-134185351D03*
X134336040Y-112896463D03*
X134336040Y-110196463D03*
X134336040Y-88907576D03*
X134336040Y-86207576D03*
X134336040Y-64918688D03*
X134336040Y-62218688D03*
X134336040Y-40929800D03*
X134336040Y-38229800D03*
X158324928Y-400763116D03*
X158324928Y-398063116D03*
X158324928Y-376774229D03*
X158324928Y-374074229D03*
X158324928Y-352785341D03*
X158324928Y-350085341D03*
X158324928Y-328796453D03*
X158324928Y-326096453D03*
X158324928Y-304807565D03*
X158324928Y-302107565D03*
X158324928Y-280818678D03*
X158324928Y-278118678D03*
X158324928Y-256829790D03*
X158324928Y-254129790D03*
X158324928Y-232840902D03*
X158324928Y-230140902D03*
X158324928Y-208852014D03*
X158324928Y-206152014D03*
X158324928Y-184863127D03*
X158324928Y-182163127D03*
X158324928Y-160874239D03*
X158324928Y-158174239D03*
X158324928Y-136885351D03*
X158324928Y-134185351D03*
X158324928Y-112896463D03*
X158324928Y-110196463D03*
X158324928Y-88907576D03*
X158324928Y-86207576D03*
X158324928Y-64918688D03*
X158324928Y-62218688D03*
X158324928Y-40929800D03*
X158324928Y-38229800D03*
X182313815Y-400763116D03*
X182313815Y-398063116D03*
X182313815Y-376774229D03*
X182313815Y-374074229D03*
X182313815Y-352785341D03*
X182313815Y-350085341D03*
X182313815Y-328796453D03*
X182313815Y-326096453D03*
X182313815Y-304807565D03*
X182313815Y-302107565D03*
X182313815Y-280818678D03*
X182313815Y-278118678D03*
X182313815Y-256829790D03*
X182313815Y-254129790D03*
X182313815Y-232840902D03*
X182313815Y-230140902D03*
X182313815Y-208852014D03*
X182313815Y-206152014D03*
X182313815Y-184863127D03*
X182313815Y-182163127D03*
X182313815Y-160874239D03*
X182313815Y-158174239D03*
X182313815Y-136885351D03*
X182313815Y-134185351D03*
X182313815Y-112896463D03*
X182313815Y-110196463D03*
X182313815Y-88907576D03*
X182313815Y-86207576D03*
X182313815Y-64918688D03*
X182313815Y-62218688D03*
X182313815Y-40929800D03*
X182313815Y-38229800D03*
X206302703Y-400763116D03*
X206302703Y-398063116D03*
X206302703Y-376774228D03*
X206302703Y-374074228D03*
X206302703Y-352785341D03*
X206302703Y-350085341D03*
X206302703Y-328796453D03*
X206302703Y-326096453D03*
X206302703Y-304807565D03*
X206302703Y-302107565D03*
X206302703Y-280818677D03*
X206302703Y-278118677D03*
X206302703Y-256829790D03*
X206302703Y-254129790D03*
X206302703Y-232840902D03*
X206302703Y-230140902D03*
X206302703Y-208852014D03*
X206302703Y-206152014D03*
X206302703Y-184863126D03*
X206302703Y-182163126D03*
X206302703Y-160874239D03*
X206302703Y-158174239D03*
X206302703Y-136885351D03*
X206302703Y-134185351D03*
X206302703Y-112896463D03*
X206302703Y-110196463D03*
X206302703Y-88907575D03*
X206302703Y-86207575D03*
X206302703Y-64918688D03*
X206302703Y-62218688D03*
X206302703Y-40929800D03*
X206302703Y-38229800D03*
X230291591Y-400763116D03*
X230291591Y-398063116D03*
X230291591Y-376774229D03*
X230291591Y-374074229D03*
X230291591Y-352785341D03*
X230291591Y-350085341D03*
X230291591Y-328796453D03*
X230291591Y-326096453D03*
X230291591Y-304807565D03*
X230291591Y-302107565D03*
X230291591Y-280818678D03*
X230291591Y-278118678D03*
X230291591Y-256829790D03*
X230291591Y-254129790D03*
X230291591Y-232840902D03*
X230291591Y-230140902D03*
X230291591Y-208852014D03*
X230291591Y-206152014D03*
X230291591Y-184863127D03*
X230291591Y-182163127D03*
X230291591Y-160874239D03*
X230291591Y-158174239D03*
X230291591Y-136885351D03*
X230291591Y-134185351D03*
X230291591Y-112896463D03*
X230291591Y-110196463D03*
X230291591Y-88907576D03*
X230291591Y-86207576D03*
X230291591Y-64918688D03*
X230291591Y-62218688D03*
X230291591Y-40929800D03*
X230291591Y-38229800D03*
X254280479Y-400763116D03*
X254280479Y-398063116D03*
X254280479Y-376774229D03*
X254280479Y-374074229D03*
X254280479Y-352785341D03*
X254280479Y-350085341D03*
X254280479Y-328796453D03*
X254280479Y-326096453D03*
X254280479Y-304807565D03*
X254280479Y-302107565D03*
X254280479Y-280818678D03*
X254280479Y-278118678D03*
X254280479Y-256829790D03*
X254280479Y-254129790D03*
X254280479Y-232840902D03*
X254280479Y-230140902D03*
X254280479Y-208852014D03*
X254280479Y-206152014D03*
X254280479Y-184863127D03*
X254280479Y-182163127D03*
X254280479Y-160874239D03*
X254280479Y-158174239D03*
X254280479Y-136885351D03*
X254280479Y-134185351D03*
X254280479Y-112896463D03*
X254280479Y-110196463D03*
X254280479Y-88907576D03*
X254280479Y-86207576D03*
X254280479Y-64918688D03*
X254280479Y-62218688D03*
X254280479Y-40929800D03*
X254280479Y-38229800D03*
X278269366Y-400763116D03*
X278269366Y-398063116D03*
X278269366Y-376774229D03*
X278269366Y-374074229D03*
X278269366Y-352785341D03*
X278269366Y-350085341D03*
X278269366Y-328796453D03*
X278269366Y-326096453D03*
X278269366Y-304807565D03*
X278269366Y-302107565D03*
X278269366Y-280818678D03*
X278269366Y-278118678D03*
X278269366Y-256829790D03*
X278269366Y-254129790D03*
X278269366Y-232840902D03*
X278269366Y-230140902D03*
X278269366Y-208852014D03*
X278269366Y-206152014D03*
X278269366Y-184863127D03*
X278269366Y-182163127D03*
X278269366Y-160874239D03*
X278269366Y-158174239D03*
X278269366Y-136885351D03*
X278269366Y-134185351D03*
X278269366Y-112896463D03*
X278269366Y-110196463D03*
X278269366Y-88907576D03*
X278269366Y-86207576D03*
X278269366Y-64918688D03*
X278269366Y-62218688D03*
X278269366Y-40929800D03*
X278269366Y-38229800D03*
X302258254Y-400763116D03*
X302258254Y-398063116D03*
X302258254Y-376774229D03*
X302258254Y-374074229D03*
X302258254Y-352785341D03*
X302258254Y-350085341D03*
X302258254Y-328796453D03*
X302258254Y-326096453D03*
X302258254Y-304807565D03*
X302258254Y-302107565D03*
X302258254Y-280818678D03*
X302258254Y-278118678D03*
X302258254Y-256829790D03*
X302258254Y-254129790D03*
X302258254Y-232840902D03*
X302258254Y-230140902D03*
X302258254Y-208852014D03*
X302258254Y-206152014D03*
X302258254Y-184863127D03*
X302258254Y-182163127D03*
X302258254Y-160874239D03*
X302258254Y-158174239D03*
X302258254Y-136885351D03*
X302258254Y-134185351D03*
X302258254Y-112896463D03*
X302258254Y-110196463D03*
X302258254Y-88907576D03*
X302258254Y-86207576D03*
X302258254Y-64918688D03*
X302258254Y-62218688D03*
X302258254Y-40929800D03*
X302258254Y-38229800D03*
X326247142Y-400763116D03*
X326247142Y-398063116D03*
X326247142Y-376774229D03*
X326247142Y-374074229D03*
X326247142Y-352785341D03*
X326247142Y-350085341D03*
X326247142Y-328796453D03*
X326247142Y-326096453D03*
X326247142Y-304807565D03*
X326247142Y-302107565D03*
X326247142Y-280818678D03*
X326247142Y-278118678D03*
X326247142Y-256829790D03*
X326247142Y-254129790D03*
X326247142Y-232840902D03*
X326247142Y-230140902D03*
X326247142Y-208852014D03*
X326247142Y-206152014D03*
X326247142Y-184863127D03*
X326247142Y-182163127D03*
X326247142Y-160874239D03*
X326247142Y-158174239D03*
X326247142Y-136885351D03*
X326247142Y-134185351D03*
X326247142Y-112896463D03*
X326247142Y-110196463D03*
X326247142Y-88907576D03*
X326247142Y-86207576D03*
X326247142Y-64918688D03*
X326247142Y-62218688D03*
X326247142Y-40929800D03*
X326247142Y-38229800D03*
X350236030Y-400763116D03*
X350236030Y-398063116D03*
X350236030Y-376774229D03*
X350236030Y-374074229D03*
X350236030Y-352785341D03*
X350236030Y-350085341D03*
X350250111Y-328783300D03*
X350250111Y-326083300D03*
X350250111Y-304780300D03*
X350250111Y-302080300D03*
X350236030Y-280818678D03*
X350236030Y-278118678D03*
X350236030Y-256829790D03*
X350236030Y-254129790D03*
X350236030Y-232840902D03*
X350236030Y-230140902D03*
X350236030Y-208852014D03*
X350236030Y-206152014D03*
X350236030Y-184863127D03*
X350236030Y-182163127D03*
X350236030Y-160874239D03*
X350236030Y-158174239D03*
X350236030Y-136885351D03*
X350236030Y-134185351D03*
X350236030Y-112896463D03*
X350236030Y-110196463D03*
X350236030Y-88907576D03*
X350236030Y-86207576D03*
X350236030Y-64918688D03*
X350236030Y-62218688D03*
X350236030Y-40929800D03*
X350236030Y-38229800D03*
X374224917Y-400763116D03*
X374224917Y-398063116D03*
X374224917Y-376774229D03*
X374224917Y-374074229D03*
X374224917Y-352785341D03*
X374224917Y-350085341D03*
X374224917Y-328796453D03*
X374224917Y-326096453D03*
X374224917Y-304807565D03*
X374224917Y-302107565D03*
X374224917Y-280818678D03*
X374224917Y-278118678D03*
X374224917Y-256829790D03*
X374224917Y-254129790D03*
X374224917Y-232840902D03*
X374224917Y-230140902D03*
X374224917Y-208852014D03*
X374224917Y-206152014D03*
X374224917Y-184863127D03*
X374224917Y-182163127D03*
X374224917Y-160874239D03*
X374224917Y-158174239D03*
X374224917Y-136885351D03*
X374224917Y-134185351D03*
X374224917Y-112896463D03*
X374224917Y-110196463D03*
X374224917Y-88907576D03*
X374224917Y-86207576D03*
X374224917Y-64918688D03*
X374224917Y-62218688D03*
X374224917Y-40929800D03*
X374224917Y-38229800D03*
X398213805Y-400763116D03*
X398213805Y-398063116D03*
X398213805Y-376774229D03*
X398213805Y-374074229D03*
X398213805Y-352785341D03*
X398213805Y-350085341D03*
X398213805Y-328796453D03*
X398213805Y-326096453D03*
X398213805Y-304807565D03*
X398213805Y-302107565D03*
X398213805Y-280818678D03*
X398213805Y-278118678D03*
X398213805Y-256829790D03*
X398213805Y-254129790D03*
X398213805Y-232840902D03*
X398213805Y-230140902D03*
X398213805Y-208852014D03*
X398213805Y-206152014D03*
X398213805Y-184863127D03*
X398213805Y-182163127D03*
X398213805Y-160874239D03*
X398213805Y-158174239D03*
X398213805Y-136885351D03*
X398213805Y-134185351D03*
X398213805Y-112896463D03*
X398213805Y-110196463D03*
X398213805Y-88907576D03*
X398213805Y-86207576D03*
X398213805Y-64918688D03*
X398213805Y-62218688D03*
X398213805Y-40929800D03*
X398213805Y-38229800D03*
X33582711Y-400763116D03*
X33582711Y-398063116D03*
X33582711Y-376774229D03*
X33582711Y-374074229D03*
X33582711Y-352785341D03*
X33582711Y-350085341D03*
X33582711Y-328796453D03*
X33582711Y-326096453D03*
X33582711Y-304807565D03*
X33582711Y-302107565D03*
X33582711Y-280818678D03*
X33582711Y-278118678D03*
X33582711Y-256829790D03*
X33582711Y-254129790D03*
X33582711Y-232840902D03*
X33582711Y-230140902D03*
X33582711Y-208852014D03*
X33582711Y-206152014D03*
X33582711Y-184863127D03*
X33582711Y-182163127D03*
X33582711Y-160874239D03*
X33582711Y-158174239D03*
X33582711Y-136885351D03*
X33582711Y-134185351D03*
X33582711Y-112896463D03*
X33582711Y-110196463D03*
X33582711Y-88907576D03*
X33582711Y-86207576D03*
X33582711Y-64918688D03*
X33582711Y-62218688D03*
X33582711Y-40929800D03*
X33582711Y-38229800D03*
X57570511Y-400746000D03*
X57570511Y-398046000D03*
X57570511Y-376758000D03*
X57570511Y-374058000D03*
X57570511Y-352771000D03*
X57570511Y-350071000D03*
X57570511Y-328783000D03*
X57570511Y-326083000D03*
X57570511Y-304795000D03*
X57570511Y-302095000D03*
X57570511Y-280807000D03*
X57570511Y-278107000D03*
X57570511Y-256820000D03*
X57570511Y-254120000D03*
X57570511Y-232832000D03*
X57570511Y-230132000D03*
X57570511Y-208844000D03*
X57570511Y-206144000D03*
X57570511Y-184856000D03*
X57570511Y-182156000D03*
X57570511Y-160869000D03*
X57570511Y-158169000D03*
X57570511Y-136881000D03*
X57570511Y-134181000D03*
X57570511Y-112893000D03*
X57570511Y-110193000D03*
X57570511Y-88905300D03*
X57570511Y-86205300D03*
X57570511Y-64917600D03*
X57570511Y-62217600D03*
X57570511Y-40929800D03*
X57570511Y-38229800D03*
X81558312Y-400746000D03*
X81558312Y-398046000D03*
X81558312Y-376758000D03*
X81558312Y-374058000D03*
X81558312Y-352771000D03*
X81558312Y-350071000D03*
X81558312Y-328783000D03*
X81558312Y-326083000D03*
X81558312Y-304795000D03*
X81558312Y-302095000D03*
X81558312Y-280807000D03*
X81558312Y-278107000D03*
X81558312Y-256820000D03*
X81558312Y-254120000D03*
X81558312Y-232832000D03*
X81558312Y-230132000D03*
X81558312Y-208844000D03*
X81558312Y-206144000D03*
X81558312Y-184856000D03*
X81558312Y-182156000D03*
X81558312Y-160869000D03*
X81558312Y-158169000D03*
X81558312Y-136881000D03*
X81558312Y-134181000D03*
X81558312Y-112893000D03*
X81558312Y-110193000D03*
X81558312Y-88905300D03*
X81558312Y-86205300D03*
X81558312Y-64917600D03*
X81558312Y-62217600D03*
X81558312Y-40929800D03*
X81558312Y-38229800D03*
X105546112Y-400746000D03*
X105546112Y-398046000D03*
X105546112Y-376758000D03*
X105546112Y-374058000D03*
X105546112Y-352771000D03*
X105546112Y-350071000D03*
X105546112Y-328783000D03*
X105546112Y-326083000D03*
X105546112Y-304795000D03*
X105546112Y-302095000D03*
X105546112Y-280807000D03*
X105546112Y-278107000D03*
X105546112Y-256820000D03*
X105546112Y-254120000D03*
X105546112Y-232832000D03*
X105546112Y-230132000D03*
X105546112Y-208844000D03*
X105546112Y-206144000D03*
X105546112Y-184856000D03*
X105546112Y-182156000D03*
X105546112Y-160869000D03*
X105546112Y-158169000D03*
X105546112Y-136881000D03*
X105546112Y-134181000D03*
X105546112Y-112893000D03*
X105546112Y-110193000D03*
X105546112Y-88905300D03*
X105546112Y-86205300D03*
X105546112Y-64917600D03*
X105546112Y-62217600D03*
X105546112Y-40929800D03*
X105546112Y-38229800D03*
X129534112Y-400746000D03*
X129534112Y-398046000D03*
X129534112Y-376758000D03*
X129534112Y-374058000D03*
X129534112Y-352771000D03*
X129534112Y-350071000D03*
X129534112Y-328783000D03*
X129534112Y-326083000D03*
X129534112Y-304795000D03*
X129534112Y-302095000D03*
X129534112Y-280807000D03*
X129534112Y-278107000D03*
X129534112Y-256820000D03*
X129534112Y-254120000D03*
X129534112Y-232832000D03*
X129534112Y-230132000D03*
X129534112Y-208844000D03*
X129534112Y-206144000D03*
X129534112Y-184856000D03*
X129534112Y-182156000D03*
X129534112Y-160869000D03*
X129534112Y-158169000D03*
X129534112Y-136881000D03*
X129534112Y-134181000D03*
X129534112Y-112893000D03*
X129534112Y-110193000D03*
X129534112Y-88905300D03*
X129534112Y-86205300D03*
X129534112Y-64917600D03*
X129534112Y-62217600D03*
X129534112Y-40929800D03*
X129534112Y-38229800D03*
X153521111Y-400746000D03*
X153521111Y-398046000D03*
X153521111Y-376758000D03*
X153521111Y-374058000D03*
X153521111Y-352771000D03*
X153521111Y-350071000D03*
X153521111Y-328783000D03*
X153521111Y-326083000D03*
X153521111Y-304795000D03*
X153521111Y-302095000D03*
X153521111Y-280807000D03*
X153521111Y-278107000D03*
X153521111Y-256820000D03*
X153521111Y-254120000D03*
X153521111Y-232832000D03*
X153521111Y-230132000D03*
X153521111Y-208844000D03*
X153521111Y-206144000D03*
X153521111Y-184856000D03*
X153521111Y-182156000D03*
X153521111Y-160869000D03*
X153521111Y-158169000D03*
X153521111Y-136881000D03*
X153521111Y-134181000D03*
X153521111Y-112893000D03*
X153521111Y-110193000D03*
X153521111Y-88905300D03*
X153521111Y-86205300D03*
X153521111Y-64917600D03*
X153521111Y-62217600D03*
X153521111Y-40929800D03*
X153521111Y-38229800D03*
X177509111Y-400746000D03*
X177509111Y-398046000D03*
X177509111Y-376758000D03*
X177509111Y-374058000D03*
X177509111Y-352771000D03*
X177509111Y-350071000D03*
X177509111Y-328783000D03*
X177509111Y-326083000D03*
X177509111Y-304795000D03*
X177509111Y-302095000D03*
X177509111Y-280807000D03*
X177509111Y-278107000D03*
X177509111Y-256820000D03*
X177509111Y-254120000D03*
X177509111Y-232832000D03*
X177509111Y-230132000D03*
X177509111Y-208844000D03*
X177509111Y-206144000D03*
X177509111Y-184856000D03*
X177509111Y-182156000D03*
X177509111Y-160869000D03*
X177509111Y-158169000D03*
X177509111Y-136881000D03*
X177509111Y-134181000D03*
X177509111Y-112893000D03*
X177509111Y-110193000D03*
X177509111Y-88905300D03*
X177509111Y-86205300D03*
X177509111Y-64917600D03*
X177509111Y-62217600D03*
X177509111Y-40929800D03*
X177509111Y-38229800D03*
X201497111Y-400746000D03*
X201497111Y-398046000D03*
X201497111Y-376758000D03*
X201497111Y-374058000D03*
X201497111Y-352771000D03*
X201497111Y-350071000D03*
X201497111Y-328783000D03*
X201497111Y-326083000D03*
X201497111Y-304795000D03*
X201497111Y-302095000D03*
X201497111Y-280807000D03*
X201497111Y-278107000D03*
X201497111Y-256820000D03*
X201497111Y-254120000D03*
X201497111Y-232832000D03*
X201497111Y-230132000D03*
X201497111Y-208844000D03*
X201497111Y-206144000D03*
X201497111Y-184856000D03*
X201497111Y-182156000D03*
X201497111Y-160869000D03*
X201497111Y-158169000D03*
X201497111Y-136881000D03*
X201497111Y-134181000D03*
X201497111Y-112893000D03*
X201497111Y-110193000D03*
X201497111Y-88905300D03*
X201497111Y-86205300D03*
X201497111Y-64917600D03*
X201497111Y-62217600D03*
X201497111Y-40929800D03*
X201497111Y-38229800D03*
X225485111Y-400746000D03*
X225485111Y-398046000D03*
X225485111Y-376758000D03*
X225485111Y-374058000D03*
X225485111Y-352771000D03*
X225485111Y-350071000D03*
X225485111Y-328783000D03*
X225485111Y-326083000D03*
X225485111Y-304795000D03*
X225485111Y-302095000D03*
X225485111Y-280807000D03*
X225485111Y-278107000D03*
X225485111Y-256820000D03*
X225485111Y-254120000D03*
X225485111Y-232832000D03*
X225485111Y-230132000D03*
X225485111Y-208844000D03*
X225485111Y-206144000D03*
X225485111Y-184856000D03*
X225485111Y-182156000D03*
X225485111Y-160868000D03*
X225485111Y-158168000D03*
X225485111Y-136881000D03*
X225485111Y-134181000D03*
X225485111Y-112893000D03*
X225485111Y-110193000D03*
X225485111Y-88905300D03*
X225485111Y-86205300D03*
X225485111Y-64917600D03*
X225485111Y-62217600D03*
X225485111Y-40929800D03*
X225485111Y-38229800D03*
X249472111Y-400746000D03*
X249472111Y-398046000D03*
X249472111Y-376758000D03*
X249472111Y-374058000D03*
X249472111Y-352771000D03*
X249472111Y-350071000D03*
X249472111Y-328783000D03*
X249472111Y-326083000D03*
X249472111Y-304795000D03*
X249472111Y-302095000D03*
X249472111Y-280807000D03*
X249472111Y-278107000D03*
X249472111Y-256820000D03*
X249472111Y-254120000D03*
X249472111Y-232832000D03*
X249472111Y-230132000D03*
X249472111Y-208844000D03*
X249472111Y-206144000D03*
X249472111Y-184856000D03*
X249472111Y-182156000D03*
X249472111Y-160868000D03*
X249472111Y-158168000D03*
X249472111Y-136881000D03*
X249472111Y-134181000D03*
X249472111Y-112893000D03*
X249472111Y-110193000D03*
X249472111Y-88905300D03*
X249472111Y-86205300D03*
X249472111Y-64917600D03*
X249472111Y-62217600D03*
X249472111Y-40929800D03*
X249472111Y-38229800D03*
X273460111Y-400746000D03*
X273460111Y-398046000D03*
X273460111Y-376758000D03*
X273460111Y-374058000D03*
X273460111Y-352771000D03*
X273460111Y-350071000D03*
X273460111Y-328783000D03*
X273460111Y-326083000D03*
X273460111Y-304795000D03*
X273460111Y-302095000D03*
X273460111Y-280807000D03*
X273460111Y-278107000D03*
X273460111Y-256820000D03*
X273460111Y-254120000D03*
X273460111Y-232832000D03*
X273460111Y-230132000D03*
X273460111Y-208844000D03*
X273460111Y-206144000D03*
X273460111Y-184856000D03*
X273460111Y-182156000D03*
X273460111Y-160868000D03*
X273460111Y-158168000D03*
X273460111Y-136881000D03*
X273460111Y-134181000D03*
X273460111Y-112893000D03*
X273460111Y-110193000D03*
X273460111Y-88905300D03*
X273460111Y-86205300D03*
X273460111Y-64917600D03*
X273460111Y-62217600D03*
X273460111Y-40929800D03*
X273460111Y-38229800D03*
X297448111Y-400746000D03*
X297448111Y-398046000D03*
X297448111Y-376758000D03*
X297448111Y-374058000D03*
X297448111Y-352771000D03*
X297448111Y-350071000D03*
X297448111Y-328783000D03*
X297448111Y-326083000D03*
X297448111Y-304795000D03*
X297448111Y-302095000D03*
X297448111Y-280807000D03*
X297448111Y-278107000D03*
X297448111Y-256820000D03*
X297448111Y-254120000D03*
X297448111Y-232832000D03*
X297448111Y-230132000D03*
X297448111Y-208844000D03*
X297448111Y-206144000D03*
X297448111Y-184856000D03*
X297448111Y-182156000D03*
X297448111Y-160868000D03*
X297448111Y-158168000D03*
X297448111Y-136881000D03*
X297448111Y-134181000D03*
X297448111Y-112893000D03*
X297448111Y-110193000D03*
X297448111Y-88905300D03*
X297448111Y-86205300D03*
X297448111Y-64917600D03*
X297448111Y-62217600D03*
X297448111Y-40929800D03*
X297448111Y-38229800D03*
X321436111Y-400746000D03*
X321436111Y-398046000D03*
X321436111Y-376758000D03*
X321436111Y-374058000D03*
X321436111Y-352771000D03*
X321436111Y-350071000D03*
X321436111Y-328783000D03*
X321436111Y-326083000D03*
X321436111Y-304795000D03*
X321436111Y-302095000D03*
X321436111Y-280807000D03*
X321436111Y-278107000D03*
X321436111Y-256820000D03*
X321436111Y-254120000D03*
X321436111Y-232832000D03*
X321436111Y-230132000D03*
X321436111Y-208844000D03*
X321436111Y-206144000D03*
X321436111Y-184856000D03*
X321436111Y-182156000D03*
X321436111Y-160868000D03*
X321436111Y-158168000D03*
X321436111Y-136881000D03*
X321436111Y-134181000D03*
X321436111Y-112893000D03*
X321436111Y-110193000D03*
X321436111Y-88905300D03*
X321436111Y-86205300D03*
X321436111Y-64917600D03*
X321436111Y-62217600D03*
X321436111Y-40929800D03*
X321436111Y-38229800D03*
X345424111Y-400746000D03*
X345424111Y-398046000D03*
X345424111Y-376758000D03*
X345424111Y-374058000D03*
X345424111Y-352771000D03*
X345424111Y-350071000D03*
X345424111Y-328783000D03*
X345424111Y-326083000D03*
X345424111Y-304795000D03*
X345424111Y-302095000D03*
X345424111Y-280807000D03*
X345424111Y-278107000D03*
X345424111Y-256820000D03*
X345424111Y-254120000D03*
X345424111Y-232832000D03*
X345424111Y-230132000D03*
X345424111Y-208844000D03*
X345424111Y-206144000D03*
X345424111Y-184856000D03*
X345424111Y-182156000D03*
X345424111Y-160868000D03*
X345424111Y-158168000D03*
X345424111Y-136881000D03*
X345424111Y-134181000D03*
X345424111Y-112893000D03*
X345424111Y-110193000D03*
X345424111Y-88905300D03*
X345424111Y-86205300D03*
X345424111Y-64917600D03*
X345424111Y-62217600D03*
X345424111Y-40929800D03*
X345424111Y-38229800D03*
X369411111Y-400746000D03*
X369411111Y-398046000D03*
X369411111Y-376758000D03*
X369411111Y-374058000D03*
X369411111Y-352771000D03*
X369411111Y-350071000D03*
X369411111Y-328783000D03*
X369411111Y-326083000D03*
X369411111Y-304795000D03*
X369411111Y-302095000D03*
X369411111Y-280807000D03*
X369411111Y-278107000D03*
X369411111Y-256820000D03*
X369411111Y-254120000D03*
X369411111Y-232832000D03*
X369411111Y-230132000D03*
X369411111Y-208844000D03*
X369411111Y-206144000D03*
X369411111Y-184856000D03*
X369411111Y-182156000D03*
X369411111Y-160868000D03*
X369411111Y-158168000D03*
X369411111Y-136881000D03*
X369411111Y-134181000D03*
X369411111Y-112893000D03*
X369411111Y-110193000D03*
X369411111Y-88905300D03*
X369411111Y-86205300D03*
X369411111Y-64917600D03*
X369411111Y-62217600D03*
X369411111Y-40929800D03*
X369411111Y-38229800D03*
X393416028Y-400763116D03*
X393416028Y-398063116D03*
X393416028Y-376774229D03*
X393416028Y-374074229D03*
X393416028Y-352785341D03*
X393416028Y-350085341D03*
X393416028Y-328796453D03*
X393416028Y-326096453D03*
X393416028Y-304807565D03*
X393416028Y-302107565D03*
X393416028Y-280818678D03*
X393416028Y-278118678D03*
X393416028Y-256829790D03*
X393416028Y-254129790D03*
X393416028Y-232840902D03*
X393416028Y-230140902D03*
X393416028Y-208852014D03*
X393416028Y-206152014D03*
X393416028Y-184863127D03*
X393416028Y-182163127D03*
X393416028Y-160874239D03*
X393416028Y-158174239D03*
X393416028Y-136885351D03*
X393416028Y-134185351D03*
X393416028Y-112896463D03*
X393416028Y-110196463D03*
X393416028Y-88907576D03*
X393416028Y-86207576D03*
X393416028Y-64918688D03*
X393416028Y-62218688D03*
X393416028Y-40929800D03*
X393416028Y-38229800D03*
D16*
X21690200Y-370709000D03*
X21690200Y-377709000D03*
D17*
X19190200Y-371709000D03*
X19190200Y-376709000D03*
D16*
X21690200Y-389899000D03*
X21690200Y-396899000D03*
D17*
X19190200Y-390899000D03*
X19190200Y-395899000D03*
D16*
X21690200Y-409089000D03*
X21690200Y-416089000D03*
D17*
X19190200Y-410089000D03*
X19190200Y-415089000D03*
D18*
X76643600Y-195281800D03*
X56643600Y-195281800D03*
D14*
X66207600Y-127209800D03*
D13*
X63667600Y-127209800D03*
X61127600Y-127209800D03*
X58587600Y-127209800D03*
X56047600Y-127209800D03*
X53507600Y-127209800D03*
X50967600Y-127209800D03*
X48427600Y-127209800D03*
X45887600Y-127209800D03*
X43347600Y-127209800D03*
X40807600Y-127209800D03*
X38267600Y-127209800D03*
X35727600Y-127209800D03*
X33187600Y-127209800D03*
X33187600Y-144989800D03*
X35727600Y-144989800D03*
X38267600Y-144989800D03*
X40807600Y-144989800D03*
X43347600Y-144989800D03*
X45887600Y-144989800D03*
X48427600Y-144989800D03*
X50967600Y-144989800D03*
X53507600Y-144989800D03*
X56047600Y-144989800D03*
X58587600Y-144989800D03*
X61127600Y-144989800D03*
X63667600Y-144989800D03*
X66207600Y-144989800D03*
D14*
X65953600Y-78441800D03*
D13*
X63413600Y-78441800D03*
X60873600Y-78441800D03*
X58333600Y-78441800D03*
X55793600Y-78441800D03*
X53253600Y-78441800D03*
X50713600Y-78441800D03*
X48173600Y-78441800D03*
X45633600Y-78441800D03*
X43093600Y-78441800D03*
X40553600Y-78441800D03*
X38013600Y-78441800D03*
X35473600Y-78441800D03*
X32933600Y-78441800D03*
X32933600Y-96221800D03*
X35473600Y-96221800D03*
X38013600Y-96221800D03*
X40553600Y-96221800D03*
X43093600Y-96221800D03*
X45633600Y-96221800D03*
X48173600Y-96221800D03*
X50713600Y-96221800D03*
X53253600Y-96221800D03*
X55793600Y-96221800D03*
X58333600Y-96221800D03*
X60873600Y-96221800D03*
X63413600Y-96221800D03*
X65953600Y-96221800D03*
D14*
X65953600Y-270465800D03*
D13*
X63413600Y-270465800D03*
X60873600Y-270465800D03*
X58333600Y-270465800D03*
X55793600Y-270465800D03*
X53253600Y-270465800D03*
X50713600Y-270465800D03*
X48173600Y-270465800D03*
X45633600Y-270465800D03*
X43093600Y-270465800D03*
X40553600Y-270465800D03*
X38013600Y-270465800D03*
X35473600Y-270465800D03*
X32933600Y-270465800D03*
X32933600Y-288245800D03*
X35473600Y-288245800D03*
X38013600Y-288245800D03*
X40553600Y-288245800D03*
X43093600Y-288245800D03*
X45633600Y-288245800D03*
X48173600Y-288245800D03*
X50713600Y-288245800D03*
X53253600Y-288245800D03*
X55793600Y-288245800D03*
X58333600Y-288245800D03*
X60873600Y-288245800D03*
X63413600Y-288245800D03*
X65953600Y-288245800D03*
D14*
X66207600Y-319233800D03*
D13*
X63667600Y-319233800D03*
X61127600Y-319233800D03*
X58587600Y-319233800D03*
X56047600Y-319233800D03*
X53507600Y-319233800D03*
X50967600Y-319233800D03*
X48427600Y-319233800D03*
X45887600Y-319233800D03*
X43347600Y-319233800D03*
X40807600Y-319233800D03*
X38267600Y-319233800D03*
X35727600Y-319233800D03*
X33187600Y-319233800D03*
X33187600Y-337013800D03*
X35727600Y-337013800D03*
X38267600Y-337013800D03*
X40807600Y-337013800D03*
X43347600Y-337013800D03*
X45887600Y-337013800D03*
X48427600Y-337013800D03*
X50967600Y-337013800D03*
X53507600Y-337013800D03*
X56047600Y-337013800D03*
X58587600Y-337013800D03*
X61127600Y-337013800D03*
X63667600Y-337013800D03*
X66207600Y-337013800D03*
D19*
X101894600Y-352634800D03*
D20*
X91734600Y-352634800D03*
D21*
X96433600Y-363302800D03*
D22*
X98973600Y-363302800D03*
D19*
X20106600Y-383368800D03*
X30266600Y-383368800D03*
X20106600Y-402672800D03*
X30266600Y-402672800D03*
X20106600Y-406482800D03*
X30266600Y-406482800D03*
D23*
X28107600Y-171405800D03*
D24*
X28107600Y-168865800D03*
X28107600Y-166325800D03*
X28107600Y-163785800D03*
X28107600Y-161245800D03*
X28107600Y-158705800D03*
D23*
X28107600Y-186518800D03*
D24*
X28107600Y-183978800D03*
X28107600Y-181438800D03*
X28107600Y-178898800D03*
X28107600Y-176358800D03*
D25*
X25313600Y-200742800D03*
D26*
X27853600Y-200742800D03*
X25313600Y-203282800D03*
X27853600Y-203282800D03*
X25313600Y-205822800D03*
X27853600Y-205822800D03*
D13*
X110276600Y-245319800D03*
X112816600Y-245319800D03*
X115356600Y-245319800D03*
X117896600Y-245319800D03*
X120436600Y-245319800D03*
X122976600Y-245319800D03*
X125516600Y-245319800D03*
X128056600Y-245319800D03*
X133136600Y-245319800D03*
X135676600Y-245319800D03*
X138216600Y-245319800D03*
X140756600Y-245319800D03*
X143296600Y-245319800D03*
X145836600Y-245319800D03*
X101793000Y-197059800D03*
X104333000Y-197059800D03*
X106873000Y-197059800D03*
X109413000Y-197059800D03*
X111953000Y-197059800D03*
X114493000Y-197059800D03*
X117033000Y-197059800D03*
X119573000Y-197059800D03*
X122113000Y-197059800D03*
X124653000Y-197059800D03*
X128056600Y-197059800D03*
X130596600Y-197059800D03*
X133136600Y-197059800D03*
X135676600Y-197059800D03*
X138216600Y-197059800D03*
X140756600Y-197059800D03*
X143296600Y-197059800D03*
X145836600Y-197059800D03*
X145836600Y-222459800D03*
X145836600Y-219919800D03*
X145836600Y-217379800D03*
X148376600Y-217379800D03*
X148376600Y-219919800D03*
X148376600Y-222459800D03*
D27*
X102922895Y-334747000D03*
X100382895Y-334747000D03*
X94527895Y-334747000D03*
X91987895Y-334747000D03*
D28*
X97828060Y-324821800D03*
D29*
X95288060Y-324821800D03*
X100368060Y-324821800D03*
D30*
X97828060Y-308057800D03*
M02*
