M48
;DRILL file {KiCad (2015-10-10 BZR 6258)-product} date Thursday, October 15, 2015 'PMt' 09:28:59 PM
;FORMAT={-:-/ absolute / inch / decimal}
FMAT,2
INCH,TZ
T1C0.025
T2C0.031
T3C0.032
T4C0.039
T5C0.040
T6C0.047
T7C0.051
T8C0.098
T9C0.150
%
G90
G05
M72
T1
X0.8616Y-5.7933
X0.8766Y-7.5133
X0.9066Y-5.8483
X0.9266Y-7.4596
X0.9516Y-7.7883
X0.9616Y-5.8933
X0.9816Y-8.8883
X0.9816Y-8.9383
X0.9866Y-8.8383
X1.0116Y-10.9383
X1.0116Y-11.0433
X1.0166Y-8.3683
X1.0216Y-8.5533
X1.0216Y-8.6683
X1.0516Y-11.0883
X1.0566Y-10.9133
X1.0666Y-9.0583
X1.0966Y-2.7283
X1.0966Y-10.2883
X1.1016Y-4.0133
X1.1016Y-8.2183
X1.1116Y-9.0983
X1.1316Y-4.0583
X1.1466Y-9.0233
X1.2066Y-4.9183
X1.2066Y-12.4783
X1.2216Y-7.9983
X1.2416Y-8.4833
X1.2416Y-8.9133
X1.2466Y-4.2183
X1.2466Y-11.7783
X1.2516Y-8.5783
X1.2866Y-1.8783
X1.2866Y-4.2583
X1.2866Y-8.4483
X1.2866Y-9.4383
X1.2866Y-11.8183
X1.2966Y-7.9233
X1.2966Y-8.5883
X1.3166Y-1.6783
X1.3166Y-2.6283
X1.3166Y-9.2383
X1.3166Y-10.1883
X1.3266Y-4.5283
X1.3266Y-12.0883
X1.3616Y-8.6533
X1.3666Y-8.4533
X1.3866Y-8.5433
X1.4516Y-8.3133
X1.6116Y-8.5633
X1.6416Y-8.7783
X1.6466Y-4.3383
X1.6466Y-11.8983
X1.6566Y-8.5283
X1.6566Y-8.7083
X1.7066Y-5.2283
X1.7066Y-8.4883
X1.7066Y-12.7883
X1.7266Y-8.8033
X1.7566Y-3.3183
X1.7566Y-3.5583
X1.7566Y-10.8783
X1.7566Y-11.1183
X1.8066Y-5.2283
X1.8066Y-12.7883
X1.8566Y-3.3183
X1.8566Y-5.4583
X1.8566Y-10.8783
X1.8566Y-13.0183
X1.8766Y-8.9483
X1.9816Y-9.0783
X1.9866Y-9.2833
X1.9966Y-10.1083
X2.0266Y-9.1133
X2.0666Y-9.0733
X2.0966Y-2.5783
X2.1316Y-9.2683
X2.1516Y-9.3233
X2.1566Y-9.3983
X2.1616Y-9.1583
X2.1866Y-1.6983
X2.1966Y-9.2583
X2.3366Y-1.4783
X2.3366Y-2.4283
X2.3366Y-8.0883
X2.3366Y-9.9883
X2.3366Y-15.6483
X2.3416Y-9.0733
X2.3466Y-4.3183
X2.3466Y-6.1983
X2.3466Y-7.1483
X2.3466Y-11.8783
X2.3466Y-13.7583
X2.3466Y-14.7083
X2.3566Y-5.2783
X2.3566Y-12.8383
X2.3666Y-11.0433
X2.3716Y-3.2933
X2.3716Y-3.4833
X2.3766Y-1.5183
X2.3766Y-2.4583
X2.3766Y-2.7283
X2.3766Y-9.1033
X2.3766Y-10.0183
X2.3766Y-10.2883
X2.3866Y-4.3483
X2.3866Y-6.2383
X2.3866Y-7.1883
X2.3866Y-8.1283
X2.3866Y-10.8183
X2.3866Y-11.9083
X2.3866Y-13.7983
X2.3866Y-14.7483
X2.3866Y-15.6883
X2.4166Y-9.3983
X2.4716Y-3.3283
X2.4816Y-10.8883
X2.5266Y-3.3883
X2.5266Y-5.2783
X2.5266Y-10.9483
X2.5266Y-12.8383
X2.5766Y-8.8533
X2.6066Y-11.4433
X2.6116Y-3.6883
X2.6116Y-11.2483
X2.6216Y-3.8783
X2.7266Y-3.3383
X2.7266Y-4.4883
X2.7266Y-10.8983
X2.7266Y-12.0483
X2.7766Y-3.3383
X2.7766Y-5.4383
X2.7766Y-10.8983
X2.7766Y-12.9983
X2.8166Y-8.8783
X2.8266Y-3.3383
X2.8266Y-6.3783
X2.8266Y-10.8983
X2.8266Y-13.9383
X2.8766Y-3.3383
X2.8766Y-7.3283
X2.8766Y-10.8983
X2.8766Y-14.8883
X2.8966Y-8.8533
X2.9266Y-3.3383
X2.9266Y-8.2683
X2.9266Y-10.8983
X2.9266Y-15.8283
X3.0166Y-5.2983
X3.0166Y-6.2783
X3.0166Y-12.8583
X3.0166Y-13.8383
X3.0666Y-5.2983
X3.0666Y-12.8583
X3.0716Y-9.2533
X3.0766Y-7.2283
X3.0766Y-14.7883
X3.1166Y-5.2983
X3.1166Y-8.1683
X3.1166Y-12.8583
X3.1166Y-15.7283
X3.1666Y-8.4633
X3.2216Y-8.4433
X3.2416Y-9.2583
X3.2866Y-1.4783
X3.2866Y-2.4183
X3.2866Y-3.3683
X3.2866Y-4.3083
X3.2866Y-5.2583
X3.2866Y-6.1983
X3.2866Y-7.1383
X3.2866Y-8.0883
X3.2866Y-9.0683
X3.2866Y-9.9783
X3.2866Y-10.9283
X3.2866Y-11.8683
X3.2866Y-12.8183
X3.2866Y-13.7583
X3.2866Y-14.6983
X3.2866Y-15.6483
X3.3166Y-9.1033
X3.3266Y-1.5183
X3.3266Y-2.4683
X3.3266Y-3.4083
X3.3266Y-4.3483
X3.3266Y-5.2983
X3.3266Y-6.2383
X3.3266Y-7.1783
X3.3266Y-8.1183
X3.3266Y-10.0283
X3.3266Y-10.9683
X3.3266Y-11.9083
X3.3266Y-12.8583
X3.3266Y-13.7983
X3.3266Y-14.7383
X3.3266Y-15.6783
X3.6916Y-7.3683
X3.7166Y-9.8833
X3.7416Y-7.3783
X3.7866Y-8.0233
X3.9066Y-7.9133
X3.9916Y-9.8233
X4.1616Y-9.1133
X4.2266Y-1.4783
X4.2266Y-2.4283
X4.2266Y-3.3683
X4.2266Y-4.3083
X4.2266Y-5.2483
X4.2266Y-6.1983
X4.2266Y-7.1583
X4.2266Y-9.9883
X4.2266Y-10.9283
X4.2266Y-11.8683
X4.2266Y-12.8083
X4.2266Y-13.7583
X4.2266Y-14.7183
X4.2266Y-15.6483
X4.2666Y-1.5183
X4.2666Y-2.4583
X4.2666Y-3.4083
X4.2666Y-4.3483
X4.2666Y-5.2983
X4.2666Y-6.2383
X4.2666Y-7.1883
X4.2666Y-9.0783
X4.2666Y-10.0183
X4.2666Y-10.9683
X4.2666Y-11.9083
X4.2666Y-12.8583
X4.2666Y-13.7983
X4.2666Y-14.7483
X4.2666Y-15.6883
X4.4016Y-8.5683
X4.4866Y-8.5583
X4.5766Y-8.5133
X4.6266Y-8.4833
X4.7116Y-8.4983
X4.7466Y-8.9633
X4.7816Y-8.9233
X4.8116Y-8.4883
X4.8866Y-9.0683
X4.9416Y-9.0683
X4.9516Y-8.4233
X5.0316Y-8.3933
X5.1516Y-8.3583
X5.1666Y-1.4783
X5.1666Y-2.4183
X5.1666Y-3.3683
X5.1666Y-4.3083
X5.1666Y-5.2483
X5.1666Y-6.1983
X5.1666Y-7.1383
X5.1666Y-9.9783
X5.1666Y-10.9283
X5.1666Y-11.8683
X5.1666Y-12.8083
X5.1666Y-13.7583
X5.1666Y-14.6983
X5.1666Y-15.6583
X5.2066Y-1.5183
X5.2066Y-2.4683
X5.2066Y-3.3983
X5.2066Y-4.3483
X5.2066Y-5.2983
X5.2066Y-6.2383
X5.2066Y-7.1883
X5.2066Y-10.0283
X5.2066Y-10.9583
X5.2066Y-11.9083
X5.2066Y-12.8583
X5.2066Y-13.7983
X5.2066Y-14.7483
X5.2066Y-15.6883
X5.2516Y-8.3333
X5.3216Y-8.3083
X5.8116Y-7.3733
X5.8566Y-7.3683
X6.1166Y-1.4783
X6.1166Y-2.4283
X6.1166Y-3.3683
X6.1166Y-4.3083
X6.1166Y-5.2583
X6.1166Y-6.1983
X6.1166Y-7.1383
X6.1166Y-8.0883
X6.1166Y-9.0383
X6.1166Y-9.9883
X6.1166Y-10.9283
X6.1166Y-11.8683
X6.1166Y-12.8183
X6.1166Y-13.7583
X6.1166Y-14.6983
X6.1166Y-15.6483
X6.1566Y-1.5183
X6.1566Y-2.4583
X6.1566Y-3.4083
X6.1566Y-4.3483
X6.1566Y-5.2983
X6.1566Y-6.2383
X6.1566Y-7.1883
X6.1566Y-8.1183
X6.1566Y-9.0783
X6.1566Y-10.0183
X6.1566Y-10.9683
X6.1566Y-11.9083
X6.1566Y-12.8583
X6.1566Y-13.7983
X6.1566Y-14.7483
X6.1566Y-15.6783
X7.0566Y-1.4883
X7.0566Y-2.4183
X7.0566Y-3.3683
X7.0566Y-4.3083
X7.0566Y-5.2483
X7.0566Y-6.1983
X7.0566Y-7.1483
X7.0566Y-8.0883
X7.0566Y-9.0483
X7.0566Y-9.9783
X7.0566Y-10.9283
X7.0566Y-11.8683
X7.0566Y-12.8083
X7.0566Y-13.7583
X7.0566Y-14.7083
X7.0566Y-15.6483
X7.0966Y-1.5183
X7.0966Y-2.4683
X7.0966Y-3.4083
X7.0966Y-4.3483
X7.0966Y-5.2983
X7.0966Y-6.2383
X7.0966Y-7.1783
X7.0966Y-8.1183
X7.0966Y-9.0783
X7.0966Y-10.0283
X7.0966Y-10.9683
X7.0966Y-11.9083
X7.0966Y-12.8583
X7.0966Y-13.7983
X7.0966Y-14.7383
X7.0966Y-15.6783
X8.0066Y-1.4783
X8.0066Y-2.4283
X8.0066Y-3.3583
X8.0066Y-4.3033
X8.0066Y-5.2583
X8.0066Y-6.1983
X8.0066Y-7.1483
X8.0066Y-8.0883
X8.0066Y-9.0383
X8.0066Y-9.9883
X8.0066Y-10.9033
X8.0066Y-11.8483
X8.0066Y-12.8183
X8.0066Y-13.7583
X8.0066Y-14.7083
X8.0066Y-15.6483
X8.0466Y-1.5183
X8.0466Y-2.4683
X8.0466Y-3.4133
X8.0466Y-4.3433
X8.0466Y-5.2983
X8.0466Y-6.2383
X8.0466Y-7.1883
X8.0466Y-8.1183
X8.0466Y-9.0783
X8.0466Y-10.0283
X8.0466Y-10.9633
X8.0466Y-11.9033
X8.0466Y-12.8583
X8.0466Y-13.7983
X8.0466Y-14.7483
X8.0466Y-15.6783
X8.9466Y-1.4883
X8.9466Y-2.4283
X8.9466Y-3.3683
X8.9466Y-4.3083
X8.9466Y-5.2583
X8.9466Y-6.1983
X8.9466Y-7.1483
X8.9466Y-8.0883
X8.9466Y-9.0483
X8.9466Y-9.9883
X8.9466Y-10.9283
X8.9466Y-11.8683
X8.9466Y-12.8183
X8.9466Y-13.7583
X8.9466Y-14.7083
X8.9466Y-15.6483
X8.9966Y-1.5183
X8.9966Y-2.4583
X8.9966Y-3.4083
X8.9966Y-4.3483
X8.9966Y-5.2983
X8.9966Y-6.2383
X8.9966Y-7.1783
X8.9966Y-8.1283
X8.9966Y-9.0783
X8.9966Y-10.0183
X8.9966Y-10.9683
X8.9966Y-11.9083
X8.9966Y-12.8583
X8.9966Y-13.7983
X8.9966Y-14.7383
X8.9966Y-15.6883
X9.8966Y-1.4883
X9.8966Y-2.4083
X9.8966Y-3.3533
X9.8966Y-4.3083
X9.8966Y-5.2583
X9.8966Y-6.2083
X9.8966Y-7.1483
X9.8966Y-8.0883
X9.8966Y-9.0483
X9.8966Y-9.9883
X9.8966Y-10.9283
X9.8966Y-11.8683
X9.8966Y-12.8183
X9.8966Y-13.7683
X9.8966Y-14.7083
X9.8966Y-15.6483
X9.9366Y-1.5183
X9.9366Y-2.4583
X9.9366Y-3.3983
X9.9366Y-4.3483
X9.9366Y-5.2983
X9.9366Y-6.2383
X9.9366Y-7.1883
X9.9366Y-8.1183
X9.9366Y-9.0783
X9.9366Y-10.0183
X9.9366Y-10.9583
X9.9366Y-11.9083
X9.9366Y-12.8583
X9.9366Y-13.7983
X9.9366Y-14.7483
X9.9366Y-15.6783
X10.8366Y-1.4883
X10.8366Y-2.4183
X10.8366Y-3.3683
X10.8366Y-4.3183
X10.8366Y-5.2583
X10.8366Y-6.1983
X10.8366Y-7.1483
X10.8366Y-8.0983
X10.8366Y-9.0483
X10.8366Y-9.9783
X10.8366Y-10.9283
X10.8366Y-11.8783
X10.8366Y-12.8183
X10.8366Y-13.7583
X10.8366Y-14.7083
X10.8366Y-15.6583
X10.8766Y-1.5183
X10.8766Y-2.4683
X10.8766Y-3.4083
X10.8766Y-4.3483
X10.8766Y-5.2883
X10.8766Y-6.2383
X10.8766Y-7.1783
X10.8766Y-8.1283
X10.8766Y-9.0783
X10.8766Y-10.0283
X10.8766Y-10.9683
X10.8766Y-11.9083
X10.8766Y-12.8483
X10.8766Y-13.7983
X10.8766Y-14.7383
X10.8766Y-15.6883
X11.7766Y-2.4283
X11.7766Y-3.3783
X11.7766Y-4.3183
X11.7766Y-5.2583
X11.7766Y-6.2083
X11.7766Y-7.1483
X11.7766Y-8.0983
X11.7766Y-9.9883
X11.7766Y-10.9383
X11.7766Y-11.8783
X11.7766Y-12.8183
X11.7766Y-13.7683
X11.7766Y-14.7083
X11.7766Y-15.6583
X11.7866Y-1.4883
X11.7866Y-9.0483
X11.8266Y-1.5183
X11.8266Y-2.4583
X11.8266Y-3.4083
X11.8266Y-4.3483
X11.8266Y-5.2983
X11.8266Y-6.2383
X11.8266Y-7.1883
X11.8266Y-8.1283
X11.8266Y-9.0783
X11.8266Y-10.0183
X11.8266Y-10.9683
X11.8266Y-11.9083
X11.8266Y-12.8583
X11.8266Y-13.7983
X11.8266Y-14.7483
X11.8266Y-15.6883
X12.7266Y-1.4783
X12.7266Y-2.4283
X12.7266Y-3.3683
X12.7266Y-4.3083
X12.7266Y-5.2583
X12.7266Y-6.1983
X12.7266Y-7.1483
X12.7266Y-8.0983
X12.7266Y-9.0383
X12.7266Y-9.9883
X12.7266Y-10.9283
X12.7266Y-11.8683
X12.7266Y-12.8183
X12.7266Y-13.7583
X12.7266Y-14.7083
X12.7266Y-15.6583
X12.7666Y-1.5183
X12.7666Y-2.4583
X12.7666Y-3.4083
X12.7666Y-4.3483
X12.7666Y-5.2983
X12.7666Y-6.2383
X12.7666Y-7.1883
X12.7666Y-8.1283
X12.7666Y-9.0783
X12.7666Y-10.0183
X12.7666Y-10.9683
X12.7666Y-11.9083
X12.7666Y-12.8583
X12.7666Y-13.7983
X12.7666Y-14.7483
X12.7666Y-15.6883
X13.6666Y-1.4783
X13.6666Y-2.4283
X13.6666Y-3.3683
X13.6666Y-4.3183
X13.6666Y-5.2583
X13.6666Y-6.1983
X13.6666Y-7.1483
X13.6666Y-8.0983
X13.6666Y-9.0383
X13.6666Y-9.9883
X13.6666Y-10.9283
X13.6666Y-11.8783
X13.6666Y-12.8183
X13.6666Y-13.7583
X13.6666Y-14.7083
X13.6666Y-15.6583
X13.7066Y-2.4583
X13.7066Y-3.3983
X13.7066Y-4.3483
X13.7066Y-5.2983
X13.7066Y-6.2383
X13.7066Y-7.1783
X13.7066Y-8.1283
X13.7066Y-10.0183
X13.7066Y-10.9583
X13.7066Y-11.9083
X13.7066Y-12.8583
X13.7066Y-13.7983
X13.7066Y-14.7383
X13.7066Y-15.6883
X13.7166Y-1.5183
X13.7166Y-9.0783
X14.6066Y-1.4883
X14.6066Y-2.4283
X14.6066Y-3.3783
X14.6066Y-4.3183
X14.6066Y-5.2683
X14.6066Y-6.2183
X14.6066Y-7.1583
X14.6066Y-9.0483
X14.6066Y-9.9883
X14.6066Y-10.9383
X14.6066Y-11.8783
X14.6066Y-12.8283
X14.6066Y-13.7783
X14.6066Y-14.7183
X14.6166Y-8.0983
X14.6166Y-15.6583
X14.6666Y-1.5083
X14.6666Y-2.4583
X14.6666Y-3.3983
X14.6666Y-4.3483
X14.6666Y-5.2883
X14.6666Y-6.2283
X14.6666Y-7.1783
X14.6666Y-8.1183
X14.6666Y-9.0683
X14.6666Y-10.0183
X14.6666Y-10.9583
X14.6666Y-11.9083
X14.6666Y-12.8483
X14.6666Y-13.7883
X14.6666Y-14.7383
X14.6666Y-15.6783
X15.6966Y-3.9983
X15.6966Y-11.5583
X15.8266Y-4.1583
X15.8266Y-11.7183
T2
X0.7555Y-14.6342
X0.7555Y-14.8311
X0.7555Y-15.3897
X0.7555Y-15.5866
X0.7555Y-16.1452
X0.7555Y-16.3421
T3
X3.6216Y-13.179
X3.7216Y-13.179
X3.9521Y-13.179
X4.0521Y-13.179
T4
X3.7515Y-12.7883
X3.8515Y-12.7883
X3.9515Y-12.7883
T5
X0.9966Y-7.9033
X0.9966Y-8.0033
X0.9966Y-8.1033
X1.0966Y-7.9033
X1.0966Y-8.0033
X1.0966Y-8.1033
X1.1066Y-6.2483
X1.1066Y-6.3483
X1.1066Y-6.4483
X1.1066Y-6.5483
X1.1066Y-6.6483
X1.1066Y-6.7483
X1.1066Y-6.9433
X1.1066Y-7.0433
X1.1066Y-7.1433
X1.1066Y-7.2433
X1.1066Y-7.3433
X1.2966Y-3.0883
X1.2966Y-3.7883
X1.2966Y-10.6483
X1.2966Y-11.3483
X1.3066Y-5.0083
X1.3066Y-5.7083
X1.3066Y-12.5683
X1.3066Y-13.2683
X1.3966Y-3.0883
X1.3966Y-3.7883
X1.3966Y-10.6483
X1.3966Y-11.3483
X1.4066Y-5.0083
X1.4066Y-5.7083
X1.4066Y-12.5683
X1.4066Y-13.2683
X1.4966Y-3.0883
X1.4966Y-3.7883
X1.4966Y-10.6483
X1.4966Y-11.3483
X1.5066Y-5.0083
X1.5066Y-5.7083
X1.5066Y-12.5683
X1.5066Y-13.2683
X1.5966Y-3.0883
X1.5966Y-3.7883
X1.5966Y-10.6483
X1.5966Y-11.3483
X1.6066Y-5.0083
X1.6066Y-5.7083
X1.6066Y-12.5683
X1.6066Y-13.2683
X1.6966Y-3.0883
X1.6966Y-3.7883
X1.6966Y-10.6483
X1.6966Y-11.3483
X1.7066Y-5.0083
X1.7066Y-5.7083
X1.7066Y-12.5683
X1.7066Y-13.2683
X1.7966Y-3.0883
X1.7966Y-3.7883
X1.7966Y-10.6483
X1.7966Y-11.3483
X1.8066Y-5.0083
X1.8066Y-5.7083
X1.8066Y-12.5683
X1.8066Y-13.2683
X1.8966Y-3.0883
X1.8966Y-3.7883
X1.8966Y-10.6483
X1.8966Y-11.3483
X1.9066Y-5.0083
X1.9066Y-5.7083
X1.9066Y-12.5683
X1.9066Y-13.2683
X1.9666Y-8.3383
X1.9666Y-8.9383
X1.9966Y-3.0883
X1.9966Y-3.7883
X1.9966Y-10.6483
X1.9966Y-11.3483
X2.0066Y-5.0083
X2.0066Y-5.7083
X2.0066Y-12.5683
X2.0066Y-13.2683
X2.0666Y-8.3383
X2.0666Y-8.9383
X2.0966Y-3.0883
X2.0966Y-3.7883
X2.0966Y-10.6483
X2.0966Y-11.3483
X2.1066Y-5.0083
X2.1066Y-5.7083
X2.1066Y-12.5683
X2.1066Y-13.2683
X2.1666Y-8.3383
X2.1666Y-8.9383
X2.1966Y-3.0883
X2.1966Y-3.7883
X2.1966Y-10.6483
X2.1966Y-11.3483
X2.2066Y-5.0083
X2.2066Y-5.7083
X2.2066Y-12.5683
X2.2066Y-13.2683
X2.2666Y-8.3383
X2.2666Y-8.9383
X2.2966Y-3.0883
X2.2966Y-3.7883
X2.2966Y-10.6483
X2.2966Y-11.3483
X2.3066Y-5.0083
X2.3066Y-5.7083
X2.3066Y-12.5683
X2.3066Y-13.2683
X2.3666Y-8.3383
X2.3666Y-8.9383
X2.3966Y-3.0883
X2.3966Y-3.7883
X2.3966Y-10.6483
X2.3966Y-11.3483
X2.4066Y-5.0083
X2.4066Y-5.7083
X2.4066Y-12.5683
X2.4066Y-13.2683
X2.4666Y-8.3383
X2.4666Y-8.9383
X2.4966Y-3.0883
X2.4966Y-3.7883
X2.4966Y-10.6483
X2.4966Y-11.3483
X2.5066Y-5.0083
X2.5066Y-5.7083
X2.5066Y-12.5683
X2.5066Y-13.2683
X2.5666Y-8.3383
X2.5666Y-8.9383
X2.5966Y-3.0883
X2.5966Y-3.7883
X2.5966Y-10.6483
X2.5966Y-11.3483
X2.6066Y-5.0083
X2.6066Y-5.7083
X2.6066Y-12.5683
X2.6066Y-13.2683
X2.6666Y-8.3383
X2.6666Y-8.9383
X2.7666Y-8.3383
X2.7666Y-8.9383
X2.8666Y-8.3383
X2.8666Y-8.9383
X2.9666Y-8.3383
X2.9666Y-8.9383
X3.0666Y-8.3383
X3.0666Y-8.9383
X3.1666Y-8.3383
X3.1666Y-8.9383
X3.2666Y-8.3383
X3.2666Y-8.9383
X3.3666Y-8.3383
X3.3666Y-8.9383
X4.0076Y-7.7583
X4.1076Y-7.7583
X4.2076Y-7.7583
X4.3076Y-7.7583
X4.3416Y-9.6583
X4.4076Y-7.7583
X4.4416Y-9.6583
X4.5076Y-7.7583
X4.5416Y-9.6583
X4.6076Y-7.7583
X4.6416Y-9.6583
X4.7076Y-7.7583
X4.7416Y-9.6583
X4.8076Y-7.7583
X4.8416Y-9.6583
X4.9076Y-7.7583
X4.9416Y-9.6583
X5.0416Y-7.7583
X5.0416Y-9.6583
X5.1416Y-7.7583
X5.2416Y-7.7583
X5.2416Y-9.6583
X5.3416Y-7.7583
X5.3416Y-9.6583
X5.4416Y-7.7583
X5.4416Y-9.6583
X5.5416Y-7.7583
X5.5416Y-9.6583
X5.6416Y-7.7583
X5.6416Y-9.6583
X5.7416Y-7.7583
X5.7416Y-8.5583
X5.7416Y-8.6583
X5.7416Y-8.7583
X5.7416Y-9.6583
X5.8416Y-8.5583
X5.8416Y-8.6583
X5.8416Y-8.7583
X6.0416Y-8.3533
X6.0416Y-8.4533
X6.0416Y-8.5533
X6.0416Y-8.6533
X6.0416Y-8.7533
X6.0416Y-8.8533
X6.0416Y-8.9533
X6.1416Y-8.3533
X6.1416Y-8.4533
X6.1416Y-8.5533
X6.1416Y-8.6533
X6.1416Y-8.7533
X6.1416Y-8.8533
X6.1416Y-8.9533
X6.2416Y-7.4033
X6.2416Y-7.5033
X6.2416Y-7.6033
X6.2416Y-7.7033
X6.2416Y-7.8033
X6.2416Y-7.9033
X6.2416Y-8.0033
X6.2416Y-8.3533
X6.2416Y-8.4533
X6.2416Y-8.5533
X6.2416Y-8.6533
X6.2416Y-8.7533
X6.2416Y-8.8533
X6.2416Y-8.9533
X6.2416Y-9.3033
X6.2416Y-9.4033
X6.2416Y-9.5033
X6.2416Y-9.6033
X6.2416Y-9.7033
X6.2416Y-9.8033
X6.2416Y-9.9033
X6.3416Y-7.4033
X6.3416Y-7.5033
X6.3416Y-7.6033
X6.3416Y-7.7033
X6.3416Y-7.8033
X6.3416Y-7.9033
X6.3416Y-8.0033
X6.3416Y-8.3533
X6.3416Y-8.4533
X6.3416Y-8.5533
X6.3416Y-8.6533
X6.3416Y-8.7533
X6.3416Y-8.8533
X6.3416Y-8.9533
X6.3416Y-9.3033
X6.3416Y-9.4033
X6.3416Y-9.5033
X6.3416Y-9.6033
X6.3416Y-9.7033
X6.3416Y-9.8033
X6.3416Y-9.9033
X6.4416Y-7.4033
X6.4416Y-7.5033
X6.4416Y-7.6033
X6.4416Y-7.7033
X6.4416Y-7.8033
X6.4416Y-7.9033
X6.4416Y-8.0033
X6.4416Y-8.3533
X6.4416Y-8.4533
X6.4416Y-8.5533
X6.4416Y-8.6533
X6.4416Y-8.7533
X6.4416Y-8.8533
X6.4416Y-8.9533
X6.4416Y-9.3033
X6.4416Y-9.4033
X6.4416Y-9.5033
X6.4416Y-9.6033
X6.4416Y-9.7033
X6.4416Y-9.8033
X6.4416Y-9.9033
X6.5416Y-7.4033
X6.5416Y-7.5033
X6.5416Y-7.6033
X6.5416Y-7.7033
X6.5416Y-7.8033
X6.5416Y-7.9033
X6.5416Y-8.0033
X6.5416Y-8.3533
X6.5416Y-8.4533
X6.5416Y-8.5533
X6.5416Y-8.6533
X6.5416Y-8.7533
X6.5416Y-8.8533
X6.5416Y-8.9533
X6.5416Y-9.3033
X6.5416Y-9.4033
X6.5416Y-9.5033
X6.5416Y-9.6033
X6.5416Y-9.7033
X6.5416Y-9.8033
X6.5416Y-9.9033
X6.6416Y-7.4033
X6.6416Y-7.5033
X6.6416Y-7.6033
X6.6416Y-7.7033
X6.6416Y-7.8033
X6.6416Y-7.9033
X6.6416Y-8.0033
X6.6416Y-8.3533
X6.6416Y-8.4533
X6.6416Y-8.5533
X6.6416Y-8.6533
X6.6416Y-8.7533
X6.6416Y-8.8533
X6.6416Y-8.9533
X6.6416Y-9.3033
X6.6416Y-9.4033
X6.6416Y-9.5033
X6.6416Y-9.6033
X6.6416Y-9.7033
X6.6416Y-9.8033
X6.6416Y-9.9033
X6.7416Y-7.4033
X6.7416Y-7.5033
X6.7416Y-7.6033
X6.7416Y-7.7033
X6.7416Y-7.8033
X6.7416Y-7.9033
X6.7416Y-8.0033
X6.7416Y-8.3533
X6.7416Y-8.4533
X6.7416Y-8.5533
X6.7416Y-8.6533
X6.7416Y-8.7533
X6.7416Y-8.8533
X6.7416Y-8.9533
X6.7416Y-9.3033
X6.7416Y-9.4033
X6.7416Y-9.5033
X6.7416Y-9.6033
X6.7416Y-9.7033
X6.7416Y-9.8033
X6.7416Y-9.9033
X6.8416Y-7.4033
X6.8416Y-7.5033
X6.8416Y-7.6033
X6.8416Y-7.7033
X6.8416Y-7.8033
X6.8416Y-7.9033
X6.8416Y-8.0033
X6.8416Y-8.3533
X6.8416Y-8.4533
X6.8416Y-8.5533
X6.8416Y-8.6533
X6.8416Y-8.7533
X6.8416Y-8.8533
X6.8416Y-8.9533
X6.8416Y-9.3033
X6.8416Y-9.4033
X6.8416Y-9.5033
X6.8416Y-9.6033
X6.8416Y-9.7033
X6.8416Y-9.8033
X6.8416Y-9.9033
X6.9416Y-7.4033
X6.9416Y-7.5033
X6.9416Y-7.6033
X6.9416Y-7.7033
X6.9416Y-7.8033
X6.9416Y-7.9033
X6.9416Y-8.0033
X6.9416Y-8.3533
X6.9416Y-8.4533
X6.9416Y-8.5533
X6.9416Y-8.6533
X6.9416Y-8.7533
X6.9416Y-8.8533
X6.9416Y-8.9533
X6.9416Y-9.3033
X6.9416Y-9.4033
X6.9416Y-9.5033
X6.9416Y-9.6033
X6.9416Y-9.7033
X6.9416Y-9.8033
X6.9416Y-9.9033
X7.0416Y-8.3533
X7.0416Y-8.4533
X7.0416Y-8.5533
X7.0416Y-8.6533
X7.0416Y-8.7533
X7.0416Y-8.8533
X7.0416Y-8.9533
X7.1416Y-8.3533
X7.1416Y-8.4533
X7.1416Y-8.5533
X7.1416Y-8.6533
X7.1416Y-8.7533
X7.1416Y-8.8533
X7.1416Y-8.9533
X7.1916Y-7.4033
X7.1916Y-7.5033
X7.1916Y-7.6033
X7.1916Y-7.7033
X7.1916Y-7.8033
X7.1916Y-7.9033
X7.1916Y-8.0033
X7.1916Y-9.3033
X7.1916Y-9.4033
X7.1916Y-9.5033
X7.1916Y-9.6033
X7.1916Y-9.7033
X7.1916Y-9.8033
X7.1916Y-9.9033
X7.2416Y-8.3533
X7.2416Y-8.4533
X7.2416Y-8.5533
X7.2416Y-8.6533
X7.2416Y-8.7533
X7.2416Y-8.8533
X7.2416Y-8.9533
X7.2916Y-7.4033
X7.2916Y-7.5033
X7.2916Y-7.6033
X7.2916Y-7.7033
X7.2916Y-7.8033
X7.2916Y-7.9033
X7.2916Y-8.0033
X7.2916Y-9.3033
X7.2916Y-9.4033
X7.2916Y-9.5033
X7.2916Y-9.6033
X7.2916Y-9.7033
X7.2916Y-9.8033
X7.2916Y-9.9033
X7.3416Y-8.3533
X7.3416Y-8.4533
X7.3416Y-8.5533
X7.3416Y-8.6533
X7.3416Y-8.7533
X7.3416Y-8.8533
X7.3416Y-8.9533
X7.3916Y-7.4033
X7.3916Y-7.5033
X7.3916Y-7.6033
X7.3916Y-7.7033
X7.3916Y-7.8033
X7.3916Y-7.9033
X7.3916Y-8.0033
X7.3916Y-9.3033
X7.3916Y-9.4033
X7.3916Y-9.5033
X7.3916Y-9.6033
X7.3916Y-9.7033
X7.3916Y-9.8033
X7.3916Y-9.9033
X7.4416Y-8.3533
X7.4416Y-8.4533
X7.4416Y-8.5533
X7.4416Y-8.6533
X7.4416Y-8.7533
X7.4416Y-8.8533
X7.4416Y-8.9533
X7.4916Y-7.4033
X7.4916Y-7.5033
X7.4916Y-7.6033
X7.4916Y-7.7033
X7.4916Y-7.8033
X7.4916Y-7.9033
X7.4916Y-8.0033
X7.4916Y-9.3033
X7.4916Y-9.4033
X7.4916Y-9.5033
X7.4916Y-9.6033
X7.4916Y-9.7033
X7.4916Y-9.8033
X7.4916Y-9.9033
X7.5416Y-8.3533
X7.5416Y-8.4533
X7.5416Y-8.5533
X7.5416Y-8.6533
X7.5416Y-8.7533
X7.5416Y-8.8533
X7.5416Y-8.9533
X7.5916Y-7.4033
X7.5916Y-7.5033
X7.5916Y-7.6033
X7.5916Y-7.7033
X7.5916Y-7.8033
X7.5916Y-7.9033
X7.5916Y-8.0033
X7.5916Y-9.3033
X7.5916Y-9.4033
X7.5916Y-9.5033
X7.5916Y-9.6033
X7.5916Y-9.7033
X7.5916Y-9.8033
X7.5916Y-9.9033
X7.6416Y-8.3533
X7.6416Y-8.4533
X7.6416Y-8.5533
X7.6416Y-8.6533
X7.6416Y-8.7533
X7.6416Y-8.8533
X7.6416Y-8.9533
X7.6916Y-7.4033
X7.6916Y-7.5033
X7.6916Y-7.6033
X7.6916Y-7.7033
X7.6916Y-7.8033
X7.6916Y-7.9033
X7.6916Y-8.0033
X7.6916Y-9.3033
X7.6916Y-9.4033
X7.6916Y-9.5033
X7.6916Y-9.6033
X7.6916Y-9.7033
X7.6916Y-9.8033
X7.6916Y-9.9033
X7.7416Y-8.3533
X7.7416Y-8.4533
X7.7416Y-8.5533
X7.7416Y-8.6533
X7.7416Y-8.7533
X7.7416Y-8.8533
X7.7416Y-8.9533
X7.7916Y-7.4033
X7.7916Y-7.5033
X7.7916Y-7.6033
X7.7916Y-7.7033
X7.7916Y-7.8033
X7.7916Y-7.9033
X7.7916Y-8.0033
X7.7916Y-9.3033
X7.7916Y-9.4033
X7.7916Y-9.5033
X7.7916Y-9.6033
X7.7916Y-9.7033
X7.7916Y-9.8033
X7.7916Y-9.9033
X7.8416Y-8.3533
X7.8416Y-8.4533
X7.8416Y-8.5533
X7.8416Y-8.6533
X7.8416Y-8.7533
X7.8416Y-8.8533
X7.8416Y-8.9533
X7.8916Y-7.4033
X7.8916Y-7.5033
X7.8916Y-7.6033
X7.8916Y-7.7033
X7.8916Y-7.8033
X7.8916Y-7.9033
X7.8916Y-8.0033
X7.8916Y-9.3033
X7.8916Y-9.4033
X7.8916Y-9.5033
X7.8916Y-9.6033
X7.8916Y-9.7033
X7.8916Y-9.8033
X7.8916Y-9.9033
X7.9416Y-8.3533
X7.9416Y-8.4533
X7.9416Y-8.5533
X7.9416Y-8.6533
X7.9416Y-8.7533
X7.9416Y-8.8533
X7.9416Y-8.9533
X8.0416Y-8.3533
X8.0416Y-8.4533
X8.0416Y-8.5533
X8.0416Y-8.6533
X8.0416Y-8.7533
X8.0416Y-8.8533
X8.0416Y-8.9533
X8.1416Y-7.4033
X8.1416Y-7.5033
X8.1416Y-7.6033
X8.1416Y-7.7033
X8.1416Y-7.8033
X8.1416Y-7.9033
X8.1416Y-8.0033
X8.1416Y-8.3533
X8.1416Y-8.4533
X8.1416Y-8.5533
X8.1416Y-8.6533
X8.1416Y-8.7533
X8.1416Y-8.8533
X8.1416Y-8.9533
X8.1416Y-9.3033
X8.1416Y-9.4033
X8.1416Y-9.5033
X8.1416Y-9.6033
X8.1416Y-9.7033
X8.1416Y-9.8033
X8.1416Y-9.9033
X8.2416Y-7.4033
X8.2416Y-7.5033
X8.2416Y-7.6033
X8.2416Y-7.7033
X8.2416Y-7.8033
X8.2416Y-7.9033
X8.2416Y-8.0033
X8.2416Y-8.3533
X8.2416Y-8.4533
X8.2416Y-8.5533
X8.2416Y-8.6533
X8.2416Y-8.7533
X8.2416Y-8.8533
X8.2416Y-8.9533
X8.2416Y-9.3033
X8.2416Y-9.4033
X8.2416Y-9.5033
X8.2416Y-9.6033
X8.2416Y-9.7033
X8.2416Y-9.8033
X8.2416Y-9.9033
X8.3416Y-7.4033
X8.3416Y-7.5033
X8.3416Y-7.6033
X8.3416Y-7.7033
X8.3416Y-7.8033
X8.3416Y-7.9033
X8.3416Y-8.0033
X8.3416Y-8.3533
X8.3416Y-8.4533
X8.3416Y-8.5533
X8.3416Y-8.6533
X8.3416Y-8.7533
X8.3416Y-8.8533
X8.3416Y-8.9533
X8.3416Y-9.3033
X8.3416Y-9.4033
X8.3416Y-9.5033
X8.3416Y-9.6033
X8.3416Y-9.7033
X8.3416Y-9.8033
X8.3416Y-9.9033
X8.4416Y-7.4033
X8.4416Y-7.5033
X8.4416Y-7.6033
X8.4416Y-7.7033
X8.4416Y-7.8033
X8.4416Y-7.9033
X8.4416Y-8.0033
X8.4416Y-8.3533
X8.4416Y-8.4533
X8.4416Y-8.5533
X8.4416Y-8.6533
X8.4416Y-8.7533
X8.4416Y-8.8533
X8.4416Y-8.9533
X8.4416Y-9.3033
X8.4416Y-9.4033
X8.4416Y-9.5033
X8.4416Y-9.6033
X8.4416Y-9.7033
X8.4416Y-9.8033
X8.4416Y-9.9033
X8.5416Y-7.4033
X8.5416Y-7.5033
X8.5416Y-7.6033
X8.5416Y-7.7033
X8.5416Y-7.8033
X8.5416Y-7.9033
X8.5416Y-8.0033
X8.5416Y-8.3533
X8.5416Y-8.4533
X8.5416Y-8.5533
X8.5416Y-8.6533
X8.5416Y-8.7533
X8.5416Y-8.8533
X8.5416Y-8.9533
X8.5416Y-9.3033
X8.5416Y-9.4033
X8.5416Y-9.5033
X8.5416Y-9.6033
X8.5416Y-9.7033
X8.5416Y-9.8033
X8.5416Y-9.9033
X8.6416Y-7.4033
X8.6416Y-7.5033
X8.6416Y-7.6033
X8.6416Y-7.7033
X8.6416Y-7.8033
X8.6416Y-7.9033
X8.6416Y-8.0033
X8.6416Y-8.3533
X8.6416Y-8.4533
X8.6416Y-8.5533
X8.6416Y-8.6533
X8.6416Y-8.7533
X8.6416Y-8.8533
X8.6416Y-8.9533
X8.6416Y-9.3033
X8.6416Y-9.4033
X8.6416Y-9.5033
X8.6416Y-9.6033
X8.6416Y-9.7033
X8.6416Y-9.8033
X8.6416Y-9.9033
X8.7416Y-7.4033
X8.7416Y-7.5033
X8.7416Y-7.6033
X8.7416Y-7.7033
X8.7416Y-7.8033
X8.7416Y-7.9033
X8.7416Y-8.0033
X8.7416Y-8.3533
X8.7416Y-8.4533
X8.7416Y-8.5533
X8.7416Y-8.6533
X8.7416Y-8.7533
X8.7416Y-8.8533
X8.7416Y-8.9533
X8.7416Y-9.3033
X8.7416Y-9.4033
X8.7416Y-9.5033
X8.7416Y-9.6033
X8.7416Y-9.7033
X8.7416Y-9.8033
X8.7416Y-9.9033
X8.8416Y-7.4033
X8.8416Y-7.5033
X8.8416Y-7.6033
X8.8416Y-7.7033
X8.8416Y-7.8033
X8.8416Y-7.9033
X8.8416Y-8.0033
X8.8416Y-8.3533
X8.8416Y-8.4533
X8.8416Y-8.5533
X8.8416Y-8.6533
X8.8416Y-8.7533
X8.8416Y-8.8533
X8.8416Y-8.9533
X8.8416Y-9.3033
X8.8416Y-9.4033
X8.8416Y-9.5033
X8.8416Y-9.6033
X8.8416Y-9.7033
X8.8416Y-9.8033
X8.8416Y-9.9033
X8.9416Y-8.3533
X8.9416Y-8.4533
X8.9416Y-8.5533
X8.9416Y-8.6533
X8.9416Y-8.7533
X8.9416Y-8.8533
X8.9416Y-8.9533
X9.0416Y-8.3533
X9.0416Y-8.4533
X9.0416Y-8.5533
X9.0416Y-8.6533
X9.0416Y-8.7533
X9.0416Y-8.8533
X9.0416Y-8.9533
X9.0916Y-7.4033
X9.0916Y-7.5033
X9.0916Y-7.6033
X9.0916Y-7.7033
X9.0916Y-7.8033
X9.0916Y-7.9033
X9.0916Y-8.0033
X9.0916Y-9.3033
X9.0916Y-9.4033
X9.0916Y-9.5033
X9.0916Y-9.6033
X9.0916Y-9.7033
X9.0916Y-9.8033
X9.0916Y-9.9033
X9.1416Y-8.3533
X9.1416Y-8.4533
X9.1416Y-8.5533
X9.1416Y-8.6533
X9.1416Y-8.7533
X9.1416Y-8.8533
X9.1416Y-8.9533
X9.1916Y-7.4033
X9.1916Y-7.5033
X9.1916Y-7.6033
X9.1916Y-7.7033
X9.1916Y-7.8033
X9.1916Y-7.9033
X9.1916Y-8.0033
X9.1916Y-9.3033
X9.1916Y-9.4033
X9.1916Y-9.5033
X9.1916Y-9.6033
X9.1916Y-9.7033
X9.1916Y-9.8033
X9.1916Y-9.9033
X9.2416Y-8.3533
X9.2416Y-8.4533
X9.2416Y-8.5533
X9.2416Y-8.6533
X9.2416Y-8.7533
X9.2416Y-8.8533
X9.2416Y-8.9533
X9.2916Y-7.4033
X9.2916Y-7.5033
X9.2916Y-7.6033
X9.2916Y-7.7033
X9.2916Y-7.8033
X9.2916Y-7.9033
X9.2916Y-8.0033
X9.2916Y-9.3033
X9.2916Y-9.4033
X9.2916Y-9.5033
X9.2916Y-9.6033
X9.2916Y-9.7033
X9.2916Y-9.8033
X9.2916Y-9.9033
X9.3416Y-8.3533
X9.3416Y-8.4533
X9.3416Y-8.5533
X9.3416Y-8.6533
X9.3416Y-8.7533
X9.3416Y-8.8533
X9.3416Y-8.9533
X9.3916Y-7.4033
X9.3916Y-7.5033
X9.3916Y-7.6033
X9.3916Y-7.7033
X9.3916Y-7.8033
X9.3916Y-7.9033
X9.3916Y-8.0033
X9.3916Y-9.3033
X9.3916Y-9.4033
X9.3916Y-9.5033
X9.3916Y-9.6033
X9.3916Y-9.7033
X9.3916Y-9.8033
X9.3916Y-9.9033
X9.4416Y-8.3533
X9.4416Y-8.4533
X9.4416Y-8.5533
X9.4416Y-8.6533
X9.4416Y-8.7533
X9.4416Y-8.8533
X9.4416Y-8.9533
X9.4916Y-7.4033
X9.4916Y-7.5033
X9.4916Y-7.6033
X9.4916Y-7.7033
X9.4916Y-7.8033
X9.4916Y-7.9033
X9.4916Y-8.0033
X9.4916Y-9.3033
X9.4916Y-9.4033
X9.4916Y-9.5033
X9.4916Y-9.6033
X9.4916Y-9.7033
X9.4916Y-9.8033
X9.4916Y-9.9033
X9.5416Y-8.3533
X9.5416Y-8.4533
X9.5416Y-8.5533
X9.5416Y-8.6533
X9.5416Y-8.7533
X9.5416Y-8.8533
X9.5416Y-8.9533
X9.5916Y-7.4033
X9.5916Y-7.5033
X9.5916Y-7.6033
X9.5916Y-7.7033
X9.5916Y-7.8033
X9.5916Y-7.9033
X9.5916Y-8.0033
X9.5916Y-9.3033
X9.5916Y-9.4033
X9.5916Y-9.5033
X9.5916Y-9.6033
X9.5916Y-9.7033
X9.5916Y-9.8033
X9.5916Y-9.9033
X9.6416Y-8.3533
X9.6416Y-8.4533
X9.6416Y-8.5533
X9.6416Y-8.6533
X9.6416Y-8.7533
X9.6416Y-8.8533
X9.6416Y-8.9533
X9.6916Y-7.4033
X9.6916Y-7.5033
X9.6916Y-7.6033
X9.6916Y-7.7033
X9.6916Y-7.8033
X9.6916Y-7.9033
X9.6916Y-8.0033
X9.6916Y-9.3033
X9.6916Y-9.4033
X9.6916Y-9.5033
X9.6916Y-9.6033
X9.6916Y-9.7033
X9.6916Y-9.8033
X9.6916Y-9.9033
X9.7416Y-8.3533
X9.7416Y-8.4533
X9.7416Y-8.5533
X9.7416Y-8.6533
X9.7416Y-8.7533
X9.7416Y-8.8533
X9.7416Y-8.9533
X9.7916Y-7.4033
X9.7916Y-7.5033
X9.7916Y-7.6033
X9.7916Y-7.7033
X9.7916Y-7.8033
X9.7916Y-7.9033
X9.7916Y-8.0033
X9.7916Y-9.3033
X9.7916Y-9.4033
X9.7916Y-9.5033
X9.7916Y-9.6033
X9.7916Y-9.7033
X9.7916Y-9.8033
X9.7916Y-9.9033
X9.8416Y-8.3533
X9.8416Y-8.4533
X9.8416Y-8.5533
X9.8416Y-8.6533
X9.8416Y-8.7533
X9.8416Y-8.8533
X9.8416Y-8.9533
X9.9416Y-8.3533
X9.9416Y-8.4533
X9.9416Y-8.5533
X9.9416Y-8.6533
X9.9416Y-8.7533
X9.9416Y-8.8533
X9.9416Y-8.9533
X10.0416Y-7.4033
X10.0416Y-7.5033
X10.0416Y-7.6033
X10.0416Y-7.7033
X10.0416Y-7.8033
X10.0416Y-7.9033
X10.0416Y-8.0033
X10.0416Y-8.3533
X10.0416Y-8.4533
X10.0416Y-8.5533
X10.0416Y-8.6533
X10.0416Y-8.7533
X10.0416Y-8.8533
X10.0416Y-8.9533
X10.0416Y-9.3033
X10.0416Y-9.4033
X10.0416Y-9.5033
X10.0416Y-9.6033
X10.0416Y-9.7033
X10.0416Y-9.8033
X10.0416Y-9.9033
X10.1416Y-7.4033
X10.1416Y-7.5033
X10.1416Y-7.6033
X10.1416Y-7.7033
X10.1416Y-7.8033
X10.1416Y-7.9033
X10.1416Y-8.0033
X10.1416Y-8.3533
X10.1416Y-8.4533
X10.1416Y-8.5533
X10.1416Y-8.6533
X10.1416Y-8.7533
X10.1416Y-8.8533
X10.1416Y-8.9533
X10.1416Y-9.3033
X10.1416Y-9.4033
X10.1416Y-9.5033
X10.1416Y-9.6033
X10.1416Y-9.7033
X10.1416Y-9.8033
X10.1416Y-9.9033
X10.2416Y-7.4033
X10.2416Y-7.5033
X10.2416Y-7.6033
X10.2416Y-7.7033
X10.2416Y-7.8033
X10.2416Y-7.9033
X10.2416Y-8.0033
X10.2416Y-8.3533
X10.2416Y-8.4533
X10.2416Y-8.5533
X10.2416Y-8.6533
X10.2416Y-8.7533
X10.2416Y-8.8533
X10.2416Y-8.9533
X10.2416Y-9.3033
X10.2416Y-9.4033
X10.2416Y-9.5033
X10.2416Y-9.6033
X10.2416Y-9.7033
X10.2416Y-9.8033
X10.2416Y-9.9033
X10.3416Y-7.4033
X10.3416Y-7.5033
X10.3416Y-7.6033
X10.3416Y-7.7033
X10.3416Y-7.8033
X10.3416Y-7.9033
X10.3416Y-8.0033
X10.3416Y-8.3533
X10.3416Y-8.4533
X10.3416Y-8.5533
X10.3416Y-8.6533
X10.3416Y-8.7533
X10.3416Y-8.8533
X10.3416Y-8.9533
X10.3416Y-9.3033
X10.3416Y-9.4033
X10.3416Y-9.5033
X10.3416Y-9.6033
X10.3416Y-9.7033
X10.3416Y-9.8033
X10.3416Y-9.9033
X10.4416Y-7.4033
X10.4416Y-7.5033
X10.4416Y-7.6033
X10.4416Y-7.7033
X10.4416Y-7.8033
X10.4416Y-7.9033
X10.4416Y-8.0033
X10.4416Y-8.3533
X10.4416Y-8.4533
X10.4416Y-8.5533
X10.4416Y-8.6533
X10.4416Y-8.7533
X10.4416Y-8.8533
X10.4416Y-8.9533
X10.4416Y-9.3033
X10.4416Y-9.4033
X10.4416Y-9.5033
X10.4416Y-9.6033
X10.4416Y-9.7033
X10.4416Y-9.8033
X10.4416Y-9.9033
X10.5416Y-7.4033
X10.5416Y-7.5033
X10.5416Y-7.6033
X10.5416Y-7.7033
X10.5416Y-7.8033
X10.5416Y-7.9033
X10.5416Y-8.0033
X10.5416Y-8.3533
X10.5416Y-8.4533
X10.5416Y-8.5533
X10.5416Y-8.6533
X10.5416Y-8.7533
X10.5416Y-8.8533
X10.5416Y-8.9533
X10.5416Y-9.3033
X10.5416Y-9.4033
X10.5416Y-9.5033
X10.5416Y-9.6033
X10.5416Y-9.7033
X10.5416Y-9.8033
X10.5416Y-9.9033
X10.6416Y-7.4033
X10.6416Y-7.5033
X10.6416Y-7.6033
X10.6416Y-7.7033
X10.6416Y-7.8033
X10.6416Y-7.9033
X10.6416Y-8.0033
X10.6416Y-8.3533
X10.6416Y-8.4533
X10.6416Y-8.5533
X10.6416Y-8.6533
X10.6416Y-8.7533
X10.6416Y-8.8533
X10.6416Y-8.9533
X10.6416Y-9.3033
X10.6416Y-9.4033
X10.6416Y-9.5033
X10.6416Y-9.6033
X10.6416Y-9.7033
X10.6416Y-9.8033
X10.6416Y-9.9033
X10.7416Y-7.4033
X10.7416Y-7.5033
X10.7416Y-7.6033
X10.7416Y-7.7033
X10.7416Y-7.8033
X10.7416Y-7.9033
X10.7416Y-8.0033
X10.7416Y-8.3533
X10.7416Y-8.4533
X10.7416Y-8.5533
X10.7416Y-8.6533
X10.7416Y-8.7533
X10.7416Y-8.8533
X10.7416Y-8.9533
X10.7416Y-9.3033
X10.7416Y-9.4033
X10.7416Y-9.5033
X10.7416Y-9.6033
X10.7416Y-9.7033
X10.7416Y-9.8033
X10.7416Y-9.9033
X10.8416Y-8.3533
X10.8416Y-8.4533
X10.8416Y-8.5533
X10.8416Y-8.6533
X10.8416Y-8.7533
X10.8416Y-8.8533
X10.8416Y-8.9533
T6
X0.8539Y-14.5948
X0.8539Y-14.8704
X0.8539Y-15.3504
X0.8539Y-15.6259
X0.8539Y-16.1059
X0.8539Y-16.3815
T7
X2.2301Y-7.6883
X3.0175Y-7.6883
T8
X0.79Y-0.93
X0.79Y-8.63
X0.79Y-14.41
X1.04Y-16.35
X8.4356Y-0.93
X8.57Y-16.35
X16.21Y-0.93
X16.21Y-8.62
X16.21Y-16.35
T9
X3.8515Y-12.1283
T0
M30
