<?xml version="1.0" standalone="no"?>
 <!DOCTYPE svg PUBLIC "-//W3C//DTD SVG 1.1//EN" 
 "http://www.w3.org/Graphics/SVG/1.1/DTD/svg11.dtd"> 
<svg xmlns="http://www.w3.org/2000/svg" version="1.1" 
    width="45.0012cm" height="45.0012cm" viewBox="0 0 177170 177170 ">
<title>SVG Picture created as LargeKickstarter-F_SilkS.svg date 2015/11/07 15:02:54 </title>
  <desc>Picture generated by PCBNEW </desc>
<g style="fill:#000000; fill-opacity:1;stroke:#000000; stroke-opacity:1;
stroke-linecap:round; stroke-linejoin:round; "
 transform="translate(0 0) scale(1 1)">
</g>
<g style="fill:#000000; fill-opacity:0.0; 
stroke:#000000; stroke-width:-0.000393701; stroke-opacity:1; 
stroke-linecap:round; stroke-linejoin:round;">
</g>
<g style="fill:#000000; fill-opacity:0.0; 
stroke:#000000; stroke-width:59.0551; stroke-opacity:1; 
stroke-linecap:round; stroke-linejoin:round;">
<path d="M36415 97082
L36415 77082
" />
<path d="M36415 77082
L36915 77082
" />
<path d="M57915 97082
L36415 97082
" />
<path d="M57915 97082
L57915 96582
" />
<path d="M57915 96582
L58915 95582
" />
<path d="M58915 95582
L58915 83582
" />
<path d="M58915 83582
L57915 82582
" />
<path d="M57915 82582
L57915 77582
" />
<path d="M57915 77582
L57915 77082
" />
<path d="M57915 77082
L36915 77082
" />
<path d="M38033 140632
L38250 140455
" />
<path d="M38250 140455
L38250 140809
" />
<path d="M38250 140809
L38033 140632
" />
<path d="M38033 140416
L38033 140849
" />
<path d="M37423 141321
L37423 141183
" />
<path d="M37423 139943
L37423 140081
" />
<path d="M39017 141321
L39017 141183
" />
<path d="M37245 141321
L37245 141183
" />
<path d="M37245 139943
L37245 140081
" />
<path d="M39017 139943
L39017 140081
" />
<path d="M37245 141321
L39017 141321
" />
<path d="M37245 139943
L39017 139943
" />
<path d="M35665 82382
L17665 82382
" />
<path d="M17665 82382
L17665 90382
" />
<path d="M17665 90382
L35665 90382
" />
<path d="M35665 90382
L35665 82382
" />
</g>
<g style="fill:#000000; fill-opacity:0.0; 
stroke:#000000; stroke-width:80; stroke-opacity:1; 
stroke-linecap:round; stroke-linejoin:round;">
<path d="M7948 145889
L6767 145889
" />
<path d="M6767 145889
L6767 148763
" />
<path d="M6767 148763
L7948 148763
" />
<path d="M8342 148113
L8342 146538
" />
<path d="M7948 153444
L6767 153444
" />
<path d="M6767 153444
L6767 156318
" />
<path d="M6767 156318
L7948 156318
" />
<path d="M8342 155668
L8342 154094
" />
<path d="M7948 160999
L6767 160999
" />
<path d="M6767 160999
L6767 163873
" />
<path d="M6767 163873
L7948 163873
" />
<path d="M8342 163224
L8342 161649
" />
<path d="M22895 78378
L21721 78378
" />
<path d="M21721 78378
L21721 75386
" />
<path d="M21721 75386
L22895 75386
" />
<path d="M31115 78378
L31115 75386
" />
<path d="M22895.1 78378.7 A4376.02 4376.02 0.0 0 0 31115.6 78378.7 " />
<path d="M31115.6 75386.5 A4376.02 4376.02 0.0 0 0 22895.1 75386.5 " />
</g>
<g style="fill:#000000; fill-opacity:0.0; 
stroke:#000000; stroke-width:59.0551; stroke-opacity:1; 
stroke-linecap:round; stroke-linejoin:round;">
<path d="M39320 130790
L39320 131290
" />
<path d="M39070 131040
L39520 131040
" />
<circle cx="40020.8" cy="131790" r="1500" /> 
<path d="M38514 125362
L38514 126228
" />
<path d="M37648 125362
L37333 125362
" />
<path d="M37333 125362
L37333 126228
" />
<path d="M39420 125362
L39695 125362
" />
<path d="M39695 125362
L39695 126228
" />
<path d="M38002 125362
L39065 125362
" />
<path d="M38002 125323
L37648 125047
" />
<path d="M37648 125047
L37648 125638
" />
<path d="M37648 125638
L38002 125362
" />
<path d="M39026 125323
L39380 125047
" />
<path d="M39380 125047
L39380 125638
" />
<path d="M39380 125638
L39026 125323
" />
<path d="M38002 125047
L38002 125638
" />
<path d="M39026 125047
L39026 125638
" />
<path d="M37514 126432
L37514 126982
" />
<path d="M38514 126432
L38514 126982
" />
<path d="M39514 126432
L39514 126982
" />
<circle cx="38515" cy="121283" r="989.95" /> 
<path d="M40614 123082
L40614 119932
" />
<path d="M40614 119932
L36414 119932
" />
<path d="M36414 119932
L36414 123082
" />
<path d="M40614 126432
L40614 123082
" />
<path d="M40614 123082
L36414 123082
" />
<path d="M36414 123082
L36414 126432
" />
<path d="M38514 126432
L36414 126432
" />
<path d="M38514 126432
L40614 126432
" />
<path d="M36015 130790
L36015 131290
" />
<path d="M35765 131040
L36215 131040
" />
<circle cx="36715.7" cy="131790" r="1500" /> 
</g>
<g style="fill:#000000; fill-opacity:0.0; 
stroke:#000000; stroke-width:60; stroke-opacity:1; 
stroke-linecap:round; stroke-linejoin:round;">
<path d="M11214 85482
L13165 83531
" />
<path d="M13165 83531
L15117 85482
" />
<path d="M15117 85482
L13264 87335
" />
<path d="M13067 87335
L11214 85482
" />
<path d="M13067 87335
L13264 87335
" />
<circle cx="13166" cy="87009.9" r="141.417" /> 
</g>
<g style="fill:#000000; fill-opacity:0.0; 
stroke:#000000; stroke-width:59.0551; stroke-opacity:1; 
stroke-linecap:round; stroke-linejoin:round;">
<path d="M26565 49582
L26565 57582
" />
<path d="M26565 57582
L12565 57582
" />
<path d="M12565 57582
L12565 49582
" />
<path d="M12565 49582
L26565 49582
" />
<path d="M26465 30382
L26465 38382
" />
<path d="M26465 38382
L12465 38382
" />
<path d="M12465 38382
L12465 30382
" />
<path d="M12465 30382
L26465 30382
" />
<path d="M26465 105982
L26465 113982
" />
<path d="M26465 113982
L12465 113982
" />
<path d="M12465 113982
L12465 105982
" />
<path d="M12465 105982
L26465 105982
" />
<path d="M26565 125182
L26565 133182
" />
<path d="M26565 133182
L12565 133182
" />
<path d="M12565 133182
L12565 125182
" />
<path d="M12565 125182
L26565 125182
" />
<path d="M39115 138832
L39515 138832
" />
<path d="M37215 138832
L36715 138832
" />
<path d="M37315 138332
L37315 139332
" />
<path d="M37415 138332
L37415 139332
" />
<path d="M37515 138332
L37515 139332
" />
<path d="M37215 138332
L37215 139332
" />
<path d="M37615 138332
L37115 139332
" />
<path d="M37115 138332
L37615 139332
" />
<path d="M37615 138332
L37615 139332
" />
<path d="M37365 138332
L37365 139332
" />
<path d="M37115 139332
L37115 138332
" />
<path d="M37115 138332
L39115 138332
" />
<path d="M39115 138332
L39115 139332
" />
<path d="M39115 139332
L37115 139332
" />
<path d="M38465 142532
L39465 142532
" />
<path d="M37355 142422
L37965 142422
" />
<path d="M38465 142532
L38465 143532
" />
<path d="M37965 143642
L37355 143642
" />
<path d="M37355 143642
L37355 142422
" />
<path d="M38465 143532
L39465 143532
" />
<path d="M39465 143532
L39465 142532
" />
<path d="M8915 150432
L10915 150432
" />
<path d="M10915 150432
L10915 151432
" />
<path d="M10915 151432
L8915 151432
" />
<path d="M8915 151432
L8915 150432
" />
<path d="M8915 150932
L8415 150932
" />
<path d="M10915 150932
L11415 150932
" />
<path d="M8915 158032
L10915 158032
" />
<path d="M10915 158032
L10915 159032
" />
<path d="M10915 159032
L8915 159032
" />
<path d="M8915 159032
L8915 158032
" />
<path d="M8915 158532
L8415 158532
" />
<path d="M10915 158532
L11415 158532
" />
<path d="M8915 159532
L10915 159532
" />
<path d="M10915 159532
L10915 160532
" />
<path d="M10915 160532
L8915 160532
" />
<path d="M8915 160532
L8915 159532
" />
<path d="M8915 160032
L8415 160032
" />
<path d="M10915 160032
L11415 160032
" />
</g>
<g style="fill:#000000; fill-opacity:0.0; 
stroke:#000000; stroke-width:39.3701; stroke-opacity:1; 
stroke-linecap:round; stroke-linejoin:round;">
<circle cx="101416" cy="90532.6" r="380.315" /> 
<circle cx="105416" cy="90532.6" r="380.315" /> 
<circle cx="104416" cy="90532.6" r="380.315" /> 
<circle cx="103416" cy="90532.6" r="380.315" /> 
<circle cx="106416" cy="90532.6" r="380.315" /> 
<circle cx="102416" cy="90532.6" r="380.315" /> 
<circle cx="92416" cy="90532.6" r="380.315" /> 
<circle cx="96416" cy="90532.6" r="380.315" /> 
<circle cx="95416" cy="90532.6" r="380.315" /> 
<circle cx="93416" cy="90532.6" r="380.315" /> 
<circle cx="94416" cy="90532.6" r="380.315" /> 
<circle cx="86416" cy="96532.6" r="380.315" /> 
<circle cx="87416" cy="98532.6" r="380.315" /> 
<circle cx="86416" cy="98532.6" r="380.315" /> 
<circle cx="87416" cy="96532.6" r="380.315" /> 
<circle cx="87416" cy="97532.6" r="380.315" /> 
<circle cx="86416" cy="97532.6" r="380.315" /> 
<circle cx="84416" cy="99532.6" r="380.315" /> 
<circle cx="85416" cy="98532.6" r="380.315" /> 
<circle cx="84416" cy="98532.6" r="380.315" /> 
<circle cx="85416" cy="97532.6" r="380.315" /> 
<circle cx="84416" cy="97532.6" r="380.315" /> 
<circle cx="84416" cy="96532.6" r="380.315" /> 
<circle cx="85416" cy="96532.6" r="380.315" /> 
<circle cx="79416" cy="98532.6" r="380.315" /> 
<circle cx="78416" cy="98532.6" r="380.315" /> 
<circle cx="83416" cy="98532.6" r="380.315" /> 
<circle cx="83416" cy="99532.6" r="380.315" /> 
<circle cx="82416" cy="99532.6" r="380.315" /> 
<circle cx="82416" cy="98532.6" r="380.315" /> 
<circle cx="79416" cy="96532.6" r="380.315" /> 
<circle cx="77416" cy="98532.6" r="380.315" /> 
<circle cx="78416" cy="97532.6" r="380.315" /> 
<circle cx="79416" cy="97532.6" r="380.315" /> 
<circle cx="77416" cy="97532.6" r="380.315" /> 
<circle cx="81416" cy="98532.6" r="380.315" /> 
<circle cx="81416" cy="97532.6" r="380.315" /> 
<circle cx="81416" cy="96532.6" r="380.315" /> 
<circle cx="82416" cy="97532.6" r="380.315" /> 
<circle cx="83416" cy="96532.6" r="380.315" /> 
<circle cx="82416" cy="96532.6" r="380.315" /> 
<circle cx="83416" cy="97532.6" r="380.315" /> 
<circle cx="87416" cy="99532.6" r="380.315" /> 
<circle cx="85416" cy="99532.6" r="380.315" /> 
<circle cx="86416" cy="99532.6" r="380.315" /> 
<circle cx="73416" cy="98532.6" r="380.315" /> 
<circle cx="73416" cy="99532.6" r="380.315" /> 
<circle cx="71416" cy="98532.6" r="380.315" /> 
<circle cx="72416" cy="98532.6" r="380.315" /> 
<circle cx="74416" cy="99532.6" r="380.315" /> 
<circle cx="72416" cy="97532.6" r="380.315" /> 
<circle cx="71416" cy="97532.6" r="380.315" /> 
<circle cx="71416" cy="96532.6" r="380.315" /> 
<circle cx="72416" cy="96532.6" r="380.315" /> 
<circle cx="71416" cy="93532.6" r="380.315" /> 
<circle cx="72416" cy="93532.6" r="380.315" /> 
<circle cx="71416" cy="94532.6" r="380.315" /> 
<circle cx="71416" cy="95532.6" r="380.315" /> 
<circle cx="72416" cy="94532.6" r="380.315" /> 
<circle cx="72416" cy="95532.6" r="380.315" /> 
<circle cx="74416" cy="93532.6" r="380.315" /> 
<circle cx="73416" cy="93532.6" r="380.315" /> 
<circle cx="73416" cy="95532.6" r="380.315" /> 
<circle cx="74416" cy="95532.6" r="380.315" /> 
<circle cx="73416" cy="94532.6" r="380.315" /> 
<circle cx="74416" cy="94532.6" r="380.315" /> 
<circle cx="85416" cy="95532.6" r="380.315" /> 
<circle cx="84416" cy="95532.6" r="380.315" /> 
<circle cx="84416" cy="94532.6" r="380.315" /> 
<circle cx="85416" cy="94532.6" r="380.315" /> 
<circle cx="83416" cy="94532.6" r="380.315" /> 
<circle cx="82416" cy="95532.6" r="380.315" /> 
<circle cx="82416" cy="94532.6" r="380.315" /> 
<circle cx="83416" cy="95532.6" r="380.315" /> 
<circle cx="79416" cy="93532.6" r="380.315" /> 
<circle cx="79416" cy="95532.6" r="380.315" /> 
<circle cx="79416" cy="94532.6" r="380.315" /> 
<circle cx="84416" cy="92532.6" r="380.315" /> 
<circle cx="85416" cy="93532.6" r="380.315" /> 
<circle cx="83416" cy="93532.6" r="380.315" /> 
<circle cx="85416" cy="92532.6" r="380.315" /> 
<circle cx="83416" cy="92532.6" r="380.315" /> 
<circle cx="84416" cy="93532.6" r="380.315" /> 
<circle cx="82416" cy="92532.6" r="380.315" /> 
<circle cx="81416" cy="93532.6" r="380.315" /> 
<circle cx="81416" cy="94532.6" r="380.315" /> 
<circle cx="81416" cy="95532.6" r="380.315" /> 
<circle cx="82416" cy="93532.6" r="380.315" /> 
<circle cx="69416" cy="93532.6" r="380.315" /> 
<circle cx="68416" cy="92532.6" r="380.315" /> 
<circle cx="67416" cy="93532.6" r="380.315" /> 
<circle cx="68416" cy="94532.6" r="380.315" /> 
<circle cx="67416" cy="92532.6" r="380.315" /> 
<circle cx="68416" cy="93532.6" r="380.315" /> 
<circle cx="68416" cy="95532.6" r="380.315" /> 
<circle cx="67416" cy="94532.6" r="380.315" /> 
<circle cx="67416" cy="95532.6" r="380.315" /> 
<circle cx="69416" cy="94532.6" r="380.315" /> 
<circle cx="69416" cy="95532.6" r="380.315" /> 
<circle cx="65416" cy="98532.6" r="380.315" /> 
<circle cx="65416" cy="97532.6" r="380.315" /> 
<circle cx="66416" cy="99532.6" r="380.315" /> 
<circle cx="66416" cy="98532.6" r="380.315" /> 
<circle cx="65416" cy="99532.6" r="380.315" /> 
<circle cx="69416" cy="96532.6" r="380.315" /> 
<circle cx="67416" cy="96532.6" r="380.315" /> 
<circle cx="68416" cy="97532.6" r="380.315" /> 
<circle cx="68416" cy="96532.6" r="380.315" /> 
<circle cx="69416" cy="97532.6" r="380.315" /> 
<circle cx="67416" cy="97532.6" r="380.315" /> 
<circle cx="67416" cy="99532.6" r="380.315" /> 
<circle cx="67416" cy="98532.6" r="380.315" /> 
<circle cx="68416" cy="99532.6" r="380.315" /> 
<circle cx="68416" cy="98532.6" r="380.315" /> 
<circle cx="69416" cy="98532.6" r="380.315" /> 
<circle cx="63416" cy="92532.6" r="380.315" /> 
<circle cx="62416" cy="93532.6" r="380.315" /> 
<circle cx="62416" cy="94532.6" r="380.315" /> 
<circle cx="63416" cy="94532.6" r="380.315" /> 
<circle cx="63416" cy="93532.6" r="380.315" /> 
<circle cx="64416" cy="94532.6" r="380.315" /> 
<circle cx="65416" cy="95532.6" r="380.315" /> 
<circle cx="66416" cy="96532.6" r="380.315" /> 
<circle cx="66416" cy="95532.6" r="380.315" /> 
<circle cx="65416" cy="96532.6" r="380.315" /> 
<circle cx="66416" cy="97532.6" r="380.315" /> 
<circle cx="63416" cy="97532.6" r="380.315" /> 
<circle cx="62416" cy="97532.6" r="380.315" /> 
<circle cx="62416" cy="96532.6" r="380.315" /> 
<circle cx="62416" cy="95532.6" r="380.315" /> 
<circle cx="64416" cy="98532.6" r="380.315" /> 
<circle cx="64416" cy="99532.6" r="380.315" /> 
<circle cx="63416" cy="99532.6" r="380.315" /> 
<circle cx="62416" cy="98532.6" r="380.315" /> 
<circle cx="63416" cy="98532.6" r="380.315" /> 
<circle cx="63416" cy="96532.6" r="380.315" /> 
<circle cx="64416" cy="96532.6" r="380.315" /> 
<circle cx="64416" cy="95532.6" r="380.315" /> 
<circle cx="63416" cy="95532.6" r="380.315" /> 
<circle cx="64416" cy="97532.6" r="380.315" /> 
<circle cx="64416" cy="92532.6" r="380.315" /> 
<circle cx="66416" cy="93532.6" r="380.315" /> 
<circle cx="65416" cy="93532.6" r="380.315" /> 
<circle cx="66416" cy="92532.6" r="380.315" /> 
<circle cx="65416" cy="92532.6" r="380.315" /> 
<circle cx="66416" cy="94532.6" r="380.315" /> 
<circle cx="65416" cy="94532.6" r="380.315" /> 
<circle cx="64416" cy="93532.6" r="380.315" /> 
<circle cx="74416" cy="92532.6" r="380.315" /> 
<circle cx="75416" cy="92532.6" r="380.315" /> 
<circle cx="76416" cy="92532.6" r="380.315" /> 
<circle cx="75416" cy="93532.6" r="380.315" /> 
<circle cx="73416" cy="92532.6" r="380.315" /> 
<circle cx="76416" cy="93532.6" r="380.315" /> 
<circle cx="76416" cy="94532.6" r="380.315" /> 
<circle cx="78416" cy="95532.6" r="380.315" /> 
<circle cx="77416" cy="95532.6" r="380.315" /> 
<circle cx="77416" cy="96532.6" r="380.315" /> 
<circle cx="78416" cy="96532.6" r="380.315" /> 
<circle cx="76416" cy="95532.6" r="380.315" /> 
<circle cx="74416" cy="97532.6" r="380.315" /> 
<circle cx="74416" cy="98532.6" r="380.315" /> 
<circle cx="73416" cy="97532.6" r="380.315" /> 
<circle cx="73416" cy="96532.6" r="380.315" /> 
<circle cx="74416" cy="96532.6" r="380.315" /> 
<circle cx="75416" cy="97532.6" r="380.315" /> 
<circle cx="76416" cy="97532.6" r="380.315" /> 
<circle cx="75416" cy="99532.6" r="380.315" /> 
<circle cx="77416" cy="99532.6" r="380.315" /> 
<circle cx="76416" cy="98532.6" r="380.315" /> 
<circle cx="76416" cy="99532.6" r="380.315" /> 
<circle cx="75416" cy="98532.6" r="380.315" /> 
<circle cx="75416" cy="94532.6" r="380.315" /> 
<circle cx="75416" cy="95532.6" r="380.315" /> 
<circle cx="76416" cy="96532.6" r="380.315" /> 
<circle cx="75416" cy="96532.6" r="380.315" /> 
<circle cx="77416" cy="93532.6" r="380.315" /> 
<circle cx="77416" cy="92532.6" r="380.315" /> 
<circle cx="78416" cy="93532.6" r="380.315" /> 
<circle cx="78416" cy="94532.6" r="380.315" /> 
<circle cx="77416" cy="94532.6" r="380.315" /> 
<circle cx="107416" cy="96532.6" r="380.315" /> 
<circle cx="107416" cy="98532.6" r="380.315" /> 
<circle cx="107416" cy="97532.6" r="380.315" /> 
<circle cx="106416" cy="99532.6" r="380.315" /> 
<circle cx="106416" cy="92532.6" r="380.315" /> 
<circle cx="107416" cy="93532.6" r="380.315" /> 
<circle cx="105416" cy="92532.6" r="380.315" /> 
<circle cx="106416" cy="98532.6" r="380.315" /> 
<circle cx="105416" cy="97532.6" r="380.315" /> 
<circle cx="106416" cy="97532.6" r="380.315" /> 
<circle cx="105416" cy="98532.6" r="380.315" /> 
<circle cx="105416" cy="99532.6" r="380.315" /> 
<circle cx="103416" cy="92532.6" r="380.315" /> 
<circle cx="104416" cy="93532.6" r="380.315" /> 
<circle cx="104416" cy="92532.6" r="380.315" /> 
<circle cx="103416" cy="94532.6" r="380.315" /> 
<circle cx="103416" cy="95532.6" r="380.315" /> 
<circle cx="103416" cy="93532.6" r="380.315" /> 
<circle cx="104416" cy="95532.6" r="380.315" /> 
<circle cx="104416" cy="94532.6" r="380.315" /> 
<circle cx="106416" cy="93532.6" r="380.315" /> 
<circle cx="105416" cy="93532.6" r="380.315" /> 
<circle cx="107416" cy="94532.6" r="380.315" /> 
<circle cx="105416" cy="94532.6" r="380.315" /> 
<circle cx="106416" cy="94532.6" r="380.315" /> 
<circle cx="107416" cy="95532.6" r="380.315" /> 
<circle cx="106416" cy="96532.6" r="380.315" /> 
<circle cx="106416" cy="95532.6" r="380.315" /> 
<circle cx="105416" cy="95532.6" r="380.315" /> 
<circle cx="104416" cy="96532.6" r="380.315" /> 
<circle cx="105416" cy="96532.6" r="380.315" /> 
<circle cx="90416" cy="98532.6" r="380.315" /> 
<circle cx="90416" cy="97532.6" r="380.315" /> 
<circle cx="91416" cy="97532.6" r="380.315" /> 
<circle cx="91416" cy="98532.6" r="380.315" /> 
<circle cx="92416" cy="98532.6" r="380.315" /> 
<circle cx="92416" cy="99532.6" r="380.315" /> 
<circle cx="94416" cy="98532.6" r="380.315" /> 
<circle cx="93416" cy="99532.6" r="380.315" /> 
<circle cx="94416" cy="99532.6" r="380.315" /> 
<circle cx="93416" cy="97532.6" r="380.315" /> 
<circle cx="93416" cy="98532.6" r="380.315" /> 
<circle cx="94416" cy="97532.6" r="380.315" /> 
<circle cx="93416" cy="92532.6" r="380.315" /> 
<circle cx="94416" cy="92532.6" r="380.315" /> 
<circle cx="94416" cy="93532.6" r="380.315" /> 
<circle cx="92416" cy="94532.6" r="380.315" /> 
<circle cx="94416" cy="94532.6" r="380.315" /> 
<circle cx="93416" cy="94532.6" r="380.315" /> 
<circle cx="92416" cy="93532.6" r="380.315" /> 
<circle cx="93416" cy="93532.6" r="380.315" /> 
<circle cx="90416" cy="96532.6" r="380.315" /> 
<circle cx="91416" cy="96532.6" r="380.315" /> 
<circle cx="90416" cy="95532.6" r="380.315" /> 
<circle cx="92416" cy="96532.6" r="380.315" /> 
<circle cx="91416" cy="95532.6" r="380.315" /> 
<circle cx="92416" cy="97532.6" r="380.315" /> 
<circle cx="92416" cy="95532.6" r="380.315" /> 
<circle cx="94416" cy="96532.6" r="380.315" /> 
<circle cx="93416" cy="95532.6" r="380.315" /> 
<circle cx="93416" cy="96532.6" r="380.315" /> 
<circle cx="94416" cy="95532.6" r="380.315" /> 
<circle cx="92416" cy="92532.6" r="380.315" /> 
<circle cx="91416" cy="94532.6" r="380.315" /> 
<circle cx="91416" cy="93532.6" r="380.315" /> 
<circle cx="90416" cy="94532.6" r="380.315" /> 
<circle cx="90416" cy="93532.6" r="380.315" /> 
<circle cx="104416" cy="99532.6" r="380.315" /> 
<circle cx="104416" cy="98532.6" r="380.315" /> 
<circle cx="101416" cy="99532.6" r="380.315" /> 
<circle cx="103416" cy="98532.6" r="380.315" /> 
<circle cx="104416" cy="97532.6" r="380.315" /> 
<circle cx="103416" cy="99532.6" r="380.315" /> 
<circle cx="102416" cy="99532.6" r="380.315" /> 
<circle cx="102416" cy="97532.6" r="380.315" /> 
<circle cx="101416" cy="98532.6" r="380.315" /> 
<circle cx="103416" cy="97532.6" r="380.315" /> 
<circle cx="103416" cy="96532.6" r="380.315" /> 
<circle cx="102416" cy="96532.6" r="380.315" /> 
<circle cx="101416" cy="96532.6" r="380.315" /> 
<circle cx="101416" cy="97532.6" r="380.315" /> 
<circle cx="102416" cy="98532.6" r="380.315" /> 
<circle cx="100416" cy="98532.6" r="380.315" /> 
<circle cx="98416" cy="98532.6" r="380.315" /> 
<circle cx="97416" cy="98532.6" r="380.315" /> 
<circle cx="95416" cy="99532.6" r="380.315" /> 
<circle cx="95416" cy="98532.6" r="380.315" /> 
<circle cx="96416" cy="99532.6" r="380.315" /> 
<circle cx="96416" cy="98532.6" r="380.315" /> 
<circle cx="98416" cy="97532.6" r="380.315" /> 
<circle cx="100416" cy="97532.6" r="380.315" /> 
<circle cx="100416" cy="96532.6" r="380.315" /> 
<circle cx="100416" cy="95532.6" r="380.315" /> 
<circle cx="98416" cy="96532.6" r="380.315" /> 
<circle cx="96416" cy="97532.6" r="380.315" /> 
<circle cx="97416" cy="97532.6" r="380.315" /> 
<circle cx="95416" cy="97532.6" r="380.315" /> 
<circle cx="95416" cy="96532.6" r="380.315" /> 
<circle cx="96416" cy="95532.6" r="380.315" /> 
<circle cx="97416" cy="95532.6" r="380.315" /> 
<circle cx="96416" cy="96532.6" r="380.315" /> 
<circle cx="97416" cy="96532.6" r="380.315" /> 
<circle cx="95416" cy="95532.6" r="380.315" /> 
<circle cx="95416" cy="92532.6" r="380.315" /> 
<circle cx="96416" cy="92532.6" r="380.315" /> 
<circle cx="95416" cy="93532.6" r="380.315" /> 
<circle cx="98416" cy="95532.6" r="380.315" /> 
<circle cx="98416" cy="93532.6" r="380.315" /> 
<circle cx="98416" cy="94532.6" r="380.315" /> 
<circle cx="101416" cy="92532.6" r="380.315" /> 
<circle cx="102416" cy="93532.6" r="380.315" /> 
<circle cx="101416" cy="95532.6" r="380.315" /> 
<circle cx="101416" cy="94532.6" r="380.315" /> 
<circle cx="102416" cy="94532.6" r="380.315" /> 
<circle cx="102416" cy="92532.6" r="380.315" /> 
<circle cx="101416" cy="93532.6" r="380.315" /> 
<circle cx="102416" cy="95532.6" r="380.315" /> 
<circle cx="97416" cy="93532.6" r="380.315" /> 
<circle cx="97416" cy="94532.6" r="380.315" /> 
<circle cx="96416" cy="93532.6" r="380.315" /> 
<circle cx="95416" cy="94532.6" r="380.315" /> 
<circle cx="96416" cy="94532.6" r="380.315" /> 
<circle cx="100416" cy="93532.6" r="380.315" /> 
<circle cx="100416" cy="94532.6" r="380.315" /> 
<circle cx="88416" cy="94532.6" r="380.315" /> 
<circle cx="88416" cy="93532.6" r="380.315" /> 
<circle cx="86416" cy="92532.6" r="380.315" /> 
<circle cx="87416" cy="93532.6" r="380.315" /> 
<circle cx="86416" cy="94532.6" r="380.315" /> 
<circle cx="87416" cy="92532.6" r="380.315" /> 
<circle cx="86416" cy="93532.6" r="380.315" /> 
<circle cx="87416" cy="94532.6" r="380.315" /> 
<circle cx="88416" cy="96532.6" r="380.315" /> 
<circle cx="88416" cy="97532.6" r="380.315" /> 
<circle cx="86416" cy="95532.6" r="380.315" /> 
<circle cx="87416" cy="95532.6" r="380.315" /> 
<circle cx="88416" cy="95532.6" r="380.315" /> 
<circle cx="88416" cy="98532.6" r="380.315" /> 
<circle cx="73416" cy="73532.6" r="380.315" /> 
<circle cx="74416" cy="73532.6" r="380.315" /> 
<circle cx="84416" cy="73532.6" r="380.315" /> 
<circle cx="85416" cy="73532.6" r="380.315" /> 
<circle cx="83416" cy="73532.6" r="380.315" /> 
<circle cx="82416" cy="73532.6" r="380.315" /> 
<circle cx="68416" cy="73532.6" r="380.315" /> 
<circle cx="67416" cy="73532.6" r="380.315" /> 
<circle cx="63416" cy="73532.6" r="380.315" /> 
<circle cx="64416" cy="73532.6" r="380.315" /> 
<circle cx="66416" cy="73532.6" r="380.315" /> 
<circle cx="65416" cy="73532.6" r="380.315" /> 
<circle cx="75416" cy="73532.6" r="380.315" /> 
<circle cx="76416" cy="73532.6" r="380.315" /> 
<circle cx="77416" cy="73532.6" r="380.315" /> 
<circle cx="103416" cy="73532.6" r="380.315" /> 
<circle cx="104416" cy="73532.6" r="380.315" /> 
<circle cx="106416" cy="73532.6" r="380.315" /> 
<circle cx="105416" cy="73532.6" r="380.315" /> 
<circle cx="93416" cy="73532.6" r="380.315" /> 
<circle cx="94416" cy="73532.6" r="380.315" /> 
<circle cx="92416" cy="73532.6" r="380.315" /> 
<circle cx="101416" cy="73532.6" r="380.315" /> 
<circle cx="102416" cy="73532.6" r="380.315" /> 
<circle cx="95416" cy="73532.6" r="380.315" /> 
<circle cx="96416" cy="73532.6" r="380.315" /> 
<circle cx="86416" cy="73532.6" r="380.315" /> 
<circle cx="87416" cy="73532.6" r="380.315" /> 
<circle cx="107416" cy="76532.6" r="380.315" /> 
<circle cx="107416" cy="77532.6" r="380.315" /> 
<circle cx="107416" cy="75532.6" r="380.315" /> 
<circle cx="107416" cy="74532.6" r="380.315" /> 
<circle cx="107416" cy="78532.6" r="380.315" /> 
<circle cx="107416" cy="79532.6" r="380.315" /> 
<circle cx="103416" cy="74532.6" r="380.315" /> 
<circle cx="104416" cy="75532.6" r="380.315" /> 
<circle cx="103416" cy="76532.6" r="380.315" /> 
<circle cx="103416" cy="75532.6" r="380.315" /> 
<circle cx="104416" cy="74532.6" r="380.315" /> 
<circle cx="105416" cy="74532.6" r="380.315" /> 
<circle cx="106416" cy="74532.6" r="380.315" /> 
<circle cx="104416" cy="76532.6" r="380.315" /> 
<circle cx="106416" cy="76532.6" r="380.315" /> 
<circle cx="106416" cy="75532.6" r="380.315" /> 
<circle cx="105416" cy="75532.6" r="380.315" /> 
<circle cx="105416" cy="76532.6" r="380.315" /> 
<circle cx="106416" cy="78532.6" r="380.315" /> 
<circle cx="105416" cy="78532.6" r="380.315" /> 
<circle cx="106416" cy="77532.6" r="380.315" /> 
<circle cx="104416" cy="77532.6" r="380.315" /> 
<circle cx="105416" cy="77532.6" r="380.315" /> 
<circle cx="100416" cy="79532.6" r="380.315" /> 
<circle cx="102416" cy="78532.6" r="380.315" /> 
<circle cx="101416" cy="76532.6" r="380.315" /> 
<circle cx="102416" cy="76532.6" r="380.315" /> 
<circle cx="102416" cy="77532.6" r="380.315" /> 
<circle cx="100416" cy="78532.6" r="380.315" /> 
<circle cx="101416" cy="77532.6" r="380.315" /> 
<circle cx="100416" cy="77532.6" r="380.315" /> 
<circle cx="101416" cy="78532.6" r="380.315" /> 
<circle cx="100416" cy="76532.6" r="380.315" /> 
<circle cx="102416" cy="79532.6" r="380.315" /> 
<circle cx="102416" cy="80532.6" r="380.315" /> 
<circle cx="101416" cy="79532.6" r="380.315" /> 
<circle cx="101416" cy="80532.6" r="380.315" /> 
<circle cx="103416" cy="79532.6" r="380.315" /> 
<circle cx="103416" cy="78532.6" r="380.315" /> 
<circle cx="103416" cy="77532.6" r="380.315" /> 
<circle cx="104416" cy="78532.6" r="380.315" /> 
<circle cx="106416" cy="80532.6" r="380.315" /> 
<circle cx="106416" cy="79532.6" r="380.315" /> 
<circle cx="103416" cy="80532.6" r="380.315" /> 
<circle cx="104416" cy="80532.6" r="380.315" /> 
<circle cx="105416" cy="79532.6" r="380.315" /> 
<circle cx="105416" cy="80532.6" r="380.315" /> 
<circle cx="104416" cy="79532.6" r="380.315" /> 
<circle cx="98416" cy="76532.6" r="380.315" /> 
<circle cx="98416" cy="77532.6" r="380.315" /> 
<circle cx="98416" cy="74532.6" r="380.315" /> 
<circle cx="98416" cy="75532.6" r="380.315" /> 
<circle cx="98416" cy="79532.6" r="380.315" /> 
<circle cx="98416" cy="78532.6" r="380.315" /> 
<circle cx="100416" cy="75532.6" r="380.315" /> 
<circle cx="100416" cy="74532.6" r="380.315" /> 
<circle cx="102416" cy="75532.6" r="380.315" /> 
<circle cx="101416" cy="74532.6" r="380.315" /> 
<circle cx="101416" cy="75532.6" r="380.315" /> 
<circle cx="102416" cy="74532.6" r="380.315" /> 
<circle cx="94416" cy="74532.6" r="380.315" /> 
<circle cx="95416" cy="75532.6" r="380.315" /> 
<circle cx="94416" cy="76532.6" r="380.315" /> 
<circle cx="94416" cy="75532.6" r="380.315" /> 
<circle cx="95416" cy="74532.6" r="380.315" /> 
<circle cx="96416" cy="74532.6" r="380.315" /> 
<circle cx="97416" cy="74532.6" r="380.315" /> 
<circle cx="95416" cy="76532.6" r="380.315" /> 
<circle cx="97416" cy="76532.6" r="380.315" /> 
<circle cx="97416" cy="75532.6" r="380.315" /> 
<circle cx="96416" cy="75532.6" r="380.315" /> 
<circle cx="96416" cy="76532.6" r="380.315" /> 
<circle cx="97416" cy="78532.6" r="380.315" /> 
<circle cx="96416" cy="78532.6" r="380.315" /> 
<circle cx="97416" cy="77532.6" r="380.315" /> 
<circle cx="95416" cy="77532.6" r="380.315" /> 
<circle cx="96416" cy="77532.6" r="380.315" /> 
<circle cx="91416" cy="79532.6" r="380.315" /> 
<circle cx="90416" cy="79532.6" r="380.315" /> 
<circle cx="93416" cy="78532.6" r="380.315" /> 
<circle cx="92416" cy="76532.6" r="380.315" /> 
<circle cx="93416" cy="76532.6" r="380.315" /> 
<circle cx="93416" cy="77532.6" r="380.315" /> 
<circle cx="90416" cy="78532.6" r="380.315" /> 
<circle cx="90416" cy="77532.6" r="380.315" /> 
<circle cx="90416" cy="76532.6" r="380.315" /> 
<circle cx="91416" cy="78532.6" r="380.315" /> 
<circle cx="92416" cy="77532.6" r="380.315" /> 
<circle cx="91416" cy="77532.6" r="380.315" /> 
<circle cx="92416" cy="78532.6" r="380.315" /> 
<circle cx="91416" cy="76532.6" r="380.315" /> 
<circle cx="93416" cy="79532.6" r="380.315" /> 
<circle cx="93416" cy="80532.6" r="380.315" /> 
<circle cx="92416" cy="79532.6" r="380.315" /> 
<circle cx="92416" cy="80532.6" r="380.315" /> 
<circle cx="94416" cy="79532.6" r="380.315" /> 
<circle cx="94416" cy="78532.6" r="380.315" /> 
<circle cx="94416" cy="77532.6" r="380.315" /> 
<circle cx="95416" cy="78532.6" r="380.315" /> 
<circle cx="97416" cy="79532.6" r="380.315" /> 
<circle cx="94416" cy="80532.6" r="380.315" /> 
<circle cx="95416" cy="80532.6" r="380.315" /> 
<circle cx="96416" cy="79532.6" r="380.315" /> 
<circle cx="96416" cy="80532.6" r="380.315" /> 
<circle cx="95416" cy="79532.6" r="380.315" /> 
<circle cx="90416" cy="75532.6" r="380.315" /> 
<circle cx="90416" cy="74532.6" r="380.315" /> 
<circle cx="91416" cy="75532.6" r="380.315" /> 
<circle cx="91416" cy="74532.6" r="380.315" /> 
<circle cx="93416" cy="75532.6" r="380.315" /> 
<circle cx="92416" cy="74532.6" r="380.315" /> 
<circle cx="92416" cy="75532.6" r="380.315" /> 
<circle cx="93416" cy="74532.6" r="380.315" /> 
<circle cx="85416" cy="74532.6" r="380.315" /> 
<circle cx="86416" cy="75532.6" r="380.315" /> 
<circle cx="85416" cy="76532.6" r="380.315" /> 
<circle cx="85416" cy="75532.6" r="380.315" /> 
<circle cx="86416" cy="74532.6" r="380.315" /> 
<circle cx="87416" cy="74532.6" r="380.315" /> 
<circle cx="88416" cy="74532.6" r="380.315" /> 
<circle cx="86416" cy="76532.6" r="380.315" /> 
<circle cx="88416" cy="76532.6" r="380.315" /> 
<circle cx="88416" cy="75532.6" r="380.315" /> 
<circle cx="87416" cy="75532.6" r="380.315" /> 
<circle cx="87416" cy="76532.6" r="380.315" /> 
<circle cx="88416" cy="78532.6" r="380.315" /> 
<circle cx="87416" cy="78532.6" r="380.315" /> 
<circle cx="88416" cy="77532.6" r="380.315" /> 
<circle cx="86416" cy="77532.6" r="380.315" /> 
<circle cx="87416" cy="77532.6" r="380.315" /> 
<circle cx="82416" cy="80532.6" r="380.315" /> 
<circle cx="82416" cy="79532.6" r="380.315" /> 
<circle cx="81416" cy="79532.6" r="380.315" /> 
<circle cx="84416" cy="78532.6" r="380.315" /> 
<circle cx="83416" cy="76532.6" r="380.315" /> 
<circle cx="84416" cy="76532.6" r="380.315" /> 
<circle cx="84416" cy="77532.6" r="380.315" /> 
<circle cx="81416" cy="78532.6" r="380.315" /> 
<circle cx="81416" cy="77532.6" r="380.315" /> 
<circle cx="81416" cy="76532.6" r="380.315" /> 
<circle cx="82416" cy="78532.6" r="380.315" /> 
<circle cx="83416" cy="77532.6" r="380.315" /> 
<circle cx="82416" cy="77532.6" r="380.315" /> 
<circle cx="83416" cy="78532.6" r="380.315" /> 
<circle cx="82416" cy="76532.6" r="380.315" /> 
<circle cx="84416" cy="79532.6" r="380.315" /> 
<circle cx="84416" cy="80532.6" r="380.315" /> 
<circle cx="83416" cy="79532.6" r="380.315" /> 
<circle cx="83416" cy="80532.6" r="380.315" /> 
<circle cx="85416" cy="79532.6" r="380.315" /> 
<circle cx="85416" cy="78532.6" r="380.315" /> 
<circle cx="85416" cy="77532.6" r="380.315" /> 
<circle cx="86416" cy="78532.6" r="380.315" /> 
<circle cx="88416" cy="79532.6" r="380.315" /> 
<circle cx="85416" cy="80532.6" r="380.315" /> 
<circle cx="86416" cy="80532.6" r="380.315" /> 
<circle cx="87416" cy="79532.6" r="380.315" /> 
<circle cx="87416" cy="80532.6" r="380.315" /> 
<circle cx="86416" cy="79532.6" r="380.315" /> 
<circle cx="81416" cy="75532.6" r="380.315" /> 
<circle cx="81416" cy="74532.6" r="380.315" /> 
<circle cx="82416" cy="75532.6" r="380.315" /> 
<circle cx="82416" cy="74532.6" r="380.315" /> 
<circle cx="84416" cy="75532.6" r="380.315" /> 
<circle cx="83416" cy="74532.6" r="380.315" /> 
<circle cx="83416" cy="75532.6" r="380.315" /> 
<circle cx="84416" cy="74532.6" r="380.315" /> 
<circle cx="76416" cy="74532.6" r="380.315" /> 
<circle cx="77416" cy="75532.6" r="380.315" /> 
<circle cx="76416" cy="76532.6" r="380.315" /> 
<circle cx="76416" cy="75532.6" r="380.315" /> 
<circle cx="77416" cy="74532.6" r="380.315" /> 
<circle cx="78416" cy="74532.6" r="380.315" /> 
<circle cx="79416" cy="74532.6" r="380.315" /> 
<circle cx="77416" cy="76532.6" r="380.315" /> 
<circle cx="79416" cy="76532.6" r="380.315" /> 
<circle cx="79416" cy="75532.6" r="380.315" /> 
<circle cx="78416" cy="75532.6" r="380.315" /> 
<circle cx="78416" cy="76532.6" r="380.315" /> 
<circle cx="79416" cy="78532.6" r="380.315" /> 
<circle cx="78416" cy="78532.6" r="380.315" /> 
<circle cx="79416" cy="77532.6" r="380.315" /> 
<circle cx="77416" cy="77532.6" r="380.315" /> 
<circle cx="78416" cy="77532.6" r="380.315" /> 
<circle cx="73416" cy="80532.6" r="380.315" /> 
<circle cx="73416" cy="79532.6" r="380.315" /> 
<circle cx="72416" cy="79532.6" r="380.315" /> 
<circle cx="75416" cy="78532.6" r="380.315" /> 
<circle cx="74416" cy="76532.6" r="380.315" /> 
<circle cx="75416" cy="76532.6" r="380.315" /> 
<circle cx="75416" cy="77532.6" r="380.315" /> 
<circle cx="72416" cy="78532.6" r="380.315" /> 
<circle cx="72416" cy="77532.6" r="380.315" /> 
<circle cx="72416" cy="76532.6" r="380.315" /> 
<circle cx="73416" cy="78532.6" r="380.315" /> 
<circle cx="74416" cy="77532.6" r="380.315" /> 
<circle cx="73416" cy="77532.6" r="380.315" /> 
<circle cx="74416" cy="78532.6" r="380.315" /> 
<circle cx="73416" cy="76532.6" r="380.315" /> 
<circle cx="75416" cy="79532.6" r="380.315" /> 
<circle cx="75416" cy="80532.6" r="380.315" /> 
<circle cx="74416" cy="79532.6" r="380.315" /> 
<circle cx="74416" cy="80532.6" r="380.315" /> 
<circle cx="76416" cy="79532.6" r="380.315" /> 
<circle cx="76416" cy="78532.6" r="380.315" /> 
<circle cx="76416" cy="77532.6" r="380.315" /> 
<circle cx="77416" cy="78532.6" r="380.315" /> 
<circle cx="79416" cy="79532.6" r="380.315" /> 
<circle cx="76416" cy="80532.6" r="380.315" /> 
<circle cx="77416" cy="80532.6" r="380.315" /> 
<circle cx="78416" cy="79532.6" r="380.315" /> 
<circle cx="77416" cy="79532.6" r="380.315" /> 
<circle cx="71416" cy="76532.6" r="380.315" /> 
<circle cx="71416" cy="77532.6" r="380.315" /> 
<circle cx="72416" cy="75532.6" r="380.315" /> 
<circle cx="71416" cy="74532.6" r="380.315" /> 
<circle cx="71416" cy="75532.6" r="380.315" /> 
<circle cx="72416" cy="74532.6" r="380.315" /> 
<circle cx="71416" cy="79532.6" r="380.315" /> 
<circle cx="71416" cy="78532.6" r="380.315" /> 
<circle cx="73416" cy="75532.6" r="380.315" /> 
<circle cx="73416" cy="74532.6" r="380.315" /> 
<circle cx="75416" cy="75532.6" r="380.315" /> 
<circle cx="74416" cy="74532.6" r="380.315" /> 
<circle cx="74416" cy="75532.6" r="380.315" /> 
<circle cx="75416" cy="74532.6" r="380.315" /> 
<circle cx="67416" cy="74532.6" r="380.315" /> 
<circle cx="68416" cy="75532.6" r="380.315" /> 
<circle cx="67416" cy="76532.6" r="380.315" /> 
<circle cx="67416" cy="75532.6" r="380.315" /> 
<circle cx="68416" cy="74532.6" r="380.315" /> 
<circle cx="69416" cy="74532.6" r="380.315" /> 
<circle cx="68416" cy="76532.6" r="380.315" /> 
<circle cx="69416" cy="75532.6" r="380.315" /> 
<circle cx="69416" cy="76532.6" r="380.315" /> 
<circle cx="69416" cy="78532.6" r="380.315" /> 
<circle cx="68416" cy="77532.6" r="380.315" /> 
<circle cx="69416" cy="77532.6" r="380.315" /> 
<circle cx="63416" cy="80532.6" r="380.315" /> 
<circle cx="64416" cy="80532.6" r="380.315" /> 
<circle cx="64416" cy="79532.6" r="380.315" /> 
<circle cx="63416" cy="79532.6" r="380.315" /> 
<circle cx="66416" cy="78532.6" r="380.315" /> 
<circle cx="65416" cy="76532.6" r="380.315" /> 
<circle cx="66416" cy="76532.6" r="380.315" /> 
<circle cx="66416" cy="77532.6" r="380.315" /> 
<circle cx="63416" cy="78532.6" r="380.315" /> 
<circle cx="63416" cy="77532.6" r="380.315" /> 
<circle cx="63416" cy="76532.6" r="380.315" /> 
<circle cx="64416" cy="78532.6" r="380.315" /> 
<circle cx="65416" cy="77532.6" r="380.315" /> 
<circle cx="64416" cy="77532.6" r="380.315" /> 
<circle cx="65416" cy="78532.6" r="380.315" /> 
<circle cx="64416" cy="76532.6" r="380.315" /> 
<circle cx="66416" cy="79532.6" r="380.315" /> 
<circle cx="66416" cy="80532.6" r="380.315" /> 
<circle cx="65416" cy="79532.6" r="380.315" /> 
<circle cx="65416" cy="80532.6" r="380.315" /> 
<circle cx="67416" cy="79532.6" r="380.315" /> 
<circle cx="67416" cy="78532.6" r="380.315" /> 
<circle cx="67416" cy="77532.6" r="380.315" /> 
<circle cx="68416" cy="78532.6" r="380.315" /> 
<circle cx="67416" cy="80532.6" r="380.315" /> 
<circle cx="68416" cy="80532.6" r="380.315" /> 
<circle cx="69416" cy="79532.6" r="380.315" /> 
<circle cx="68416" cy="79532.6" r="380.315" /> 
<circle cx="62416" cy="76532.6" r="380.315" /> 
<circle cx="62416" cy="77532.6" r="380.315" /> 
<circle cx="63416" cy="75532.6" r="380.315" /> 
<circle cx="62416" cy="74532.6" r="380.315" /> 
<circle cx="62416" cy="75532.6" r="380.315" /> 
<circle cx="63416" cy="74532.6" r="380.315" /> 
<circle cx="62416" cy="79532.6" r="380.315" /> 
<circle cx="62416" cy="78532.6" r="380.315" /> 
<circle cx="64416" cy="75532.6" r="380.315" /> 
<circle cx="64416" cy="74532.6" r="380.315" /> 
<circle cx="66416" cy="75532.6" r="380.315" /> 
<circle cx="65416" cy="74532.6" r="380.315" /> 
<circle cx="65416" cy="75532.6" r="380.315" /> 
<circle cx="66416" cy="74532.6" r="380.315" /> 
<circle cx="82416" cy="90532.6" r="380.315" /> 
<circle cx="84416" cy="90532.6" r="380.315" /> 
<circle cx="85416" cy="90532.6" r="380.315" /> 
<circle cx="83416" cy="90532.6" r="380.315" /> 
<circle cx="86416" cy="90532.6" r="380.315" /> 
<circle cx="87416" cy="90532.6" r="380.315" /> 
<circle cx="74416" cy="90532.6" r="380.315" /> 
<circle cx="73416" cy="90532.6" r="380.315" /> 
<circle cx="77416" cy="90532.6" r="380.315" /> 
<circle cx="76416" cy="90532.6" r="380.315" /> 
<circle cx="75416" cy="90532.6" r="380.315" /> 
<circle cx="92416" cy="82532.6" r="380.315" /> 
<circle cx="93416" cy="82532.6" r="380.315" /> 
<circle cx="96416" cy="82532.6" r="380.315" /> 
<circle cx="95416" cy="82532.6" r="380.315" /> 
<circle cx="94416" cy="82532.6" r="380.315" /> 
<circle cx="101416" cy="82532.6" r="380.315" /> 
<circle cx="102416" cy="82532.6" r="380.315" /> 
<circle cx="106416" cy="82532.6" r="380.315" /> 
<circle cx="105416" cy="82532.6" r="380.315" /> 
<circle cx="104416" cy="82532.6" r="380.315" /> 
<circle cx="103416" cy="82532.6" r="380.315" /> 
<circle cx="82416" cy="82532.6" r="380.315" /> 
<circle cx="84416" cy="82532.6" r="380.315" /> 
<circle cx="83416" cy="82532.6" r="380.315" /> 
<circle cx="86416" cy="82532.6" r="380.315" /> 
<circle cx="85416" cy="82532.6" r="380.315" /> 
<circle cx="87416" cy="82532.6" r="380.315" /> 
<circle cx="75416" cy="82532.6" r="380.315" /> 
<circle cx="76416" cy="82532.6" r="380.315" /> 
<circle cx="77416" cy="82532.6" r="380.315" /> 
<circle cx="73416" cy="82532.6" r="380.315" /> 
<circle cx="74416" cy="82532.6" r="380.315" /> 
<circle cx="63416" cy="82532.6" r="380.315" /> 
<circle cx="65416" cy="82532.6" r="380.315" /> 
<circle cx="66416" cy="82532.6" r="380.315" /> 
<circle cx="64416" cy="82532.6" r="380.315" /> 
<circle cx="68416" cy="82532.6" r="380.315" /> 
<circle cx="67416" cy="82532.6" r="380.315" /> 
<circle cx="107416" cy="84532.6" r="380.315" /> 
<circle cx="107416" cy="85532.6" r="380.315" /> 
<circle cx="107416" cy="86532.6" r="380.315" /> 
<circle cx="107416" cy="88532.6" r="380.315" /> 
<circle cx="107416" cy="87532.6" r="380.315" /> 
<circle cx="107416" cy="89532.6" r="380.315" /> 
<circle cx="107416" cy="83532.6" r="380.315" /> 
<circle cx="63416" cy="90532.6" r="380.315" /> 
<circle cx="67416" cy="90532.6" r="380.315" /> 
<circle cx="68416" cy="90532.6" r="380.315" /> 
<circle cx="64416" cy="90532.6" r="380.315" /> 
<circle cx="65416" cy="90532.6" r="380.315" /> 
<circle cx="66416" cy="90532.6" r="380.315" /> 
<circle cx="105416" cy="85532.6" r="380.315" /> 
<circle cx="106416" cy="83532.6" r="380.315" /> 
<circle cx="106416" cy="84532.6" r="380.315" /> 
<circle cx="105416" cy="84532.6" r="380.315" /> 
<circle cx="105416" cy="83532.6" r="380.315" /> 
<circle cx="104416" cy="84532.6" r="380.315" /> 
<circle cx="106416" cy="85532.6" r="380.315" /> 
<circle cx="102416" cy="83532.6" r="380.315" /> 
<circle cx="102416" cy="84532.6" r="380.315" /> 
<circle cx="103416" cy="84532.6" r="380.315" /> 
<circle cx="104416" cy="83532.6" r="380.315" /> 
<circle cx="103416" cy="85532.6" r="380.315" /> 
<circle cx="102416" cy="85532.6" r="380.315" /> 
<circle cx="103416" cy="83532.6" r="380.315" /> 
<circle cx="104416" cy="85532.6" r="380.315" /> 
<circle cx="101416" cy="83532.6" r="380.315" /> 
<circle cx="101416" cy="84532.6" r="380.315" /> 
<circle cx="100416" cy="83532.6" r="380.315" /> 
<circle cx="100416" cy="84532.6" r="380.315" /> 
<circle cx="100416" cy="85532.6" r="380.315" /> 
<circle cx="101416" cy="85532.6" r="380.315" /> 
<circle cx="99416" cy="87532.6" r="380.315" /> 
<circle cx="99416" cy="86532.6" r="380.315" /> 
<circle cx="98416" cy="86532.6" r="380.315" /> 
<circle cx="97416" cy="87532.6" r="380.315" /> 
<circle cx="98416" cy="87532.6" r="380.315" /> 
<circle cx="97416" cy="86532.6" r="380.315" /> 
<circle cx="99416" cy="88532.6" r="380.315" /> 
<circle cx="98416" cy="89532.6" r="380.315" /> 
<circle cx="96416" cy="88532.6" r="380.315" /> 
<circle cx="97416" cy="89532.6" r="380.315" /> 
<circle cx="98416" cy="88532.6" r="380.315" /> 
<circle cx="97416" cy="88532.6" r="380.315" /> 
<circle cx="99416" cy="89532.6" r="380.315" /> 
<circle cx="96416" cy="89532.6" r="380.315" /> 
<circle cx="104416" cy="88532.6" r="380.315" /> 
<circle cx="103416" cy="87532.6" r="380.315" /> 
<circle cx="103416" cy="88532.6" r="380.315" /> 
<circle cx="102416" cy="88532.6" r="380.315" /> 
<circle cx="104416" cy="87532.6" r="380.315" /> 
<circle cx="101416" cy="89532.6" r="380.315" /> 
<circle cx="101416" cy="87532.6" r="380.315" /> 
<circle cx="101416" cy="86532.6" r="380.315" /> 
<circle cx="100416" cy="86532.6" r="380.315" /> 
<circle cx="101416" cy="88532.6" r="380.315" /> 
<circle cx="100416" cy="88532.6" r="380.315" /> 
<circle cx="102416" cy="89532.6" r="380.315" /> 
<circle cx="100416" cy="87532.6" r="380.315" /> 
<circle cx="104416" cy="86532.6" r="380.315" /> 
<circle cx="102416" cy="87532.6" r="380.315" /> 
<circle cx="103416" cy="86532.6" r="380.315" /> 
<circle cx="102416" cy="86532.6" r="380.315" /> 
<circle cx="106416" cy="88532.6" r="380.315" /> 
<circle cx="106416" cy="87532.6" r="380.315" /> 
<circle cx="105416" cy="88532.6" r="380.315" /> 
<circle cx="105416" cy="87532.6" r="380.315" /> 
<circle cx="106416" cy="86532.6" r="380.315" /> 
<circle cx="105416" cy="86532.6" r="380.315" /> 
<circle cx="104416" cy="89532.6" r="380.315" /> 
<circle cx="106416" cy="89532.6" r="380.315" /> 
<circle cx="105416" cy="89532.6" r="380.315" /> 
<circle cx="103416" cy="89532.6" r="380.315" /> 
<circle cx="100416" cy="89532.6" r="380.315" /> 
<circle cx="98416" cy="84532.6" r="380.315" /> 
<circle cx="96416" cy="86532.6" r="380.315" /> 
<circle cx="95416" cy="86532.6" r="380.315" /> 
<circle cx="96416" cy="85532.6" r="380.315" /> 
<circle cx="97416" cy="85532.6" r="380.315" /> 
<circle cx="95416" cy="84532.6" r="380.315" /> 
<circle cx="95416" cy="83532.6" r="380.315" /> 
<circle cx="94416" cy="83532.6" r="380.315" /> 
<circle cx="95416" cy="87532.6" r="380.315" /> 
<circle cx="95416" cy="88532.6" r="380.315" /> 
<circle cx="96416" cy="87532.6" r="380.315" /> 
<circle cx="94416" cy="87532.6" r="380.315" /> 
<circle cx="95416" cy="89532.6" r="380.315" /> 
<circle cx="94416" cy="88532.6" r="380.315" /> 
<circle cx="93416" cy="85532.6" r="380.315" /> 
<circle cx="92416" cy="83532.6" r="380.315" /> 
<circle cx="92416" cy="84532.6" r="380.315" /> 
<circle cx="92416" cy="85532.6" r="380.315" /> 
<circle cx="93416" cy="84532.6" r="380.315" /> 
<circle cx="92416" cy="86532.6" r="380.315" /> 
<circle cx="92416" cy="87532.6" r="380.315" /> 
<circle cx="93416" cy="87532.6" r="380.315" /> 
<circle cx="93416" cy="86532.6" r="380.315" /> 
<circle cx="94416" cy="86532.6" r="380.315" /> 
<circle cx="92416" cy="89532.6" r="380.315" /> 
<circle cx="92416" cy="88532.6" r="380.315" /> 
<circle cx="94416" cy="89532.6" r="380.315" /> 
<circle cx="93416" cy="89532.6" r="380.315" /> 
<circle cx="93416" cy="88532.6" r="380.315" /> 
<circle cx="99416" cy="83532.6" r="380.315" /> 
<circle cx="98416" cy="83532.6" r="380.315" /> 
<circle cx="99416" cy="84532.6" r="380.315" /> 
<circle cx="98416" cy="85532.6" r="380.315" /> 
<circle cx="99416" cy="85532.6" r="380.315" /> 
<circle cx="97416" cy="83532.6" r="380.315" /> 
<circle cx="96416" cy="84532.6" r="380.315" /> 
<circle cx="95416" cy="85532.6" r="380.315" /> 
<circle cx="97416" cy="84532.6" r="380.315" /> 
<circle cx="96416" cy="83532.6" r="380.315" /> 
<circle cx="94416" cy="84532.6" r="380.315" /> 
<circle cx="94416" cy="85532.6" r="380.315" /> 
<circle cx="93416" cy="83532.6" r="380.315" /> 
<circle cx="88416" cy="87532.6" r="380.315" /> 
<circle cx="88416" cy="86532.6" r="380.315" /> 
<circle cx="87416" cy="86532.6" r="380.315" /> 
<circle cx="87416" cy="87532.6" r="380.315" /> 
<circle cx="86416" cy="86532.6" r="380.315" /> 
<circle cx="87416" cy="88532.6" r="380.315" /> 
<circle cx="88416" cy="89532.6" r="380.315" /> 
<circle cx="86416" cy="88532.6" r="380.315" /> 
<circle cx="88416" cy="88532.6" r="380.315" /> 
<circle cx="87416" cy="89532.6" r="380.315" /> 
<circle cx="86416" cy="89532.6" r="380.315" /> 
<circle cx="85416" cy="88532.6" r="380.315" /> 
<circle cx="85416" cy="89532.6" r="380.315" /> 
<circle cx="86416" cy="83532.6" r="380.315" /> 
<circle cx="87416" cy="83532.6" r="380.315" /> 
<circle cx="88416" cy="85532.6" r="380.315" /> 
<circle cx="88416" cy="84532.6" r="380.315" /> 
<circle cx="87416" cy="85532.6" r="380.315" /> 
<circle cx="86416" cy="84532.6" r="380.315" /> 
<circle cx="87416" cy="84532.6" r="380.315" /> 
<circle cx="88416" cy="83532.6" r="380.315" /> 
<circle cx="84416" cy="83532.6" r="380.315" /> 
<circle cx="84416" cy="85532.6" r="380.315" /> 
<circle cx="83416" cy="85532.6" r="380.315" /> 
<circle cx="85416" cy="83532.6" r="380.315" /> 
<circle cx="85416" cy="84532.6" r="380.315" /> 
<circle cx="84416" cy="84532.6" r="380.315" /> 
<circle cx="83416" cy="83532.6" r="380.315" /> 
<circle cx="83416" cy="84532.6" r="380.315" /> 
<circle cx="84416" cy="87532.6" r="380.315" /> 
<circle cx="84416" cy="86532.6" r="380.315" /> 
<circle cx="83416" cy="86532.6" r="380.315" /> 
<circle cx="84416" cy="88532.6" r="380.315" /> 
<circle cx="84416" cy="89532.6" r="380.315" /> 
<circle cx="83416" cy="88532.6" r="380.315" /> 
<circle cx="83416" cy="89532.6" r="380.315" /> 
<circle cx="83416" cy="87532.6" r="380.315" /> 
<circle cx="85416" cy="87532.6" r="380.315" /> 
<circle cx="86416" cy="85532.6" r="380.315" /> 
<circle cx="85416" cy="86532.6" r="380.315" /> 
<circle cx="86416" cy="87532.6" r="380.315" /> 
<circle cx="85416" cy="85532.6" r="380.315" /> 
<circle cx="80416" cy="87532.6" r="380.315" /> 
<circle cx="81416" cy="86532.6" r="380.315" /> 
<circle cx="81416" cy="87532.6" r="380.315" /> 
<circle cx="82416" cy="86532.6" r="380.315" /> 
<circle cx="82416" cy="87532.6" r="380.315" /> 
<circle cx="80416" cy="86532.6" r="380.315" /> 
<circle cx="81416" cy="85532.6" r="380.315" /> 
<circle cx="80416" cy="85532.6" r="380.315" /> 
<circle cx="82416" cy="85532.6" r="380.315" /> 
<circle cx="80416" cy="84532.6" r="380.315" /> 
<circle cx="82416" cy="88532.6" r="380.315" /> 
<circle cx="81416" cy="88532.6" r="380.315" /> 
<circle cx="80416" cy="89532.6" r="380.315" /> 
<circle cx="80416" cy="88532.6" r="380.315" /> 
<circle cx="82416" cy="89532.6" r="380.315" /> 
<circle cx="81416" cy="89532.6" r="380.315" /> 
<circle cx="81416" cy="83532.6" r="380.315" /> 
<circle cx="82416" cy="83532.6" r="380.315" /> 
<circle cx="80416" cy="83532.6" r="380.315" /> 
<circle cx="82416" cy="84532.6" r="380.315" /> 
<circle cx="81416" cy="84532.6" r="380.315" /> 
<circle cx="76416" cy="87532.6" r="380.315" /> 
<circle cx="76416" cy="89532.6" r="380.315" /> 
<circle cx="77416" cy="89532.6" r="380.315" /> 
<circle cx="77416" cy="88532.6" r="380.315" /> 
<circle cx="76416" cy="88532.6" r="380.315" /> 
<circle cx="79416" cy="87532.6" r="380.315" /> 
<circle cx="78416" cy="86532.6" r="380.315" /> 
<circle cx="77416" cy="86532.6" r="380.315" /> 
<circle cx="77416" cy="87532.6" r="380.315" /> 
<circle cx="78416" cy="87532.6" r="380.315" /> 
<circle cx="77416" cy="83532.6" r="380.315" /> 
<circle cx="76416" cy="83532.6" r="380.315" /> 
<circle cx="76416" cy="86532.6" r="380.315" /> 
<circle cx="76416" cy="84532.6" r="380.315" /> 
<circle cx="76416" cy="85532.6" r="380.315" /> 
<circle cx="79416" cy="88532.6" r="380.315" /> 
<circle cx="79416" cy="89532.6" r="380.315" /> 
<circle cx="78416" cy="89532.6" r="380.315" /> 
<circle cx="78416" cy="88532.6" r="380.315" /> 
<circle cx="78416" cy="85532.6" r="380.315" /> 
<circle cx="77416" cy="85532.6" r="380.315" /> 
<circle cx="78416" cy="84532.6" r="380.315" /> 
<circle cx="77416" cy="84532.6" r="380.315" /> 
<circle cx="79416" cy="83532.6" r="380.315" /> 
<circle cx="79416" cy="86532.6" r="380.315" /> 
<circle cx="79416" cy="84532.6" r="380.315" /> 
<circle cx="79416" cy="85532.6" r="380.315" /> 
<circle cx="78416" cy="83532.6" r="380.315" /> 
<circle cx="89416" cy="89532.6" r="380.315" /> 
<circle cx="91416" cy="89532.6" r="380.315" /> 
<circle cx="90416" cy="89532.6" r="380.315" /> 
<circle cx="91416" cy="88532.6" r="380.315" /> 
<circle cx="90416" cy="85532.6" r="380.315" /> 
<circle cx="89416" cy="86532.6" r="380.315" /> 
<circle cx="90416" cy="86532.6" r="380.315" /> 
<circle cx="91416" cy="85532.6" r="380.315" /> 
<circle cx="91416" cy="86532.6" r="380.315" /> 
<circle cx="89416" cy="85532.6" r="380.315" /> 
<circle cx="91416" cy="87532.6" r="380.315" /> 
<circle cx="90416" cy="88532.6" r="380.315" /> 
<circle cx="90416" cy="87532.6" r="380.315" /> 
<circle cx="89416" cy="88532.6" r="380.315" /> 
<circle cx="89416" cy="87532.6" r="380.315" /> 
<circle cx="90416" cy="84532.6" r="380.315" /> 
<circle cx="89416" cy="83532.6" r="380.315" /> 
<circle cx="91416" cy="84532.6" r="380.315" /> 
<circle cx="91416" cy="83532.6" r="380.315" /> 
<circle cx="90416" cy="83532.6" r="380.315" /> 
<circle cx="89416" cy="84532.6" r="380.315" /> 
<circle cx="69416" cy="83532.6" r="380.315" /> 
<circle cx="70416" cy="83532.6" r="380.315" /> 
<circle cx="70416" cy="84532.6" r="380.315" /> 
<circle cx="68416" cy="83532.6" r="380.315" /> 
<circle cx="68416" cy="84532.6" r="380.315" /> 
<circle cx="69416" cy="84532.6" r="380.315" /> 
<circle cx="71416" cy="88532.6" r="380.315" /> 
<circle cx="71416" cy="87532.6" r="380.315" /> 
<circle cx="71416" cy="89532.6" r="380.315" /> 
<circle cx="70416" cy="88532.6" r="380.315" /> 
<circle cx="70416" cy="89532.6" r="380.315" /> 
<circle cx="68416" cy="87532.6" r="380.315" /> 
<circle cx="68416" cy="86532.6" r="380.315" /> 
<circle cx="70416" cy="86532.6" r="380.315" /> 
<circle cx="69416" cy="86532.6" r="380.315" /> 
<circle cx="69416" cy="87532.6" r="380.315" /> 
<circle cx="70416" cy="87532.6" r="380.315" /> 
<circle cx="68416" cy="88532.6" r="380.315" /> 
<circle cx="68416" cy="89532.6" r="380.315" /> 
<circle cx="69416" cy="88532.6" r="380.315" /> 
<circle cx="69416" cy="89532.6" r="380.315" /> 
<circle cx="71416" cy="85532.6" r="380.315" /> 
<circle cx="69416" cy="85532.6" r="380.315" /> 
<circle cx="70416" cy="85532.6" r="380.315" /> 
<circle cx="68416" cy="85532.6" r="380.315" /> 
<circle cx="71416" cy="84532.6" r="380.315" /> 
<circle cx="73416" cy="88532.6" r="380.315" /> 
<circle cx="72416" cy="89532.6" r="380.315" /> 
<circle cx="72416" cy="88532.6" r="380.315" /> 
<circle cx="73416" cy="89532.6" r="380.315" /> 
<circle cx="74416" cy="89532.6" r="380.315" /> 
<circle cx="74416" cy="84532.6" r="380.315" /> 
<circle cx="74416" cy="85532.6" r="380.315" /> 
<circle cx="74416" cy="86532.6" r="380.315" /> 
<circle cx="75416" cy="85532.6" r="380.315" /> 
<circle cx="75416" cy="86532.6" r="380.315" /> 
<circle cx="75416" cy="84532.6" r="380.315" /> 
<circle cx="75416" cy="83532.6" r="380.315" /> 
<circle cx="74416" cy="83532.6" r="380.315" /> 
<circle cx="72416" cy="83532.6" r="380.315" /> 
<circle cx="72416" cy="84532.6" r="380.315" /> 
<circle cx="73416" cy="85532.6" r="380.315" /> 
<circle cx="73416" cy="84532.6" r="380.315" /> 
<circle cx="72416" cy="85532.6" r="380.315" /> 
<circle cx="73416" cy="83532.6" r="380.315" /> 
<circle cx="71416" cy="83532.6" r="380.315" /> 
<circle cx="72416" cy="87532.6" r="380.315" /> 
<circle cx="72416" cy="86532.6" r="380.315" /> 
<circle cx="73416" cy="86532.6" r="380.315" /> 
<circle cx="73416" cy="87532.6" r="380.315" /> 
<circle cx="71416" cy="86532.6" r="380.315" /> 
<circle cx="75416" cy="87532.6" r="380.315" /> 
<circle cx="74416" cy="88532.6" r="380.315" /> 
<circle cx="75416" cy="89532.6" r="380.315" /> 
<circle cx="74416" cy="87532.6" r="380.315" /> 
<circle cx="75416" cy="88532.6" r="380.315" /> 
<circle cx="66416" cy="84532.6" r="380.315" /> 
<circle cx="66416" cy="83532.6" r="380.315" /> 
<circle cx="66416" cy="85532.6" r="380.315" /> 
<circle cx="66416" cy="86532.6" r="380.315" /> 
<circle cx="67416" cy="85532.6" r="380.315" /> 
<circle cx="67416" cy="86532.6" r="380.315" /> 
<circle cx="67416" cy="84532.6" r="380.315" /> 
<circle cx="64416" cy="83532.6" r="380.315" /> 
<circle cx="67416" cy="87532.6" r="380.315" /> 
<circle cx="65416" cy="83532.6" r="380.315" /> 
<circle cx="67416" cy="83532.6" r="380.315" /> 
<circle cx="67416" cy="88532.6" r="380.315" /> 
<circle cx="67416" cy="89532.6" r="380.315" /> 
<circle cx="66416" cy="89532.6" r="380.315" /> 
<circle cx="66416" cy="88532.6" r="380.315" /> 
<circle cx="64416" cy="88532.6" r="380.315" /> 
<circle cx="65416" cy="88532.6" r="380.315" /> 
<circle cx="64416" cy="89532.6" r="380.315" /> 
<circle cx="65416" cy="89532.6" r="380.315" /> 
<circle cx="64416" cy="85532.6" r="380.315" /> 
<circle cx="64416" cy="84532.6" r="380.315" /> 
<circle cx="65416" cy="84532.6" r="380.315" /> 
<circle cx="65416" cy="85532.6" r="380.315" /> 
<circle cx="66416" cy="87532.6" r="380.315" /> 
<circle cx="64416" cy="86532.6" r="380.315" /> 
<circle cx="65416" cy="86532.6" r="380.315" /> 
<circle cx="65416" cy="87532.6" r="380.315" /> 
<circle cx="64416" cy="87532.6" r="380.315" /> 
<circle cx="63416" cy="85532.6" r="380.315" /> 
<circle cx="62416" cy="84532.6" r="380.315" /> 
<circle cx="62416" cy="83532.6" r="380.315" /> 
<circle cx="63416" cy="84532.6" r="380.315" /> 
<circle cx="63416" cy="83532.6" r="380.315" /> 
<circle cx="62416" cy="85532.6" r="380.315" /> 
<circle cx="63416" cy="89532.6" r="380.315" /> 
<circle cx="62416" cy="88532.6" r="380.315" /> 
<circle cx="62416" cy="87532.6" r="380.315" /> 
<circle cx="62416" cy="86532.6" r="380.315" /> 
<circle cx="63416" cy="86532.6" r="380.315" /> 
<circle cx="63416" cy="88532.6" r="380.315" /> 
<circle cx="63416" cy="87532.6" r="380.315" /> 
<circle cx="62416" cy="89532.6" r="380.315" /> 
<circle cx="43416" cy="96582.6" r="374.016" /> 
<circle cx="44416" cy="96582.6" r="374.016" /> 
<circle cx="45416" cy="96582.6" r="374.016" /> 
<circle cx="46416" cy="96582.6" r="374.016" /> 
<circle cx="47416" cy="96582.6" r="374.016" /> 
<circle cx="48416" cy="96582.6" r="374.016" /> 
<circle cx="49416" cy="96582.6" r="374.016" /> 
<circle cx="50416" cy="96582.6" r="374.016" /> 
<circle cx="52416" cy="96582.6" r="374.016" /> 
<circle cx="53416" cy="96582.6" r="374.016" /> 
<circle cx="54416" cy="96582.6" r="374.016" /> 
<circle cx="55416" cy="96582.6" r="374.016" /> 
<circle cx="56416" cy="96582.6" r="374.016" /> 
<circle cx="57416" cy="96582.6" r="374.016" /> 
<circle cx="40076" cy="77582.6" r="374.016" /> 
<circle cx="41076" cy="77582.6" r="374.016" /> 
<circle cx="42076" cy="77582.6" r="374.016" /> 
<circle cx="43076" cy="77582.6" r="374.016" /> 
<circle cx="44076" cy="77582.6" r="374.016" /> 
<circle cx="45076" cy="77582.6" r="374.016" /> 
<circle cx="46076" cy="77582.6" r="374.016" /> 
<circle cx="47076" cy="77582.6" r="374.016" /> 
<circle cx="48076" cy="77582.6" r="374.016" /> 
<circle cx="49076" cy="77582.6" r="374.016" /> 
<circle cx="50416" cy="77582.6" r="374.016" /> 
<circle cx="51416" cy="77582.6" r="374.016" /> 
<circle cx="52416" cy="77582.6" r="374.016" /> 
<circle cx="53416" cy="77582.6" r="374.016" /> 
<circle cx="54416" cy="77582.6" r="374.016" /> 
<circle cx="55416" cy="77582.6" r="374.016" /> 
<circle cx="56416" cy="77582.6" r="374.016" /> 
<circle cx="57416" cy="77582.6" r="374.016" /> 
<circle cx="57416" cy="87582.6" r="374.016" /> 
<circle cx="57416" cy="86582.6" r="374.016" /> 
<circle cx="57416" cy="85582.6" r="374.016" /> 
<circle cx="58416" cy="85582.6" r="374.016" /> 
<circle cx="58416" cy="86582.6" r="374.016" /> 
<circle cx="58416" cy="87582.6" r="374.016" /> 
<circle cx="25666" cy="89382.6" r="374.016" /> 
<polyline fill="none;"
points="33291,83008
34040,83008
34040,83756
33291,83756
33291,83008
" /> 
<circle cx="32666" cy="83382.6" r="374.016" /> 
<circle cx="31666" cy="83382.6" r="374.016" /> 
<circle cx="30666" cy="83382.6" r="374.016" /> 
<circle cx="29666" cy="83382.6" r="374.016" /> 
<circle cx="28666" cy="83382.6" r="374.016" /> 
<circle cx="27666" cy="83382.6" r="374.016" /> 
<circle cx="26666" cy="83382.6" r="374.016" /> 
<circle cx="25666" cy="83382.6" r="374.016" /> 
<circle cx="24666" cy="83382.6" r="374.016" /> 
<circle cx="23666" cy="83382.6" r="374.016" /> 
<circle cx="22666" cy="83382.6" r="374.016" /> 
<circle cx="21666" cy="83382.6" r="374.016" /> 
<circle cx="20666" cy="83382.6" r="374.016" /> 
<circle cx="19666" cy="83382.6" r="374.016" /> 
<circle cx="33666" cy="89382.6" r="374.016" /> 
<circle cx="32666" cy="89382.6" r="374.016" /> 
<circle cx="31666" cy="89382.6" r="374.016" /> 
<circle cx="30666" cy="89382.6" r="374.016" /> 
<circle cx="29666" cy="89382.6" r="374.016" /> 
<circle cx="28666" cy="89382.6" r="374.016" /> 
<circle cx="27666" cy="89382.6" r="374.016" /> 
<circle cx="26666" cy="89382.6" r="374.016" /> 
<circle cx="24666" cy="89382.6" r="374.016" /> 
<circle cx="23666" cy="89382.6" r="374.016" /> 
<circle cx="22666" cy="89382.6" r="374.016" /> 
<circle cx="21666" cy="89382.6" r="374.016" /> 
<circle cx="20666" cy="89382.6" r="374.016" /> 
<circle cx="19666" cy="89382.6" r="374.016" /> 
<circle cx="40520.8" cy="131790" r="275.815" /> 
<circle cx="39520.8" cy="131790" r="275.815" /> 
<polyline fill="none;"
points="38829,128551
38200,128551
38200,127213
38829,127213
38829,128551
" /> 
<path d="M37829 128237
L37829 127528
" />
<path d="M37200 128237
L37200 127528
" />
<path d="M37829.8 127528 A314.815 314.815 0.0 0 0 37200.2 127528 " />
<path d="M37200.2 128237 A314.815 314.815 0.0 0 0 37829.8 128237 " />
<path d="M39829 128237
L39829 127528
" />
<path d="M39200 128237
L39200 127528
" />
<path d="M39829.8 127528 A314.815 314.815 0.0 0 0 39200.2 127528 " />
<path d="M39200.2 128237 A314.815 314.815 0.0 0 0 39829.8 128237 " />
<circle cx="38515" cy="121283" r="728.315" /> 
<circle cx="37215.7" cy="131790" r="275.815" /> 
<circle cx="36215.7" cy="131790" r="275.815" /> 
<polyline fill="none;"
points="25691,49708
26440,49708
26440,50456
25691,50456
25691,49708
" /> 
<circle cx="25066" cy="50082.6" r="374.016" /> 
<circle cx="24066" cy="50082.6" r="374.016" /> 
<circle cx="23066" cy="50082.6" r="374.016" /> 
<circle cx="22066" cy="50082.6" r="374.016" /> 
<circle cx="21066" cy="50082.6" r="374.016" /> 
<circle cx="20066" cy="50082.6" r="374.016" /> 
<circle cx="19066" cy="50082.6" r="374.016" /> 
<circle cx="18066" cy="50082.6" r="374.016" /> 
<circle cx="17066" cy="50082.6" r="374.016" /> 
<circle cx="16066" cy="50082.6" r="374.016" /> 
<circle cx="15066" cy="50082.6" r="374.016" /> 
<circle cx="14066" cy="50082.6" r="374.016" /> 
<circle cx="13066" cy="50082.6" r="374.016" /> 
<circle cx="13066" cy="57082.6" r="374.016" /> 
<circle cx="14066" cy="57082.6" r="374.016" /> 
<circle cx="15066" cy="57082.6" r="374.016" /> 
<circle cx="16066" cy="57082.6" r="374.016" /> 
<circle cx="17066" cy="57082.6" r="374.016" /> 
<circle cx="18066" cy="57082.6" r="374.016" /> 
<circle cx="19066" cy="57082.6" r="374.016" /> 
<circle cx="20066" cy="57082.6" r="374.016" /> 
<circle cx="21066" cy="57082.6" r="374.016" /> 
<circle cx="22066" cy="57082.6" r="374.016" /> 
<circle cx="23066" cy="57082.6" r="374.016" /> 
<circle cx="24066" cy="57082.6" r="374.016" /> 
<circle cx="25066" cy="57082.6" r="374.016" /> 
<circle cx="26066" cy="57082.6" r="374.016" /> 
<polyline fill="none;"
points="25591,30508
26340,30508
26340,31256
25591,31256
25591,30508
" /> 
<circle cx="24966" cy="30882.6" r="374.016" /> 
<circle cx="23966" cy="30882.6" r="374.016" /> 
<circle cx="22966" cy="30882.6" r="374.016" /> 
<circle cx="21966" cy="30882.6" r="374.016" /> 
<circle cx="20966" cy="30882.6" r="374.016" /> 
<circle cx="19966" cy="30882.6" r="374.016" /> 
<circle cx="18966" cy="30882.6" r="374.016" /> 
<circle cx="17966" cy="30882.6" r="374.016" /> 
<circle cx="16966" cy="30882.6" r="374.016" /> 
<circle cx="15966" cy="30882.6" r="374.016" /> 
<circle cx="14966" cy="30882.6" r="374.016" /> 
<circle cx="13966" cy="30882.6" r="374.016" /> 
<circle cx="12966" cy="30882.6" r="374.016" /> 
<circle cx="12966" cy="37882.6" r="374.016" /> 
<circle cx="13966" cy="37882.6" r="374.016" /> 
<circle cx="14966" cy="37882.6" r="374.016" /> 
<circle cx="15966" cy="37882.6" r="374.016" /> 
<circle cx="16966" cy="37882.6" r="374.016" /> 
<circle cx="17966" cy="37882.6" r="374.016" /> 
<circle cx="18966" cy="37882.6" r="374.016" /> 
<circle cx="19966" cy="37882.6" r="374.016" /> 
<circle cx="20966" cy="37882.6" r="374.016" /> 
<circle cx="21966" cy="37882.6" r="374.016" /> 
<circle cx="22966" cy="37882.6" r="374.016" /> 
<circle cx="23966" cy="37882.6" r="374.016" /> 
<circle cx="24966" cy="37882.6" r="374.016" /> 
<circle cx="25966" cy="37882.6" r="374.016" /> 
<polyline fill="none;"
points="25591,106108
26340,106108
26340,106856
25591,106856
25591,106108
" /> 
<circle cx="24966" cy="106483" r="374.016" /> 
<circle cx="23966" cy="106483" r="374.016" /> 
<circle cx="22966" cy="106483" r="374.016" /> 
<circle cx="21966" cy="106483" r="374.016" /> 
<circle cx="20966" cy="106483" r="374.016" /> 
<circle cx="19966" cy="106483" r="374.016" /> 
<circle cx="18966" cy="106483" r="374.016" /> 
<circle cx="17966" cy="106483" r="374.016" /> 
<circle cx="16966" cy="106483" r="374.016" /> 
<circle cx="15966" cy="106483" r="374.016" /> 
<circle cx="14966" cy="106483" r="374.016" /> 
<circle cx="13966" cy="106483" r="374.016" /> 
<circle cx="12966" cy="106483" r="374.016" /> 
<circle cx="12966" cy="113483" r="374.016" /> 
<circle cx="13966" cy="113483" r="374.016" /> 
<circle cx="14966" cy="113483" r="374.016" /> 
<circle cx="15966" cy="113483" r="374.016" /> 
<circle cx="16966" cy="113483" r="374.016" /> 
<circle cx="17966" cy="113483" r="374.016" /> 
<circle cx="18966" cy="113483" r="374.016" /> 
<circle cx="19966" cy="113483" r="374.016" /> 
<circle cx="20966" cy="113483" r="374.016" /> 
<circle cx="21966" cy="113483" r="374.016" /> 
<circle cx="22966" cy="113483" r="374.016" /> 
<circle cx="23966" cy="113483" r="374.016" /> 
<circle cx="24966" cy="113483" r="374.016" /> 
<circle cx="25966" cy="113483" r="374.016" /> 
<polyline fill="none;"
points="25691,125308
26440,125308
26440,126056
25691,126056
25691,125308
" /> 
<circle cx="25066" cy="125683" r="374.016" /> 
<circle cx="24066" cy="125683" r="374.016" /> 
<circle cx="23066" cy="125683" r="374.016" /> 
<circle cx="22066" cy="125683" r="374.016" /> 
<circle cx="21066" cy="125683" r="374.016" /> 
<circle cx="20066" cy="125683" r="374.016" /> 
<circle cx="19066" cy="125683" r="374.016" /> 
<circle cx="18066" cy="125683" r="374.016" /> 
<circle cx="17066" cy="125683" r="374.016" /> 
<circle cx="16066" cy="125683" r="374.016" /> 
<circle cx="15066" cy="125683" r="374.016" /> 
<circle cx="14066" cy="125683" r="374.016" /> 
<circle cx="13066" cy="125683" r="374.016" /> 
<circle cx="13066" cy="132683" r="374.016" /> 
<circle cx="14066" cy="132683" r="374.016" /> 
<circle cx="15066" cy="132683" r="374.016" /> 
<circle cx="16066" cy="132683" r="374.016" /> 
<circle cx="17066" cy="132683" r="374.016" /> 
<circle cx="18066" cy="132683" r="374.016" /> 
<circle cx="19066" cy="132683" r="374.016" /> 
<circle cx="20066" cy="132683" r="374.016" /> 
<circle cx="21066" cy="132683" r="374.016" /> 
<circle cx="22066" cy="132683" r="374.016" /> 
<circle cx="23066" cy="132683" r="374.016" /> 
<circle cx="24066" cy="132683" r="374.016" /> 
<circle cx="25066" cy="132683" r="374.016" /> 
<circle cx="26066" cy="132683" r="374.016" /> 
<circle cx="40116" cy="138833" r="373.815" /> 
<polyline fill="none;"
points="36489,138458
36489,139206
35742,139206
35742,138458
36489,138458
" /> 
<polyline fill="none;"
points="38346,143412
37585,143412
37585,142652
38346,142652
38346,143412
" /> 
<path d="M38965 143412
L38965 143412
" />
<path d="M38965 142652
L38965 142652
" />
<path d="M38966 143413 A380.315 380.315 0.0 0 0 38966 142652 " />
<path d="M38966 142652 A380.315 380.315 0.0 0 0 38966 143413 " />
<circle cx="7915.98" cy="150933" r="373.815" /> 
<circle cx="11916" cy="150933" r="373.815" /> 
<circle cx="7915.98" cy="158533" r="373.815" /> 
<circle cx="11916" cy="158533" r="373.815" /> 
<circle cx="7915.98" cy="160033" r="373.815" /> 
<circle cx="11916" cy="160033" r="373.815" /> 
<polyline fill="none;"
points="11446,67162
11446,67802
10685,67802
10685,67162
11446,67162
" /> 
<path d="M11125 66162
L11005 66162
" />
<path d="M11125 66802
L11005 66802
" />
<path d="M11006 66162.3 A320.315 320.315 0.0 0 0 11006 66802.9 " />
<path d="M11126 66802.9 A320.315 320.315 0.0 0 0 11126 66162.3 " />
<path d="M11125 65162
L11005 65162
" />
<path d="M11125 65802
L11005 65802
" />
<path d="M11006 65162.3 A320.315 320.315 0.0 0 0 11006 65802.9 " />
<path d="M11126 65802.9 A320.315 320.315 0.0 0 0 11126 65162.3 " />
<path d="M11125 64162
L11005 64162
" />
<path d="M11125 64802
L11005 64802
" />
<path d="M11006 64162.3 A320.315 320.315 0.0 0 0 11006 64802.9 " />
<path d="M11126 64802.9 A320.315 320.315 0.0 0 0 11126 64162.3 " />
<path d="M11125 63162
L11005 63162
" />
<path d="M11125 63802
L11005 63802
" />
<path d="M11006 63162.3 A320.315 320.315 0.0 0 0 11006 63802.9 " />
<path d="M11126 63802.9 A320.315 320.315 0.0 0 0 11126 63162.3 " />
<path d="M11125 62162
L11005 62162
" />
<path d="M11125 62802
L11005 62802
" />
<path d="M11006 62162.3 A320.315 320.315 0.0 0 0 11006 62802.9 " />
<path d="M11126 62802.9 A320.315 320.315 0.0 0 0 11126 62162.3 " />
<polyline fill="none;"
points="11446,73112
11446,73752
10685,73752
10685,73112
11446,73112
" /> 
<path d="M11125 72112
L11005 72112
" />
<path d="M11125 72752
L11005 72752
" />
<path d="M11006 72112.3 A320.315 320.315 0.0 0 0 11006 72752.9 " />
<path d="M11126 72752.9 A320.315 320.315 0.0 0 0 11126 72112.3 " />
<path d="M11125 71112
L11005 71112
" />
<path d="M11125 71752
L11005 71752
" />
<path d="M11006 71112.3 A320.315 320.315 0.0 0 0 11006 71752.9 " />
<path d="M11126 71752.9 A320.315 320.315 0.0 0 0 11126 71112.3 " />
<path d="M11125 70112
L11005 70112
" />
<path d="M11125 70752
L11005 70752
" />
<path d="M11006 70112.3 A320.315 320.315 0.0 0 0 11006 70752.9 " />
<path d="M11126 70752.9 A320.315 320.315 0.0 0 0 11126 70112.3 " />
<path d="M11125 69112
L11005 69112
" />
<path d="M11125 69752
L11005 69752
" />
<path d="M11006 69112.3 A320.315 320.315 0.0 0 0 11006 69752.9 " />
<path d="M11126 69752.9 A320.315 320.315 0.0 0 0 11126 69112.3 " />
<polyline fill="none;"
points="9645,79352
9645,78712
10286,78712
10286,79352
9645,79352
" /> 
<path d="M10645 79032
L10645 79032
" />
<path d="M11286 79032
L11286 79032
" />
<path d="M10645.7 79032.6 A320.315 320.315 0.0 0 0 11286.3 79032.6 " />
<path d="M11286.3 79032.6 A320.315 320.315 0.0 0 0 10645.7 79032.6 " />
<path d="M9645 80032
L9645 80032
" />
<path d="M10286 80032
L10286 80032
" />
<path d="M9645.67 80032.6 A320.315 320.315 0.0 0 0 10286.3 80032.6 " />
<path d="M10286.3 80032.6 A320.315 320.315 0.0 0 0 9645.67 80032.6 " />
<path d="M10645 80032
L10645 80032
" />
<path d="M11286 80032
L11286 80032
" />
<path d="M10645.7 80032.6 A320.315 320.315 0.0 0 0 11286.3 80032.6 " />
<path d="M11286.3 80032.6 A320.315 320.315 0.0 0 0 10645.7 80032.6 " />
<path d="M9645 81032
L9645 81032
" />
<path d="M10286 81032
L10286 81032
" />
<path d="M9645.67 81032.6 A320.315 320.315 0.0 0 0 10286.3 81032.6 " />
<path d="M10286.3 81032.6 A320.315 320.315 0.0 0 0 9645.67 81032.6 " />
<path d="M10645 81032
L10645 81032
" />
<path d="M11286 81032
L11286 81032
" />
<path d="M10645.7 81032.6 A320.315 320.315 0.0 0 0 11286.3 81032.6 " />
<path d="M11286.3 81032.6 A320.315 320.315 0.0 0 0 10645.7 81032.6 " />
</g>
<g style="fill:#000000; fill-opacity:0.0; 
stroke:#000000; stroke-width:59.0551; stroke-opacity:1; 
stroke-linecap:round; stroke-linejoin:round;">
<path d="M36749 141952
L36749 141558
" />
<path d="M36974 141952
L36805 141727
" />
<path d="M36974 141558
L36749 141783
" />
<path d="M39239 141820
L39426 141820
" />
<path d="M39201 141932
L39332 141539
L39464 141932
" />
</g> 
</svg>
