<?xml version="1.0" standalone="no"?>
 <!DOCTYPE svg PUBLIC "-//W3C//DTD SVG 1.1//EN" 
 "http://www.w3.org/Graphics/SVG/1.1/DTD/svg11.dtd"> 
<svg xmlns="http://www.w3.org/2000/svg" version="1.1" 
    width="45.0012cm" height="45.0012cm" viewBox="0 0 177170 177170 ">
<title>SVG Picture created as LargeKickstarter-F_CrtYd.svg date 2015/11/07 15:02:54 </title>
  <desc>Picture generated by PCBNEW </desc>
<g style="fill:#000000; fill-opacity:1;stroke:#000000; stroke-opacity:1;
stroke-linecap:round; stroke-linejoin:round; "
 transform="translate(0 0) scale(1 1)">
</g>
<g style="fill:#000000; fill-opacity:0.0; 
stroke:#000000; stroke-width:-0.000393701; stroke-opacity:1; 
stroke-linecap:round; stroke-linejoin:round;">
</g>
<g style="fill:#000000; fill-opacity:0.0; 
stroke:#000000; stroke-width:19.685; stroke-opacity:1; 
stroke-linecap:round; stroke-linejoin:round;">
<path d="M36360 139845
L39903 139845
" />
<path d="M39903 139845
L39903 141420
" />
<path d="M39903 141420
L36360 141420
" />
<path d="M36360 141420
L36360 139845
" />
<path d="M37277 143721
L39658 143721
" />
<path d="M37277 142343
L39658 142343
" />
<path d="M37277 143721
L37277 142343
" />
<path d="M39658 143721
L39658 142343
" />
<path d="M11791 110373
L11791 109192
" />
<path d="M11791 109192
L12540 109192
" />
<path d="M12540 110373
L12540 109192
" />
<path d="M11791 110373
L12540 110373
" />
<path d="M11791 34773
L11791 33592
" />
<path d="M11791 33592
L12540 33592
" />
<path d="M12540 34773
L12540 33592
" />
<path d="M11791 34773
L12540 34773
" />
<path d="M11891 53473
L11891 52292
" />
<path d="M11891 52292
L12640 52292
" />
<path d="M12640 53473
L12640 52292
" />
<path d="M11891 53473
L12640 53473
" />
<path d="M11891 129073
L11891 127892
" />
<path d="M11891 127892
L12640 127892
" />
<path d="M12640 129073
L12640 127892
" />
<path d="M11891 129073
L12640 129073
" />
<path d="M11754 68171
L11754 61793
" />
<path d="M10377 68171
L10377 61793
" />
<path d="M11754 68171
L10377 68171
" />
<path d="M11754 61793
L10377 61793
" />
<path d="M11754 74121
L11754 68727
" />
<path d="M10377 74121
L10377 68727
" />
<path d="M11754 74121
L10377 74121
" />
<path d="M11754 68727
L10377 68727
" />
<path d="M13391 75467
L13391 79797
" />
<path d="M17840 75467
L17840 79797
" />
<path d="M13391 75467
L17840 75467
" />
<path d="M13391 79797
L17840 79797
" />
<path d="M9277 78343
L9277 81729
" />
<path d="M11658 78343
L11658 81729
" />
<path d="M9277 78343
L11658 78343
" />
<path d="M9277 81729
L11658 81729
" />
<path d="M14053 111397
L12478 111397
" />
<path d="M14053 110767
L12478 110767
" />
<path d="M14053 111397
L14053 110767
" />
<path d="M12478 111397
L12478 110767
" />
<path d="M14053 110697
L12478 110697
" />
<path d="M14053 110067
L12478 110067
" />
<path d="M14053 110697
L14053 110067
" />
<path d="M12478 110697
L12478 110067
" />
<path d="M14053 109997
L12478 109997
" />
<path d="M14053 109367
L12478 109367
" />
<path d="M14053 109997
L14053 109367
" />
<path d="M12478 109997
L12478 109367
" />
<path d="M14153 35797
L12578 35797
" />
<path d="M14153 35167
L12578 35167
" />
<path d="M14153 35797
L14153 35167
" />
<path d="M12578 35797
L12578 35167
" />
<path d="M14153 35097
L12578 35097
" />
<path d="M14153 34467
L12578 34467
" />
<path d="M14153 35097
L14153 34467
" />
<path d="M12578 35097
L12578 34467
" />
<path d="M14153 34397
L12578 34397
" />
<path d="M14153 33767
L12578 33767
" />
<path d="M14153 34397
L14153 33767
" />
<path d="M12578 34397
L12578 33767
" />
<path d="M14453 128797
L12878 128797
" />
<path d="M14453 128167
L12878 128167
" />
<path d="M14453 128797
L14453 128167
" />
<path d="M12878 128797
L12878 128167
" />
<path d="M14453 130197
L12878 130197
" />
<path d="M14453 129567
L12878 129567
" />
<path d="M14453 130197
L14453 129567
" />
<path d="M12878 130197
L12878 129567
" />
<path d="M14453 129497
L12878 129497
" />
<path d="M14453 128867
L12878 128867
" />
<path d="M14453 129497
L14453 128867
" />
<path d="M12878 129497
L12878 128867
" />
<path d="M14453 54597
L12878 54597
" />
<path d="M14453 53967
L12878 53967
" />
<path d="M14453 54597
L14453 53967
" />
<path d="M12878 54597
L12878 53967
" />
<path d="M11453 87447
L9878 87447
" />
<path d="M11453 86817
L9878 86817
" />
<path d="M11453 87447
L11453 86817
" />
<path d="M9878 87447
L9878 86817
" />
<path d="M14453 53897
L12878 53897
" />
<path d="M14453 53267
L12878 53267
" />
<path d="M14453 53897
L14453 53267
" />
<path d="M12878 53897
L12878 53267
" />
<path d="M9128 161467
L10703 161467
" />
<path d="M9128 162097
L10703 162097
" />
<path d="M9128 161467
L9128 162097
" />
<path d="M10703 161467
L10703 162097
" />
<path d="M9878 87467
L11453 87467
" />
<path d="M9878 88097
L11453 88097
" />
<path d="M9878 87467
L9878 88097
" />
<path d="M11453 87467
L11453 88097
" />
<path d="M14453 53197
L12878 53197
" />
<path d="M14453 52567
L12878 52567
" />
<path d="M14453 53197
L14453 52567
" />
<path d="M12878 53197
L12878 52567
" />
<path d="M7678 156817
L9253 156817
" />
<path d="M7678 157447
L9253 157447
" />
<path d="M7678 156817
L7678 157447
" />
<path d="M9253 156817
L9253 157447
" />
<path d="M7728 149267
L9303 149267
" />
<path d="M7728 149897
L9303 149897
" />
<path d="M7728 149267
L7728 149897
" />
<path d="M9303 149267
L9303 149897
" />
<path d="M23537 111487
L24994 111487
" />
<path d="M23537 112077
L24994 112077
" />
<path d="M23537 111487
L23537 112077
" />
<path d="M24994 111487
L24994 112077
" />
<path d="M23437 130587
L24894 130587
" />
<path d="M23437 131177
L24894 131177
" />
<path d="M23437 130587
L23437 131177
" />
<path d="M24894 130587
L24894 131177
" />
<path d="M12089 83176
L11059 84206
" />
<path d="M11672 82758
L10642 83788
" />
<path d="M12089 83176
L11672 82758
" />
<path d="M11059 84206
L10642 83788
" />
<path d="M23587 35937
L25044 35937
" />
<path d="M23587 36527
L25044 36527
" />
<path d="M23587 35937
L23587 36527
" />
<path d="M25044 35937
L25044 36527
" />
<path d="M23387 54987
L24844 54987
" />
<path d="M23387 55577
L24844 55577
" />
<path d="M23387 54987
L23387 55577
" />
<path d="M24844 54987
L24844 55577
" />
<path d="M12761 76004
L12761 77460
" />
<path d="M12170 76004
L12170 77460
" />
<path d="M12761 76004
L12170 76004
" />
<path d="M12761 77460
L12170 77460
" />
</g> 
</svg>
