<?xml version="1.0" standalone="no"?>
 <!DOCTYPE svg PUBLIC "-//W3C//DTD SVG 1.1//EN" 
 "http://www.w3.org/Graphics/SVG/1.1/DTD/svg11.dtd"> 
<svg xmlns="http://www.w3.org/2000/svg" version="1.1" 
    width="45.0012cm" height="45.0012cm" viewBox="0 0 177170 177170 ">
<title>SVG Picture created as LargeKickstarter-F_SilkS.svg date 2015/11/07 10:59:47 </title>
  <desc>Picture generated by PCBNEW </desc>
<g style="fill:#000000; fill-opacity:1;stroke:#000000; stroke-opacity:1;
stroke-linecap:round; stroke-linejoin:round; "
 transform="translate(0 0) scale(1 1)">
</g>
<g style="fill:#000000; fill-opacity:0.0; 
stroke:#000000; stroke-width:-0.000393701; stroke-opacity:1; 
stroke-linecap:round; stroke-linejoin:round;">
</g>
<g style="fill:#000000; fill-opacity:0.0; 
stroke:#000000; stroke-width:59.0551; stroke-opacity:1; 
stroke-linecap:round; stroke-linejoin:round;">
<path d="M36415 97082
L36415 77082
" />
<path d="M36415 77082
L36915 77082
" />
<path d="M57915 97082
L36415 97082
" />
<path d="M57915 97082
L57915 96582
" />
<path d="M57915 96582
L58915 95582
" />
<path d="M58915 95582
L58915 83582
" />
<path d="M58915 83582
L57915 82582
" />
<path d="M57915 82582
L57915 77582
" />
<path d="M57915 77582
L57915 77082
" />
<path d="M57915 77082
L36915 77082
" />
<path d="M37979 139533
L38196 139356
" />
<path d="M38196 139356
L38196 139710
" />
<path d="M38196 139710
L37979 139533
" />
<path d="M37979 139316
L37979 139750
" />
<path d="M37369 140222
L37369 140084
" />
<path d="M37369 138844
L37369 138982
" />
<path d="M38963 140222
L38963 140084
" />
<path d="M37191 140222
L37191 140084
" />
<path d="M37191 138844
L37191 138982
" />
<path d="M38963 138844
L38963 138982
" />
<path d="M37191 140222
L38963 140222
" />
<path d="M37191 138844
L38963 138844
" />
<path d="M35665 82382
L17665 82382
" />
<path d="M17665 82382
L17665 90382
" />
<path d="M17665 90382
L35665 90382
" />
<path d="M35665 90382
L35665 82382
" />
<path d="M15215 52582
L15715 52582
" />
<path d="M15715 52582
L15765 52632
" />
<path d="M15765 52632
L15765 53132
" />
<path d="M15765 53132
L15715 53182
" />
<path d="M15715 53182
L15215 53182
" />
<path d="M14615 53182
L14565 53132
" />
<path d="M14565 53132
L14565 52632
" />
<path d="M14565 52632
L14615 52582
" />
<path d="M15115 52582
L14615 52582
" />
<path d="M14615 53182
L15115 53182
" />
<path d="M15215 53282
L15715 53282
" />
<path d="M15715 53282
L15765 53332
" />
<path d="M15765 53332
L15765 53832
" />
<path d="M15765 53832
L15715 53882
" />
<path d="M15715 53882
L15215 53882
" />
<path d="M14615 53882
L14565 53832
" />
<path d="M14565 53832
L14565 53332
" />
<path d="M14565 53332
L14615 53282
" />
<path d="M15115 53282
L14615 53282
" />
<path d="M14615 53882
L15115 53882
" />
<path d="M15215 53982
L15715 53982
" />
<path d="M15715 53982
L15765 54032
" />
<path d="M15765 54032
L15765 54532
" />
<path d="M15765 54532
L15715 54582
" />
<path d="M15715 54582
L15215 54582
" />
<path d="M14615 54582
L14565 54532
" />
<path d="M14565 54532
L14565 54032
" />
<path d="M14565 54032
L14615 53982
" />
<path d="M15115 53982
L14615 53982
" />
<path d="M14615 54582
L15115 54582
" />
<path d="M15215 128182
L15715 128182
" />
<path d="M15715 128182
L15765 128232
" />
<path d="M15765 128232
L15765 128732
" />
<path d="M15765 128732
L15715 128782
" />
<path d="M15715 128782
L15215 128782
" />
<path d="M14615 128782
L14565 128732
" />
<path d="M14565 128732
L14565 128232
" />
<path d="M14565 128232
L14615 128182
" />
<path d="M15115 128182
L14615 128182
" />
<path d="M14615 128782
L15115 128782
" />
<path d="M15215 128882
L15715 128882
" />
<path d="M15715 128882
L15765 128932
" />
<path d="M15765 128932
L15765 129432
" />
<path d="M15765 129432
L15715 129482
" />
<path d="M15715 129482
L15215 129482
" />
<path d="M14615 129482
L14565 129432
" />
<path d="M14565 129432
L14565 128932
" />
<path d="M14565 128932
L14615 128882
" />
<path d="M15115 128882
L14615 128882
" />
<path d="M14615 129482
L15115 129482
" />
<path d="M15215 129582
L15715 129582
" />
<path d="M15715 129582
L15765 129632
" />
<path d="M15765 129632
L15765 130132
" />
<path d="M15765 130132
L15715 130182
" />
<path d="M15715 130182
L15215 130182
" />
<path d="M14615 130182
L14565 130132
" />
<path d="M14565 130132
L14565 129632
" />
<path d="M14565 129632
L14615 129582
" />
<path d="M15115 129582
L14615 129582
" />
<path d="M14615 130182
L15115 130182
" />
<path d="M14915 33782
L15415 33782
" />
<path d="M15415 33782
L15465 33832
" />
<path d="M15465 33832
L15465 34332
" />
<path d="M15465 34332
L15415 34382
" />
<path d="M15415 34382
L14915 34382
" />
<path d="M14315 34382
L14265 34332
" />
<path d="M14265 34332
L14265 33832
" />
<path d="M14265 33832
L14315 33782
" />
<path d="M14815 33782
L14315 33782
" />
<path d="M14315 34382
L14815 34382
" />
<path d="M14915 34482
L15415 34482
" />
<path d="M15415 34482
L15465 34532
" />
<path d="M15465 34532
L15465 35032
" />
<path d="M15465 35032
L15415 35082
" />
<path d="M15415 35082
L14915 35082
" />
<path d="M14315 35082
L14265 35032
" />
<path d="M14265 35032
L14265 34532
" />
<path d="M14265 34532
L14315 34482
" />
<path d="M14815 34482
L14315 34482
" />
<path d="M14315 35082
L14815 35082
" />
<path d="M14915 35182
L15415 35182
" />
<path d="M15415 35182
L15465 35232
" />
<path d="M15465 35232
L15465 35732
" />
<path d="M15465 35732
L15415 35782
" />
<path d="M15415 35782
L14915 35782
" />
<path d="M14315 35782
L14265 35732
" />
<path d="M14265 35732
L14265 35232
" />
<path d="M14265 35232
L14315 35182
" />
<path d="M14815 35182
L14315 35182
" />
<path d="M14315 35782
L14815 35782
" />
<path d="M14815 109382
L15315 109382
" />
<path d="M15315 109382
L15365 109432
" />
<path d="M15365 109432
L15365 109932
" />
<path d="M15365 109932
L15315 109982
" />
<path d="M15315 109982
L14815 109982
" />
<path d="M14215 109982
L14165 109932
" />
<path d="M14165 109932
L14165 109432
" />
<path d="M14165 109432
L14215 109382
" />
<path d="M14715 109382
L14215 109382
" />
<path d="M14215 109982
L14715 109982
" />
<path d="M14815 110082
L15315 110082
" />
<path d="M15315 110082
L15365 110132
" />
<path d="M15365 110132
L15365 110632
" />
<path d="M15365 110632
L15315 110682
" />
<path d="M15315 110682
L14815 110682
" />
<path d="M14215 110682
L14165 110632
" />
<path d="M14165 110632
L14165 110132
" />
<path d="M14165 110132
L14215 110082
" />
<path d="M14715 110082
L14215 110082
" />
<path d="M14215 110682
L14715 110682
" />
<path d="M14815 110782
L15315 110782
" />
<path d="M15315 110782
L15365 110832
" />
<path d="M15365 110832
L15365 111332
" />
<path d="M15365 111332
L15315 111382
" />
<path d="M15315 111382
L14815 111382
" />
<path d="M14215 111382
L14165 111332
" />
<path d="M14165 111332
L14165 110832
" />
<path d="M14165 110832
L14215 110782
" />
<path d="M14715 110782
L14215 110782
" />
<path d="M14215 111382
L14715 111382
" />
</g>
<g style="fill:#000000; fill-opacity:0.0; 
stroke:#000000; stroke-width:80; stroke-opacity:1; 
stroke-linecap:round; stroke-linejoin:round;">
<path d="M7948 145889
L6767 145889
" />
<path d="M6767 145889
L6767 148763
" />
<path d="M6767 148763
L7948 148763
" />
<path d="M8342 148113
L8342 146538
" />
<path d="M7948 153444
L6767 153444
" />
<path d="M6767 153444
L6767 156318
" />
<path d="M6767 156318
L7948 156318
" />
<path d="M8342 155668
L8342 154094
" />
<path d="M7948 160999
L6767 160999
" />
<path d="M6767 160999
L6767 163873
" />
<path d="M6767 163873
L7948 163873
" />
<path d="M8342 163224
L8342 161649
" />
<path d="M22895 78378
L21721 78378
" />
<path d="M21721 78378
L21721 75386
" />
<path d="M21721 75386
L22895 75386
" />
<path d="M31115 78378
L31115 75386
" />
<path d="M22895.1 78378.7 A4376.02 4376.02 0.0 0 0 31115.6 78378.7 " />
<path d="M31115.6 75386.5 A4376.02 4376.02 0.0 0 0 22895.1 75386.5 " />
</g>
<g style="fill:#000000; fill-opacity:0.0; 
stroke:#000000; stroke-width:59.0551; stroke-opacity:1; 
stroke-linecap:round; stroke-linejoin:round;">
<path d="M39320 130790
L39320 131290
" />
<path d="M39070 131040
L39520 131040
" />
<circle cx="40020.8" cy="131790" r="1500" /> 
<path d="M38514 125362
L38514 126228
" />
<path d="M37648 125362
L37333 125362
" />
<path d="M37333 125362
L37333 126228
" />
<path d="M39420 125362
L39695 125362
" />
<path d="M39695 125362
L39695 126228
" />
<path d="M38002 125362
L39065 125362
" />
<path d="M38002 125323
L37648 125047
" />
<path d="M37648 125047
L37648 125638
" />
<path d="M37648 125638
L38002 125362
" />
<path d="M39026 125323
L39380 125047
" />
<path d="M39380 125047
L39380 125638
" />
<path d="M39380 125638
L39026 125323
" />
<path d="M38002 125047
L38002 125638
" />
<path d="M39026 125047
L39026 125638
" />
<path d="M37514 126432
L37514 126982
" />
<path d="M38514 126432
L38514 126982
" />
<path d="M39514 126432
L39514 126982
" />
<circle cx="38515" cy="121283" r="989.95" /> 
<path d="M40614 123082
L40614 119932
" />
<path d="M40614 119932
L36414 119932
" />
<path d="M36414 119932
L36414 123082
" />
<path d="M40614 126432
L40614 123082
" />
<path d="M40614 123082
L36414 123082
" />
<path d="M36414 123082
L36414 126432
" />
<path d="M38514 126432
L36414 126432
" />
<path d="M38514 126432
L40614 126432
" />
<path d="M9465 79532
L9465 81532
" />
<path d="M9355 78422
L9965 78422
" />
<path d="M10465 78532
L10465 79532
" />
<path d="M10465 79532
L9465 79532
" />
<path d="M9465 81532
L11465 81532
" />
<path d="M11465 81532
L11465 79532
" />
<path d="M9355 78422
L9355 79032
" />
<path d="M11465 78532
L10465 78532
" />
<path d="M11465 79532
L11465 78532
" />
</g>
<g style="fill:#000000; fill-opacity:0.0; 
stroke:#000000; stroke-width:60; stroke-opacity:1; 
stroke-linecap:round; stroke-linejoin:round;">
<path d="M23285 51920
L16335 51920
" />
<path d="M16335 51920
L16335 54844
" />
<path d="M16335 54844
L23285 54844
" />
<path d="M23285 54844
L23285 51920
" />
<circle cx="22916" cy="52142.6" r="210" /> 
<path d="M23285 127520
L16335 127520
" />
<path d="M16335 127520
L16335 130444
" />
<path d="M16335 130444
L23285 130444
" />
<path d="M23285 130444
L23285 127520
" />
<circle cx="22916" cy="127743" r="210" /> 
</g>
<g style="fill:#000000; fill-opacity:0.0; 
stroke:#000000; stroke-width:59.0551; stroke-opacity:1; 
stroke-linecap:round; stroke-linejoin:round;">
<path d="M36015 130790
L36015 131290
" />
<path d="M35765 131040
L36215 131040
" />
<circle cx="36715.7" cy="131790" r="1500" /> 
</g>
<g style="fill:#000000; fill-opacity:0.0; 
stroke:#000000; stroke-width:60; stroke-opacity:1; 
stroke-linecap:round; stroke-linejoin:round;">
<path d="M11214 85482
L13165 83531
" />
<path d="M13165 83531
L15117 85482
" />
<path d="M15117 85482
L13264 87335
" />
<path d="M13067 87335
L11214 85482
" />
<path d="M13067 87335
L13264 87335
" />
<circle cx="13166" cy="87009.9" r="141.417" /> 
</g>
<g style="fill:#000000; fill-opacity:0.0; 
stroke:#000000; stroke-width:59.0551; stroke-opacity:1; 
stroke-linecap:round; stroke-linejoin:round;">
<path d="M26565 49582
L26565 57582
" />
<path d="M26565 57582
L12565 57582
" />
<path d="M12565 57582
L12565 49582
" />
<path d="M12565 49582
L26565 49582
" />
<path d="M26465 30382
L26465 38382
" />
<path d="M26465 38382
L12465 38382
" />
<path d="M12465 38382
L12465 30382
" />
<path d="M12465 30382
L26465 30382
" />
</g>
<g style="fill:#000000; fill-opacity:0.0; 
stroke:#000000; stroke-width:60; stroke-opacity:1; 
stroke-linecap:round; stroke-linejoin:round;">
<path d="M23285 32920
L16335 32920
" />
<path d="M16335 32920
L16335 35844
" />
<path d="M16335 35844
L23285 35844
" />
<path d="M23285 35844
L23285 32920
" />
<circle cx="22916" cy="33142.6" r="210" /> 
</g>
<g style="fill:#000000; fill-opacity:0.0; 
stroke:#000000; stroke-width:59.0551; stroke-opacity:1; 
stroke-linecap:round; stroke-linejoin:round;">
<path d="M26465 105982
L26465 113982
" />
<path d="M26465 113982
L12465 113982
" />
<path d="M12465 113982
L12465 105982
" />
<path d="M12465 105982
L26465 105982
" />
</g>
<g style="fill:#000000; fill-opacity:0.0; 
stroke:#000000; stroke-width:60; stroke-opacity:1; 
stroke-linecap:round; stroke-linejoin:round;">
<path d="M23285 108520
L16335 108520
" />
<path d="M16335 108520
L16335 111444
" />
<path d="M16335 111444
L23285 111444
" />
<path d="M23285 111444
L23285 108520
" />
<circle cx="22916" cy="108743" r="210" /> 
</g>
<g style="fill:#000000; fill-opacity:0.0; 
stroke:#000000; stroke-width:59.0551; stroke-opacity:1; 
stroke-linecap:round; stroke-linejoin:round;">
<path d="M26565 125182
L26565 133182
" />
<path d="M26565 133182
L12565 133182
" />
<path d="M12565 133182
L12565 125182
" />
<path d="M12565 125182
L26565 125182
" />
<path d="M11676 73432
L11676 74042
" />
<path d="M11676 74042
L10455 74042
" />
<path d="M10455 74042
L10455 73432
" />
<path d="M10565 72932
L10565 68932
" />
<path d="M10565 68932
L11565 68932
" />
<path d="M11565 68932
L11565 72932
" />
<path d="M10565 72932
L11565 72932
" />
<path d="M10565 66982
L10565 61982
" />
<path d="M10565 61982
L11565 61982
" />
<path d="M11565 61982
L11565 66982
" />
<path d="M10455 68092
L10455 67482
" />
<path d="M10565 66982
L11565 66982
" />
<path d="M11676 67482
L11676 68092
" />
<path d="M11676 68092
L10455 68092
" />
<path d="M38915 137531
L39315 137531
" />
<path d="M37015 137531
L36515 137531
" />
<path d="M37115 137031
L37115 138031
" />
<path d="M37215 137031
L37215 138031
" />
<path d="M37315 137031
L37315 138031
" />
<path d="M37015 137031
L37015 138031
" />
<path d="M37415 137031
L36915 138031
" />
<path d="M36915 137031
L37415 138031
" />
<path d="M37415 137031
L37415 138031
" />
<path d="M37165 137031
L37165 138031
" />
<path d="M36915 138031
L36915 137031
" />
<path d="M36915 137031
L38915 137031
" />
<path d="M38915 137031
L38915 138031
" />
<path d="M38915 138031
L36915 138031
" />
<path d="M12702 76594
L12702 76870
" />
<path d="M12229 76870
L12229 76594
" />
<path d="M23978 55046
L24253 55046
" />
<path d="M24253 55518
L23978 55518
" />
<path d="M24178 35996
L24453 35996
" />
<path d="M24453 36468
L24178 36468
" />
<path d="M11630 83552
L11435 83747
" />
<path d="M11101 83413
L11296 83218
" />
<path d="M24028 130646
L24303 130646
" />
<path d="M24303 131118
L24028 131118
" />
<path d="M24128 111546
L24403 111546
" />
<path d="M24403 112018
L24128 112018
" />
<path d="M12265 128384
L12265 128285
" />
<path d="M12265 128581
L12265 128679
" />
<path d="M12265 128581
L12128 128384
" />
<path d="M12128 128384
L12403 128384
" />
<path d="M12403 128384
L12265 128581
" />
<path d="M12128 128581
L12403 128581
" />
<path d="M12580 128994
L12580 128049
" />
<path d="M11951 128994
L11951 128049
" />
<path d="M12265 52784
L12265 52685
" />
<path d="M12265 52981
L12265 53079
" />
<path d="M12265 52981
L12128 52784
" />
<path d="M12128 52784
L12403 52784
" />
<path d="M12403 52784
L12265 52981
" />
<path d="M12128 52981
L12403 52981
" />
<path d="M12580 53394
L12580 52449
" />
<path d="M11951 53394
L11951 52449
" />
<path d="M12165 34084
L12165 33985
" />
<path d="M12165 34281
L12165 34379
" />
<path d="M12165 34281
L12028 34084
" />
<path d="M12028 34084
L12303 34084
" />
<path d="M12303 34084
L12165 34281
" />
<path d="M12028 34281
L12303 34281
" />
<path d="M12480 34694
L12480 33749
" />
<path d="M11851 34694
L11851 33749
" />
<path d="M12165 109684
L12165 109585
" />
<path d="M12165 109881
L12165 109979
" />
<path d="M12165 109881
L12028 109684
" />
<path d="M12028 109684
L12303 109684
" />
<path d="M12303 109684
L12165 109881
" />
<path d="M12028 109881
L12303 109881
" />
<path d="M12480 110294
L12480 109349
" />
<path d="M11851 110294
L11851 109349
" />
<path d="M38465 142532
L39465 142532
" />
<path d="M37355 142422
L37965 142422
" />
<path d="M38465 142532
L38465 143532
" />
<path d="M37965 143642
L37355 143642
" />
<path d="M37355 143642
L37355 142422
" />
<path d="M38465 143532
L39465 143532
" />
<path d="M39465 143532
L39465 142532
" />
<path d="M8712 149848
L8319 149848
" />
<path d="M8319 149316
L8712 149316
" />
<path d="M8662 157398
L8269 157398
" />
<path d="M8269 156866
L8662 156866
" />
<path d="M13469 52616
L13862 52616
" />
<path d="M13862 53148
L13469 53148
" />
<path d="M10862 88048
L10469 88048
" />
<path d="M10469 87516
L10862 87516
" />
<path d="M10112 162048
L9719 162048
" />
<path d="M9719 161516
L10112 161516
" />
<path d="M13469 53316
L13862 53316
" />
<path d="M13862 53848
L13469 53848
" />
<path d="M10469 86866
L10862 86866
" />
<path d="M10862 87398
L10469 87398
" />
<path d="M13469 54016
L13862 54016
" />
<path d="M13862 54548
L13469 54548
" />
<path d="M13469 128916
L13862 128916
" />
<path d="M13862 129448
L13469 129448
" />
<path d="M13469 129616
L13862 129616
" />
<path d="M13862 130148
L13469 130148
" />
<path d="M13469 128216
L13862 128216
" />
<path d="M13862 128748
L13469 128748
" />
<path d="M13169 33816
L13562 33816
" />
<path d="M13562 34348
L13169 34348
" />
<path d="M13169 34516
L13562 34516
" />
<path d="M13562 35048
L13169 35048
" />
<path d="M13169 35216
L13562 35216
" />
<path d="M13562 35748
L13169 35748
" />
<path d="M13069 109416
L13462 109416
" />
<path d="M13462 109948
L13069 109948
" />
<path d="M13069 110116
L13462 110116
" />
<path d="M13462 110648
L13069 110648
" />
<path d="M13069 110816
L13462 110816
" />
<path d="M13462 111348
L13069 111348
" />
<path d="M8915 150432
L10915 150432
" />
<path d="M10915 150432
L10915 151432
" />
<path d="M10915 151432
L8915 151432
" />
<path d="M8915 151432
L8915 150432
" />
<path d="M8915 150932
L8415 150932
" />
<path d="M10915 150932
L11415 150932
" />
<path d="M8915 158032
L10915 158032
" />
<path d="M10915 158032
L10915 159032
" />
<path d="M10915 159032
L8915 159032
" />
<path d="M8915 159032
L8915 158032
" />
<path d="M8915 158532
L8415 158532
" />
<path d="M10915 158532
L11415 158532
" />
<path d="M8915 159532
L10915 159532
" />
<path d="M10915 159532
L10915 160532
" />
<path d="M10915 160532
L8915 160532
" />
<path d="M8915 160532
L8915 159532
" />
<path d="M8915 160032
L8415 160032
" />
<path d="M10915 160032
L11415 160032
" />
<path d="M14090 75536
L14090 75675
" />
<path d="M17141 75536
L17141 75675
" />
<path d="M17141 79729
L17141 79589
" />
<path d="M14090 79729
L14090 79589
" />
<path d="M14090 75536
L17141 75536
" />
<path d="M14090 79729
L17141 79729
" />
<path d="M14090 75675
L13490 75675
" />
</g>
<g style="fill:#000000; fill-opacity:0.0; 
stroke:#000000; stroke-width:39.3701; stroke-opacity:1; 
stroke-linecap:round; stroke-linejoin:round;">
<circle cx="101416" cy="90532.6" r="380.315" /> 
<circle cx="105416" cy="90532.6" r="380.315" /> 
<circle cx="104416" cy="90532.6" r="380.315" /> 
<circle cx="103416" cy="90532.6" r="380.315" /> 
<circle cx="106416" cy="90532.6" r="380.315" /> 
<circle cx="102416" cy="90532.6" r="380.315" /> 
<circle cx="92416" cy="90532.6" r="380.315" /> 
<circle cx="96416" cy="90532.6" r="380.315" /> 
<circle cx="95416" cy="90532.6" r="380.315" /> 
<circle cx="93416" cy="90532.6" r="380.315" /> 
<circle cx="94416" cy="90532.6" r="380.315" /> 
<circle cx="86416" cy="96532.6" r="380.315" /> 
<circle cx="87416" cy="98532.6" r="380.315" /> 
<circle cx="86416" cy="98532.6" r="380.315" /> 
<circle cx="87416" cy="96532.6" r="380.315" /> 
<circle cx="87416" cy="97532.6" r="380.315" /> 
<circle cx="86416" cy="97532.6" r="380.315" /> 
<circle cx="84416" cy="99532.6" r="380.315" /> 
<circle cx="85416" cy="98532.6" r="380.315" /> 
<circle cx="84416" cy="98532.6" r="380.315" /> 
<circle cx="85416" cy="97532.6" r="380.315" /> 
<circle cx="84416" cy="97532.6" r="380.315" /> 
<circle cx="84416" cy="96532.6" r="380.315" /> 
<circle cx="85416" cy="96532.6" r="380.315" /> 
<circle cx="79416" cy="98532.6" r="380.315" /> 
<circle cx="78416" cy="98532.6" r="380.315" /> 
<circle cx="83416" cy="98532.6" r="380.315" /> 
<circle cx="83416" cy="99532.6" r="380.315" /> 
<circle cx="82416" cy="99532.6" r="380.315" /> 
<circle cx="82416" cy="98532.6" r="380.315" /> 
<circle cx="79416" cy="96532.6" r="380.315" /> 
<circle cx="77416" cy="98532.6" r="380.315" /> 
<circle cx="78416" cy="97532.6" r="380.315" /> 
<circle cx="79416" cy="97532.6" r="380.315" /> 
<circle cx="77416" cy="97532.6" r="380.315" /> 
<circle cx="81416" cy="98532.6" r="380.315" /> 
<circle cx="81416" cy="97532.6" r="380.315" /> 
<circle cx="81416" cy="96532.6" r="380.315" /> 
<circle cx="82416" cy="97532.6" r="380.315" /> 
<circle cx="83416" cy="96532.6" r="380.315" /> 
<circle cx="82416" cy="96532.6" r="380.315" /> 
<circle cx="83416" cy="97532.6" r="380.315" /> 
<circle cx="87416" cy="99532.6" r="380.315" /> 
<circle cx="85416" cy="99532.6" r="380.315" /> 
<circle cx="86416" cy="99532.6" r="380.315" /> 
<circle cx="73416" cy="98532.6" r="380.315" /> 
<circle cx="73416" cy="99532.6" r="380.315" /> 
<circle cx="71416" cy="98532.6" r="380.315" /> 
<circle cx="72416" cy="98532.6" r="380.315" /> 
<circle cx="74416" cy="99532.6" r="380.315" /> 
<circle cx="72416" cy="97532.6" r="380.315" /> 
<circle cx="71416" cy="97532.6" r="380.315" /> 
<circle cx="71416" cy="96532.6" r="380.315" /> 
<circle cx="72416" cy="96532.6" r="380.315" /> 
<circle cx="71416" cy="93532.6" r="380.315" /> 
<circle cx="72416" cy="93532.6" r="380.315" /> 
<circle cx="71416" cy="94532.6" r="380.315" /> 
<circle cx="71416" cy="95532.6" r="380.315" /> 
<circle cx="72416" cy="94532.6" r="380.315" /> 
<circle cx="72416" cy="95532.6" r="380.315" /> 
<circle cx="74416" cy="93532.6" r="380.315" /> 
<circle cx="73416" cy="93532.6" r="380.315" /> 
<circle cx="73416" cy="95532.6" r="380.315" /> 
<circle cx="74416" cy="95532.6" r="380.315" /> 
<circle cx="73416" cy="94532.6" r="380.315" /> 
<circle cx="74416" cy="94532.6" r="380.315" /> 
<circle cx="85416" cy="95532.6" r="380.315" /> 
<circle cx="84416" cy="95532.6" r="380.315" /> 
<circle cx="84416" cy="94532.6" r="380.315" /> 
<circle cx="85416" cy="94532.6" r="380.315" /> 
<circle cx="83416" cy="94532.6" r="380.315" /> 
<circle cx="82416" cy="95532.6" r="380.315" /> 
<circle cx="82416" cy="94532.6" r="380.315" /> 
<circle cx="83416" cy="95532.6" r="380.315" /> 
<circle cx="79416" cy="93532.6" r="380.315" /> 
<circle cx="79416" cy="95532.6" r="380.315" /> 
<circle cx="79416" cy="94532.6" r="380.315" /> 
<circle cx="84416" cy="92532.6" r="380.315" /> 
<circle cx="85416" cy="93532.6" r="380.315" /> 
<circle cx="83416" cy="93532.6" r="380.315" /> 
<circle cx="85416" cy="92532.6" r="380.315" /> 
<circle cx="83416" cy="92532.6" r="380.315" /> 
<circle cx="84416" cy="93532.6" r="380.315" /> 
<circle cx="82416" cy="92532.6" r="380.315" /> 
<circle cx="81416" cy="93532.6" r="380.315" /> 
<circle cx="81416" cy="94532.6" r="380.315" /> 
<circle cx="81416" cy="95532.6" r="380.315" /> 
<circle cx="82416" cy="93532.6" r="380.315" /> 
<circle cx="69416" cy="93532.6" r="380.315" /> 
<circle cx="68416" cy="92532.6" r="380.315" /> 
<circle cx="67416" cy="93532.6" r="380.315" /> 
<circle cx="68416" cy="94532.6" r="380.315" /> 
<circle cx="67416" cy="92532.6" r="380.315" /> 
<circle cx="68416" cy="93532.6" r="380.315" /> 
<circle cx="68416" cy="95532.6" r="380.315" /> 
<circle cx="67416" cy="94532.6" r="380.315" /> 
<circle cx="67416" cy="95532.6" r="380.315" /> 
<circle cx="69416" cy="94532.6" r="380.315" /> 
<circle cx="69416" cy="95532.6" r="380.315" /> 
<circle cx="65416" cy="98532.6" r="380.315" /> 
<circle cx="65416" cy="97532.6" r="380.315" /> 
<circle cx="66416" cy="99532.6" r="380.315" /> 
<circle cx="66416" cy="98532.6" r="380.315" /> 
<circle cx="65416" cy="99532.6" r="380.315" /> 
<circle cx="69416" cy="96532.6" r="380.315" /> 
<circle cx="67416" cy="96532.6" r="380.315" /> 
<circle cx="68416" cy="97532.6" r="380.315" /> 
<circle cx="68416" cy="96532.6" r="380.315" /> 
<circle cx="69416" cy="97532.6" r="380.315" /> 
<circle cx="67416" cy="97532.6" r="380.315" /> 
<circle cx="67416" cy="99532.6" r="380.315" /> 
<circle cx="67416" cy="98532.6" r="380.315" /> 
<circle cx="68416" cy="99532.6" r="380.315" /> 
<circle cx="68416" cy="98532.6" r="380.315" /> 
<circle cx="69416" cy="98532.6" r="380.315" /> 
<circle cx="63416" cy="92532.6" r="380.315" /> 
<circle cx="62416" cy="93532.6" r="380.315" /> 
<circle cx="62416" cy="94532.6" r="380.315" /> 
<circle cx="63416" cy="94532.6" r="380.315" /> 
<circle cx="63416" cy="93532.6" r="380.315" /> 
<circle cx="64416" cy="94532.6" r="380.315" /> 
<circle cx="65416" cy="95532.6" r="380.315" /> 
<circle cx="66416" cy="96532.6" r="380.315" /> 
<circle cx="66416" cy="95532.6" r="380.315" /> 
<circle cx="65416" cy="96532.6" r="380.315" /> 
<circle cx="66416" cy="97532.6" r="380.315" /> 
<circle cx="63416" cy="97532.6" r="380.315" /> 
<circle cx="62416" cy="97532.6" r="380.315" /> 
<circle cx="62416" cy="96532.6" r="380.315" /> 
<circle cx="62416" cy="95532.6" r="380.315" /> 
<circle cx="64416" cy="98532.6" r="380.315" /> 
<circle cx="64416" cy="99532.6" r="380.315" /> 
<circle cx="63416" cy="99532.6" r="380.315" /> 
<circle cx="62416" cy="98532.6" r="380.315" /> 
<circle cx="63416" cy="98532.6" r="380.315" /> 
<circle cx="63416" cy="96532.6" r="380.315" /> 
<circle cx="64416" cy="96532.6" r="380.315" /> 
<circle cx="64416" cy="95532.6" r="380.315" /> 
<circle cx="63416" cy="95532.6" r="380.315" /> 
<circle cx="64416" cy="97532.6" r="380.315" /> 
<circle cx="64416" cy="92532.6" r="380.315" /> 
<circle cx="66416" cy="93532.6" r="380.315" /> 
<circle cx="65416" cy="93532.6" r="380.315" /> 
<circle cx="66416" cy="92532.6" r="380.315" /> 
<circle cx="65416" cy="92532.6" r="380.315" /> 
<circle cx="66416" cy="94532.6" r="380.315" /> 
<circle cx="65416" cy="94532.6" r="380.315" /> 
<circle cx="64416" cy="93532.6" r="380.315" /> 
<circle cx="74416" cy="92532.6" r="380.315" /> 
<circle cx="75416" cy="92532.6" r="380.315" /> 
<circle cx="76416" cy="92532.6" r="380.315" /> 
<circle cx="75416" cy="93532.6" r="380.315" /> 
<circle cx="73416" cy="92532.6" r="380.315" /> 
<circle cx="76416" cy="93532.6" r="380.315" /> 
<circle cx="76416" cy="94532.6" r="380.315" /> 
<circle cx="78416" cy="95532.6" r="380.315" /> 
<circle cx="77416" cy="95532.6" r="380.315" /> 
<circle cx="77416" cy="96532.6" r="380.315" /> 
<circle cx="78416" cy="96532.6" r="380.315" /> 
<circle cx="76416" cy="95532.6" r="380.315" /> 
<circle cx="74416" cy="97532.6" r="380.315" /> 
<circle cx="74416" cy="98532.6" r="380.315" /> 
<circle cx="73416" cy="97532.6" r="380.315" /> 
<circle cx="73416" cy="96532.6" r="380.315" /> 
<circle cx="74416" cy="96532.6" r="380.315" /> 
<circle cx="75416" cy="97532.6" r="380.315" /> 
<circle cx="76416" cy="97532.6" r="380.315" /> 
<circle cx="75416" cy="99532.6" r="380.315" /> 
<circle cx="77416" cy="99532.6" r="380.315" /> 
<circle cx="76416" cy="98532.6" r="380.315" /> 
<circle cx="76416" cy="99532.6" r="380.315" /> 
<circle cx="75416" cy="98532.6" r="380.315" /> 
<circle cx="75416" cy="94532.6" r="380.315" /> 
<circle cx="75416" cy="95532.6" r="380.315" /> 
<circle cx="76416" cy="96532.6" r="380.315" /> 
<circle cx="75416" cy="96532.6" r="380.315" /> 
<circle cx="77416" cy="93532.6" r="380.315" /> 
<circle cx="77416" cy="92532.6" r="380.315" /> 
<circle cx="78416" cy="93532.6" r="380.315" /> 
<circle cx="78416" cy="94532.6" r="380.315" /> 
<circle cx="77416" cy="94532.6" r="380.315" /> 
<circle cx="107416" cy="96532.6" r="380.315" /> 
<circle cx="107416" cy="98532.6" r="380.315" /> 
<circle cx="107416" cy="97532.6" r="380.315" /> 
<circle cx="106416" cy="99532.6" r="380.315" /> 
<circle cx="106416" cy="92532.6" r="380.315" /> 
<circle cx="107416" cy="93532.6" r="380.315" /> 
<circle cx="105416" cy="92532.6" r="380.315" /> 
<circle cx="106416" cy="98532.6" r="380.315" /> 
<circle cx="105416" cy="97532.6" r="380.315" /> 
<circle cx="106416" cy="97532.6" r="380.315" /> 
<circle cx="105416" cy="98532.6" r="380.315" /> 
<circle cx="105416" cy="99532.6" r="380.315" /> 
<circle cx="103416" cy="92532.6" r="380.315" /> 
<circle cx="104416" cy="93532.6" r="380.315" /> 
<circle cx="104416" cy="92532.6" r="380.315" /> 
<circle cx="103416" cy="94532.6" r="380.315" /> 
<circle cx="103416" cy="95532.6" r="380.315" /> 
<circle cx="103416" cy="93532.6" r="380.315" /> 
<circle cx="104416" cy="95532.6" r="380.315" /> 
<circle cx="104416" cy="94532.6" r="380.315" /> 
<circle cx="106416" cy="93532.6" r="380.315" /> 
<circle cx="105416" cy="93532.6" r="380.315" /> 
<circle cx="107416" cy="94532.6" r="380.315" /> 
<circle cx="105416" cy="94532.6" r="380.315" /> 
<circle cx="106416" cy="94532.6" r="380.315" /> 
<circle cx="107416" cy="95532.6" r="380.315" /> 
<circle cx="106416" cy="96532.6" r="380.315" /> 
<circle cx="106416" cy="95532.6" r="380.315" /> 
<circle cx="105416" cy="95532.6" r="380.315" /> 
<circle cx="104416" cy="96532.6" r="380.315" /> 
<circle cx="105416" cy="96532.6" r="380.315" /> 
<circle cx="90416" cy="98532.6" r="380.315" /> 
<circle cx="90416" cy="97532.6" r="380.315" /> 
<circle cx="91416" cy="97532.6" r="380.315" /> 
<circle cx="91416" cy="98532.6" r="380.315" /> 
<circle cx="92416" cy="98532.6" r="380.315" /> 
<circle cx="92416" cy="99532.6" r="380.315" /> 
<circle cx="94416" cy="98532.6" r="380.315" /> 
<circle cx="93416" cy="99532.6" r="380.315" /> 
<circle cx="94416" cy="99532.6" r="380.315" /> 
<circle cx="93416" cy="97532.6" r="380.315" /> 
<circle cx="93416" cy="98532.6" r="380.315" /> 
<circle cx="94416" cy="97532.6" r="380.315" /> 
<circle cx="93416" cy="92532.6" r="380.315" /> 
<circle cx="94416" cy="92532.6" r="380.315" /> 
<circle cx="94416" cy="93532.6" r="380.315" /> 
<circle cx="92416" cy="94532.6" r="380.315" /> 
<circle cx="94416" cy="94532.6" r="380.315" /> 
<circle cx="93416" cy="94532.6" r="380.315" /> 
<circle cx="92416" cy="93532.6" r="380.315" /> 
<circle cx="93416" cy="93532.6" r="380.315" /> 
<circle cx="90416" cy="96532.6" r="380.315" /> 
<circle cx="91416" cy="96532.6" r="380.315" /> 
<circle cx="90416" cy="95532.6" r="380.315" /> 
<circle cx="92416" cy="96532.6" r="380.315" /> 
<circle cx="91416" cy="95532.6" r="380.315" /> 
<circle cx="92416" cy="97532.6" r="380.315" /> 
<circle cx="92416" cy="95532.6" r="380.315" /> 
<circle cx="94416" cy="96532.6" r="380.315" /> 
<circle cx="93416" cy="95532.6" r="380.315" /> 
<circle cx="93416" cy="96532.6" r="380.315" /> 
<circle cx="94416" cy="95532.6" r="380.315" /> 
<circle cx="92416" cy="92532.6" r="380.315" /> 
<circle cx="91416" cy="94532.6" r="380.315" /> 
<circle cx="91416" cy="93532.6" r="380.315" /> 
<circle cx="90416" cy="94532.6" r="380.315" /> 
<circle cx="90416" cy="93532.6" r="380.315" /> 
<circle cx="104416" cy="99532.6" r="380.315" /> 
<circle cx="104416" cy="98532.6" r="380.315" /> 
<circle cx="101416" cy="99532.6" r="380.315" /> 
<circle cx="103416" cy="98532.6" r="380.315" /> 
<circle cx="104416" cy="97532.6" r="380.315" /> 
<circle cx="103416" cy="99532.6" r="380.315" /> 
<circle cx="102416" cy="99532.6" r="380.315" /> 
<circle cx="102416" cy="97532.6" r="380.315" /> 
<circle cx="101416" cy="98532.6" r="380.315" /> 
<circle cx="103416" cy="97532.6" r="380.315" /> 
<circle cx="103416" cy="96532.6" r="380.315" /> 
<circle cx="102416" cy="96532.6" r="380.315" /> 
<circle cx="101416" cy="96532.6" r="380.315" /> 
<circle cx="101416" cy="97532.6" r="380.315" /> 
<circle cx="102416" cy="98532.6" r="380.315" /> 
<circle cx="100416" cy="98532.6" r="380.315" /> 
<circle cx="98416" cy="98532.6" r="380.315" /> 
<circle cx="97416" cy="98532.6" r="380.315" /> 
<circle cx="95416" cy="99532.6" r="380.315" /> 
<circle cx="95416" cy="98532.6" r="380.315" /> 
<circle cx="96416" cy="99532.6" r="380.315" /> 
<circle cx="96416" cy="98532.6" r="380.315" /> 
<circle cx="98416" cy="97532.6" r="380.315" /> 
<circle cx="100416" cy="97532.6" r="380.315" /> 
<circle cx="100416" cy="96532.6" r="380.315" /> 
<circle cx="100416" cy="95532.6" r="380.315" /> 
<circle cx="98416" cy="96532.6" r="380.315" /> 
<circle cx="96416" cy="97532.6" r="380.315" /> 
<circle cx="97416" cy="97532.6" r="380.315" /> 
<circle cx="95416" cy="97532.6" r="380.315" /> 
<circle cx="95416" cy="96532.6" r="380.315" /> 
<circle cx="96416" cy="95532.6" r="380.315" /> 
<circle cx="97416" cy="95532.6" r="380.315" /> 
<circle cx="96416" cy="96532.6" r="380.315" /> 
<circle cx="97416" cy="96532.6" r="380.315" /> 
<circle cx="95416" cy="95532.6" r="380.315" /> 
<circle cx="95416" cy="92532.6" r="380.315" /> 
<circle cx="96416" cy="92532.6" r="380.315" /> 
<circle cx="95416" cy="93532.6" r="380.315" /> 
<circle cx="98416" cy="95532.6" r="380.315" /> 
<circle cx="98416" cy="93532.6" r="380.315" /> 
<circle cx="98416" cy="94532.6" r="380.315" /> 
<circle cx="101416" cy="92532.6" r="380.315" /> 
<circle cx="102416" cy="93532.6" r="380.315" /> 
<circle cx="101416" cy="95532.6" r="380.315" /> 
<circle cx="101416" cy="94532.6" r="380.315" /> 
<circle cx="102416" cy="94532.6" r="380.315" /> 
<circle cx="102416" cy="92532.6" r="380.315" /> 
<circle cx="101416" cy="93532.6" r="380.315" /> 
<circle cx="102416" cy="95532.6" r="380.315" /> 
<circle cx="97416" cy="93532.6" r="380.315" /> 
<circle cx="97416" cy="94532.6" r="380.315" /> 
<circle cx="96416" cy="93532.6" r="380.315" /> 
<circle cx="95416" cy="94532.6" r="380.315" /> 
<circle cx="96416" cy="94532.6" r="380.315" /> 
<circle cx="100416" cy="93532.6" r="380.315" /> 
<circle cx="100416" cy="94532.6" r="380.315" /> 
<circle cx="88416" cy="94532.6" r="380.315" /> 
<circle cx="88416" cy="93532.6" r="380.315" /> 
<circle cx="86416" cy="92532.6" r="380.315" /> 
<circle cx="87416" cy="93532.6" r="380.315" /> 
<circle cx="86416" cy="94532.6" r="380.315" /> 
<circle cx="87416" cy="92532.6" r="380.315" /> 
<circle cx="86416" cy="93532.6" r="380.315" /> 
<circle cx="87416" cy="94532.6" r="380.315" /> 
<circle cx="88416" cy="96532.6" r="380.315" /> 
<circle cx="88416" cy="97532.6" r="380.315" /> 
<circle cx="86416" cy="95532.6" r="380.315" /> 
<circle cx="87416" cy="95532.6" r="380.315" /> 
<circle cx="88416" cy="95532.6" r="380.315" /> 
<circle cx="88416" cy="98532.6" r="380.315" /> 
<circle cx="73416" cy="73532.6" r="380.315" /> 
<circle cx="74416" cy="73532.6" r="380.315" /> 
<circle cx="84416" cy="73532.6" r="380.315" /> 
<circle cx="85416" cy="73532.6" r="380.315" /> 
<circle cx="83416" cy="73532.6" r="380.315" /> 
<circle cx="82416" cy="73532.6" r="380.315" /> 
<circle cx="68416" cy="73532.6" r="380.315" /> 
<circle cx="67416" cy="73532.6" r="380.315" /> 
<circle cx="63416" cy="73532.6" r="380.315" /> 
<circle cx="64416" cy="73532.6" r="380.315" /> 
<circle cx="66416" cy="73532.6" r="380.315" /> 
<circle cx="65416" cy="73532.6" r="380.315" /> 
<circle cx="75416" cy="73532.6" r="380.315" /> 
<circle cx="76416" cy="73532.6" r="380.315" /> 
<circle cx="77416" cy="73532.6" r="380.315" /> 
<circle cx="103416" cy="73532.6" r="380.315" /> 
<circle cx="104416" cy="73532.6" r="380.315" /> 
<circle cx="106416" cy="73532.6" r="380.315" /> 
<circle cx="105416" cy="73532.6" r="380.315" /> 
<circle cx="93416" cy="73532.6" r="380.315" /> 
<circle cx="94416" cy="73532.6" r="380.315" /> 
<circle cx="92416" cy="73532.6" r="380.315" /> 
<circle cx="101416" cy="73532.6" r="380.315" /> 
<circle cx="102416" cy="73532.6" r="380.315" /> 
<circle cx="95416" cy="73532.6" r="380.315" /> 
<circle cx="96416" cy="73532.6" r="380.315" /> 
<circle cx="86416" cy="73532.6" r="380.315" /> 
<circle cx="87416" cy="73532.6" r="380.315" /> 
<circle cx="107416" cy="76532.6" r="380.315" /> 
<circle cx="107416" cy="77532.6" r="380.315" /> 
<circle cx="107416" cy="75532.6" r="380.315" /> 
<circle cx="107416" cy="74532.6" r="380.315" /> 
<circle cx="107416" cy="78532.6" r="380.315" /> 
<circle cx="107416" cy="79532.6" r="380.315" /> 
<circle cx="103416" cy="74532.6" r="380.315" /> 
<circle cx="104416" cy="75532.6" r="380.315" /> 
<circle cx="103416" cy="76532.6" r="380.315" /> 
<circle cx="103416" cy="75532.6" r="380.315" /> 
<circle cx="104416" cy="74532.6" r="380.315" /> 
<circle cx="105416" cy="74532.6" r="380.315" /> 
<circle cx="106416" cy="74532.6" r="380.315" /> 
<circle cx="104416" cy="76532.6" r="380.315" /> 
<circle cx="106416" cy="76532.6" r="380.315" /> 
<circle cx="106416" cy="75532.6" r="380.315" /> 
<circle cx="105416" cy="75532.6" r="380.315" /> 
<circle cx="105416" cy="76532.6" r="380.315" /> 
<circle cx="106416" cy="78532.6" r="380.315" /> 
<circle cx="105416" cy="78532.6" r="380.315" /> 
<circle cx="106416" cy="77532.6" r="380.315" /> 
<circle cx="104416" cy="77532.6" r="380.315" /> 
<circle cx="105416" cy="77532.6" r="380.315" /> 
<circle cx="100416" cy="79532.6" r="380.315" /> 
<circle cx="102416" cy="78532.6" r="380.315" /> 
<circle cx="101416" cy="76532.6" r="380.315" /> 
<circle cx="102416" cy="76532.6" r="380.315" /> 
<circle cx="102416" cy="77532.6" r="380.315" /> 
<circle cx="100416" cy="78532.6" r="380.315" /> 
<circle cx="101416" cy="77532.6" r="380.315" /> 
<circle cx="100416" cy="77532.6" r="380.315" /> 
<circle cx="101416" cy="78532.6" r="380.315" /> 
<circle cx="100416" cy="76532.6" r="380.315" /> 
<circle cx="102416" cy="79532.6" r="380.315" /> 
<circle cx="102416" cy="80532.6" r="380.315" /> 
<circle cx="101416" cy="79532.6" r="380.315" /> 
<circle cx="101416" cy="80532.6" r="380.315" /> 
<circle cx="103416" cy="79532.6" r="380.315" /> 
<circle cx="103416" cy="78532.6" r="380.315" /> 
<circle cx="103416" cy="77532.6" r="380.315" /> 
<circle cx="104416" cy="78532.6" r="380.315" /> 
<circle cx="106416" cy="80532.6" r="380.315" /> 
<circle cx="106416" cy="79532.6" r="380.315" /> 
<circle cx="103416" cy="80532.6" r="380.315" /> 
<circle cx="104416" cy="80532.6" r="380.315" /> 
<circle cx="105416" cy="79532.6" r="380.315" /> 
<circle cx="105416" cy="80532.6" r="380.315" /> 
<circle cx="104416" cy="79532.6" r="380.315" /> 
<circle cx="98416" cy="76532.6" r="380.315" /> 
<circle cx="98416" cy="77532.6" r="380.315" /> 
<circle cx="98416" cy="74532.6" r="380.315" /> 
<circle cx="98416" cy="75532.6" r="380.315" /> 
<circle cx="98416" cy="79532.6" r="380.315" /> 
<circle cx="98416" cy="78532.6" r="380.315" /> 
<circle cx="100416" cy="75532.6" r="380.315" /> 
<circle cx="100416" cy="74532.6" r="380.315" /> 
<circle cx="102416" cy="75532.6" r="380.315" /> 
<circle cx="101416" cy="74532.6" r="380.315" /> 
<circle cx="101416" cy="75532.6" r="380.315" /> 
<circle cx="102416" cy="74532.6" r="380.315" /> 
<circle cx="94416" cy="74532.6" r="380.315" /> 
<circle cx="95416" cy="75532.6" r="380.315" /> 
<circle cx="94416" cy="76532.6" r="380.315" /> 
<circle cx="94416" cy="75532.6" r="380.315" /> 
<circle cx="95416" cy="74532.6" r="380.315" /> 
<circle cx="96416" cy="74532.6" r="380.315" /> 
<circle cx="97416" cy="74532.6" r="380.315" /> 
<circle cx="95416" cy="76532.6" r="380.315" /> 
<circle cx="97416" cy="76532.6" r="380.315" /> 
<circle cx="97416" cy="75532.6" r="380.315" /> 
<circle cx="96416" cy="75532.6" r="380.315" /> 
<circle cx="96416" cy="76532.6" r="380.315" /> 
<circle cx="97416" cy="78532.6" r="380.315" /> 
<circle cx="96416" cy="78532.6" r="380.315" /> 
<circle cx="97416" cy="77532.6" r="380.315" /> 
<circle cx="95416" cy="77532.6" r="380.315" /> 
<circle cx="96416" cy="77532.6" r="380.315" /> 
<circle cx="91416" cy="79532.6" r="380.315" /> 
<circle cx="90416" cy="79532.6" r="380.315" /> 
<circle cx="93416" cy="78532.6" r="380.315" /> 
<circle cx="92416" cy="76532.6" r="380.315" /> 
<circle cx="93416" cy="76532.6" r="380.315" /> 
<circle cx="93416" cy="77532.6" r="380.315" /> 
<circle cx="90416" cy="78532.6" r="380.315" /> 
<circle cx="90416" cy="77532.6" r="380.315" /> 
<circle cx="90416" cy="76532.6" r="380.315" /> 
<circle cx="91416" cy="78532.6" r="380.315" /> 
<circle cx="92416" cy="77532.6" r="380.315" /> 
<circle cx="91416" cy="77532.6" r="380.315" /> 
<circle cx="92416" cy="78532.6" r="380.315" /> 
<circle cx="91416" cy="76532.6" r="380.315" /> 
<circle cx="93416" cy="79532.6" r="380.315" /> 
<circle cx="93416" cy="80532.6" r="380.315" /> 
<circle cx="92416" cy="79532.6" r="380.315" /> 
<circle cx="92416" cy="80532.6" r="380.315" /> 
<circle cx="94416" cy="79532.6" r="380.315" /> 
<circle cx="94416" cy="78532.6" r="380.315" /> 
<circle cx="94416" cy="77532.6" r="380.315" /> 
<circle cx="95416" cy="78532.6" r="380.315" /> 
<circle cx="97416" cy="79532.6" r="380.315" /> 
<circle cx="94416" cy="80532.6" r="380.315" /> 
<circle cx="95416" cy="80532.6" r="380.315" /> 
<circle cx="96416" cy="79532.6" r="380.315" /> 
<circle cx="96416" cy="80532.6" r="380.315" /> 
<circle cx="95416" cy="79532.6" r="380.315" /> 
<circle cx="90416" cy="75532.6" r="380.315" /> 
<circle cx="90416" cy="74532.6" r="380.315" /> 
<circle cx="91416" cy="75532.6" r="380.315" /> 
<circle cx="91416" cy="74532.6" r="380.315" /> 
<circle cx="93416" cy="75532.6" r="380.315" /> 
<circle cx="92416" cy="74532.6" r="380.315" /> 
<circle cx="92416" cy="75532.6" r="380.315" /> 
<circle cx="93416" cy="74532.6" r="380.315" /> 
<circle cx="85416" cy="74532.6" r="380.315" /> 
<circle cx="86416" cy="75532.6" r="380.315" /> 
<circle cx="85416" cy="76532.6" r="380.315" /> 
<circle cx="85416" cy="75532.6" r="380.315" /> 
<circle cx="86416" cy="74532.6" r="380.315" /> 
<circle cx="87416" cy="74532.6" r="380.315" /> 
<circle cx="88416" cy="74532.6" r="380.315" /> 
<circle cx="86416" cy="76532.6" r="380.315" /> 
<circle cx="88416" cy="76532.6" r="380.315" /> 
<circle cx="88416" cy="75532.6" r="380.315" /> 
<circle cx="87416" cy="75532.6" r="380.315" /> 
<circle cx="87416" cy="76532.6" r="380.315" /> 
<circle cx="88416" cy="78532.6" r="380.315" /> 
<circle cx="87416" cy="78532.6" r="380.315" /> 
<circle cx="88416" cy="77532.6" r="380.315" /> 
<circle cx="86416" cy="77532.6" r="380.315" /> 
<circle cx="87416" cy="77532.6" r="380.315" /> 
<circle cx="82416" cy="80532.6" r="380.315" /> 
<circle cx="82416" cy="79532.6" r="380.315" /> 
<circle cx="81416" cy="79532.6" r="380.315" /> 
<circle cx="84416" cy="78532.6" r="380.315" /> 
<circle cx="83416" cy="76532.6" r="380.315" /> 
<circle cx="84416" cy="76532.6" r="380.315" /> 
<circle cx="84416" cy="77532.6" r="380.315" /> 
<circle cx="81416" cy="78532.6" r="380.315" /> 
<circle cx="81416" cy="77532.6" r="380.315" /> 
<circle cx="81416" cy="76532.6" r="380.315" /> 
<circle cx="82416" cy="78532.6" r="380.315" /> 
<circle cx="83416" cy="77532.6" r="380.315" /> 
<circle cx="82416" cy="77532.6" r="380.315" /> 
<circle cx="83416" cy="78532.6" r="380.315" /> 
<circle cx="82416" cy="76532.6" r="380.315" /> 
<circle cx="84416" cy="79532.6" r="380.315" /> 
<circle cx="84416" cy="80532.6" r="380.315" /> 
<circle cx="83416" cy="79532.6" r="380.315" /> 
<circle cx="83416" cy="80532.6" r="380.315" /> 
<circle cx="85416" cy="79532.6" r="380.315" /> 
<circle cx="85416" cy="78532.6" r="380.315" /> 
<circle cx="85416" cy="77532.6" r="380.315" /> 
<circle cx="86416" cy="78532.6" r="380.315" /> 
<circle cx="88416" cy="79532.6" r="380.315" /> 
<circle cx="85416" cy="80532.6" r="380.315" /> 
<circle cx="86416" cy="80532.6" r="380.315" /> 
<circle cx="87416" cy="79532.6" r="380.315" /> 
<circle cx="87416" cy="80532.6" r="380.315" /> 
<circle cx="86416" cy="79532.6" r="380.315" /> 
<circle cx="81416" cy="75532.6" r="380.315" /> 
<circle cx="81416" cy="74532.6" r="380.315" /> 
<circle cx="82416" cy="75532.6" r="380.315" /> 
<circle cx="82416" cy="74532.6" r="380.315" /> 
<circle cx="84416" cy="75532.6" r="380.315" /> 
<circle cx="83416" cy="74532.6" r="380.315" /> 
<circle cx="83416" cy="75532.6" r="380.315" /> 
<circle cx="84416" cy="74532.6" r="380.315" /> 
<circle cx="76416" cy="74532.6" r="380.315" /> 
<circle cx="77416" cy="75532.6" r="380.315" /> 
<circle cx="76416" cy="76532.6" r="380.315" /> 
<circle cx="76416" cy="75532.6" r="380.315" /> 
<circle cx="77416" cy="74532.6" r="380.315" /> 
<circle cx="78416" cy="74532.6" r="380.315" /> 
<circle cx="79416" cy="74532.6" r="380.315" /> 
<circle cx="77416" cy="76532.6" r="380.315" /> 
<circle cx="79416" cy="76532.6" r="380.315" /> 
<circle cx="79416" cy="75532.6" r="380.315" /> 
<circle cx="78416" cy="75532.6" r="380.315" /> 
<circle cx="78416" cy="76532.6" r="380.315" /> 
<circle cx="79416" cy="78532.6" r="380.315" /> 
<circle cx="78416" cy="78532.6" r="380.315" /> 
<circle cx="79416" cy="77532.6" r="380.315" /> 
<circle cx="77416" cy="77532.6" r="380.315" /> 
<circle cx="78416" cy="77532.6" r="380.315" /> 
<circle cx="73416" cy="80532.6" r="380.315" /> 
<circle cx="73416" cy="79532.6" r="380.315" /> 
<circle cx="72416" cy="79532.6" r="380.315" /> 
<circle cx="75416" cy="78532.6" r="380.315" /> 
<circle cx="74416" cy="76532.6" r="380.315" /> 
<circle cx="75416" cy="76532.6" r="380.315" /> 
<circle cx="75416" cy="77532.6" r="380.315" /> 
<circle cx="72416" cy="78532.6" r="380.315" /> 
<circle cx="72416" cy="77532.6" r="380.315" /> 
<circle cx="72416" cy="76532.6" r="380.315" /> 
<circle cx="73416" cy="78532.6" r="380.315" /> 
<circle cx="74416" cy="77532.6" r="380.315" /> 
<circle cx="73416" cy="77532.6" r="380.315" /> 
<circle cx="74416" cy="78532.6" r="380.315" /> 
<circle cx="73416" cy="76532.6" r="380.315" /> 
<circle cx="75416" cy="79532.6" r="380.315" /> 
<circle cx="75416" cy="80532.6" r="380.315" /> 
<circle cx="74416" cy="79532.6" r="380.315" /> 
<circle cx="74416" cy="80532.6" r="380.315" /> 
<circle cx="76416" cy="79532.6" r="380.315" /> 
<circle cx="76416" cy="78532.6" r="380.315" /> 
<circle cx="76416" cy="77532.6" r="380.315" /> 
<circle cx="77416" cy="78532.6" r="380.315" /> 
<circle cx="79416" cy="79532.6" r="380.315" /> 
<circle cx="76416" cy="80532.6" r="380.315" /> 
<circle cx="77416" cy="80532.6" r="380.315" /> 
<circle cx="78416" cy="79532.6" r="380.315" /> 
<circle cx="77416" cy="79532.6" r="380.315" /> 
<circle cx="71416" cy="76532.6" r="380.315" /> 
<circle cx="71416" cy="77532.6" r="380.315" /> 
<circle cx="72416" cy="75532.6" r="380.315" /> 
<circle cx="71416" cy="74532.6" r="380.315" /> 
<circle cx="71416" cy="75532.6" r="380.315" /> 
<circle cx="72416" cy="74532.6" r="380.315" /> 
<circle cx="71416" cy="79532.6" r="380.315" /> 
<circle cx="71416" cy="78532.6" r="380.315" /> 
<circle cx="73416" cy="75532.6" r="380.315" /> 
<circle cx="73416" cy="74532.6" r="380.315" /> 
<circle cx="75416" cy="75532.6" r="380.315" /> 
<circle cx="74416" cy="74532.6" r="380.315" /> 
<circle cx="74416" cy="75532.6" r="380.315" /> 
<circle cx="75416" cy="74532.6" r="380.315" /> 
<circle cx="67416" cy="74532.6" r="380.315" /> 
<circle cx="68416" cy="75532.6" r="380.315" /> 
<circle cx="67416" cy="76532.6" r="380.315" /> 
<circle cx="67416" cy="75532.6" r="380.315" /> 
<circle cx="68416" cy="74532.6" r="380.315" /> 
<circle cx="69416" cy="74532.6" r="380.315" /> 
<circle cx="68416" cy="76532.6" r="380.315" /> 
<circle cx="69416" cy="75532.6" r="380.315" /> 
<circle cx="69416" cy="76532.6" r="380.315" /> 
<circle cx="69416" cy="78532.6" r="380.315" /> 
<circle cx="68416" cy="77532.6" r="380.315" /> 
<circle cx="69416" cy="77532.6" r="380.315" /> 
<circle cx="63416" cy="80532.6" r="380.315" /> 
<circle cx="64416" cy="80532.6" r="380.315" /> 
<circle cx="64416" cy="79532.6" r="380.315" /> 
<circle cx="63416" cy="79532.6" r="380.315" /> 
<circle cx="66416" cy="78532.6" r="380.315" /> 
<circle cx="65416" cy="76532.6" r="380.315" /> 
<circle cx="66416" cy="76532.6" r="380.315" /> 
<circle cx="66416" cy="77532.6" r="380.315" /> 
<circle cx="63416" cy="78532.6" r="380.315" /> 
<circle cx="63416" cy="77532.6" r="380.315" /> 
<circle cx="63416" cy="76532.6" r="380.315" /> 
<circle cx="64416" cy="78532.6" r="380.315" /> 
<circle cx="65416" cy="77532.6" r="380.315" /> 
<circle cx="64416" cy="77532.6" r="380.315" /> 
<circle cx="65416" cy="78532.6" r="380.315" /> 
<circle cx="64416" cy="76532.6" r="380.315" /> 
<circle cx="66416" cy="79532.6" r="380.315" /> 
<circle cx="66416" cy="80532.6" r="380.315" /> 
<circle cx="65416" cy="79532.6" r="380.315" /> 
<circle cx="65416" cy="80532.6" r="380.315" /> 
<circle cx="67416" cy="79532.6" r="380.315" /> 
<circle cx="67416" cy="78532.6" r="380.315" /> 
<circle cx="67416" cy="77532.6" r="380.315" /> 
<circle cx="68416" cy="78532.6" r="380.315" /> 
<circle cx="67416" cy="80532.6" r="380.315" /> 
<circle cx="68416" cy="80532.6" r="380.315" /> 
<circle cx="69416" cy="79532.6" r="380.315" /> 
<circle cx="68416" cy="79532.6" r="380.315" /> 
<circle cx="62416" cy="76532.6" r="380.315" /> 
<circle cx="62416" cy="77532.6" r="380.315" /> 
<circle cx="63416" cy="75532.6" r="380.315" /> 
<circle cx="62416" cy="74532.6" r="380.315" /> 
<circle cx="62416" cy="75532.6" r="380.315" /> 
<circle cx="63416" cy="74532.6" r="380.315" /> 
<circle cx="62416" cy="79532.6" r="380.315" /> 
<circle cx="62416" cy="78532.6" r="380.315" /> 
<circle cx="64416" cy="75532.6" r="380.315" /> 
<circle cx="64416" cy="74532.6" r="380.315" /> 
<circle cx="66416" cy="75532.6" r="380.315" /> 
<circle cx="65416" cy="74532.6" r="380.315" /> 
<circle cx="65416" cy="75532.6" r="380.315" /> 
<circle cx="66416" cy="74532.6" r="380.315" /> 
<circle cx="82416" cy="90532.6" r="380.315" /> 
<circle cx="84416" cy="90532.6" r="380.315" /> 
<circle cx="85416" cy="90532.6" r="380.315" /> 
<circle cx="83416" cy="90532.6" r="380.315" /> 
<circle cx="86416" cy="90532.6" r="380.315" /> 
<circle cx="87416" cy="90532.6" r="380.315" /> 
<circle cx="74416" cy="90532.6" r="380.315" /> 
<circle cx="73416" cy="90532.6" r="380.315" /> 
<circle cx="77416" cy="90532.6" r="380.315" /> 
<circle cx="76416" cy="90532.6" r="380.315" /> 
<circle cx="75416" cy="90532.6" r="380.315" /> 
<circle cx="92416" cy="82532.6" r="380.315" /> 
<circle cx="93416" cy="82532.6" r="380.315" /> 
<circle cx="96416" cy="82532.6" r="380.315" /> 
<circle cx="95416" cy="82532.6" r="380.315" /> 
<circle cx="94416" cy="82532.6" r="380.315" /> 
<circle cx="101416" cy="82532.6" r="380.315" /> 
<circle cx="102416" cy="82532.6" r="380.315" /> 
<circle cx="106416" cy="82532.6" r="380.315" /> 
<circle cx="105416" cy="82532.6" r="380.315" /> 
<circle cx="104416" cy="82532.6" r="380.315" /> 
<circle cx="103416" cy="82532.6" r="380.315" /> 
<circle cx="82416" cy="82532.6" r="380.315" /> 
<circle cx="84416" cy="82532.6" r="380.315" /> 
<circle cx="83416" cy="82532.6" r="380.315" /> 
<circle cx="86416" cy="82532.6" r="380.315" /> 
<circle cx="85416" cy="82532.6" r="380.315" /> 
<circle cx="87416" cy="82532.6" r="380.315" /> 
<circle cx="75416" cy="82532.6" r="380.315" /> 
<circle cx="76416" cy="82532.6" r="380.315" /> 
<circle cx="77416" cy="82532.6" r="380.315" /> 
<circle cx="73416" cy="82532.6" r="380.315" /> 
<circle cx="74416" cy="82532.6" r="380.315" /> 
<circle cx="63416" cy="82532.6" r="380.315" /> 
<circle cx="65416" cy="82532.6" r="380.315" /> 
<circle cx="66416" cy="82532.6" r="380.315" /> 
<circle cx="64416" cy="82532.6" r="380.315" /> 
<circle cx="68416" cy="82532.6" r="380.315" /> 
<circle cx="67416" cy="82532.6" r="380.315" /> 
<circle cx="107416" cy="84532.6" r="380.315" /> 
<circle cx="107416" cy="85532.6" r="380.315" /> 
<circle cx="107416" cy="86532.6" r="380.315" /> 
<circle cx="107416" cy="88532.6" r="380.315" /> 
<circle cx="107416" cy="87532.6" r="380.315" /> 
<circle cx="107416" cy="89532.6" r="380.315" /> 
<circle cx="107416" cy="83532.6" r="380.315" /> 
<circle cx="63416" cy="90532.6" r="380.315" /> 
<circle cx="67416" cy="90532.6" r="380.315" /> 
<circle cx="68416" cy="90532.6" r="380.315" /> 
<circle cx="64416" cy="90532.6" r="380.315" /> 
<circle cx="65416" cy="90532.6" r="380.315" /> 
<circle cx="66416" cy="90532.6" r="380.315" /> 
<circle cx="105416" cy="85532.6" r="380.315" /> 
<circle cx="106416" cy="83532.6" r="380.315" /> 
<circle cx="106416" cy="84532.6" r="380.315" /> 
<circle cx="105416" cy="84532.6" r="380.315" /> 
<circle cx="105416" cy="83532.6" r="380.315" /> 
<circle cx="104416" cy="84532.6" r="380.315" /> 
<circle cx="106416" cy="85532.6" r="380.315" /> 
<circle cx="102416" cy="83532.6" r="380.315" /> 
<circle cx="102416" cy="84532.6" r="380.315" /> 
<circle cx="103416" cy="84532.6" r="380.315" /> 
<circle cx="104416" cy="83532.6" r="380.315" /> 
<circle cx="103416" cy="85532.6" r="380.315" /> 
<circle cx="102416" cy="85532.6" r="380.315" /> 
<circle cx="103416" cy="83532.6" r="380.315" /> 
<circle cx="104416" cy="85532.6" r="380.315" /> 
<circle cx="101416" cy="83532.6" r="380.315" /> 
<circle cx="101416" cy="84532.6" r="380.315" /> 
<circle cx="100416" cy="83532.6" r="380.315" /> 
<circle cx="100416" cy="84532.6" r="380.315" /> 
<circle cx="100416" cy="85532.6" r="380.315" /> 
<circle cx="101416" cy="85532.6" r="380.315" /> 
<circle cx="99416" cy="87532.6" r="380.315" /> 
<circle cx="99416" cy="86532.6" r="380.315" /> 
<circle cx="98416" cy="86532.6" r="380.315" /> 
<circle cx="97416" cy="87532.6" r="380.315" /> 
<circle cx="98416" cy="87532.6" r="380.315" /> 
<circle cx="97416" cy="86532.6" r="380.315" /> 
<circle cx="99416" cy="88532.6" r="380.315" /> 
<circle cx="98416" cy="89532.6" r="380.315" /> 
<circle cx="96416" cy="88532.6" r="380.315" /> 
<circle cx="97416" cy="89532.6" r="380.315" /> 
<circle cx="98416" cy="88532.6" r="380.315" /> 
<circle cx="97416" cy="88532.6" r="380.315" /> 
<circle cx="99416" cy="89532.6" r="380.315" /> 
<circle cx="96416" cy="89532.6" r="380.315" /> 
<circle cx="104416" cy="88532.6" r="380.315" /> 
<circle cx="103416" cy="87532.6" r="380.315" /> 
<circle cx="103416" cy="88532.6" r="380.315" /> 
<circle cx="102416" cy="88532.6" r="380.315" /> 
<circle cx="104416" cy="87532.6" r="380.315" /> 
<circle cx="101416" cy="89532.6" r="380.315" /> 
<circle cx="101416" cy="87532.6" r="380.315" /> 
<circle cx="101416" cy="86532.6" r="380.315" /> 
<circle cx="100416" cy="86532.6" r="380.315" /> 
<circle cx="101416" cy="88532.6" r="380.315" /> 
<circle cx="100416" cy="88532.6" r="380.315" /> 
<circle cx="102416" cy="89532.6" r="380.315" /> 
<circle cx="100416" cy="87532.6" r="380.315" /> 
<circle cx="104416" cy="86532.6" r="380.315" /> 
<circle cx="102416" cy="87532.6" r="380.315" /> 
<circle cx="103416" cy="86532.6" r="380.315" /> 
<circle cx="102416" cy="86532.6" r="380.315" /> 
<circle cx="106416" cy="88532.6" r="380.315" /> 
<circle cx="106416" cy="87532.6" r="380.315" /> 
<circle cx="105416" cy="88532.6" r="380.315" /> 
<circle cx="105416" cy="87532.6" r="380.315" /> 
<circle cx="106416" cy="86532.6" r="380.315" /> 
<circle cx="105416" cy="86532.6" r="380.315" /> 
<circle cx="104416" cy="89532.6" r="380.315" /> 
<circle cx="106416" cy="89532.6" r="380.315" /> 
<circle cx="105416" cy="89532.6" r="380.315" /> 
<circle cx="103416" cy="89532.6" r="380.315" /> 
<circle cx="100416" cy="89532.6" r="380.315" /> 
<circle cx="98416" cy="84532.6" r="380.315" /> 
<circle cx="96416" cy="86532.6" r="380.315" /> 
<circle cx="95416" cy="86532.6" r="380.315" /> 
<circle cx="96416" cy="85532.6" r="380.315" /> 
<circle cx="97416" cy="85532.6" r="380.315" /> 
<circle cx="95416" cy="84532.6" r="380.315" /> 
<circle cx="95416" cy="83532.6" r="380.315" /> 
<circle cx="94416" cy="83532.6" r="380.315" /> 
<circle cx="95416" cy="87532.6" r="380.315" /> 
<circle cx="95416" cy="88532.6" r="380.315" /> 
<circle cx="96416" cy="87532.6" r="380.315" /> 
<circle cx="94416" cy="87532.6" r="380.315" /> 
<circle cx="95416" cy="89532.6" r="380.315" /> 
<circle cx="94416" cy="88532.6" r="380.315" /> 
<circle cx="93416" cy="85532.6" r="380.315" /> 
<circle cx="92416" cy="83532.6" r="380.315" /> 
<circle cx="92416" cy="84532.6" r="380.315" /> 
<circle cx="92416" cy="85532.6" r="380.315" /> 
<circle cx="93416" cy="84532.6" r="380.315" /> 
<circle cx="92416" cy="86532.6" r="380.315" /> 
<circle cx="92416" cy="87532.6" r="380.315" /> 
<circle cx="93416" cy="87532.6" r="380.315" /> 
<circle cx="93416" cy="86532.6" r="380.315" /> 
<circle cx="94416" cy="86532.6" r="380.315" /> 
<circle cx="92416" cy="89532.6" r="380.315" /> 
<circle cx="92416" cy="88532.6" r="380.315" /> 
<circle cx="94416" cy="89532.6" r="380.315" /> 
<circle cx="93416" cy="89532.6" r="380.315" /> 
<circle cx="93416" cy="88532.6" r="380.315" /> 
<circle cx="99416" cy="83532.6" r="380.315" /> 
<circle cx="98416" cy="83532.6" r="380.315" /> 
<circle cx="99416" cy="84532.6" r="380.315" /> 
<circle cx="98416" cy="85532.6" r="380.315" /> 
<circle cx="99416" cy="85532.6" r="380.315" /> 
<circle cx="97416" cy="83532.6" r="380.315" /> 
<circle cx="96416" cy="84532.6" r="380.315" /> 
<circle cx="95416" cy="85532.6" r="380.315" /> 
<circle cx="97416" cy="84532.6" r="380.315" /> 
<circle cx="96416" cy="83532.6" r="380.315" /> 
<circle cx="94416" cy="84532.6" r="380.315" /> 
<circle cx="94416" cy="85532.6" r="380.315" /> 
<circle cx="93416" cy="83532.6" r="380.315" /> 
<circle cx="88416" cy="87532.6" r="380.315" /> 
<circle cx="88416" cy="86532.6" r="380.315" /> 
<circle cx="87416" cy="86532.6" r="380.315" /> 
<circle cx="87416" cy="87532.6" r="380.315" /> 
<circle cx="86416" cy="86532.6" r="380.315" /> 
<circle cx="87416" cy="88532.6" r="380.315" /> 
<circle cx="88416" cy="89532.6" r="380.315" /> 
<circle cx="86416" cy="88532.6" r="380.315" /> 
<circle cx="88416" cy="88532.6" r="380.315" /> 
<circle cx="87416" cy="89532.6" r="380.315" /> 
<circle cx="86416" cy="89532.6" r="380.315" /> 
<circle cx="85416" cy="88532.6" r="380.315" /> 
<circle cx="85416" cy="89532.6" r="380.315" /> 
<circle cx="86416" cy="83532.6" r="380.315" /> 
<circle cx="87416" cy="83532.6" r="380.315" /> 
<circle cx="88416" cy="85532.6" r="380.315" /> 
<circle cx="88416" cy="84532.6" r="380.315" /> 
<circle cx="87416" cy="85532.6" r="380.315" /> 
<circle cx="86416" cy="84532.6" r="380.315" /> 
<circle cx="87416" cy="84532.6" r="380.315" /> 
<circle cx="88416" cy="83532.6" r="380.315" /> 
<circle cx="84416" cy="83532.6" r="380.315" /> 
<circle cx="84416" cy="85532.6" r="380.315" /> 
<circle cx="83416" cy="85532.6" r="380.315" /> 
<circle cx="85416" cy="83532.6" r="380.315" /> 
<circle cx="85416" cy="84532.6" r="380.315" /> 
<circle cx="84416" cy="84532.6" r="380.315" /> 
<circle cx="83416" cy="83532.6" r="380.315" /> 
<circle cx="83416" cy="84532.6" r="380.315" /> 
<circle cx="84416" cy="87532.6" r="380.315" /> 
<circle cx="84416" cy="86532.6" r="380.315" /> 
<circle cx="83416" cy="86532.6" r="380.315" /> 
<circle cx="84416" cy="88532.6" r="380.315" /> 
<circle cx="84416" cy="89532.6" r="380.315" /> 
<circle cx="83416" cy="88532.6" r="380.315" /> 
<circle cx="83416" cy="89532.6" r="380.315" /> 
<circle cx="83416" cy="87532.6" r="380.315" /> 
<circle cx="85416" cy="87532.6" r="380.315" /> 
<circle cx="86416" cy="85532.6" r="380.315" /> 
<circle cx="85416" cy="86532.6" r="380.315" /> 
<circle cx="86416" cy="87532.6" r="380.315" /> 
<circle cx="85416" cy="85532.6" r="380.315" /> 
<circle cx="80416" cy="87532.6" r="380.315" /> 
<circle cx="81416" cy="86532.6" r="380.315" /> 
<circle cx="81416" cy="87532.6" r="380.315" /> 
<circle cx="82416" cy="86532.6" r="380.315" /> 
<circle cx="82416" cy="87532.6" r="380.315" /> 
<circle cx="80416" cy="86532.6" r="380.315" /> 
<circle cx="81416" cy="85532.6" r="380.315" /> 
<circle cx="80416" cy="85532.6" r="380.315" /> 
<circle cx="82416" cy="85532.6" r="380.315" /> 
<circle cx="80416" cy="84532.6" r="380.315" /> 
<circle cx="82416" cy="88532.6" r="380.315" /> 
<circle cx="81416" cy="88532.6" r="380.315" /> 
<circle cx="80416" cy="89532.6" r="380.315" /> 
<circle cx="80416" cy="88532.6" r="380.315" /> 
<circle cx="82416" cy="89532.6" r="380.315" /> 
<circle cx="81416" cy="89532.6" r="380.315" /> 
<circle cx="81416" cy="83532.6" r="380.315" /> 
<circle cx="82416" cy="83532.6" r="380.315" /> 
<circle cx="80416" cy="83532.6" r="380.315" /> 
<circle cx="82416" cy="84532.6" r="380.315" /> 
<circle cx="81416" cy="84532.6" r="380.315" /> 
<circle cx="76416" cy="87532.6" r="380.315" /> 
<circle cx="76416" cy="89532.6" r="380.315" /> 
<circle cx="77416" cy="89532.6" r="380.315" /> 
<circle cx="77416" cy="88532.6" r="380.315" /> 
<circle cx="76416" cy="88532.6" r="380.315" /> 
<circle cx="79416" cy="87532.6" r="380.315" /> 
<circle cx="78416" cy="86532.6" r="380.315" /> 
<circle cx="77416" cy="86532.6" r="380.315" /> 
<circle cx="77416" cy="87532.6" r="380.315" /> 
<circle cx="78416" cy="87532.6" r="380.315" /> 
<circle cx="77416" cy="83532.6" r="380.315" /> 
<circle cx="76416" cy="83532.6" r="380.315" /> 
<circle cx="76416" cy="86532.6" r="380.315" /> 
<circle cx="76416" cy="84532.6" r="380.315" /> 
<circle cx="76416" cy="85532.6" r="380.315" /> 
<circle cx="79416" cy="88532.6" r="380.315" /> 
<circle cx="79416" cy="89532.6" r="380.315" /> 
<circle cx="78416" cy="89532.6" r="380.315" /> 
<circle cx="78416" cy="88532.6" r="380.315" /> 
<circle cx="78416" cy="85532.6" r="380.315" /> 
<circle cx="77416" cy="85532.6" r="380.315" /> 
<circle cx="78416" cy="84532.6" r="380.315" /> 
<circle cx="77416" cy="84532.6" r="380.315" /> 
<circle cx="79416" cy="83532.6" r="380.315" /> 
<circle cx="79416" cy="86532.6" r="380.315" /> 
<circle cx="79416" cy="84532.6" r="380.315" /> 
<circle cx="79416" cy="85532.6" r="380.315" /> 
<circle cx="78416" cy="83532.6" r="380.315" /> 
<circle cx="89416" cy="89532.6" r="380.315" /> 
<circle cx="91416" cy="89532.6" r="380.315" /> 
<circle cx="90416" cy="89532.6" r="380.315" /> 
<circle cx="91416" cy="88532.6" r="380.315" /> 
<circle cx="90416" cy="85532.6" r="380.315" /> 
<circle cx="89416" cy="86532.6" r="380.315" /> 
<circle cx="90416" cy="86532.6" r="380.315" /> 
<circle cx="91416" cy="85532.6" r="380.315" /> 
<circle cx="91416" cy="86532.6" r="380.315" /> 
<circle cx="89416" cy="85532.6" r="380.315" /> 
<circle cx="91416" cy="87532.6" r="380.315" /> 
<circle cx="90416" cy="88532.6" r="380.315" /> 
<circle cx="90416" cy="87532.6" r="380.315" /> 
<circle cx="89416" cy="88532.6" r="380.315" /> 
<circle cx="89416" cy="87532.6" r="380.315" /> 
<circle cx="90416" cy="84532.6" r="380.315" /> 
<circle cx="89416" cy="83532.6" r="380.315" /> 
<circle cx="91416" cy="84532.6" r="380.315" /> 
<circle cx="91416" cy="83532.6" r="380.315" /> 
<circle cx="90416" cy="83532.6" r="380.315" /> 
<circle cx="89416" cy="84532.6" r="380.315" /> 
<circle cx="69416" cy="83532.6" r="380.315" /> 
<circle cx="70416" cy="83532.6" r="380.315" /> 
<circle cx="70416" cy="84532.6" r="380.315" /> 
<circle cx="68416" cy="83532.6" r="380.315" /> 
<circle cx="68416" cy="84532.6" r="380.315" /> 
<circle cx="69416" cy="84532.6" r="380.315" /> 
<circle cx="71416" cy="88532.6" r="380.315" /> 
<circle cx="71416" cy="87532.6" r="380.315" /> 
<circle cx="71416" cy="89532.6" r="380.315" /> 
<circle cx="70416" cy="88532.6" r="380.315" /> 
<circle cx="70416" cy="89532.6" r="380.315" /> 
<circle cx="68416" cy="87532.6" r="380.315" /> 
<circle cx="68416" cy="86532.6" r="380.315" /> 
<circle cx="70416" cy="86532.6" r="380.315" /> 
<circle cx="69416" cy="86532.6" r="380.315" /> 
<circle cx="69416" cy="87532.6" r="380.315" /> 
<circle cx="70416" cy="87532.6" r="380.315" /> 
<circle cx="68416" cy="88532.6" r="380.315" /> 
<circle cx="68416" cy="89532.6" r="380.315" /> 
<circle cx="69416" cy="88532.6" r="380.315" /> 
<circle cx="69416" cy="89532.6" r="380.315" /> 
<circle cx="71416" cy="85532.6" r="380.315" /> 
<circle cx="69416" cy="85532.6" r="380.315" /> 
<circle cx="70416" cy="85532.6" r="380.315" /> 
<circle cx="68416" cy="85532.6" r="380.315" /> 
<circle cx="71416" cy="84532.6" r="380.315" /> 
<circle cx="73416" cy="88532.6" r="380.315" /> 
<circle cx="72416" cy="89532.6" r="380.315" /> 
<circle cx="72416" cy="88532.6" r="380.315" /> 
<circle cx="73416" cy="89532.6" r="380.315" /> 
<circle cx="74416" cy="89532.6" r="380.315" /> 
<circle cx="74416" cy="84532.6" r="380.315" /> 
<circle cx="74416" cy="85532.6" r="380.315" /> 
<circle cx="74416" cy="86532.6" r="380.315" /> 
<circle cx="75416" cy="85532.6" r="380.315" /> 
<circle cx="75416" cy="86532.6" r="380.315" /> 
<circle cx="75416" cy="84532.6" r="380.315" /> 
<circle cx="75416" cy="83532.6" r="380.315" /> 
<circle cx="74416" cy="83532.6" r="380.315" /> 
<circle cx="72416" cy="83532.6" r="380.315" /> 
<circle cx="72416" cy="84532.6" r="380.315" /> 
<circle cx="73416" cy="85532.6" r="380.315" /> 
<circle cx="73416" cy="84532.6" r="380.315" /> 
<circle cx="72416" cy="85532.6" r="380.315" /> 
<circle cx="73416" cy="83532.6" r="380.315" /> 
<circle cx="71416" cy="83532.6" r="380.315" /> 
<circle cx="72416" cy="87532.6" r="380.315" /> 
<circle cx="72416" cy="86532.6" r="380.315" /> 
<circle cx="73416" cy="86532.6" r="380.315" /> 
<circle cx="73416" cy="87532.6" r="380.315" /> 
<circle cx="71416" cy="86532.6" r="380.315" /> 
<circle cx="75416" cy="87532.6" r="380.315" /> 
<circle cx="74416" cy="88532.6" r="380.315" /> 
<circle cx="75416" cy="89532.6" r="380.315" /> 
<circle cx="74416" cy="87532.6" r="380.315" /> 
<circle cx="75416" cy="88532.6" r="380.315" /> 
<circle cx="66416" cy="84532.6" r="380.315" /> 
<circle cx="66416" cy="83532.6" r="380.315" /> 
<circle cx="66416" cy="85532.6" r="380.315" /> 
<circle cx="66416" cy="86532.6" r="380.315" /> 
<circle cx="67416" cy="85532.6" r="380.315" /> 
<circle cx="67416" cy="86532.6" r="380.315" /> 
<circle cx="67416" cy="84532.6" r="380.315" /> 
<circle cx="64416" cy="83532.6" r="380.315" /> 
<circle cx="67416" cy="87532.6" r="380.315" /> 
<circle cx="65416" cy="83532.6" r="380.315" /> 
<circle cx="67416" cy="83532.6" r="380.315" /> 
<circle cx="67416" cy="88532.6" r="380.315" /> 
<circle cx="67416" cy="89532.6" r="380.315" /> 
<circle cx="66416" cy="89532.6" r="380.315" /> 
<circle cx="66416" cy="88532.6" r="380.315" /> 
<circle cx="64416" cy="88532.6" r="380.315" /> 
<circle cx="65416" cy="88532.6" r="380.315" /> 
<circle cx="64416" cy="89532.6" r="380.315" /> 
<circle cx="65416" cy="89532.6" r="380.315" /> 
<circle cx="64416" cy="85532.6" r="380.315" /> 
<circle cx="64416" cy="84532.6" r="380.315" /> 
<circle cx="65416" cy="84532.6" r="380.315" /> 
<circle cx="65416" cy="85532.6" r="380.315" /> 
<circle cx="66416" cy="87532.6" r="380.315" /> 
<circle cx="64416" cy="86532.6" r="380.315" /> 
<circle cx="65416" cy="86532.6" r="380.315" /> 
<circle cx="65416" cy="87532.6" r="380.315" /> 
<circle cx="64416" cy="87532.6" r="380.315" /> 
<circle cx="63416" cy="85532.6" r="380.315" /> 
<circle cx="62416" cy="84532.6" r="380.315" /> 
<circle cx="62416" cy="83532.6" r="380.315" /> 
<circle cx="63416" cy="84532.6" r="380.315" /> 
<circle cx="63416" cy="83532.6" r="380.315" /> 
<circle cx="62416" cy="85532.6" r="380.315" /> 
<circle cx="63416" cy="89532.6" r="380.315" /> 
<circle cx="62416" cy="88532.6" r="380.315" /> 
<circle cx="62416" cy="87532.6" r="380.315" /> 
<circle cx="62416" cy="86532.6" r="380.315" /> 
<circle cx="63416" cy="86532.6" r="380.315" /> 
<circle cx="63416" cy="88532.6" r="380.315" /> 
<circle cx="63416" cy="87532.6" r="380.315" /> 
<circle cx="62416" cy="89532.6" r="380.315" /> 
<circle cx="43416" cy="96582.6" r="374.016" /> 
<circle cx="44416" cy="96582.6" r="374.016" /> 
<circle cx="45416" cy="96582.6" r="374.016" /> 
<circle cx="46416" cy="96582.6" r="374.016" /> 
<circle cx="47416" cy="96582.6" r="374.016" /> 
<circle cx="48416" cy="96582.6" r="374.016" /> 
<circle cx="49416" cy="96582.6" r="374.016" /> 
<circle cx="50416" cy="96582.6" r="374.016" /> 
<circle cx="52416" cy="96582.6" r="374.016" /> 
<circle cx="53416" cy="96582.6" r="374.016" /> 
<circle cx="54416" cy="96582.6" r="374.016" /> 
<circle cx="55416" cy="96582.6" r="374.016" /> 
<circle cx="56416" cy="96582.6" r="374.016" /> 
<circle cx="57416" cy="96582.6" r="374.016" /> 
<circle cx="40076" cy="77582.6" r="374.016" /> 
<circle cx="41076" cy="77582.6" r="374.016" /> 
<circle cx="42076" cy="77582.6" r="374.016" /> 
<circle cx="43076" cy="77582.6" r="374.016" /> 
<circle cx="44076" cy="77582.6" r="374.016" /> 
<circle cx="45076" cy="77582.6" r="374.016" /> 
<circle cx="46076" cy="77582.6" r="374.016" /> 
<circle cx="47076" cy="77582.6" r="374.016" /> 
<circle cx="48076" cy="77582.6" r="374.016" /> 
<circle cx="49076" cy="77582.6" r="374.016" /> 
<circle cx="50416" cy="77582.6" r="374.016" /> 
<circle cx="51416" cy="77582.6" r="374.016" /> 
<circle cx="52416" cy="77582.6" r="374.016" /> 
<circle cx="53416" cy="77582.6" r="374.016" /> 
<circle cx="54416" cy="77582.6" r="374.016" /> 
<circle cx="55416" cy="77582.6" r="374.016" /> 
<circle cx="56416" cy="77582.6" r="374.016" /> 
<circle cx="57416" cy="77582.6" r="374.016" /> 
<circle cx="57416" cy="87582.6" r="374.016" /> 
<circle cx="57416" cy="86582.6" r="374.016" /> 
<circle cx="57416" cy="85582.6" r="374.016" /> 
<circle cx="58416" cy="85582.6" r="374.016" /> 
<circle cx="58416" cy="86582.6" r="374.016" /> 
<circle cx="58416" cy="87582.6" r="374.016" /> 
<circle cx="25666" cy="89382.6" r="374.016" /> 
<polyline fill="none;"
points="33291,83008
34040,83008
34040,83756
33291,83756
33291,83008
" /> 
<circle cx="32666" cy="83382.6" r="374.016" /> 
<circle cx="31666" cy="83382.6" r="374.016" /> 
<circle cx="30666" cy="83382.6" r="374.016" /> 
<circle cx="29666" cy="83382.6" r="374.016" /> 
<circle cx="28666" cy="83382.6" r="374.016" /> 
<circle cx="27666" cy="83382.6" r="374.016" /> 
<circle cx="26666" cy="83382.6" r="374.016" /> 
<circle cx="25666" cy="83382.6" r="374.016" /> 
<circle cx="24666" cy="83382.6" r="374.016" /> 
<circle cx="23666" cy="83382.6" r="374.016" /> 
<circle cx="22666" cy="83382.6" r="374.016" /> 
<circle cx="21666" cy="83382.6" r="374.016" /> 
<circle cx="20666" cy="83382.6" r="374.016" /> 
<circle cx="19666" cy="83382.6" r="374.016" /> 
<circle cx="33666" cy="89382.6" r="374.016" /> 
<circle cx="32666" cy="89382.6" r="374.016" /> 
<circle cx="31666" cy="89382.6" r="374.016" /> 
<circle cx="30666" cy="89382.6" r="374.016" /> 
<circle cx="29666" cy="89382.6" r="374.016" /> 
<circle cx="28666" cy="89382.6" r="374.016" /> 
<circle cx="27666" cy="89382.6" r="374.016" /> 
<circle cx="26666" cy="89382.6" r="374.016" /> 
<circle cx="24666" cy="89382.6" r="374.016" /> 
<circle cx="23666" cy="89382.6" r="374.016" /> 
<circle cx="22666" cy="89382.6" r="374.016" /> 
<circle cx="21666" cy="89382.6" r="374.016" /> 
<circle cx="20666" cy="89382.6" r="374.016" /> 
<circle cx="19666" cy="89382.6" r="374.016" /> 
<circle cx="40520.8" cy="131790" r="275.815" /> 
<circle cx="39520.8" cy="131790" r="275.815" /> 
<polyline fill="none;"
points="38829,128551
38200,128551
38200,127213
38829,127213
38829,128551
" /> 
<path d="M37829 128237
L37829 127528
" />
<path d="M37200 128237
L37200 127528
" />
<path d="M37829.8 127528 A314.815 314.815 0.0 0 0 37200.2 127528 " />
<path d="M37200.2 128237 A314.815 314.815 0.0 0 0 37829.8 128237 " />
<path d="M39829 128237
L39829 127528
" />
<path d="M39200 128237
L39200 127528
" />
<path d="M39829.8 127528 A314.815 314.815 0.0 0 0 39200.2 127528 " />
<path d="M39200.2 128237 A314.815 314.815 0.0 0 0 39829.8 128237 " />
<circle cx="38515" cy="121283" r="728.315" /> 
<polyline fill="none;"
points="9645,79352
9645,78712
10286,78712
10286,79352
9645,79352
" /> 
<path d="M10645 79032
L10645 79032
" />
<path d="M11286 79032
L11286 79032
" />
<path d="M10645.7 79032.6 A320.315 320.315 0.0 0 0 11286.3 79032.6 " />
<path d="M11286.3 79032.6 A320.315 320.315 0.0 0 0 10645.7 79032.6 " />
<path d="M9645 80032
L9645 80032
" />
<path d="M10286 80032
L10286 80032
" />
<path d="M9645.67 80032.6 A320.315 320.315 0.0 0 0 10286.3 80032.6 " />
<path d="M10286.3 80032.6 A320.315 320.315 0.0 0 0 9645.67 80032.6 " />
<path d="M10645 80032
L10645 80032
" />
<path d="M11286 80032
L11286 80032
" />
<path d="M10645.7 80032.6 A320.315 320.315 0.0 0 0 11286.3 80032.6 " />
<path d="M11286.3 80032.6 A320.315 320.315 0.0 0 0 10645.7 80032.6 " />
<path d="M9645 81032
L9645 81032
" />
<path d="M10286 81032
L10286 81032
" />
<path d="M9645.67 81032.6 A320.315 320.315 0.0 0 0 10286.3 81032.6 " />
<path d="M10286.3 81032.6 A320.315 320.315 0.0 0 0 9645.67 81032.6 " />
<path d="M10645 81032
L10645 81032
" />
<path d="M11286 81032
L11286 81032
" />
<path d="M10645.7 81032.6 A320.315 320.315 0.0 0 0 11286.3 81032.6 " />
<path d="M11286.3 81032.6 A320.315 320.315 0.0 0 0 10645.7 81032.6 " />
<circle cx="37215.7" cy="131790" r="275.815" /> 
<circle cx="36215.7" cy="131790" r="275.815" /> 
<polyline fill="none;"
points="25691,49708
26440,49708
26440,50456
25691,50456
25691,49708
" /> 
<circle cx="25066" cy="50082.6" r="374.016" /> 
<circle cx="24066" cy="50082.6" r="374.016" /> 
<circle cx="23066" cy="50082.6" r="374.016" /> 
<circle cx="22066" cy="50082.6" r="374.016" /> 
<circle cx="21066" cy="50082.6" r="374.016" /> 
<circle cx="20066" cy="50082.6" r="374.016" /> 
<circle cx="19066" cy="50082.6" r="374.016" /> 
<circle cx="18066" cy="50082.6" r="374.016" /> 
<circle cx="17066" cy="50082.6" r="374.016" /> 
<circle cx="16066" cy="50082.6" r="374.016" /> 
<circle cx="15066" cy="50082.6" r="374.016" /> 
<circle cx="14066" cy="50082.6" r="374.016" /> 
<circle cx="13066" cy="50082.6" r="374.016" /> 
<circle cx="13066" cy="57082.6" r="374.016" /> 
<circle cx="14066" cy="57082.6" r="374.016" /> 
<circle cx="15066" cy="57082.6" r="374.016" /> 
<circle cx="16066" cy="57082.6" r="374.016" /> 
<circle cx="17066" cy="57082.6" r="374.016" /> 
<circle cx="18066" cy="57082.6" r="374.016" /> 
<circle cx="19066" cy="57082.6" r="374.016" /> 
<circle cx="20066" cy="57082.6" r="374.016" /> 
<circle cx="21066" cy="57082.6" r="374.016" /> 
<circle cx="22066" cy="57082.6" r="374.016" /> 
<circle cx="23066" cy="57082.6" r="374.016" /> 
<circle cx="24066" cy="57082.6" r="374.016" /> 
<circle cx="25066" cy="57082.6" r="374.016" /> 
<circle cx="26066" cy="57082.6" r="374.016" /> 
<polyline fill="none;"
points="25591,30508
26340,30508
26340,31256
25591,31256
25591,30508
" /> 
<circle cx="24966" cy="30882.6" r="374.016" /> 
<circle cx="23966" cy="30882.6" r="374.016" /> 
<circle cx="22966" cy="30882.6" r="374.016" /> 
<circle cx="21966" cy="30882.6" r="374.016" /> 
<circle cx="20966" cy="30882.6" r="374.016" /> 
<circle cx="19966" cy="30882.6" r="374.016" /> 
<circle cx="18966" cy="30882.6" r="374.016" /> 
<circle cx="17966" cy="30882.6" r="374.016" /> 
<circle cx="16966" cy="30882.6" r="374.016" /> 
<circle cx="15966" cy="30882.6" r="374.016" /> 
<circle cx="14966" cy="30882.6" r="374.016" /> 
<circle cx="13966" cy="30882.6" r="374.016" /> 
<circle cx="12966" cy="30882.6" r="374.016" /> 
<circle cx="12966" cy="37882.6" r="374.016" /> 
<circle cx="13966" cy="37882.6" r="374.016" /> 
<circle cx="14966" cy="37882.6" r="374.016" /> 
<circle cx="15966" cy="37882.6" r="374.016" /> 
<circle cx="16966" cy="37882.6" r="374.016" /> 
<circle cx="17966" cy="37882.6" r="374.016" /> 
<circle cx="18966" cy="37882.6" r="374.016" /> 
<circle cx="19966" cy="37882.6" r="374.016" /> 
<circle cx="20966" cy="37882.6" r="374.016" /> 
<circle cx="21966" cy="37882.6" r="374.016" /> 
<circle cx="22966" cy="37882.6" r="374.016" /> 
<circle cx="23966" cy="37882.6" r="374.016" /> 
<circle cx="24966" cy="37882.6" r="374.016" /> 
<circle cx="25966" cy="37882.6" r="374.016" /> 
<polyline fill="none;"
points="25591,106108
26340,106108
26340,106856
25591,106856
25591,106108
" /> 
<circle cx="24966" cy="106483" r="374.016" /> 
<circle cx="23966" cy="106483" r="374.016" /> 
<circle cx="22966" cy="106483" r="374.016" /> 
<circle cx="21966" cy="106483" r="374.016" /> 
<circle cx="20966" cy="106483" r="374.016" /> 
<circle cx="19966" cy="106483" r="374.016" /> 
<circle cx="18966" cy="106483" r="374.016" /> 
<circle cx="17966" cy="106483" r="374.016" /> 
<circle cx="16966" cy="106483" r="374.016" /> 
<circle cx="15966" cy="106483" r="374.016" /> 
<circle cx="14966" cy="106483" r="374.016" /> 
<circle cx="13966" cy="106483" r="374.016" /> 
<circle cx="12966" cy="106483" r="374.016" /> 
<circle cx="12966" cy="113483" r="374.016" /> 
<circle cx="13966" cy="113483" r="374.016" /> 
<circle cx="14966" cy="113483" r="374.016" /> 
<circle cx="15966" cy="113483" r="374.016" /> 
<circle cx="16966" cy="113483" r="374.016" /> 
<circle cx="17966" cy="113483" r="374.016" /> 
<circle cx="18966" cy="113483" r="374.016" /> 
<circle cx="19966" cy="113483" r="374.016" /> 
<circle cx="20966" cy="113483" r="374.016" /> 
<circle cx="21966" cy="113483" r="374.016" /> 
<circle cx="22966" cy="113483" r="374.016" /> 
<circle cx="23966" cy="113483" r="374.016" /> 
<circle cx="24966" cy="113483" r="374.016" /> 
<circle cx="25966" cy="113483" r="374.016" /> 
<polyline fill="none;"
points="25691,125308
26440,125308
26440,126056
25691,126056
25691,125308
" /> 
<circle cx="25066" cy="125683" r="374.016" /> 
<circle cx="24066" cy="125683" r="374.016" /> 
<circle cx="23066" cy="125683" r="374.016" /> 
<circle cx="22066" cy="125683" r="374.016" /> 
<circle cx="21066" cy="125683" r="374.016" /> 
<circle cx="20066" cy="125683" r="374.016" /> 
<circle cx="19066" cy="125683" r="374.016" /> 
<circle cx="18066" cy="125683" r="374.016" /> 
<circle cx="17066" cy="125683" r="374.016" /> 
<circle cx="16066" cy="125683" r="374.016" /> 
<circle cx="15066" cy="125683" r="374.016" /> 
<circle cx="14066" cy="125683" r="374.016" /> 
<circle cx="13066" cy="125683" r="374.016" /> 
<circle cx="13066" cy="132683" r="374.016" /> 
<circle cx="14066" cy="132683" r="374.016" /> 
<circle cx="15066" cy="132683" r="374.016" /> 
<circle cx="16066" cy="132683" r="374.016" /> 
<circle cx="17066" cy="132683" r="374.016" /> 
<circle cx="18066" cy="132683" r="374.016" /> 
<circle cx="19066" cy="132683" r="374.016" /> 
<circle cx="20066" cy="132683" r="374.016" /> 
<circle cx="21066" cy="132683" r="374.016" /> 
<circle cx="22066" cy="132683" r="374.016" /> 
<circle cx="23066" cy="132683" r="374.016" /> 
<circle cx="24066" cy="132683" r="374.016" /> 
<circle cx="25066" cy="132683" r="374.016" /> 
<circle cx="26066" cy="132683" r="374.016" /> 
<polyline fill="none;"
points="11446,73112
11446,73752
10685,73752
10685,73112
11446,73112
" /> 
<path d="M11125 72112
L11005 72112
" />
<path d="M11125 72752
L11005 72752
" />
<path d="M11006 72112.3 A320.315 320.315 0.0 0 0 11006 72752.9 " />
<path d="M11126 72752.9 A320.315 320.315 0.0 0 0 11126 72112.3 " />
<path d="M11125 71112
L11005 71112
" />
<path d="M11125 71752
L11005 71752
" />
<path d="M11006 71112.3 A320.315 320.315 0.0 0 0 11006 71752.9 " />
<path d="M11126 71752.9 A320.315 320.315 0.0 0 0 11126 71112.3 " />
<path d="M11125 70112
L11005 70112
" />
<path d="M11125 70752
L11005 70752
" />
<path d="M11006 70112.3 A320.315 320.315 0.0 0 0 11006 70752.9 " />
<path d="M11126 70752.9 A320.315 320.315 0.0 0 0 11126 70112.3 " />
<path d="M11125 69112
L11005 69112
" />
<path d="M11125 69752
L11005 69752
" />
<path d="M11006 69112.3 A320.315 320.315 0.0 0 0 11006 69752.9 " />
<path d="M11126 69752.9 A320.315 320.315 0.0 0 0 11126 69112.3 " />
<polyline fill="none;"
points="11446,67162
11446,67802
10685,67802
10685,67162
11446,67162
" /> 
<path d="M11125 66162
L11005 66162
" />
<path d="M11125 66802
L11005 66802
" />
<path d="M11006 66162.3 A320.315 320.315 0.0 0 0 11006 66802.9 " />
<path d="M11126 66802.9 A320.315 320.315 0.0 0 0 11126 66162.3 " />
<path d="M11125 65162
L11005 65162
" />
<path d="M11125 65802
L11005 65802
" />
<path d="M11006 65162.3 A320.315 320.315 0.0 0 0 11006 65802.9 " />
<path d="M11126 65802.9 A320.315 320.315 0.0 0 0 11126 65162.3 " />
<path d="M11125 64162
L11005 64162
" />
<path d="M11125 64802
L11005 64802
" />
<path d="M11006 64162.3 A320.315 320.315 0.0 0 0 11006 64802.9 " />
<path d="M11126 64802.9 A320.315 320.315 0.0 0 0 11126 64162.3 " />
<path d="M11125 63162
L11005 63162
" />
<path d="M11125 63802
L11005 63802
" />
<path d="M11006 63162.3 A320.315 320.315 0.0 0 0 11006 63802.9 " />
<path d="M11126 63802.9 A320.315 320.315 0.0 0 0 11126 63162.3 " />
<path d="M11125 62162
L11005 62162
" />
<path d="M11125 62802
L11005 62802
" />
<path d="M11006 62162.3 A320.315 320.315 0.0 0 0 11006 62802.9 " />
<path d="M11126 62802.9 A320.315 320.315 0.0 0 0 11126 62162.3 " />
<circle cx="39916" cy="137532" r="373.815" /> 
<polyline fill="none;"
points="36289,137157
36289,137905
35542,137905
35542,137157
36289,137157
" /> 
<polyline fill="none;"
points="38346,143412
37585,143412
37585,142652
38346,142652
38346,143412
" /> 
<path d="M38965 143412
L38965 143412
" />
<path d="M38965 142652
L38965 142652
" />
<path d="M38966 143413 A380.315 380.315 0.0 0 0 38966 142652 " />
<path d="M38966 142652 A380.315 380.315 0.0 0 0 38966 143413 " />
<circle cx="7915.98" cy="150933" r="373.815" /> 
<circle cx="11916" cy="150933" r="373.815" /> 
<circle cx="7915.98" cy="158533" r="373.815" /> 
<circle cx="11916" cy="158533" r="373.815" /> 
<circle cx="7915.98" cy="160033" r="373.815" /> 
<circle cx="11916" cy="160033" r="373.815" /> 
</g>
<g style="fill:#000000; fill-opacity:0.0; 
stroke:#000000; stroke-width:59.0551; stroke-opacity:1; 
stroke-linecap:round; stroke-linejoin:round;">
<path d="M37787 138589
L37787 138195
L37881 138195
L37937 138214
L37974 138252
L37993 138289
L38012 138364
L38012 138420
L37993 138495
L37974 138533
L37937 138570
L37881 138589
L37787 138589
" />
<path d="M38387 138589
L38162 138589
" />
<path d="M38274 138589
L38274 138195
L38237 138252
L38199 138289
L38162 138308
" />
<path d="M36695 140853
L36695 140459
" />
<path d="M36920 140853
L36751 140628
" />
<path d="M36920 140459
L36695 140684
" />
<path d="M39184 140721
L39372 140721
" />
<path d="M39147 140833
L39278 140439
L39409 140833
" />
</g>
<g style="fill:#000000; fill-opacity:0.0; 
stroke:#000000; stroke-width:12.8; stroke-opacity:1; 
stroke-linecap:round; stroke-linejoin:round;">
<path d="M33346 77045
L33367 77052
L33375 77060
L33382 77074
L33382 77096
L33375 77110
L33367 77118
L33353 77125
L33295 77125
L33295 76973
L33346 76973
L33360 76980
L33367 76987
L33375 77002
L33375 77016
L33367 77031
L33360 77038
L33346 77045
L33295 77045
" />
<path d="M33425 76973
L33512 76973
" />
<path d="M33469 77125
L33469 76973
" />
<path d="M33642 77125
L33556 77125
" />
<path d="M33599 77125
L33599 76973
L33585 76995
L33570 77009
L33556 77016
" />
<path d="M33346 76545
L33367 76552
L33375 76560
L33382 76574
L33382 76596
L33375 76610
L33367 76618
L33353 76625
L33295 76625
L33295 76473
L33346 76473
L33360 76480
L33367 76487
L33375 76502
L33375 76516
L33367 76531
L33360 76538
L33346 76545
L33295 76545
" />
<path d="M33440 76581
L33512 76581
" />
<path d="M33425 76625
L33476 76473
L33527 76625
" />
<path d="M33556 76473
L33642 76473
" />
<path d="M33599 76625
L33599 76473
" />
<path d="M33671 76473
L33758 76473
" />
<path d="M33715 76625
L33715 76473
" />
<path d="M33809 76545
L33860 76545
" />
<path d="M33881 76625
L33809 76625
L33809 76473
L33881 76473
" />
<path d="M34033 76625
L33983 76552
" />
<path d="M33946 76625
L33946 76473
L34004 76473
L34019 76480
L34026 76487
L34033 76502
L34033 76524
L34026 76538
L34019 76545
L34004 76552
L33946 76552
" />
<path d="M34127 76552
L34127 76625
" />
<path d="M34077 76473
L34127 76552
L34178 76473
" />
</g>
<g style="fill:#000000; fill-opacity:0.0; 
stroke:#000000; stroke-width:59.0551; stroke-opacity:1; 
stroke-linecap:round; stroke-linejoin:round;">
<path d="M37746 138709
L37746 138316
L37840 138316
L37896 138334
L37933 138372
L37952 138409
L37971 138484
L37971 138540
L37952 138615
L37933 138653
L37896 138690
L37840 138709
L37746 138709
" />
<path d="M38308 138316
L38233 138316
L38196 138334
L38177 138353
L38140 138409
L38121 138484
L38121 138634
L38140 138672
L38158 138690
L38196 138709
L38271 138709
L38308 138690
L38327 138672
L38346 138634
L38346 138540
L38327 138503
L38308 138484
L38271 138465
L38196 138465
L38158 138484
L38140 138503
L38121 138540
" />
<path d="M13354 76798
L13373 76816
L13392 76873
L13392 76910
L13373 76966
L13335 77004
L13298 77023
L13223 77041
L13167 77041
L13092 77023
L13054 77004
L13017 76966
L12998 76910
L12998 76873
L13017 76816
L13035 76798
" />
<path d="M13392 76423
L13392 76648
" />
<path d="M13392 76535
L12998 76535
L13054 76573
L13092 76610
L13110 76648
" />
<path d="M24050 54675
L24031 54693
L23975 54712
L23937 54712
L23881 54693
L23844 54656
L23825 54618
L23806 54543
L23806 54487
L23825 54412
L23844 54375
L23881 54337
L23937 54318
L23975 54318
L24031 54337
L24050 54356
" />
<path d="M24387 54450
L24387 54712
" />
<path d="M24294 54300
L24200 54581
L24444 54581
" />
<path d="M24250 35625
L24231 35643
L24175 35662
L24137 35662
L24081 35643
L24044 35606
L24025 35568
L24006 35493
L24006 35437
L24025 35362
L24044 35325
L24081 35287
L24137 35268
L24175 35268
L24231 35287
L24250 35306
" />
<path d="M24606 35268
L24419 35268
L24400 35456
L24419 35437
L24456 35418
L24550 35418
L24587 35437
L24606 35456
L24625 35493
L24625 35587
L24606 35625
L24587 35643
L24550 35662
L24456 35662
L24419 35643
L24400 35625
" />
<path d="M11947 84157
L11947 84183
L11921 84236
L11894 84263
L11841 84289
L11788 84289
L11749 84276
L11682 84236
L11643 84197
L11603 84130
L11590 84091
L11590 84038
L11616 83985
L11643 83958
L11696 83931
L11722 83931
" />
<path d="M11934 83666
L11881 83719
L11868 83759
L11868 83786
L11881 83852
L11921 83918
L12027 84024
L12067 84038
L12093 84038
L12133 84024
L12186 83971
L12199 83931
L12199 83905
L12186 83865
L12120 83799
L12080 83786
L12054 83786
L12014 83799
L11961 83852
L11947 83892
L11947 83918
L11961 83958
" />
<path d="M24100 130275
L24081 130293
L24025 130312
L23987 130312
L23931 130293
L23894 130256
L23875 130218
L23856 130143
L23856 130087
L23875 130012
L23894 129975
L23931 129937
L23987 129918
L24025 129918
L24081 129937
L24100 129956
" />
<path d="M24231 129918
L24494 129918
L24325 130312
" />
<path d="M24200 111175
L24181 111193
L24125 111212
L24087 111212
L24031 111193
L23994 111156
L23975 111118
L23956 111043
L23956 110987
L23975 110912
L23994 110875
L24031 110837
L24087 110818
L24125 110818
L24181 110837
L24200 110856
" />
<path d="M24425 110987
L24387 110968
L24369 110950
L24350 110912
L24350 110893
L24369 110856
L24387 110837
L24425 110818
L24500 110818
L24537 110837
L24556 110856
L24575 110893
L24575 110912
L24556 110950
L24537 110968
L24500 110987
L24425 110987
L24387 111006
L24369 111025
L24350 111062
L24350 111137
L24369 111175
L24387 111193
L24425 111212
L24500 111212
L24537 111193
L24556 111175
L24575 111137
L24575 111062
L24556 111025
L24537 111006
L24500 110987
" />
<path d="M11715 128773
L11322 128773
L11322 128679
L11340 128623
L11378 128585
L11415 128566
L11490 128548
L11547 128548
L11622 128566
L11659 128585
L11696 128623
L11715 128679
L11715 128773
" />
<path d="M11359 128398
L11340 128379
L11322 128341
L11322 128248
L11340 128210
L11359 128192
L11397 128173
L11434 128173
L11490 128192
L11715 128416
L11715 128173
" />
<path d="M11715 53173
L11322 53173
L11322 53079
L11340 53023
L11378 52985
L11415 52966
L11490 52948
L11547 52948
L11622 52966
L11659 52985
L11696 53023
L11715 53079
L11715 53173
" />
<path d="M11322 52816
L11322 52573
L11472 52704
L11472 52648
L11490 52610
L11509 52592
L11547 52573
L11640 52573
L11678 52592
L11696 52610
L11715 52648
L11715 52760
L11696 52798
L11678 52816
" />
<path d="M11615 34473
L11222 34473
L11222 34379
L11240 34323
L11278 34285
L11315 34266
L11390 34248
L11447 34248
L11522 34266
L11559 34285
L11596 34323
L11615 34379
L11615 34473
" />
<path d="M11353 33910
L11615 33910
" />
<path d="M11203 34004
L11484 34098
L11484 33854
" />
<path d="M11615 110073
L11222 110073
L11222 109979
L11240 109923
L11278 109885
L11315 109866
L11390 109848
L11447 109848
L11522 109866
L11559 109885
L11596 109923
L11615 109979
L11615 110073
" />
<path d="M11222 109492
L11222 109679
L11409 109698
L11390 109679
L11372 109641
L11372 109548
L11390 109510
L11409 109492
L11447 109473
L11540 109473
L11578 109492
L11596 109510
L11615 109548
L11615 109641
L11596 109679
L11578 109698
" />
<path d="M36136 143323
L35742 143323
L35742 143173
L35761 143135
L35780 143116
L35817 143098
L35873 143098
L35911 143116
L35929 143135
L35948 143173
L35948 143323
" />
<path d="M35780 142948
L35761 142929
L35742 142891
L35742 142798
L35761 142760
L35780 142742
L35817 142723
L35854 142723
L35911 142742
L36136 142966
L36136 142723
" />
<path d="M8450 149012
L8319 148825
" />
<path d="M8225 149012
L8225 148618
L8375 148618
L8412 148637
L8431 148656
L8450 148693
L8450 148750
L8431 148787
L8412 148806
L8375 148825
L8225 148825
" />
<path d="M8825 149012
L8600 149012
" />
<path d="M8712 149012
L8712 148618
L8675 148675
L8637 148712
L8600 148731
" />
<path d="M8400 156562
L8269 156375
" />
<path d="M8175 156562
L8175 156168
L8325 156168
L8362 156187
L8381 156206
L8400 156243
L8400 156300
L8381 156337
L8362 156356
L8325 156375
L8175 156375
" />
<path d="M8550 156206
L8569 156187
L8606 156168
L8700 156168
L8737 156187
L8756 156206
L8775 156243
L8775 156281
L8756 156337
L8531 156562
L8775 156562
" />
<path d="M13600 53808
L13469 53621
" />
<path d="M13375 53808
L13375 53415
L13525 53415
L13562 53433
L13581 53452
L13600 53490
L13600 53546
L13581 53583
L13562 53602
L13525 53621
L13375 53621
" />
<path d="M13731 53415
L13975 53415
L13844 53565
L13900 53565
L13937 53583
L13956 53602
L13975 53640
L13975 53733
L13956 53771
L13937 53789
L13900 53808
L13787 53808
L13750 53789
L13731 53771
" />
<path d="M10600 87212
L10469 87025
" />
<path d="M10375 87212
L10375 86818
L10525 86818
L10562 86837
L10581 86856
L10600 86893
L10600 86950
L10581 86987
L10562 87006
L10525 87025
L10375 87025
" />
<path d="M10937 86950
L10937 87212
" />
<path d="M10844 86800
L10750 87081
L10994 87081
" />
<path d="M9850 161212
L9719 161025
" />
<path d="M9625 161212
L9625 160818
L9775 160818
L9812 160837
L9831 160856
L9850 160893
L9850 160950
L9831 160987
L9812 161006
L9775 161025
L9625 161025
" />
<path d="M10206 160818
L10019 160818
L10000 161006
L10019 160987
L10056 160968
L10150 160968
L10187 160987
L10206 161006
L10225 161043
L10225 161137
L10206 161175
L10187 161193
L10150 161212
L10056 161212
L10019 161193
L10000 161175
" />
<path d="M13600 54508
L13469 54321
" />
<path d="M13375 54508
L13375 54115
L13525 54115
L13562 54133
L13581 54152
L13600 54190
L13600 54246
L13581 54283
L13562 54302
L13525 54321
L13375 54321
" />
<path d="M13937 54115
L13862 54115
L13825 54133
L13806 54152
L13769 54208
L13750 54283
L13750 54433
L13769 54471
L13787 54489
L13825 54508
L13900 54508
L13937 54489
L13956 54471
L13975 54433
L13975 54340
L13956 54302
L13937 54283
L13900 54265
L13825 54265
L13787 54283
L13769 54302
L13750 54340
" />
<path d="M10600 88058
L10469 87871
" />
<path d="M10375 88058
L10375 87665
L10525 87665
L10562 87683
L10581 87702
L10600 87740
L10600 87796
L10581 87833
L10562 87852
L10525 87871
L10375 87871
" />
<path d="M10731 87665
L10994 87665
L10825 88058
" />
<path d="M13600 55208
L13469 55021
" />
<path d="M13375 55208
L13375 54815
L13525 54815
L13562 54833
L13581 54852
L13600 54890
L13600 54946
L13581 54983
L13562 55002
L13525 55021
L13375 55021
" />
<path d="M13825 54983
L13787 54965
L13769 54946
L13750 54908
L13750 54890
L13769 54852
L13787 54833
L13825 54815
L13900 54815
L13937 54833
L13956 54852
L13975 54890
L13975 54908
L13956 54946
L13937 54965
L13900 54983
L13825 54983
L13787 55002
L13769 55021
L13750 55058
L13750 55133
L13769 55171
L13787 55189
L13825 55208
L13900 55208
L13937 55189
L13956 55171
L13975 55133
L13975 55058
L13956 55021
L13937 55002
L13900 54983
" />
<path d="M13600 130108
L13469 129921
" />
<path d="M13375 130108
L13375 129715
L13525 129715
L13562 129733
L13581 129752
L13600 129790
L13600 129846
L13581 129883
L13562 129902
L13525 129921
L13375 129921
" />
<path d="M13787 130108
L13862 130108
L13900 130089
L13919 130071
L13956 130014
L13975 129940
L13975 129790
L13956 129752
L13937 129733
L13900 129715
L13825 129715
L13787 129733
L13769 129752
L13750 129790
L13750 129883
L13769 129921
L13787 129940
L13825 129958
L13900 129958
L13937 129940
L13956 129921
L13975 129883
" />
<path d="M13412 130808
L13281 130621
" />
<path d="M13187 130808
L13187 130415
L13337 130415
L13375 130433
L13394 130452
L13412 130490
L13412 130546
L13394 130583
L13375 130602
L13337 130621
L13187 130621
" />
<path d="M13787 130808
L13562 130808
" />
<path d="M13675 130808
L13675 130415
L13637 130471
L13600 130508
L13562 130527
" />
<path d="M14031 130415
L14069 130415
L14106 130433
L14125 130452
L14144 130490
L14162 130565
L14162 130658
L14144 130733
L14125 130771
L14106 130789
L14069 130808
L14031 130808
L13994 130789
L13975 130771
L13956 130733
L13937 130658
L13937 130565
L13956 130490
L13975 130452
L13994 130433
L14031 130415
" />
<path d="M13412 129408
L13281 129221
" />
<path d="M13187 129408
L13187 129015
L13337 129015
L13375 129033
L13394 129052
L13412 129090
L13412 129146
L13394 129183
L13375 129202
L13337 129221
L13187 129221
" />
<path d="M13787 129408
L13562 129408
" />
<path d="M13675 129408
L13675 129015
L13637 129071
L13600 129108
L13562 129127
" />
<path d="M14162 129408
L13937 129408
" />
<path d="M14050 129408
L14050 129015
L14012 129071
L13975 129108
L13937 129127
" />
<path d="M13112 35008
L12981 34821
" />
<path d="M12887 35008
L12887 34615
L13037 34615
L13075 34633
L13094 34652
L13112 34690
L13112 34746
L13094 34783
L13075 34802
L13037 34821
L12887 34821
" />
<path d="M13487 35008
L13262 35008
" />
<path d="M13375 35008
L13375 34615
L13337 34671
L13300 34708
L13262 34727
" />
<path d="M13637 34652
L13656 34633
L13694 34615
L13787 34615
L13825 34633
L13844 34652
L13862 34690
L13862 34727
L13844 34783
L13619 35008
L13862 35008
" />
<path d="M13112 35708
L12981 35521
" />
<path d="M12887 35708
L12887 35315
L13037 35315
L13075 35333
L13094 35352
L13112 35390
L13112 35446
L13094 35483
L13075 35502
L13037 35521
L12887 35521
" />
<path d="M13487 35708
L13262 35708
" />
<path d="M13375 35708
L13375 35315
L13337 35371
L13300 35408
L13262 35427
" />
<path d="M13619 35315
L13862 35315
L13731 35465
L13787 35465
L13825 35483
L13844 35502
L13862 35540
L13862 35633
L13844 35671
L13825 35689
L13787 35708
L13675 35708
L13637 35689
L13619 35671
" />
<path d="M13112 36408
L12981 36221
" />
<path d="M12887 36408
L12887 36015
L13037 36015
L13075 36033
L13094 36052
L13112 36090
L13112 36146
L13094 36183
L13075 36202
L13037 36221
L12887 36221
" />
<path d="M13487 36408
L13262 36408
" />
<path d="M13375 36408
L13375 36015
L13337 36071
L13300 36108
L13262 36127
" />
<path d="M13825 36146
L13825 36408
" />
<path d="M13731 35996
L13637 36277
L13881 36277
" />
<path d="M13012 110608
L12881 110421
" />
<path d="M12787 110608
L12787 110215
L12937 110215
L12975 110233
L12994 110252
L13012 110290
L13012 110346
L12994 110383
L12975 110402
L12937 110421
L12787 110421
" />
<path d="M13387 110608
L13162 110608
" />
<path d="M13275 110608
L13275 110215
L13237 110271
L13200 110308
L13162 110327
" />
<path d="M13744 110215
L13556 110215
L13537 110402
L13556 110383
L13594 110365
L13687 110365
L13725 110383
L13744 110402
L13762 110440
L13762 110533
L13744 110571
L13725 110589
L13687 110608
L13594 110608
L13556 110589
L13537 110571
" />
<path d="M13012 111308
L12881 111121
" />
<path d="M12787 111308
L12787 110915
L12937 110915
L12975 110933
L12994 110952
L13012 110990
L13012 111046
L12994 111083
L12975 111102
L12937 111121
L12787 111121
" />
<path d="M13387 111308
L13162 111308
" />
<path d="M13275 111308
L13275 110915
L13237 110971
L13200 111008
L13162 111027
" />
<path d="M13725 110915
L13650 110915
L13612 110933
L13594 110952
L13556 111008
L13537 111083
L13537 111233
L13556 111271
L13575 111289
L13612 111308
L13687 111308
L13725 111289
L13744 111271
L13762 111233
L13762 111140
L13744 111102
L13725 111083
L13687 111065
L13612 111065
L13575 111083
L13556 111102
L13537 111140
" />
<path d="M13012 112008
L12881 111821
" />
<path d="M12787 112008
L12787 111615
L12937 111615
L12975 111633
L12994 111652
L13012 111690
L13012 111746
L12994 111783
L12975 111802
L12937 111821
L12787 111821
" />
<path d="M13387 112008
L13162 112008
" />
<path d="M13275 112008
L13275 111615
L13237 111671
L13200 111708
L13162 111727
" />
<path d="M13519 111615
L13781 111615
L13612 112008
" />
<path d="M15316 74956
L15316 75275
L15334 75312
L15353 75331
L15391 75350
L15466 75350
L15503 75331
L15522 75312
L15540 75275
L15540 74956
" />
<path d="M15709 74993
L15728 74975
L15765 74956
L15859 74956
L15897 74975
L15915 74993
L15934 75031
L15934 75068
L15915 75125
L15690 75350
L15934 75350
" />
</g> 
</svg>
