<?xml version="1.0" standalone="no"?>
 <!DOCTYPE svg PUBLIC "-//W3C//DTD SVG 1.1//EN" 
 "http://www.w3.org/Graphics/SVG/1.1/DTD/svg11.dtd"> 
<svg xmlns="http://www.w3.org/2000/svg" version="1.1" 
    width="45.0012cm" height="45.0012cm" viewBox="0 0 177170 177170 ">
<title>SVG Picture created as LargeKickstarter-Dwgs_User.svg date 2015/11/07 15:02:54 </title>
  <desc>Picture generated by PCBNEW </desc>
<g style="fill:#000000; fill-opacity:1;stroke:#000000; stroke-opacity:1;
stroke-linecap:round; stroke-linejoin:round; "
 transform="translate(0 0) scale(1 1)">
</g>
<g style="fill:#000000; fill-opacity:0.0; 
stroke:#000000; stroke-width:-0.000393701; stroke-opacity:1; 
stroke-linecap:round; stroke-linejoin:round;">
</g>
<g style="fill:#000000; fill-opacity:0.0; 
stroke:#000000; stroke-width:80; stroke-opacity:1; 
stroke-linecap:round; stroke-linejoin:round;">
<path d="M6059 147916
L6059 146735
" />
<path d="M6767 145889
L8933 145889
" />
<path d="M8933 145889
L8933 146145
" />
<path d="M8933 148507
L8933 148763
" />
<path d="M8933 148763
L6767 148763
" />
<path d="M8342 146145
L8342 148507
" />
<path d="M8342 146145
L8933 146145
" />
<path d="M8342 148507
L8933 148507
" />
<path d="M6767 145889
L6767 146735
" />
<path d="M6767 146735
L6767 147916
" />
<path d="M6767 147916
L6767 148763
" />
<path d="M6767 147916
L6059 147916
" />
<path d="M6767 146735
L6059 146735
" />
<path d="M6059 155472
L6059 154290
" />
<path d="M6767 153444
L8933 153444
" />
<path d="M8933 153444
L8933 153700
" />
<path d="M8933 156062
L8933 156318
" />
<path d="M8933 156318
L6767 156318
" />
<path d="M8342 153700
L8342 156062
" />
<path d="M8342 153700
L8933 153700
" />
<path d="M8342 156062
L8933 156062
" />
<path d="M6767 153444
L6767 154290
" />
<path d="M6767 154290
L6767 155472
" />
<path d="M6767 155472
L6767 156318
" />
<path d="M6767 155472
L6059 155472
" />
<path d="M6767 154290
L6059 154290
" />
<path d="M6059 163027
L6059 161846
" />
<path d="M6767 160999
L8933 160999
" />
<path d="M8933 160999
L8933 161255
" />
<path d="M8933 163617
L8933 163873
" />
<path d="M8933 163873
L6767 163873
" />
<path d="M8342 161255
L8342 163617
" />
<path d="M8342 161255
L8933 161255
" />
<path d="M8342 163617
L8933 163617
" />
<path d="M6767 160999
L6767 161846
" />
<path d="M6767 161846
L6767 163027
" />
<path d="M6767 163027
L6767 163873
" />
<path d="M6767 163027
L6059 163027
" />
<path d="M6767 161846
L6059 161846
" />
<circle cx="26942.4" cy="76922" r="3937.01" /> 
</g>
<g style="fill:#000000; fill-opacity:1.0; 
stroke:#000000; stroke-width:59.0551; stroke-opacity:1; 
stroke-linecap:round; stroke-linejoin:round;">
<polyline style="fill-rule:evenodd;"
points="13715,87464
13440,87188
13312,87315
13588,87591
" /> 
<polyline style="fill-rule:evenodd;"
points="13938,87241
13662,86965
13535,87092
13811,87368
" /> 
<polyline style="fill-rule:evenodd;"
points="14161,87018
13885,86742
13758,86870
14033,87146
" /> 
<polyline style="fill-rule:evenodd;"
points="14383,86796
14108,86520
13980,86647
14256,86923
" /> 
<polyline style="fill-rule:evenodd;"
points="14606,86573
14330,86297
14203,86424
14479,86700
" /> 
<polyline style="fill-rule:evenodd;"
points="14829,86350
14553,86074
14426,86202
14702,86477
" /> 
<polyline style="fill-rule:evenodd;"
points="15052,86127
14776,85852
14649,85979
14924,86255
" /> 
<polyline style="fill-rule:evenodd;"
points="15274,85905
14999,85629
14871,85756
15147,86032
" /> 
<polyline style="fill-rule:evenodd;"
points="15274,85060
15147,84932
14871,85208
14999,85335
" /> 
<polyline style="fill-rule:evenodd;"
points="15052,84837
14924,84710
14649,84985
14776,85113
" /> 
<polyline style="fill-rule:evenodd;"
points="14829,84614
14702,84487
14426,84763
14553,84890
" /> 
<polyline style="fill-rule:evenodd;"
points="14606,84391
14479,84264
14203,84540
14330,84667
" /> 
<polyline style="fill-rule:evenodd;"
points="14383,84169
14256,84041
13980,84317
14108,84444
" /> 
<polyline style="fill-rule:evenodd;"
points="14161,83946
14033,83819
13758,84094
13885,84222
" /> 
<polyline style="fill-rule:evenodd;"
points="13938,83723
13811,83596
13535,83872
13662,83999
" /> 
<polyline style="fill-rule:evenodd;"
points="13715,83501
13588,83373
13312,83649
13440,83776
" /> 
<polyline style="fill-rule:evenodd;"
points="13019,83649
12743,83373
12616,83501
12891,83776
" /> 
<polyline style="fill-rule:evenodd;"
points="12796,83872
12520,83596
12393,83723
12669,83999
" /> 
<polyline style="fill-rule:evenodd;"
points="12573,84094
12297,83819
12170,83946
12446,84222
" /> 
<polyline style="fill-rule:evenodd;"
points="12351,84317
12075,84041
11947,84169
12223,84444
" /> 
<polyline style="fill-rule:evenodd;"
points="12128,84540
11852,84264
11725,84391
12001,84667
" /> 
<polyline style="fill-rule:evenodd;"
points="11905,84763
11629,84487
11502,84614
11778,84890
" /> 
<polyline style="fill-rule:evenodd;"
points="11682,84985
11407,84710
11279,84837
11555,85113
" /> 
<polyline style="fill-rule:evenodd;"
points="11460,85208
11184,84932
11057,85060
11332,85335
" /> 
<polyline style="fill-rule:evenodd;"
points="11460,85756
11332,85629
11057,85905
11184,86032
" /> 
<polyline style="fill-rule:evenodd;"
points="11682,85979
11555,85852
11279,86127
11407,86255
" /> 
<polyline style="fill-rule:evenodd;"
points="11905,86202
11778,86074
11502,86350
11629,86477
" /> 
<polyline style="fill-rule:evenodd;"
points="12128,86424
12001,86297
11725,86573
11852,86700
" /> 
<polyline style="fill-rule:evenodd;"
points="12351,86647
12223,86520
11947,86796
12075,86923
" /> 
<polyline style="fill-rule:evenodd;"
points="12573,86870
12446,86742
12170,87018
12297,87146
" /> 
<polyline style="fill-rule:evenodd;"
points="12796,87092
12669,86965
12393,87241
12520,87368
" /> 
<polyline style="fill-rule:evenodd;"
points="13019,87315
12891,87188
12616,87464
12743,87591
" /> 
<polyline style="fill-rule:evenodd;"
points="23165,107910
22965,107910
22965,108510
23165,108510
" /> 
<polyline style="fill-rule:evenodd;"
points="22665,107910
22465,107910
22465,108510
22665,108510
" /> 
<polyline style="fill-rule:evenodd;"
points="22165,107910
21965,107910
21965,108510
22165,108510
" /> 
<polyline style="fill-rule:evenodd;"
points="21665,107910
21465,107910
21465,108510
21665,108510
" /> 
<polyline style="fill-rule:evenodd;"
points="21165,107910
20965,107910
20965,108510
21165,108510
" /> 
<polyline style="fill-rule:evenodd;"
points="20665,107910
20465,107910
20465,108510
20665,108510
" /> 
<polyline style="fill-rule:evenodd;"
points="20165,107910
19965,107910
19965,108510
20165,108510
" /> 
<polyline style="fill-rule:evenodd;"
points="19665,107910
19465,107910
19465,108510
19665,108510
" /> 
<polyline style="fill-rule:evenodd;"
points="19165,107910
18965,107910
18965,108510
19165,108510
" /> 
<polyline style="fill-rule:evenodd;"
points="18665,107910
18465,107910
18465,108510
18665,108510
" /> 
<polyline style="fill-rule:evenodd;"
points="18165,107910
17965,107910
17965,108510
18165,108510
" /> 
<polyline style="fill-rule:evenodd;"
points="17665,107910
17465,107910
17465,108510
17665,108510
" /> 
<polyline style="fill-rule:evenodd;"
points="17165,107910
16965,107910
16965,108510
17165,108510
" /> 
<polyline style="fill-rule:evenodd;"
points="16665,107910
16465,107910
16465,108510
16665,108510
" /> 
<polyline style="fill-rule:evenodd;"
points="16665,111454
16465,111454
16465,112054
16665,112054
" /> 
<polyline style="fill-rule:evenodd;"
points="17165,111454
16965,111454
16965,112054
17165,112054
" /> 
<polyline style="fill-rule:evenodd;"
points="17665,111454
17465,111454
17465,112054
17665,112054
" /> 
<polyline style="fill-rule:evenodd;"
points="18165,111454
17965,111454
17965,112054
18165,112054
" /> 
<polyline style="fill-rule:evenodd;"
points="18665,111454
18465,111454
18465,112054
18665,112054
" /> 
<polyline style="fill-rule:evenodd;"
points="19165,111454
18965,111454
18965,112054
19165,112054
" /> 
<polyline style="fill-rule:evenodd;"
points="19665,111454
19465,111454
19465,112054
19665,112054
" /> 
<polyline style="fill-rule:evenodd;"
points="20165,111454
19965,111454
19965,112054
20165,112054
" /> 
<polyline style="fill-rule:evenodd;"
points="20665,111454
20465,111454
20465,112054
20665,112054
" /> 
<polyline style="fill-rule:evenodd;"
points="21165,111454
20965,111454
20965,112054
21165,112054
" /> 
<polyline style="fill-rule:evenodd;"
points="21665,111454
21465,111454
21465,112054
21665,112054
" /> 
<polyline style="fill-rule:evenodd;"
points="22165,111454
21965,111454
21965,112054
22165,112054
" /> 
<polyline style="fill-rule:evenodd;"
points="22665,111454
22465,111454
22465,112054
22665,112054
" /> 
<polyline style="fill-rule:evenodd;"
points="23165,111454
22965,111454
22965,112054
23165,112054
" /> 
<polyline style="fill-rule:evenodd;"
points="23165,32310
22965,32310
22965,32910
23165,32910
" /> 
<polyline style="fill-rule:evenodd;"
points="22665,32310
22465,32310
22465,32910
22665,32910
" /> 
<polyline style="fill-rule:evenodd;"
points="22165,32310
21965,32310
21965,32910
22165,32910
" /> 
<polyline style="fill-rule:evenodd;"
points="21665,32310
21465,32310
21465,32910
21665,32910
" /> 
<polyline style="fill-rule:evenodd;"
points="21165,32310
20965,32310
20965,32910
21165,32910
" /> 
<polyline style="fill-rule:evenodd;"
points="20665,32310
20465,32310
20465,32910
20665,32910
" /> 
<polyline style="fill-rule:evenodd;"
points="20165,32310
19965,32310
19965,32910
20165,32910
" /> 
<polyline style="fill-rule:evenodd;"
points="19665,32310
19465,32310
19465,32910
19665,32910
" /> 
<polyline style="fill-rule:evenodd;"
points="19165,32310
18965,32310
18965,32910
19165,32910
" /> 
<polyline style="fill-rule:evenodd;"
points="18665,32310
18465,32310
18465,32910
18665,32910
" /> 
<polyline style="fill-rule:evenodd;"
points="18165,32310
17965,32310
17965,32910
18165,32910
" /> 
<polyline style="fill-rule:evenodd;"
points="17665,32310
17465,32310
17465,32910
17665,32910
" /> 
<polyline style="fill-rule:evenodd;"
points="17165,32310
16965,32310
16965,32910
17165,32910
" /> 
<polyline style="fill-rule:evenodd;"
points="16665,32310
16465,32310
16465,32910
16665,32910
" /> 
<polyline style="fill-rule:evenodd;"
points="16665,35854
16465,35854
16465,36454
16665,36454
" /> 
<polyline style="fill-rule:evenodd;"
points="17165,35854
16965,35854
16965,36454
17165,36454
" /> 
<polyline style="fill-rule:evenodd;"
points="17665,35854
17465,35854
17465,36454
17665,36454
" /> 
<polyline style="fill-rule:evenodd;"
points="18165,35854
17965,35854
17965,36454
18165,36454
" /> 
<polyline style="fill-rule:evenodd;"
points="18665,35854
18465,35854
18465,36454
18665,36454
" /> 
<polyline style="fill-rule:evenodd;"
points="19165,35854
18965,35854
18965,36454
19165,36454
" /> 
<polyline style="fill-rule:evenodd;"
points="19665,35854
19465,35854
19465,36454
19665,36454
" /> 
<polyline style="fill-rule:evenodd;"
points="20165,35854
19965,35854
19965,36454
20165,36454
" /> 
<polyline style="fill-rule:evenodd;"
points="20665,35854
20465,35854
20465,36454
20665,36454
" /> 
<polyline style="fill-rule:evenodd;"
points="21165,35854
20965,35854
20965,36454
21165,36454
" /> 
<polyline style="fill-rule:evenodd;"
points="21665,35854
21465,35854
21465,36454
21665,36454
" /> 
<polyline style="fill-rule:evenodd;"
points="22165,35854
21965,35854
21965,36454
22165,36454
" /> 
<polyline style="fill-rule:evenodd;"
points="22665,35854
22465,35854
22465,36454
22665,36454
" /> 
<polyline style="fill-rule:evenodd;"
points="23165,35854
22965,35854
22965,36454
23165,36454
" /> 
<polyline style="fill-rule:evenodd;"
points="23165,126910
22965,126910
22965,127510
23165,127510
" /> 
<polyline style="fill-rule:evenodd;"
points="22665,126910
22465,126910
22465,127510
22665,127510
" /> 
<polyline style="fill-rule:evenodd;"
points="22165,126910
21965,126910
21965,127510
22165,127510
" /> 
<polyline style="fill-rule:evenodd;"
points="21665,126910
21465,126910
21465,127510
21665,127510
" /> 
<polyline style="fill-rule:evenodd;"
points="21165,126910
20965,126910
20965,127510
21165,127510
" /> 
<polyline style="fill-rule:evenodd;"
points="20665,126910
20465,126910
20465,127510
20665,127510
" /> 
<polyline style="fill-rule:evenodd;"
points="20165,126910
19965,126910
19965,127510
20165,127510
" /> 
<polyline style="fill-rule:evenodd;"
points="19665,126910
19465,126910
19465,127510
19665,127510
" /> 
<polyline style="fill-rule:evenodd;"
points="19165,126910
18965,126910
18965,127510
19165,127510
" /> 
<polyline style="fill-rule:evenodd;"
points="18665,126910
18465,126910
18465,127510
18665,127510
" /> 
<polyline style="fill-rule:evenodd;"
points="18165,126910
17965,126910
17965,127510
18165,127510
" /> 
<polyline style="fill-rule:evenodd;"
points="17665,126910
17465,126910
17465,127510
17665,127510
" /> 
<polyline style="fill-rule:evenodd;"
points="17165,126910
16965,126910
16965,127510
17165,127510
" /> 
<polyline style="fill-rule:evenodd;"
points="16665,126910
16465,126910
16465,127510
16665,127510
" /> 
<polyline style="fill-rule:evenodd;"
points="16665,130454
16465,130454
16465,131054
16665,131054
" /> 
<polyline style="fill-rule:evenodd;"
points="17165,130454
16965,130454
16965,131054
17165,131054
" /> 
<polyline style="fill-rule:evenodd;"
points="17665,130454
17465,130454
17465,131054
17665,131054
" /> 
<polyline style="fill-rule:evenodd;"
points="18165,130454
17965,130454
17965,131054
18165,131054
" /> 
<polyline style="fill-rule:evenodd;"
points="18665,130454
18465,130454
18465,131054
18665,131054
" /> 
<polyline style="fill-rule:evenodd;"
points="19165,130454
18965,130454
18965,131054
19165,131054
" /> 
<polyline style="fill-rule:evenodd;"
points="19665,130454
19465,130454
19465,131054
19665,131054
" /> 
<polyline style="fill-rule:evenodd;"
points="20165,130454
19965,130454
19965,131054
20165,131054
" /> 
<polyline style="fill-rule:evenodd;"
points="20665,130454
20465,130454
20465,131054
20665,131054
" /> 
<polyline style="fill-rule:evenodd;"
points="21165,130454
20965,130454
20965,131054
21165,131054
" /> 
<polyline style="fill-rule:evenodd;"
points="21665,130454
21465,130454
21465,131054
21665,131054
" /> 
<polyline style="fill-rule:evenodd;"
points="22165,130454
21965,130454
21965,131054
22165,131054
" /> 
<polyline style="fill-rule:evenodd;"
points="22665,130454
22465,130454
22465,131054
22665,131054
" /> 
<polyline style="fill-rule:evenodd;"
points="23165,130454
22965,130454
22965,131054
23165,131054
" /> 
<polyline style="fill-rule:evenodd;"
points="23165,51310
22965,51310
22965,51910
23165,51910
" /> 
<polyline style="fill-rule:evenodd;"
points="22665,51310
22465,51310
22465,51910
22665,51910
" /> 
<polyline style="fill-rule:evenodd;"
points="22165,51310
21965,51310
21965,51910
22165,51910
" /> 
<polyline style="fill-rule:evenodd;"
points="21665,51310
21465,51310
21465,51910
21665,51910
" /> 
<polyline style="fill-rule:evenodd;"
points="21165,51310
20965,51310
20965,51910
21165,51910
" /> 
<polyline style="fill-rule:evenodd;"
points="20665,51310
20465,51310
20465,51910
20665,51910
" /> 
<polyline style="fill-rule:evenodd;"
points="20165,51310
19965,51310
19965,51910
20165,51910
" /> 
<polyline style="fill-rule:evenodd;"
points="19665,51310
19465,51310
19465,51910
19665,51910
" /> 
<polyline style="fill-rule:evenodd;"
points="19165,51310
18965,51310
18965,51910
19165,51910
" /> 
<polyline style="fill-rule:evenodd;"
points="18665,51310
18465,51310
18465,51910
18665,51910
" /> 
<polyline style="fill-rule:evenodd;"
points="18165,51310
17965,51310
17965,51910
18165,51910
" /> 
<polyline style="fill-rule:evenodd;"
points="17665,51310
17465,51310
17465,51910
17665,51910
" /> 
<polyline style="fill-rule:evenodd;"
points="17165,51310
16965,51310
16965,51910
17165,51910
" /> 
<polyline style="fill-rule:evenodd;"
points="16665,51310
16465,51310
16465,51910
16665,51910
" /> 
<polyline style="fill-rule:evenodd;"
points="16665,54854
16465,54854
16465,55454
16665,55454
" /> 
<polyline style="fill-rule:evenodd;"
points="17165,54854
16965,54854
16965,55454
17165,55454
" /> 
<polyline style="fill-rule:evenodd;"
points="17665,54854
17465,54854
17465,55454
17665,55454
" /> 
<polyline style="fill-rule:evenodd;"
points="18165,54854
17965,54854
17965,55454
18165,55454
" /> 
<polyline style="fill-rule:evenodd;"
points="18665,54854
18465,54854
18465,55454
18665,55454
" /> 
<polyline style="fill-rule:evenodd;"
points="19165,54854
18965,54854
18965,55454
19165,55454
" /> 
<polyline style="fill-rule:evenodd;"
points="19665,54854
19465,54854
19465,55454
19665,55454
" /> 
<polyline style="fill-rule:evenodd;"
points="20165,54854
19965,54854
19965,55454
20165,55454
" /> 
<polyline style="fill-rule:evenodd;"
points="20665,54854
20465,54854
20465,55454
20665,55454
" /> 
<polyline style="fill-rule:evenodd;"
points="21165,54854
20965,54854
20965,55454
21165,55454
" /> 
<polyline style="fill-rule:evenodd;"
points="21665,54854
21465,54854
21465,55454
21665,55454
" /> 
<polyline style="fill-rule:evenodd;"
points="22165,54854
21965,54854
21965,55454
22165,55454
" /> 
<polyline style="fill-rule:evenodd;"
points="22665,54854
22465,54854
22465,55454
22665,55454
" /> 
<polyline style="fill-rule:evenodd;"
points="23165,54854
22965,54854
22965,55454
23165,55454
" /> 
</g>
<g style="fill:#000000; fill-opacity:0.0; 
stroke:#000000; stroke-width:59.0551; stroke-opacity:1; 
stroke-linecap:round; stroke-linejoin:round;">
<path d="M14090 75536
L14090 75675
" />
<path d="M17141 75536
L17141 75675
" />
<path d="M17141 79729
L17141 79589
" />
<path d="M14090 79729
L14090 79589
" />
<path d="M14090 75536
L17141 75536
" />
<path d="M14090 79729
L17141 79729
" />
<path d="M14090 75675
L13490 75675
" />
<path d="M14815 110782
L15315 110782
" />
<path d="M15365 110832
L15365 111332
" />
<path d="M15315 111382
L14815 111382
" />
<path d="M14165 111332
L14165 110832
" />
<path d="M14715 110782
L14215 110782
" />
<path d="M14215 111382
L14715 111382
" />
<path d="M14815 110082
L15315 110082
" />
<path d="M15365 110132
L15365 110632
" />
<path d="M15315 110682
L14815 110682
" />
<path d="M14165 110632
L14165 110132
" />
<path d="M14715 110082
L14215 110082
" />
<path d="M14215 110682
L14715 110682
" />
<path d="M14815 109382
L15315 109382
" />
<path d="M15365 109432
L15365 109932
" />
<path d="M15315 109982
L14815 109982
" />
<path d="M14165 109932
L14165 109432
" />
<path d="M14715 109382
L14215 109382
" />
<path d="M14215 109982
L14715 109982
" />
<path d="M14915 35182
L15415 35182
" />
<path d="M15465 35232
L15465 35732
" />
<path d="M15415 35782
L14915 35782
" />
<path d="M14265 35732
L14265 35232
" />
<path d="M14815 35182
L14315 35182
" />
<path d="M14315 35782
L14815 35782
" />
<path d="M14915 34482
L15415 34482
" />
<path d="M15465 34532
L15465 35032
" />
<path d="M15415 35082
L14915 35082
" />
<path d="M14265 35032
L14265 34532
" />
<path d="M14815 34482
L14315 34482
" />
<path d="M14315 35082
L14815 35082
" />
<path d="M14915 33782
L15415 33782
" />
<path d="M15465 33832
L15465 34332
" />
<path d="M15415 34382
L14915 34382
" />
<path d="M14265 34332
L14265 33832
" />
<path d="M14815 33782
L14315 33782
" />
<path d="M14315 34382
L14815 34382
" />
<path d="M15215 129582
L15715 129582
" />
<path d="M15765 129632
L15765 130132
" />
<path d="M15715 130182
L15215 130182
" />
<path d="M14565 130132
L14565 129632
" />
<path d="M15115 129582
L14615 129582
" />
<path d="M14615 130182
L15115 130182
" />
<path d="M15215 128882
L15715 128882
" />
<path d="M15765 128932
L15765 129432
" />
<path d="M15715 129482
L15215 129482
" />
<path d="M14565 129432
L14565 128932
" />
<path d="M15115 128882
L14615 128882
" />
<path d="M14615 129482
L15115 129482
" />
<path d="M15215 128182
L15715 128182
" />
<path d="M15765 128232
L15765 128732
" />
<path d="M15715 128782
L15215 128782
" />
<path d="M14565 128732
L14565 128232
" />
<path d="M15115 128182
L14615 128182
" />
<path d="M14615 128782
L15115 128782
" />
<path d="M15215 53982
L15715 53982
" />
<path d="M15765 54032
L15765 54532
" />
<path d="M15715 54582
L15215 54582
" />
<path d="M14565 54532
L14565 54032
" />
<path d="M15115 53982
L14615 53982
" />
<path d="M14615 54582
L15115 54582
" />
<path d="M15215 53282
L15715 53282
" />
<path d="M15765 53332
L15765 53832
" />
<path d="M15715 53882
L15215 53882
" />
<path d="M14565 53832
L14565 53332
" />
<path d="M15115 53282
L14615 53282
" />
<path d="M14615 53882
L15115 53882
" />
<path d="M15215 52582
L15715 52582
" />
<path d="M15765 52632
L15765 53132
" />
<path d="M15715 53182
L15215 53182
" />
<path d="M14565 53132
L14565 52632
" />
<path d="M15115 52582
L14615 52582
" />
<path d="M14615 53182
L15115 53182
" />
</g> 
</svg>
